<?xml version="1.0" encoding="utf-8" standalone="no"?>
<!DOCTYPE svg PUBLIC "-//W3C//DTD SVG 1.1//EN"
  "http://www.w3.org/Graphics/SVG/1.1/DTD/svg11.dtd">
<!-- Created with matplotlib (https://matplotlib.org/) -->
<svg height="432pt" version="1.1" viewBox="0 0 720 432" width="720pt" xmlns="http://www.w3.org/2000/svg" xmlns:xlink="http://www.w3.org/1999/xlink">
 <metadata>
  <rdf:RDF xmlns:cc="http://creativecommons.org/ns#" xmlns:dc="http://purl.org/dc/elements/1.1/" xmlns:rdf="http://www.w3.org/1999/02/22-rdf-syntax-ns#">
   <cc:Work>
    <dc:type rdf:resource="http://purl.org/dc/dcmitype/StillImage"/>
    <dc:date>2025-08-01T16:24:58.238909</dc:date>
    <dc:format>image/svg+xml</dc:format>
    <dc:creator>
     <cc:Agent>
      <dc:title>Matplotlib v3.3.3, https://matplotlib.org/</dc:title>
     </cc:Agent>
    </dc:creator>
   </cc:Work>
  </rdf:RDF>
 </metadata>
 <defs>
  <style type="text/css">*{stroke-linecap:butt;stroke-linejoin:round;}</style>
 </defs>
 <g id="figure_1">
  <g id="patch_1">
   <path d="M 0 432 
L 720 432 
L 720 0 
L 0 0 
z
" style="fill:#ffffff;"/>
  </g>
  <g id="axes_1">
   <g id="patch_2">
    <path d="M 90 384.48 
L 648 384.48 
L 648 51.84 
L 90 51.84 
z
" style="fill:#ffffff;"/>
   </g>
   <g id="matplotlib.axis_1">
    <g id="xtick_1">
     <g id="line2d_1">
      <path clip-path="url(#p45b0f616b6)" d="M 114.855347 384.48 
L 114.855347 51.84 
" style="fill:none;stroke:#b0b0b0;stroke-linecap:square;stroke-width:0.8;"/>
     </g>
     <g id="line2d_2">
      <defs>
       <path d="M 0 0 
L 0 3.5 
" id="mbf57bfeb6e" style="stroke:#000000;stroke-width:0.8;"/>
      </defs>
      <g>
       <use style="stroke:#000000;stroke-width:0.8;" x="114.855347" xlink:href="#mbf57bfeb6e" y="384.48"/>
      </g>
     </g>
     <g id="text_1">
      <!-- 0 -->
      <g transform="translate(111.674097 399.078438)scale(0.1 -0.1)">
       <defs>
        <path d="M 31.78125 66.40625 
Q 24.171875 66.40625 20.328125 58.90625 
Q 16.5 51.421875 16.5 36.375 
Q 16.5 21.390625 20.328125 13.890625 
Q 24.171875 6.390625 31.78125 6.390625 
Q 39.453125 6.390625 43.28125 13.890625 
Q 47.125 21.390625 47.125 36.375 
Q 47.125 51.421875 43.28125 58.90625 
Q 39.453125 66.40625 31.78125 66.40625 
z
M 31.78125 74.21875 
Q 44.046875 74.21875 50.515625 64.515625 
Q 56.984375 54.828125 56.984375 36.375 
Q 56.984375 17.96875 50.515625 8.265625 
Q 44.046875 -1.421875 31.78125 -1.421875 
Q 19.53125 -1.421875 13.0625 8.265625 
Q 6.59375 17.96875 6.59375 36.375 
Q 6.59375 54.828125 13.0625 64.515625 
Q 19.53125 74.21875 31.78125 74.21875 
z
" id="DejaVuSans-48"/>
       </defs>
       <use xlink:href="#DejaVuSans-48"/>
      </g>
     </g>
    </g>
    <g id="xtick_2">
     <g id="line2d_3">
      <path clip-path="url(#p45b0f616b6)" d="M 178.39151 384.48 
L 178.39151 51.84 
" style="fill:none;stroke:#b0b0b0;stroke-linecap:square;stroke-width:0.8;"/>
     </g>
     <g id="line2d_4">
      <g>
       <use style="stroke:#000000;stroke-width:0.8;" x="178.39151" xlink:href="#mbf57bfeb6e" y="384.48"/>
      </g>
     </g>
     <g id="text_2">
      <!-- 50000 -->
      <g transform="translate(162.48526 399.078438)scale(0.1 -0.1)">
       <defs>
        <path d="M 10.796875 72.90625 
L 49.515625 72.90625 
L 49.515625 64.59375 
L 19.828125 64.59375 
L 19.828125 46.734375 
Q 21.96875 47.46875 24.109375 47.828125 
Q 26.265625 48.1875 28.421875 48.1875 
Q 40.625 48.1875 47.75 41.5 
Q 54.890625 34.8125 54.890625 23.390625 
Q 54.890625 11.625 47.5625 5.09375 
Q 40.234375 -1.421875 26.90625 -1.421875 
Q 22.3125 -1.421875 17.546875 -0.640625 
Q 12.796875 0.140625 7.71875 1.703125 
L 7.71875 11.625 
Q 12.109375 9.234375 16.796875 8.0625 
Q 21.484375 6.890625 26.703125 6.890625 
Q 35.15625 6.890625 40.078125 11.328125 
Q 45.015625 15.765625 45.015625 23.390625 
Q 45.015625 31 40.078125 35.4375 
Q 35.15625 39.890625 26.703125 39.890625 
Q 22.75 39.890625 18.8125 39.015625 
Q 14.890625 38.140625 10.796875 36.28125 
z
" id="DejaVuSans-53"/>
       </defs>
       <use xlink:href="#DejaVuSans-53"/>
       <use x="63.623047" xlink:href="#DejaVuSans-48"/>
       <use x="127.246094" xlink:href="#DejaVuSans-48"/>
       <use x="190.869141" xlink:href="#DejaVuSans-48"/>
       <use x="254.492188" xlink:href="#DejaVuSans-48"/>
      </g>
     </g>
    </g>
    <g id="xtick_3">
     <g id="line2d_5">
      <path clip-path="url(#p45b0f616b6)" d="M 241.927674 384.48 
L 241.927674 51.84 
" style="fill:none;stroke:#b0b0b0;stroke-linecap:square;stroke-width:0.8;"/>
     </g>
     <g id="line2d_6">
      <g>
       <use style="stroke:#000000;stroke-width:0.8;" x="241.927674" xlink:href="#mbf57bfeb6e" y="384.48"/>
      </g>
     </g>
     <g id="text_3">
      <!-- 100000 -->
      <g transform="translate(222.840174 399.078438)scale(0.1 -0.1)">
       <defs>
        <path d="M 12.40625 8.296875 
L 28.515625 8.296875 
L 28.515625 63.921875 
L 10.984375 60.40625 
L 10.984375 69.390625 
L 28.421875 72.90625 
L 38.28125 72.90625 
L 38.28125 8.296875 
L 54.390625 8.296875 
L 54.390625 0 
L 12.40625 0 
z
" id="DejaVuSans-49"/>
       </defs>
       <use xlink:href="#DejaVuSans-49"/>
       <use x="63.623047" xlink:href="#DejaVuSans-48"/>
       <use x="127.246094" xlink:href="#DejaVuSans-48"/>
       <use x="190.869141" xlink:href="#DejaVuSans-48"/>
       <use x="254.492188" xlink:href="#DejaVuSans-48"/>
       <use x="318.115234" xlink:href="#DejaVuSans-48"/>
      </g>
     </g>
    </g>
    <g id="xtick_4">
     <g id="line2d_7">
      <path clip-path="url(#p45b0f616b6)" d="M 305.463837 384.48 
L 305.463837 51.84 
" style="fill:none;stroke:#b0b0b0;stroke-linecap:square;stroke-width:0.8;"/>
     </g>
     <g id="line2d_8">
      <g>
       <use style="stroke:#000000;stroke-width:0.8;" x="305.463837" xlink:href="#mbf57bfeb6e" y="384.48"/>
      </g>
     </g>
     <g id="text_4">
      <!-- 150000 -->
      <g transform="translate(286.376337 399.078438)scale(0.1 -0.1)">
       <use xlink:href="#DejaVuSans-49"/>
       <use x="63.623047" xlink:href="#DejaVuSans-53"/>
       <use x="127.246094" xlink:href="#DejaVuSans-48"/>
       <use x="190.869141" xlink:href="#DejaVuSans-48"/>
       <use x="254.492188" xlink:href="#DejaVuSans-48"/>
       <use x="318.115234" xlink:href="#DejaVuSans-48"/>
      </g>
     </g>
    </g>
    <g id="xtick_5">
     <g id="line2d_9">
      <path clip-path="url(#p45b0f616b6)" d="M 369 384.48 
L 369 51.84 
" style="fill:none;stroke:#b0b0b0;stroke-linecap:square;stroke-width:0.8;"/>
     </g>
     <g id="line2d_10">
      <g>
       <use style="stroke:#000000;stroke-width:0.8;" x="369" xlink:href="#mbf57bfeb6e" y="384.48"/>
      </g>
     </g>
     <g id="text_5">
      <!-- 200000 -->
      <g transform="translate(349.9125 399.078438)scale(0.1 -0.1)">
       <defs>
        <path d="M 19.1875 8.296875 
L 53.609375 8.296875 
L 53.609375 0 
L 7.328125 0 
L 7.328125 8.296875 
Q 12.9375 14.109375 22.625 23.890625 
Q 32.328125 33.6875 34.8125 36.53125 
Q 39.546875 41.84375 41.421875 45.53125 
Q 43.3125 49.21875 43.3125 52.78125 
Q 43.3125 58.59375 39.234375 62.25 
Q 35.15625 65.921875 28.609375 65.921875 
Q 23.96875 65.921875 18.8125 64.3125 
Q 13.671875 62.703125 7.8125 59.421875 
L 7.8125 69.390625 
Q 13.765625 71.78125 18.9375 73 
Q 24.125 74.21875 28.421875 74.21875 
Q 39.75 74.21875 46.484375 68.546875 
Q 53.21875 62.890625 53.21875 53.421875 
Q 53.21875 48.921875 51.53125 44.890625 
Q 49.859375 40.875 45.40625 35.40625 
Q 44.1875 33.984375 37.640625 27.21875 
Q 31.109375 20.453125 19.1875 8.296875 
z
" id="DejaVuSans-50"/>
       </defs>
       <use xlink:href="#DejaVuSans-50"/>
       <use x="63.623047" xlink:href="#DejaVuSans-48"/>
       <use x="127.246094" xlink:href="#DejaVuSans-48"/>
       <use x="190.869141" xlink:href="#DejaVuSans-48"/>
       <use x="254.492188" xlink:href="#DejaVuSans-48"/>
       <use x="318.115234" xlink:href="#DejaVuSans-48"/>
      </g>
     </g>
    </g>
    <g id="xtick_6">
     <g id="line2d_11">
      <path clip-path="url(#p45b0f616b6)" d="M 432.536163 384.48 
L 432.536163 51.84 
" style="fill:none;stroke:#b0b0b0;stroke-linecap:square;stroke-width:0.8;"/>
     </g>
     <g id="line2d_12">
      <g>
       <use style="stroke:#000000;stroke-width:0.8;" x="432.536163" xlink:href="#mbf57bfeb6e" y="384.48"/>
      </g>
     </g>
     <g id="text_6">
      <!-- 250000 -->
      <g transform="translate(413.448663 399.078438)scale(0.1 -0.1)">
       <use xlink:href="#DejaVuSans-50"/>
       <use x="63.623047" xlink:href="#DejaVuSans-53"/>
       <use x="127.246094" xlink:href="#DejaVuSans-48"/>
       <use x="190.869141" xlink:href="#DejaVuSans-48"/>
       <use x="254.492188" xlink:href="#DejaVuSans-48"/>
       <use x="318.115234" xlink:href="#DejaVuSans-48"/>
      </g>
     </g>
    </g>
    <g id="xtick_7">
     <g id="line2d_13">
      <path clip-path="url(#p45b0f616b6)" d="M 496.072326 384.48 
L 496.072326 51.84 
" style="fill:none;stroke:#b0b0b0;stroke-linecap:square;stroke-width:0.8;"/>
     </g>
     <g id="line2d_14">
      <g>
       <use style="stroke:#000000;stroke-width:0.8;" x="496.072326" xlink:href="#mbf57bfeb6e" y="384.48"/>
      </g>
     </g>
     <g id="text_7">
      <!-- 300000 -->
      <g transform="translate(476.984826 399.078438)scale(0.1 -0.1)">
       <defs>
        <path d="M 40.578125 39.3125 
Q 47.65625 37.796875 51.625 33 
Q 55.609375 28.21875 55.609375 21.1875 
Q 55.609375 10.40625 48.1875 4.484375 
Q 40.765625 -1.421875 27.09375 -1.421875 
Q 22.515625 -1.421875 17.65625 -0.515625 
Q 12.796875 0.390625 7.625 2.203125 
L 7.625 11.71875 
Q 11.71875 9.328125 16.59375 8.109375 
Q 21.484375 6.890625 26.8125 6.890625 
Q 36.078125 6.890625 40.9375 10.546875 
Q 45.796875 14.203125 45.796875 21.1875 
Q 45.796875 27.640625 41.28125 31.265625 
Q 36.765625 34.90625 28.71875 34.90625 
L 20.21875 34.90625 
L 20.21875 43.015625 
L 29.109375 43.015625 
Q 36.375 43.015625 40.234375 45.921875 
Q 44.09375 48.828125 44.09375 54.296875 
Q 44.09375 59.90625 40.109375 62.90625 
Q 36.140625 65.921875 28.71875 65.921875 
Q 24.65625 65.921875 20.015625 65.03125 
Q 15.375 64.15625 9.8125 62.3125 
L 9.8125 71.09375 
Q 15.4375 72.65625 20.34375 73.4375 
Q 25.25 74.21875 29.59375 74.21875 
Q 40.828125 74.21875 47.359375 69.109375 
Q 53.90625 64.015625 53.90625 55.328125 
Q 53.90625 49.265625 50.4375 45.09375 
Q 46.96875 40.921875 40.578125 39.3125 
z
" id="DejaVuSans-51"/>
       </defs>
       <use xlink:href="#DejaVuSans-51"/>
       <use x="63.623047" xlink:href="#DejaVuSans-48"/>
       <use x="127.246094" xlink:href="#DejaVuSans-48"/>
       <use x="190.869141" xlink:href="#DejaVuSans-48"/>
       <use x="254.492188" xlink:href="#DejaVuSans-48"/>
       <use x="318.115234" xlink:href="#DejaVuSans-48"/>
      </g>
     </g>
    </g>
    <g id="xtick_8">
     <g id="line2d_15">
      <path clip-path="url(#p45b0f616b6)" d="M 559.60849 384.48 
L 559.60849 51.84 
" style="fill:none;stroke:#b0b0b0;stroke-linecap:square;stroke-width:0.8;"/>
     </g>
     <g id="line2d_16">
      <g>
       <use style="stroke:#000000;stroke-width:0.8;" x="559.60849" xlink:href="#mbf57bfeb6e" y="384.48"/>
      </g>
     </g>
     <g id="text_8">
      <!-- 350000 -->
      <g transform="translate(540.52099 399.078438)scale(0.1 -0.1)">
       <use xlink:href="#DejaVuSans-51"/>
       <use x="63.623047" xlink:href="#DejaVuSans-53"/>
       <use x="127.246094" xlink:href="#DejaVuSans-48"/>
       <use x="190.869141" xlink:href="#DejaVuSans-48"/>
       <use x="254.492188" xlink:href="#DejaVuSans-48"/>
       <use x="318.115234" xlink:href="#DejaVuSans-48"/>
      </g>
     </g>
    </g>
    <g id="xtick_9">
     <g id="line2d_17">
      <path clip-path="url(#p45b0f616b6)" d="M 623.144653 384.48 
L 623.144653 51.84 
" style="fill:none;stroke:#b0b0b0;stroke-linecap:square;stroke-width:0.8;"/>
     </g>
     <g id="line2d_18">
      <g>
       <use style="stroke:#000000;stroke-width:0.8;" x="623.144653" xlink:href="#mbf57bfeb6e" y="384.48"/>
      </g>
     </g>
     <g id="text_9">
      <!-- 400000 -->
      <g transform="translate(604.057153 399.078438)scale(0.1 -0.1)">
       <defs>
        <path d="M 37.796875 64.3125 
L 12.890625 25.390625 
L 37.796875 25.390625 
z
M 35.203125 72.90625 
L 47.609375 72.90625 
L 47.609375 25.390625 
L 58.015625 25.390625 
L 58.015625 17.1875 
L 47.609375 17.1875 
L 47.609375 0 
L 37.796875 0 
L 37.796875 17.1875 
L 4.890625 17.1875 
L 4.890625 26.703125 
z
" id="DejaVuSans-52"/>
       </defs>
       <use xlink:href="#DejaVuSans-52"/>
       <use x="63.623047" xlink:href="#DejaVuSans-48"/>
       <use x="127.246094" xlink:href="#DejaVuSans-48"/>
       <use x="190.869141" xlink:href="#DejaVuSans-48"/>
       <use x="254.492188" xlink:href="#DejaVuSans-48"/>
       <use x="318.115234" xlink:href="#DejaVuSans-48"/>
      </g>
     </g>
    </g>
    <g id="text_10">
     <!-- Step -->
     <g transform="translate(355.337812 414.27625)scale(0.12 -0.12)">
      <defs>
       <path d="M 53.515625 70.515625 
L 53.515625 60.890625 
Q 47.90625 63.578125 42.921875 64.890625 
Q 37.9375 66.21875 33.296875 66.21875 
Q 25.25 66.21875 20.875 63.09375 
Q 16.5 59.96875 16.5 54.203125 
Q 16.5 49.359375 19.40625 46.890625 
Q 22.3125 44.4375 30.421875 42.921875 
L 36.375 41.703125 
Q 47.40625 39.59375 52.65625 34.296875 
Q 57.90625 29 57.90625 20.125 
Q 57.90625 9.515625 50.796875 4.046875 
Q 43.703125 -1.421875 29.984375 -1.421875 
Q 24.8125 -1.421875 18.96875 -0.25 
Q 13.140625 0.921875 6.890625 3.21875 
L 6.890625 13.375 
Q 12.890625 10.015625 18.65625 8.296875 
Q 24.421875 6.59375 29.984375 6.59375 
Q 38.421875 6.59375 43.015625 9.90625 
Q 47.609375 13.234375 47.609375 19.390625 
Q 47.609375 24.75 44.3125 27.78125 
Q 41.015625 30.8125 33.5 32.328125 
L 27.484375 33.5 
Q 16.453125 35.6875 11.515625 40.375 
Q 6.59375 45.0625 6.59375 53.421875 
Q 6.59375 63.09375 13.40625 68.65625 
Q 20.21875 74.21875 32.171875 74.21875 
Q 37.3125 74.21875 42.625 73.28125 
Q 47.953125 72.359375 53.515625 70.515625 
z
" id="DejaVuSans-83"/>
       <path d="M 18.3125 70.21875 
L 18.3125 54.6875 
L 36.8125 54.6875 
L 36.8125 47.703125 
L 18.3125 47.703125 
L 18.3125 18.015625 
Q 18.3125 11.328125 20.140625 9.421875 
Q 21.96875 7.515625 27.59375 7.515625 
L 36.8125 7.515625 
L 36.8125 0 
L 27.59375 0 
Q 17.1875 0 13.234375 3.875 
Q 9.28125 7.765625 9.28125 18.015625 
L 9.28125 47.703125 
L 2.6875 47.703125 
L 2.6875 54.6875 
L 9.28125 54.6875 
L 9.28125 70.21875 
z
" id="DejaVuSans-116"/>
       <path d="M 56.203125 29.59375 
L 56.203125 25.203125 
L 14.890625 25.203125 
Q 15.484375 15.921875 20.484375 11.0625 
Q 25.484375 6.203125 34.421875 6.203125 
Q 39.59375 6.203125 44.453125 7.46875 
Q 49.3125 8.734375 54.109375 11.28125 
L 54.109375 2.78125 
Q 49.265625 0.734375 44.1875 -0.34375 
Q 39.109375 -1.421875 33.890625 -1.421875 
Q 20.796875 -1.421875 13.15625 6.1875 
Q 5.515625 13.8125 5.515625 26.8125 
Q 5.515625 40.234375 12.765625 48.109375 
Q 20.015625 56 32.328125 56 
Q 43.359375 56 49.78125 48.890625 
Q 56.203125 41.796875 56.203125 29.59375 
z
M 47.21875 32.234375 
Q 47.125 39.59375 43.09375 43.984375 
Q 39.0625 48.390625 32.421875 48.390625 
Q 24.90625 48.390625 20.390625 44.140625 
Q 15.875 39.890625 15.1875 32.171875 
z
" id="DejaVuSans-101"/>
       <path d="M 18.109375 8.203125 
L 18.109375 -20.796875 
L 9.078125 -20.796875 
L 9.078125 54.6875 
L 18.109375 54.6875 
L 18.109375 46.390625 
Q 20.953125 51.265625 25.265625 53.625 
Q 29.59375 56 35.59375 56 
Q 45.5625 56 51.78125 48.09375 
Q 58.015625 40.1875 58.015625 27.296875 
Q 58.015625 14.40625 51.78125 6.484375 
Q 45.5625 -1.421875 35.59375 -1.421875 
Q 29.59375 -1.421875 25.265625 0.953125 
Q 20.953125 3.328125 18.109375 8.203125 
z
M 48.6875 27.296875 
Q 48.6875 37.203125 44.609375 42.84375 
Q 40.53125 48.484375 33.40625 48.484375 
Q 26.265625 48.484375 22.1875 42.84375 
Q 18.109375 37.203125 18.109375 27.296875 
Q 18.109375 17.390625 22.1875 11.75 
Q 26.265625 6.109375 33.40625 6.109375 
Q 40.53125 6.109375 44.609375 11.75 
Q 48.6875 17.390625 48.6875 27.296875 
z
" id="DejaVuSans-112"/>
      </defs>
      <use xlink:href="#DejaVuSans-83"/>
      <use x="63.476562" xlink:href="#DejaVuSans-116"/>
      <use x="102.685547" xlink:href="#DejaVuSans-101"/>
      <use x="164.208984" xlink:href="#DejaVuSans-112"/>
     </g>
    </g>
   </g>
   <g id="matplotlib.axis_2">
    <g id="ytick_1">
     <g id="line2d_19">
      <path clip-path="url(#p45b0f616b6)" d="M 90 348.308956 
L 648 348.308956 
" style="fill:none;stroke:#b0b0b0;stroke-linecap:square;stroke-width:0.8;"/>
     </g>
     <g id="line2d_20">
      <defs>
       <path d="M 0 0 
L -3.5 0 
" id="m61c897b038" style="stroke:#000000;stroke-width:0.8;"/>
      </defs>
      <g>
       <use style="stroke:#000000;stroke-width:0.8;" x="90" xlink:href="#m61c897b038" y="348.308956"/>
      </g>
     </g>
     <g id="text_11">
      <!-- 500 -->
      <g transform="translate(63.9125 352.108175)scale(0.1 -0.1)">
       <use xlink:href="#DejaVuSans-53"/>
       <use x="63.623047" xlink:href="#DejaVuSans-48"/>
       <use x="127.246094" xlink:href="#DejaVuSans-48"/>
      </g>
     </g>
    </g>
    <g id="ytick_2">
     <g id="line2d_21">
      <path clip-path="url(#p45b0f616b6)" d="M 90 306.881327 
L 648 306.881327 
" style="fill:none;stroke:#b0b0b0;stroke-linecap:square;stroke-width:0.8;"/>
     </g>
     <g id="line2d_22">
      <g>
       <use style="stroke:#000000;stroke-width:0.8;" x="90" xlink:href="#m61c897b038" y="306.881327"/>
      </g>
     </g>
     <g id="text_12">
      <!-- 1000 -->
      <g transform="translate(57.55 310.680545)scale(0.1 -0.1)">
       <use xlink:href="#DejaVuSans-49"/>
       <use x="63.623047" xlink:href="#DejaVuSans-48"/>
       <use x="127.246094" xlink:href="#DejaVuSans-48"/>
       <use x="190.869141" xlink:href="#DejaVuSans-48"/>
      </g>
     </g>
    </g>
    <g id="ytick_3">
     <g id="line2d_23">
      <path clip-path="url(#p45b0f616b6)" d="M 90 265.453697 
L 648 265.453697 
" style="fill:none;stroke:#b0b0b0;stroke-linecap:square;stroke-width:0.8;"/>
     </g>
     <g id="line2d_24">
      <g>
       <use style="stroke:#000000;stroke-width:0.8;" x="90" xlink:href="#m61c897b038" y="265.453697"/>
      </g>
     </g>
     <g id="text_13">
      <!-- 1500 -->
      <g transform="translate(57.55 269.252916)scale(0.1 -0.1)">
       <use xlink:href="#DejaVuSans-49"/>
       <use x="63.623047" xlink:href="#DejaVuSans-53"/>
       <use x="127.246094" xlink:href="#DejaVuSans-48"/>
       <use x="190.869141" xlink:href="#DejaVuSans-48"/>
      </g>
     </g>
    </g>
    <g id="ytick_4">
     <g id="line2d_25">
      <path clip-path="url(#p45b0f616b6)" d="M 90 224.026067 
L 648 224.026067 
" style="fill:none;stroke:#b0b0b0;stroke-linecap:square;stroke-width:0.8;"/>
     </g>
     <g id="line2d_26">
      <g>
       <use style="stroke:#000000;stroke-width:0.8;" x="90" xlink:href="#m61c897b038" y="224.026067"/>
      </g>
     </g>
     <g id="text_14">
      <!-- 2000 -->
      <g transform="translate(57.55 227.825286)scale(0.1 -0.1)">
       <use xlink:href="#DejaVuSans-50"/>
       <use x="63.623047" xlink:href="#DejaVuSans-48"/>
       <use x="127.246094" xlink:href="#DejaVuSans-48"/>
       <use x="190.869141" xlink:href="#DejaVuSans-48"/>
      </g>
     </g>
    </g>
    <g id="ytick_5">
     <g id="line2d_27">
      <path clip-path="url(#p45b0f616b6)" d="M 90 182.598438 
L 648 182.598438 
" style="fill:none;stroke:#b0b0b0;stroke-linecap:square;stroke-width:0.8;"/>
     </g>
     <g id="line2d_28">
      <g>
       <use style="stroke:#000000;stroke-width:0.8;" x="90" xlink:href="#m61c897b038" y="182.598438"/>
      </g>
     </g>
     <g id="text_15">
      <!-- 2500 -->
      <g transform="translate(57.55 186.397656)scale(0.1 -0.1)">
       <use xlink:href="#DejaVuSans-50"/>
       <use x="63.623047" xlink:href="#DejaVuSans-53"/>
       <use x="127.246094" xlink:href="#DejaVuSans-48"/>
       <use x="190.869141" xlink:href="#DejaVuSans-48"/>
      </g>
     </g>
    </g>
    <g id="ytick_6">
     <g id="line2d_29">
      <path clip-path="url(#p45b0f616b6)" d="M 90 141.170808 
L 648 141.170808 
" style="fill:none;stroke:#b0b0b0;stroke-linecap:square;stroke-width:0.8;"/>
     </g>
     <g id="line2d_30">
      <g>
       <use style="stroke:#000000;stroke-width:0.8;" x="90" xlink:href="#m61c897b038" y="141.170808"/>
      </g>
     </g>
     <g id="text_16">
      <!-- 3000 -->
      <g transform="translate(57.55 144.970027)scale(0.1 -0.1)">
       <use xlink:href="#DejaVuSans-51"/>
       <use x="63.623047" xlink:href="#DejaVuSans-48"/>
       <use x="127.246094" xlink:href="#DejaVuSans-48"/>
       <use x="190.869141" xlink:href="#DejaVuSans-48"/>
      </g>
     </g>
    </g>
    <g id="ytick_7">
     <g id="line2d_31">
      <path clip-path="url(#p45b0f616b6)" d="M 90 99.743178 
L 648 99.743178 
" style="fill:none;stroke:#b0b0b0;stroke-linecap:square;stroke-width:0.8;"/>
     </g>
     <g id="line2d_32">
      <g>
       <use style="stroke:#000000;stroke-width:0.8;" x="90" xlink:href="#m61c897b038" y="99.743178"/>
      </g>
     </g>
     <g id="text_17">
      <!-- 3500 -->
      <g transform="translate(57.55 103.542397)scale(0.1 -0.1)">
       <use xlink:href="#DejaVuSans-51"/>
       <use x="63.623047" xlink:href="#DejaVuSans-53"/>
       <use x="127.246094" xlink:href="#DejaVuSans-48"/>
       <use x="190.869141" xlink:href="#DejaVuSans-48"/>
      </g>
     </g>
    </g>
    <g id="ytick_8">
     <g id="line2d_33">
      <path clip-path="url(#p45b0f616b6)" d="M 90 58.315549 
L 648 58.315549 
" style="fill:none;stroke:#b0b0b0;stroke-linecap:square;stroke-width:0.8;"/>
     </g>
     <g id="line2d_34">
      <g>
       <use style="stroke:#000000;stroke-width:0.8;" x="90" xlink:href="#m61c897b038" y="58.315549"/>
      </g>
     </g>
     <g id="text_18">
      <!-- 4000 -->
      <g transform="translate(57.55 62.114768)scale(0.1 -0.1)">
       <use xlink:href="#DejaVuSans-52"/>
       <use x="63.623047" xlink:href="#DejaVuSans-48"/>
       <use x="127.246094" xlink:href="#DejaVuSans-48"/>
       <use x="190.869141" xlink:href="#DejaVuSans-48"/>
      </g>
     </g>
    </g>
    <g id="text_19">
     <!-- Reward -->
     <g transform="translate(51.054375 240.505312)rotate(-90)scale(0.12 -0.12)">
      <defs>
       <path d="M 44.390625 34.1875 
Q 47.5625 33.109375 50.5625 29.59375 
Q 53.5625 26.078125 56.59375 19.921875 
L 66.609375 0 
L 56 0 
L 46.6875 18.703125 
Q 43.0625 26.03125 39.671875 28.421875 
Q 36.28125 30.8125 30.421875 30.8125 
L 19.671875 30.8125 
L 19.671875 0 
L 9.8125 0 
L 9.8125 72.90625 
L 32.078125 72.90625 
Q 44.578125 72.90625 50.734375 67.671875 
Q 56.890625 62.453125 56.890625 51.90625 
Q 56.890625 45.015625 53.6875 40.46875 
Q 50.484375 35.9375 44.390625 34.1875 
z
M 19.671875 64.796875 
L 19.671875 38.921875 
L 32.078125 38.921875 
Q 39.203125 38.921875 42.84375 42.21875 
Q 46.484375 45.515625 46.484375 51.90625 
Q 46.484375 58.296875 42.84375 61.546875 
Q 39.203125 64.796875 32.078125 64.796875 
z
" id="DejaVuSans-82"/>
       <path d="M 4.203125 54.6875 
L 13.1875 54.6875 
L 24.421875 12.015625 
L 35.59375 54.6875 
L 46.1875 54.6875 
L 57.421875 12.015625 
L 68.609375 54.6875 
L 77.59375 54.6875 
L 63.28125 0 
L 52.6875 0 
L 40.921875 44.828125 
L 29.109375 0 
L 18.5 0 
z
" id="DejaVuSans-119"/>
       <path d="M 34.28125 27.484375 
Q 23.390625 27.484375 19.1875 25 
Q 14.984375 22.515625 14.984375 16.5 
Q 14.984375 11.71875 18.140625 8.90625 
Q 21.296875 6.109375 26.703125 6.109375 
Q 34.1875 6.109375 38.703125 11.40625 
Q 43.21875 16.703125 43.21875 25.484375 
L 43.21875 27.484375 
z
M 52.203125 31.203125 
L 52.203125 0 
L 43.21875 0 
L 43.21875 8.296875 
Q 40.140625 3.328125 35.546875 0.953125 
Q 30.953125 -1.421875 24.3125 -1.421875 
Q 15.921875 -1.421875 10.953125 3.296875 
Q 6 8.015625 6 15.921875 
Q 6 25.140625 12.171875 29.828125 
Q 18.359375 34.515625 30.609375 34.515625 
L 43.21875 34.515625 
L 43.21875 35.40625 
Q 43.21875 41.609375 39.140625 45 
Q 35.0625 48.390625 27.6875 48.390625 
Q 23 48.390625 18.546875 47.265625 
Q 14.109375 46.140625 10.015625 43.890625 
L 10.015625 52.203125 
Q 14.9375 54.109375 19.578125 55.046875 
Q 24.21875 56 28.609375 56 
Q 40.484375 56 46.34375 49.84375 
Q 52.203125 43.703125 52.203125 31.203125 
z
" id="DejaVuSans-97"/>
       <path d="M 41.109375 46.296875 
Q 39.59375 47.171875 37.8125 47.578125 
Q 36.03125 48 33.890625 48 
Q 26.265625 48 22.1875 43.046875 
Q 18.109375 38.09375 18.109375 28.8125 
L 18.109375 0 
L 9.078125 0 
L 9.078125 54.6875 
L 18.109375 54.6875 
L 18.109375 46.1875 
Q 20.953125 51.171875 25.484375 53.578125 
Q 30.03125 56 36.53125 56 
Q 37.453125 56 38.578125 55.875 
Q 39.703125 55.765625 41.0625 55.515625 
z
" id="DejaVuSans-114"/>
       <path d="M 45.40625 46.390625 
L 45.40625 75.984375 
L 54.390625 75.984375 
L 54.390625 0 
L 45.40625 0 
L 45.40625 8.203125 
Q 42.578125 3.328125 38.25 0.953125 
Q 33.9375 -1.421875 27.875 -1.421875 
Q 17.96875 -1.421875 11.734375 6.484375 
Q 5.515625 14.40625 5.515625 27.296875 
Q 5.515625 40.1875 11.734375 48.09375 
Q 17.96875 56 27.875 56 
Q 33.9375 56 38.25 53.625 
Q 42.578125 51.265625 45.40625 46.390625 
z
M 14.796875 27.296875 
Q 14.796875 17.390625 18.875 11.75 
Q 22.953125 6.109375 30.078125 6.109375 
Q 37.203125 6.109375 41.296875 11.75 
Q 45.40625 17.390625 45.40625 27.296875 
Q 45.40625 37.203125 41.296875 42.84375 
Q 37.203125 48.484375 30.078125 48.484375 
Q 22.953125 48.484375 18.875 42.84375 
Q 14.796875 37.203125 14.796875 27.296875 
z
" id="DejaVuSans-100"/>
      </defs>
      <use xlink:href="#DejaVuSans-82"/>
      <use x="64.982422" xlink:href="#DejaVuSans-101"/>
      <use x="126.505859" xlink:href="#DejaVuSans-119"/>
      <use x="208.292969" xlink:href="#DejaVuSans-97"/>
      <use x="269.572266" xlink:href="#DejaVuSans-114"/>
      <use x="308.935547" xlink:href="#DejaVuSans-100"/>
     </g>
    </g>
   </g>
   <g id="line2d_35">
    <path clip-path="url(#p45b0f616b6)" d="M 115.363636 363.771127 
L 115.871926 336.244152 
L 116.380215 353.766371 
L 116.888504 345.368536 
L 117.396794 347.337473 
L 117.905083 353.2732 
L 118.413372 319.827949 
L 118.921662 340.088729 
L 119.429951 308.208867 
L 119.93824 330.154004 
L 120.446529 345.712306 
L 120.954819 331.720732 
L 121.463108 367.20753 
L 121.971397 356.919106 
L 122.479687 369.36 
L 122.987976 253.70892 
L 123.496265 341.161925 
L 124.004555 328.869458 
L 124.512844 364.698314 
L 125.021133 220.837052 
L 125.529422 195.531967 
L 126.037712 266.116019 
L 126.546001 269.138221 
L 127.05429 337.346099 
L 127.56258 284.198233 
L 128.070869 296.290469 
L 128.579158 336.657063 
L 129.087448 312.032696 
L 129.595737 299.557329 
L 130.104026 301.296273 
L 130.612316 272.115033 
L 131.120605 169.57821 
L 131.628894 239.873335 
L 132.137183 176.702065 
L 132.645473 324.278712 
L 133.153762 360.572464 
L 133.662051 335.937636 
L 134.170341 327.788676 
L 134.67863 182.220848 
L 135.186919 259.079727 
L 135.695209 354.301147 
L 136.203498 226.160753 
L 136.711787 324.754106 
L 137.220077 323.865914 
L 137.728366 210.65365 
L 138.236655 257.280596 
L 138.744944 208.856271 
L 139.253234 321.835016 
L 139.761523 200.715207 
L 140.269812 232.990707 
L 140.778102 274.592307 
L 141.286391 261.287157 
L 141.79468 165.287474 
L 142.30297 289.045619 
L 142.811259 185.569216 
L 143.319548 151.388702 
L 143.827837 301.067212 
L 144.336127 122.064096 
L 144.844416 98.617577 
L 145.352705 249.936926 
L 145.860995 174.496571 
L 146.369284 324.286174 
L 146.877573 162.242596 
L 147.385863 171.563161 
L 147.894152 145.294601 
L 148.402441 135.951106 
L 148.910731 130.416348 
L 149.41902 284.944994 
L 149.927309 294.908827 
L 150.435598 225.312051 
L 150.943888 282.999434 
L 151.452177 193.212247 
L 151.960466 244.96569 
L 152.468756 235.122233 
L 152.977045 302.212441 
L 153.485334 119.986745 
L 153.993624 187.504966 
L 154.501913 307.548636 
L 155.010202 316.179722 
L 155.518492 208.39549 
L 156.026781 155.131142 
L 156.53507 274.036733 
L 157.043359 100.723822 
L 157.551649 121.828032 
L 158.059938 92.958585 
L 158.568227 99.234904 
L 159.076517 211.012152 
L 159.584806 82.619119 
L 160.093095 189.349627 
L 161.109674 73.79393 
L 161.617963 220.447009 
L 162.126253 95.02838 
L 162.634542 213.037222 
L 163.65112 107.330444 
L 164.15941 114.56548 
L 164.667699 200.382245 
L 165.684278 140.413526 
L 166.192567 137.026083 
L 166.700856 98.454611 
L 167.209146 139.352472 
L 167.717435 106.838768 
L 168.225724 91.085142 
L 168.734013 172.586757 
L 169.242303 108.067636 
L 169.750592 86.957651 
L 170.258881 202.776494 
L 170.767171 183.800479 
L 171.27546 74.307625 
L 171.783749 90.698035 
L 172.292039 82.832918 
L 172.800328 205.048597 
L 173.308617 277.811982 
L 173.816907 188.304148 
L 174.325196 175.795249 
L 174.833485 157.948452 
L 175.341774 96.668823 
L 175.850064 75.541112 
L 176.358353 79.634026 
L 176.866642 75.914962 
L 177.374932 95.168147 
L 177.883221 131.841216 
L 178.39151 81.707351 
L 178.8998 77.348497 
L 179.408089 75.507276 
L 179.916378 215.385971 
L 180.424668 74.357742 
L 181.441246 80.566533 
L 181.949535 73.285846 
L 182.457825 72.674437 
L 182.966114 73.337097 
L 183.474403 73.8047 
L 183.982693 241.564518 
L 184.490982 89.023584 
L 184.999271 106.419234 
L 185.507561 72.629158 
L 186.01585 71.772189 
L 186.524139 124.168489 
L 187.032428 97.200748 
L 187.540718 80.992974 
L 188.049007 73.488664 
L 188.557296 73.686356 
L 189.065586 80.165901 
L 189.573875 74.490335 
L 190.082164 85.692558 
L 190.590454 81.902965 
L 191.098743 74.044776 
L 191.607032 71.020366 
L 192.115322 76.785774 
L 192.623611 71.296901 
L 193.1319 81.403927 
L 193.640189 102.221213 
L 194.148479 69.320719 
L 194.656768 89.838581 
L 195.165057 82.040836 
L 195.673347 77.782725 
L 196.181636 76.23115 
L 196.689925 78.412781 
L 197.198215 72.033654 
L 197.706504 72.652747 
L 198.214793 73.847384 
L 198.723083 74.268551 
L 199.231372 236.300453 
L 199.739661 243.047409 
L 200.24795 96.373957 
L 200.75624 77.031638 
L 201.264529 77.684999 
L 201.772818 112.791502 
L 202.281108 101.849414 
L 202.789397 82.50157 
L 203.805976 115.248083 
L 204.314265 192.382045 
L 204.822554 81.399979 
L 205.330844 72.736279 
L 205.839133 102.199245 
L 206.347422 73.684996 
L 206.855711 115.238716 
L 207.364001 76.325177 
L 207.87229 83.582264 
L 208.380579 72.983063 
L 208.888869 82.930742 
L 209.397158 75.266766 
L 209.905447 72.256351 
L 210.413737 89.134222 
L 210.922026 96.843254 
L 211.430315 86.246856 
L 211.938604 86.121826 
L 212.446894 96.887353 
L 212.955183 76.176356 
L 213.463472 101.206904 
L 213.971762 83.625412 
L 214.480051 72.700687 
L 214.98834 104.242883 
L 216.004919 82.637737 
L 216.513208 88.46595 
L 217.021498 71.624869 
L 217.529787 159.244609 
L 218.038076 75.880201 
L 218.546365 77.45151 
L 219.054655 113.88736 
L 219.562944 74.617599 
L 220.071233 70.08987 
L 220.579523 88.536462 
L 221.087812 77.247708 
L 221.596101 83.707132 
L 222.104391 80.998353 
L 222.61268 73.479323 
L 223.120969 87.421837 
L 223.629259 70.977961 
L 224.137548 68.453093 
L 224.645837 79.180689 
L 225.154126 77.101698 
L 225.662416 73.722002 
L 226.170705 77.532266 
L 226.678994 69.223453 
L 227.187284 74.498871 
L 227.695573 97.964856 
L 228.203862 75.795705 
L 228.712152 68.658802 
L 229.220441 74.467814 
L 229.72873 68.890831 
L 230.237019 71.128158 
L 230.745309 82.041589 
L 231.253598 68.98247 
L 231.761887 75.49592 
L 232.270177 68.825365 
L 232.778466 69.901703 
L 233.286755 75.875077 
L 233.795045 103.261889 
L 234.303334 70.349219 
L 234.811623 75.518692 
L 235.319913 70.851553 
L 235.828202 73.862205 
L 236.336491 79.921309 
L 236.84478 72.22498 
L 237.35307 76.90957 
L 237.861359 73.872012 
L 238.369648 78.506826 
L 238.877938 69.029633 
L 239.386227 86.6096 
L 239.894516 110.229911 
L 240.402806 84.305037 
L 240.911095 75.292739 
L 241.419384 89.966854 
L 241.927674 71.311081 
L 242.944252 68.351983 
L 243.452541 72.259425 
L 243.960831 116.934141 
L 244.46912 78.354428 
L 244.977409 79.342369 
L 245.485699 75.24217 
L 245.993988 73.742599 
L 246.502277 69.543418 
L 247.010567 79.238011 
L 247.518856 74.08836 
L 248.027145 75.130983 
L 248.535435 70.205108 
L 249.043724 70.095575 
L 249.552013 77.023139 
L 250.060302 99.825438 
L 250.568592 111.704837 
L 251.076881 75.542387 
L 251.58517 74.437261 
L 252.09346 75.077554 
L 252.601749 72.567905 
L 253.110038 73.628358 
L 253.618328 73.941571 
L 254.126617 76.077685 
L 254.634906 75.212859 
L 255.143195 70.350903 
L 255.651485 69.21221 
L 256.159774 79.398421 
L 256.668063 68.773388 
L 257.176353 70.041116 
L 257.684642 79.785692 
L 258.192931 73.915493 
L 258.701221 72.180734 
L 259.20951 71.802621 
L 259.717799 69.934771 
L 260.226089 85.913887 
L 260.734378 73.635711 
L 261.242667 79.665865 
L 261.750956 73.009162 
L 262.259246 67.849243 
L 262.767535 72.366142 
L 263.784114 69.872094 
L 264.292403 72.585725 
L 264.800692 72.516431 
L 265.308982 72.612464 
L 265.817271 69.120516 
L 266.32556 68.164344 
L 266.83385 75.498854 
L 267.342139 72.425466 
L 267.850428 71.785471 
L 268.358717 73.066202 
L 268.867007 72.392163 
L 269.375296 72.664314 
L 269.883585 70.86437 
L 270.391875 77.908735 
L 270.900164 69.828843 
L 271.408453 92.106677 
L 271.916743 69.190992 
L 272.425032 71.886848 
L 272.933321 78.02697 
L 273.44161 76.371682 
L 273.9499 67.30383 
L 274.458189 70.565205 
L 274.966478 71.236945 
L 275.474768 86.922974 
L 275.983057 72.679535 
L 276.491346 73.158265 
L 276.999636 69.818672 
L 277.507925 70.071079 
L 278.016214 72.16976 
L 278.524504 70.7825 
L 279.032793 72.793695 
L 279.541082 70.942314 
L 280.557661 72.300282 
L 281.06595 73.896004 
L 281.574239 71.093354 
L 282.082529 71.572903 
L 282.590818 73.510485 
L 283.099107 71.091975 
L 283.607397 85.466275 
L 284.115686 71.447469 
L 284.623975 73.56133 
L 285.132265 72.819143 
L 285.640554 84.973092 
L 286.148843 80.314153 
L 286.657132 86.712768 
L 287.165422 73.214212 
L 287.673711 69.614601 
L 288.182 70.070093 
L 288.69029 69.355005 
L 289.706868 75.653779 
L 290.723447 69.99932 
L 291.231736 70.23419 
L 291.740026 72.73719 
L 292.248315 73.054285 
L 292.756604 74.011131 
L 293.264893 71.768105 
L 293.773183 70.746845 
L 294.281472 75.619557 
L 294.789761 73.333614 
L 295.298051 75.990858 
L 295.80634 70.71095 
L 296.314629 87.850161 
L 296.822919 68.487869 
L 297.331208 67.17115 
L 297.839497 71.616835 
L 298.347786 70.554547 
L 298.856076 69.899971 
L 299.364365 76.188968 
L 299.872654 77.643472 
L 300.380944 70.949584 
L 300.889233 72.481136 
L 301.905812 85.898039 
L 302.414101 72.598541 
L 303.43068 67.111753 
L 303.938969 68.475377 
L 304.447258 72.426787 
L 304.955547 110.601353 
L 305.463837 71.396147 
L 305.972126 66.96 
L 306.480415 73.948558 
L 306.988705 75.511531 
L 307.496994 72.811918 
L 308.005283 67.88329 
L 308.513573 70.423747 
L 309.021862 71.463965 
L 309.530151 71.754488 
L 310.038441 72.988622 
L 310.54673 69.144061 
L 311.055019 72.990563 
L 311.563308 67.358983 
L 312.071598 71.010591 
L 312.579887 78.08371 
L 313.088176 71.204542 
L 313.596466 71.202252 
L 314.104755 71.817419 
L 314.613044 71.266631 
L 315.121334 70.157174 
L 315.629623 72.341353 
L 316.137912 73.564367 
L 316.646201 71.815166 
L 317.154491 85.381128 
L 317.66278 67.798592 
L 318.171069 70.156195 
L 318.679359 69.650577 
L 319.187648 75.148416 
L 319.695937 73.650929 
L 320.204227 69.774914 
L 320.712516 68.701839 
L 321.220805 72.779513 
L 321.729095 72.832278 
L 322.237384 70.513045 
L 322.745673 71.977815 
L 323.253962 74.928438 
L 323.762252 71.080845 
L 324.270541 72.549943 
L 324.77883 72.701927 
L 325.28712 73.04534 
L 325.795409 72.740361 
L 326.303698 67.461001 
L 326.811988 69.770311 
L 327.320277 70.616198 
L 327.828566 72.578314 
L 328.336856 70.486994 
L 328.845145 70.853109 
L 329.353434 68.959017 
L 329.861723 70.255111 
L 330.370013 70.210896 
L 330.878302 74.59096 
L 331.386591 68.10522 
L 331.894881 69.873686 
L 332.40317 72.893646 
L 332.911459 68.074515 
L 333.419749 70.88031 
L 333.928038 70.178018 
L 334.436327 70.774778 
L 334.944617 69.123135 
L 335.452906 70.601448 
L 335.961195 69.475093 
L 336.469484 81.899151 
L 336.977774 81.888432 
L 337.486063 70.227872 
L 337.994352 70.942084 
L 338.502642 73.327105 
L 339.010931 85.768164 
L 340.02751 68.711878 
L 340.535799 151.198727 
L 341.044088 76.356196 
L 341.552377 73.088784 
L 342.060667 71.931104 
L 342.568956 72.616855 
L 343.077245 86.786106 
L 343.585535 72.047662 
L 344.093824 75.899761 
L 344.602113 73.812832 
L 345.110403 73.01498 
L 345.618692 68.717859 
L 346.126981 73.304647 
L 346.635271 71.503177 
L 347.14356 72.15204 
L 347.651849 71.114705 
L 348.160138 73.183909 
L 348.668428 82.653632 
L 349.176717 72.700765 
L 349.685006 68.37269 
L 350.193296 87.632983 
L 350.701585 72.70153 
L 351.209874 203.309619 
L 351.718164 76.753326 
L 352.226453 124.77888 
L 352.734742 74.311713 
L 353.243032 72.669753 
L 353.751321 75.523024 
L 354.25961 73.50339 
L 354.767899 75.508712 
L 355.276189 71.307504 
L 355.784478 73.71469 
L 356.292767 71.619562 
L 356.801057 71.250312 
L 357.309346 73.431524 
L 357.817635 70.464707 
L 358.325925 73.558453 
L 358.834214 72.630862 
L 359.342503 74.35909 
L 359.850792 79.699015 
L 360.359082 73.541864 
L 360.867371 72.117381 
L 361.37566 72.753545 
L 361.88395 70.692476 
L 362.392239 73.325042 
L 362.900528 73.134143 
L 363.408818 70.7551 
L 363.917107 71.411443 
L 364.425396 178.087231 
L 364.933686 85.587092 
L 365.441975 67.76664 
L 365.950264 181.839681 
L 366.458553 79.599385 
L 366.966843 182.203356 
L 367.475132 72.722157 
L 367.983421 69.119152 
L 368.491711 71.226874 
L 369 72.511784 
L 369.508289 71.020269 
L 370.016579 77.945893 
L 370.524868 70.564878 
L 371.033157 74.634601 
L 371.541447 75.17124 
L 372.049736 72.99211 
L 372.558025 81.035552 
L 373.066314 73.451613 
L 373.574604 70.225793 
L 374.082893 100.594121 
L 374.591182 75.531139 
L 375.099472 80.168419 
L 375.607761 70.930201 
L 376.11605 71.283319 
L 376.62434 72.721853 
L 377.132629 73.29417 
L 377.640918 73.339578 
L 378.149208 70.116226 
L 378.657497 78.085133 
L 379.165786 72.53851 
L 379.674075 70.972828 
L 380.182365 76.489831 
L 380.690654 71.298503 
L 381.707233 75.991275 
L 382.215522 69.835881 
L 382.723811 72.70321 
L 383.232101 77.295208 
L 383.74039 93.725881 
L 384.248679 75.64429 
L 384.756968 80.857685 
L 385.265258 71.581424 
L 385.773547 67.505627 
L 386.281836 73.380082 
L 386.790126 68.946236 
L 387.298415 74.627481 
L 387.806704 72.42289 
L 388.314994 68.554336 
L 388.823283 73.864363 
L 389.331572 76.438745 
L 389.839862 73.003014 
L 390.348151 73.765676 
L 390.85644 72.078712 
L 391.364729 69.681312 
L 391.873019 68.895921 
L 392.381308 83.349617 
L 392.889597 70.238902 
L 393.397887 69.872713 
L 393.906176 72.467327 
L 394.414465 73.203412 
L 394.922755 72.359356 
L 395.431044 69.792058 
L 395.939333 72.637518 
L 396.447623 67.964375 
L 396.955912 70.022521 
L 397.464201 73.374226 
L 398.48078 73.139803 
L 398.989069 72.833919 
L 399.497358 69.413266 
L 400.005648 92.673122 
L 400.513937 72.816445 
L 401.022226 72.591486 
L 401.530516 70.192932 
L 402.038805 71.890982 
L 402.547094 76.10677 
L 403.055383 70.060312 
L 403.563673 73.875182 
L 404.071962 72.071018 
L 404.580251 68.744319 
L 405.59683 72.217684 
L 406.105119 72.334435 
L 406.613409 69.037725 
L 407.121698 73.729187 
L 407.629987 69.584209 
L 408.138277 74.194607 
L 408.646566 76.809321 
L 409.154855 70.309985 
L 409.663144 72.512979 
L 410.171434 72.466967 
L 410.679723 71.236277 
L 411.188012 71.25279 
L 411.696302 83.902362 
L 412.204591 69.794787 
L 412.71288 72.432119 
L 413.22117 73.70354 
L 413.729459 70.228447 
L 414.237748 70.305379 
L 414.746038 69.879717 
L 415.254327 70.905726 
L 415.762616 74.010184 
L 416.270905 72.397932 
L 416.779195 70.082811 
L 417.287484 86.767056 
L 417.795773 73.243706 
L 418.304063 68.1342 
L 418.812352 76.76501 
L 419.828931 70.705519 
L 420.33722 73.162241 
L 420.845509 70.830845 
L 421.353799 72.289624 
L 421.862088 74.147747 
L 422.370377 74.429502 
L 422.878666 68.507103 
L 423.386956 73.930467 
L 423.895245 73.303789 
L 424.403534 157.445045 
L 424.911824 69.600936 
L 425.420113 79.907006 
L 425.928402 69.896431 
L 426.436692 73.566495 
L 426.944981 70.122639 
L 427.45327 77.36854 
L 427.961559 77.457216 
L 428.469849 80.62322 
L 428.978138 68.191268 
L 429.486427 79.594342 
L 429.994717 70.069468 
L 430.503006 73.02466 
L 432.027874 76.389957 
L 432.536163 68.479185 
L 433.044453 75.059152 
L 433.552742 75.538617 
L 434.061031 74.454254 
L 434.56932 74.430434 
L 435.07761 83.567881 
L 435.585899 82.264677 
L 436.094188 73.409107 
L 436.602478 72.581408 
L 437.110767 72.800156 
L 437.619056 90.509217 
L 438.127346 72.736607 
L 438.635635 73.558753 
L 439.143924 73.018521 
L 439.652214 89.998778 
L 440.160503 75.047042 
L 440.668792 73.214392 
L 441.177081 72.46522 
L 441.685371 72.90017 
L 442.19366 70.906565 
L 442.701949 76.149134 
L 443.210239 69.804879 
L 443.718528 77.554574 
L 444.226817 68.502323 
L 444.735107 70.651306 
L 445.243396 99.356863 
L 445.751685 67.986147 
L 446.259974 72.275389 
L 447.276553 71.71993 
L 447.784842 72.666197 
L 448.293132 68.358402 
L 448.801421 68.877253 
L 449.30971 71.035645 
L 449.818 72.232318 
L 450.326289 72.008677 
L 451.342868 73.118609 
L 451.851157 71.450854 
L 452.359446 74.628902 
L 452.867735 84.827992 
L 453.376025 73.575821 
L 453.884314 69.6668 
L 454.392603 70.114804 
L 454.900893 70.915632 
L 455.409182 73.543392 
L 455.917471 72.213542 
L 456.425761 72.816877 
L 456.93405 77.004345 
L 457.442339 108.081482 
L 457.950629 98.480359 
L 458.458918 77.850402 
L 458.967207 71.678386 
L 459.475496 70.996023 
L 459.983786 72.599648 
L 460.492075 67.92241 
L 461.508654 73.738129 
L 462.016943 72.355477 
L 462.525232 74.683912 
L 463.033522 71.990952 
L 464.0501 68.122332 
L 464.55839 73.396084 
L 465.066679 67.567609 
L 465.574968 70.606864 
L 466.083257 69.178123 
L 466.591547 68.828911 
L 467.099836 82.226735 
L 467.608125 71.498229 
L 468.116415 72.770409 
L 468.624704 76.276804 
L 469.132993 69.253462 
L 469.641283 76.946705 
L 470.149572 71.214419 
L 470.657861 74.159589 
L 471.16615 70.208151 
L 471.67444 79.799319 
L 472.182729 70.90684 
L 472.691018 70.387909 
L 473.199308 71.158996 
L 473.707597 67.898929 
L 474.215886 71.060711 
L 474.724176 79.453609 
L 475.232465 69.14313 
L 475.740754 68.553595 
L 476.249044 68.219663 
L 477.265622 71.540963 
L 477.773911 70.301697 
L 478.282201 71.822676 
L 478.79049 68.905442 
L 480.315358 72.688621 
L 480.823647 72.726379 
L 481.331937 68.436969 
L 481.840226 75.03083 
L 482.348515 78.337945 
L 482.856805 68.946346 
L 483.365094 68.135019 
L 483.873383 82.159603 
L 484.381672 71.924827 
L 484.889962 79.090145 
L 485.398251 73.012704 
L 485.90654 72.728234 
L 486.923119 69.258289 
L 487.431408 79.800579 
L 487.939698 68.699854 
L 488.447987 71.651723 
L 488.956276 69.55973 
L 489.464565 78.43358 
L 489.972855 72.573979 
L 490.481144 73.586017 
L 490.989433 71.537821 
L 491.497723 71.554257 
L 492.006012 70.081139 
L 492.514301 69.043955 
L 493.022591 72.756013 
L 493.53088 71.68677 
L 494.039169 69.663784 
L 494.547459 72.831245 
L 495.055748 71.43958 
L 495.564037 72.166018 
L 495.564037 72.166018 
" style="fill:none;stroke:#1f77b4;stroke-linecap:square;stroke-width:1.5;"/>
   </g>
   <g id="line2d_36">
    <path clip-path="url(#p45b0f616b6)" d="M 115.363636 359.990405 
L 115.871926 318.625927 
L 116.380215 365.430969 
L 116.888504 357.980863 
L 117.396794 344.070442 
L 117.905083 363.716116 
L 118.413372 283.858738 
L 118.921662 345.614835 
L 119.429951 347.75697 
L 119.93824 299.47731 
L 120.446529 352.244611 
L 120.954819 356.256293 
L 121.463108 323.941494 
L 121.971397 332.275773 
L 122.479687 315.971447 
L 122.987976 347.459917 
L 123.496265 299.324632 
L 124.004555 303.084023 
L 124.512844 335.871397 
L 125.021133 316.309023 
L 125.529422 284.683677 
L 126.037712 342.977976 
L 126.546001 348.766074 
L 127.05429 316.781579 
L 127.56258 319.171192 
L 128.070869 277.817214 
L 128.579158 201.640413 
L 129.087448 200.11018 
L 130.104026 301.029449 
L 130.612316 331.619034 
L 131.120605 279.225838 
L 131.628894 308.186051 
L 132.137183 176.990006 
L 132.645473 216.599146 
L 133.153762 197.833441 
L 133.662051 268.547109 
L 134.170341 210.084902 
L 135.186919 261.284892 
L 135.695209 213.929643 
L 136.203498 245.891476 
L 136.711787 250.544267 
L 137.220077 92.421312 
L 137.728366 234.971243 
L 138.236655 206.839937 
L 138.744944 117.448581 
L 139.253234 332.908082 
L 139.761523 172.944201 
L 140.269812 128.08229 
L 140.778102 149.662407 
L 141.286391 123.144505 
L 141.79468 200.656141 
L 142.30297 236.21343 
L 142.811259 116.060361 
L 143.319548 257.410344 
L 143.827837 240.019745 
L 144.336127 85.917115 
L 144.844416 347.012243 
L 145.352705 182.666791 
L 145.860995 119.973443 
L 146.369284 79.465521 
L 146.877573 275.863591 
L 147.385863 314.991187 
L 147.894152 174.927517 
L 148.402441 299.337668 
L 148.910731 224.16259 
L 149.41902 84.277604 
L 149.927309 314.401917 
L 150.435598 153.409105 
L 150.943888 83.258691 
L 151.452177 79.90032 
L 151.960466 84.602919 
L 152.468756 133.872572 
L 152.977045 237.174402 
L 153.485334 78.110873 
L 153.993624 94.357392 
L 154.501913 238.973087 
L 155.010202 99.897797 
L 155.518492 79.90138 
L 156.026781 150.52245 
L 156.53507 103.35827 
L 157.043359 85.632324 
L 157.551649 82.706882 
L 158.059938 89.595975 
L 158.568227 74.010757 
L 159.076517 164.277624 
L 159.584806 78.941512 
L 160.093095 93.233526 
L 160.601385 75.50139 
L 161.109674 74.331588 
L 161.617963 98.878401 
L 162.126253 80.218753 
L 162.634542 128.025133 
L 163.142831 120.9623 
L 163.65112 143.529942 
L 164.15941 72.367129 
L 164.667699 107.705267 
L 165.175988 190.159347 
L 165.684278 356.887553 
L 166.192567 74.310868 
L 166.700856 79.926874 
L 167.209146 78.239532 
L 167.717435 74.695903 
L 168.225724 80.236584 
L 168.734013 79.303899 
L 169.242303 71.783877 
L 169.750592 109.270888 
L 170.258881 88.148558 
L 170.767171 92.047205 
L 171.27546 75.579796 
L 171.783749 81.124249 
L 172.292039 74.939783 
L 172.800328 70.541847 
L 173.308617 120.259318 
L 173.816907 96.136517 
L 174.325196 95.270621 
L 174.833485 122.494581 
L 175.341774 71.489806 
L 175.850064 76.723908 
L 176.358353 75.628245 
L 176.866642 75.902052 
L 177.374932 74.013904 
L 177.883221 121.451834 
L 178.39151 75.828817 
L 178.8998 157.413228 
L 179.408089 85.442319 
L 179.916378 143.331162 
L 180.424668 74.171878 
L 180.932957 77.258147 
L 181.441246 73.452077 
L 181.949535 73.150941 
L 182.457825 71.139335 
L 182.966114 73.064846 
L 183.474403 76.396256 
L 183.982693 151.133285 
L 184.490982 71.133532 
L 184.999271 95.271336 
L 185.507561 77.211354 
L 186.01585 131.896624 
L 186.524139 87.935301 
L 187.032428 73.581289 
L 187.540718 84.863705 
L 188.049007 78.701625 
L 188.557296 84.25095 
L 189.065586 83.615342 
L 189.573875 74.607345 
L 190.082164 178.089713 
L 190.590454 71.846374 
L 191.098743 73.679132 
L 191.607032 99.776494 
L 192.623611 73.466423 
L 193.1319 71.115225 
L 193.640189 252.653929 
L 194.148479 150.083388 
L 194.656768 74.290585 
L 195.165057 74.310963 
L 195.673347 84.654346 
L 196.181636 73.652862 
L 196.689925 77.274906 
L 197.198215 72.829128 
L 197.706504 108.858511 
L 198.214793 75.056441 
L 198.723083 76.049735 
L 199.231372 162.750438 
L 199.739661 141.052753 
L 200.24795 82.564695 
L 200.75624 80.212543 
L 201.264529 127.574508 
L 201.772818 70.569248 
L 202.281108 98.710944 
L 202.789397 79.171773 
L 203.805976 93.626963 
L 204.314265 71.315705 
L 204.822554 105.81325 
L 205.330844 75.66648 
L 205.839133 93.911302 
L 206.347422 77.898912 
L 206.855711 102.454219 
L 207.364001 74.108554 
L 207.87229 208.300048 
L 208.380579 75.311405 
L 208.888869 71.770056 
L 209.397158 135.421425 
L 209.905447 116.969325 
L 210.413737 74.104491 
L 210.922026 73.086215 
L 211.430315 267.652643 
L 211.938604 93.00878 
L 212.446894 87.520047 
L 212.955183 69.774213 
L 213.463472 176.816828 
L 213.971762 88.225138 
L 214.480051 72.976478 
L 214.98834 84.724039 
L 215.49663 193.293791 
L 216.004919 125.651705 
L 216.513208 111.059822 
L 217.021498 71.407872 
L 217.529787 77.663386 
L 218.038076 99.485549 
L 218.546365 70.583241 
L 219.054655 120.066531 
L 219.562944 77.065378 
L 220.071233 69.868217 
L 220.579523 78.854028 
L 221.087812 83.623448 
L 221.596101 72.807898 
L 222.104391 79.507432 
L 222.61268 91.401938 
L 223.120969 73.000884 
L 223.629259 69.923606 
L 224.137548 70.120833 
L 224.645837 97.922744 
L 225.154126 75.127711 
L 225.662416 74.264109 
L 226.170705 90.920157 
L 226.678994 146.423797 
L 227.187284 70.469336 
L 227.695573 72.589416 
L 228.203862 71.152602 
L 228.712152 134.848137 
L 229.220441 106.033822 
L 229.72873 70.863049 
L 230.237019 95.363179 
L 230.745309 74.161809 
L 231.253598 70.98481 
L 231.761887 90.139237 
L 232.270177 69.525039 
L 232.778466 69.266831 
L 233.286755 75.516829 
L 233.795045 89.422108 
L 234.303334 117.769587 
L 234.811623 73.985108 
L 235.319913 70.491169 
L 235.828202 73.041439 
L 236.336491 76.697418 
L 236.84478 73.460677 
L 237.35307 75.891095 
L 237.861359 74.584712 
L 238.369648 95.216011 
L 238.877938 78.968895 
L 239.386227 72.909282 
L 239.894516 75.759559 
L 240.402806 70.390424 
L 240.911095 75.345302 
L 241.419384 72.331798 
L 241.927674 124.174869 
L 242.435963 107.499718 
L 242.944252 70.497242 
L 243.452541 72.754891 
L 243.960831 73.679707 
L 244.46912 72.033813 
L 244.977409 73.390467 
L 245.485699 105.510024 
L 245.993988 74.351204 
L 246.502277 90.441576 
L 247.010567 71.976912 
L 247.518856 93.159265 
L 248.027145 148.214985 
L 248.535435 79.666329 
L 249.043724 111.069015 
L 249.552013 107.135779 
L 250.060302 68.895237 
L 250.568592 70.773598 
L 251.076881 94.435061 
L 252.09346 72.530261 
L 252.601749 73.13197 
L 253.110038 85.335144 
L 253.618328 72.951295 
L 254.126617 70.082237 
L 254.634906 137.222125 
L 255.143195 69.977465 
L 255.651485 97.884583 
L 256.159774 74.244911 
L 256.668063 95.754712 
L 257.176353 76.121194 
L 257.684642 70.877277 
L 258.192931 73.598364 
L 258.701221 75.684194 
L 259.20951 72.245115 
L 259.717799 69.598612 
L 260.226089 111.57802 
L 260.734378 74.312481 
L 261.242667 75.030728 
L 261.750956 72.618542 
L 262.259246 178.979656 
L 262.767535 71.172924 
L 263.275824 71.183139 
L 263.784114 72.343378 
L 264.292403 77.783593 
L 264.800692 72.411625 
L 265.308982 73.893606 
L 265.817271 90.095748 
L 266.32556 115.293625 
L 266.83385 88.838164 
L 267.342139 71.502026 
L 267.850428 78.324662 
L 268.358717 72.888537 
L 268.867007 71.556966 
L 269.375296 73.297386 
L 269.883585 81.053716 
L 270.391875 68.8937 
L 270.900164 78.861161 
L 271.408453 75.5065 
L 271.916743 70.594932 
L 272.425032 71.738874 
L 272.933321 69.167322 
L 273.44161 72.627692 
L 273.9499 118.535787 
L 274.458189 76.663097 
L 274.966478 71.690779 
L 275.474768 80.086556 
L 275.983057 74.09168 
L 276.491346 73.105633 
L 276.999636 70.194927 
L 277.507925 68.608362 
L 278.016214 72.893176 
L 278.524504 72.043444 
L 279.032793 74.121573 
L 279.541082 73.530295 
L 280.049371 71.398877 
L 280.557661 72.85088 
L 281.06595 73.728094 
L 281.574239 77.008312 
L 282.082529 72.84798 
L 282.590818 73.588789 
L 283.099107 70.633602 
L 283.607397 73.234492 
L 284.115686 67.999146 
L 284.623975 73.218703 
L 285.132265 75.673711 
L 285.640554 76.432504 
L 286.148843 72.481605 
L 286.657132 72.10136 
L 287.165422 73.459588 
L 287.673711 71.018509 
L 288.182 67.973458 
L 288.69029 67.995374 
L 289.198579 74.146287 
L 289.706868 72.215491 
L 290.215158 73.100938 
L 290.723447 69.865191 
L 291.231736 70.613187 
L 291.740026 74.381769 
L 292.248315 74.033209 
L 292.756604 71.203267 
L 293.264893 72.27035 
L 293.773183 70.861097 
L 294.281472 72.15087 
L 294.789761 72.587053 
L 295.298051 69.082692 
L 295.80634 72.057159 
L 296.314629 76.286396 
L 296.822919 70.692491 
L 297.331208 70.634065 
L 297.839497 72.618737 
L 298.347786 72.46116 
L 298.856076 98.021019 
L 299.364365 75.254835 
L 299.872654 73.668253 
L 300.380944 71.4679 
L 300.889233 72.994397 
L 301.397522 81.252905 
L 301.905812 75.066004 
L 302.414101 74.038093 
L 302.92239 86.342568 
L 303.43068 72.377368 
L 303.938969 70.529296 
L 304.447258 72.948287 
L 304.955547 71.547114 
L 305.463837 71.235085 
L 305.972126 110.359336 
L 306.480415 73.851417 
L 306.988705 71.472317 
L 307.496994 79.629112 
L 308.005283 68.498144 
L 308.513573 71.400472 
L 309.530151 72.388796 
L 310.038441 80.877575 
L 310.54673 80.418145 
L 311.563308 67.957663 
L 312.071598 71.627609 
L 312.579887 76.259631 
L 313.088176 71.960971 
L 313.596466 71.847341 
L 314.104755 99.989457 
L 314.613044 79.334052 
L 315.121334 69.585326 
L 315.629623 78.220797 
L 316.137912 73.180301 
L 316.646201 126.664931 
L 317.154491 74.135632 
L 317.66278 181.188104 
L 318.171069 71.072748 
L 318.679359 73.564398 
L 319.187648 73.784623 
L 319.695937 73.548216 
L 320.204227 125.747026 
L 320.712516 68.674713 
L 321.729095 78.899793 
L 322.237384 70.99918 
L 322.745673 73.776041 
L 323.253962 74.681404 
L 323.762252 71.386946 
L 324.270541 73.373847 
L 324.77883 79.471657 
L 326.303698 68.339632 
L 326.811988 69.79611 
L 327.320277 68.643872 
L 327.828566 73.229243 
L 328.336856 92.317743 
L 328.845145 71.429104 
L 329.353434 69.673883 
L 329.861723 70.108739 
L 330.370013 86.088351 
L 330.878302 73.81479 
L 331.386591 68.770243 
L 331.894881 69.917535 
L 332.40317 72.018147 
L 332.911459 72.411028 
L 333.419749 73.238116 
L 333.928038 74.744008 
L 334.436327 68.629111 
L 335.452906 72.556544 
L 335.961195 82.397652 
L 336.469484 69.107445 
L 336.977774 68.970671 
L 337.486063 70.124835 
L 337.994352 70.921931 
L 338.502642 75.130842 
L 339.010931 70.733273 
L 339.51922 69.79219 
L 340.02751 69.280129 
L 341.044088 72.259405 
L 341.552377 73.273744 
L 342.060667 76.52113 
L 343.077245 70.630108 
L 343.585535 71.430035 
L 344.093824 70.706898 
L 344.602113 70.539163 
L 345.110403 77.569214 
L 345.618692 68.992743 
L 346.126981 72.975316 
L 346.635271 71.109513 
L 347.14356 71.888665 
L 347.651849 70.564345 
L 348.160138 74.66759 
L 348.668428 67.559016 
L 349.176717 73.518023 
L 349.685006 68.797449 
L 350.193296 67.945874 
L 350.701585 73.667418 
L 351.209874 70.373722 
L 351.718164 152.776788 
L 352.226453 71.002314 
L 352.734742 74.371583 
L 353.243032 72.799713 
L 353.751321 73.199526 
L 354.25961 73.097542 
L 354.767899 73.811312 
L 355.276189 72.527244 
L 355.784478 74.277143 
L 356.292767 70.051285 
L 356.801057 69.832478 
L 357.309346 73.063027 
L 357.817635 75.223089 
L 358.325925 76.224467 
L 358.834214 223.514427 
L 359.342503 79.619661 
L 359.850792 69.228891 
L 360.359082 73.843602 
L 360.867371 71.040744 
L 361.37566 76.602439 
L 361.88395 73.797841 
L 362.392239 72.661078 
L 362.900528 69.573978 
L 363.408818 72.92682 
L 363.917107 69.021335 
L 364.425396 67.38306 
L 364.933686 80.870801 
L 365.950264 67.573489 
L 366.458553 83.587128 
L 366.966843 67.842945 
L 367.475132 68.405695 
L 367.983421 67.265052 
L 368.491711 70.526568 
L 369 71.665438 
L 369.508289 74.677688 
L 370.016579 71.32017 
L 370.524868 91.342606 
L 371.033157 72.280235 
L 371.541447 78.290538 
L 372.049736 77.840307 
L 372.558025 78.050947 
L 373.066314 81.52416 
L 373.574604 71.879163 
L 374.082893 67.799161 
L 374.591182 73.293048 
L 375.099472 70.389267 
L 375.607761 72.405451 
L 376.11605 71.458321 
L 376.62434 84.482737 
L 377.132629 82.175536 
L 377.640918 84.327903 
L 378.149208 98.886126 
L 378.657497 73.287605 
L 379.165786 134.695536 
L 379.674075 69.219083 
L 380.182365 73.206982 
L 380.690654 71.687344 
L 381.198943 196.245014 
L 381.707233 78.943684 
L 382.215522 69.143252 
L 382.723811 77.485299 
L 383.232101 76.743843 
L 383.74039 105.849235 
L 384.248679 77.017944 
L 384.756968 91.915726 
L 385.265258 70.334016 
L 385.773547 70.183808 
L 386.281836 72.687269 
L 386.790126 67.202296 
L 387.298415 72.932367 
L 387.806704 73.468043 
L 388.314994 109.310062 
L 388.823283 88.567204 
L 389.331572 73.595992 
L 389.839862 73.450725 
L 390.348151 73.706532 
L 390.85644 72.851725 
L 391.364729 68.525432 
L 391.873019 72.147003 
L 392.381308 79.649212 
L 392.889597 70.867014 
L 393.397887 72.860473 
L 393.906176 78.849241 
L 394.414465 67.849805 
L 394.922755 72.297279 
L 395.431044 67.913 
L 395.939333 72.731329 
L 396.447623 67.342103 
L 396.955912 71.319769 
L 397.464201 73.229906 
L 397.97249 67.953021 
L 398.48078 73.706168 
L 398.989069 73.704117 
L 400.005648 68.113114 
L 400.513937 73.822325 
L 401.530516 70.207922 
L 402.038805 75.768408 
L 402.547094 73.658663 
L 403.055383 70.900313 
L 403.563673 73.101255 
L 404.071962 70.648494 
L 404.580251 68.785286 
L 405.088541 68.997727 
L 405.59683 71.64054 
L 406.105119 71.965246 
L 406.613409 68.794851 
L 407.121698 74.565478 
L 407.629987 69.490237 
L 408.138277 74.047405 
L 408.646566 73.485359 
L 409.154855 70.213208 
L 409.663144 69.683781 
L 410.171434 68.334871 
L 410.679723 71.760666 
L 411.188012 68.063367 
L 411.696302 71.131928 
L 412.204591 68.101181 
L 412.71288 73.765139 
L 413.22117 72.862756 
L 413.729459 76.631397 
L 414.237748 76.057737 
L 414.746038 74.13675 
L 415.254327 76.392444 
L 415.762616 70.402885 
L 416.270905 73.466588 
L 417.287484 68.042373 
L 417.795773 72.592949 
L 418.304063 79.361559 
L 418.812352 68.153459 
L 419.828931 78.010024 
L 420.33722 70.405409 
L 420.845509 76.830364 
L 421.353799 72.172023 
L 421.862088 73.907066 
L 422.370377 72.893505 
L 422.878666 69.253404 
L 423.386956 73.156688 
L 423.895245 74.590462 
L 424.403534 69.100848 
L 424.911824 68.763365 
L 425.420113 78.413303 
L 425.928402 93.651741 
L 426.436692 212.622691 
L 426.944981 71.524077 
L 427.45327 72.491202 
L 427.961559 67.949894 
L 428.469849 67.789689 
L 428.978138 86.488556 
L 429.486427 72.144185 
L 430.503006 70.517654 
L 431.011295 71.827125 
L 431.519585 72.142479 
L 432.027874 74.420451 
L 432.536163 69.367884 
L 433.044453 73.162021 
L 433.552742 73.718751 
L 434.061031 71.224233 
L 434.56932 73.017513 
L 435.07761 73.677583 
L 435.585899 70.452713 
L 436.094188 71.962902 
L 436.602478 71.204593 
L 437.110767 71.110322 
L 437.619056 71.150664 
L 438.127346 74.231606 
L 438.635635 70.764402 
L 439.143924 73.545426 
L 439.652214 85.572848 
L 440.160503 70.868588 
L 440.668792 77.919526 
L 441.177081 71.580914 
L 441.685371 78.707888 
L 442.19366 71.24401 
L 442.701949 156.139237 
L 443.210239 69.996304 
L 443.718528 72.106804 
L 444.226817 69.008631 
L 444.735107 70.772581 
L 445.243396 68.88102 
L 445.751685 75.883372 
L 446.259974 68.210952 
L 446.768264 83.013959 
L 447.276553 72.213672 
L 447.784842 72.750042 
L 448.293132 68.85804 
L 448.801421 71.109591 
L 449.30971 72.348554 
L 449.818 78.712616 
L 450.326289 72.223168 
L 450.834578 72.005825 
L 451.342868 73.238459 
L 451.851157 68.856153 
L 452.359446 76.38016 
L 452.867735 74.596606 
L 453.376025 73.225265 
L 454.392603 67.220525 
L 454.900893 70.729067 
L 455.409182 69.136237 
L 455.917471 73.150334 
L 456.425761 73.767754 
L 456.93405 72.59859 
L 457.442339 74.785326 
L 457.950629 212.716072 
L 458.458918 70.100371 
L 458.967207 72.301749 
L 459.475496 71.309114 
L 459.983786 72.626202 
L 460.492075 67.455406 
L 461.508654 74.037255 
L 462.016943 72.5656 
L 462.525232 81.862785 
L 463.033522 73.008636 
L 463.541811 71.840249 
L 464.0501 67.286407 
L 464.55839 73.146867 
L 465.066679 67.18982 
L 465.574968 86.695977 
L 466.083257 70.496248 
L 466.591547 69.436339 
L 467.099836 72.506741 
L 467.608125 71.195105 
L 468.116415 73.575882 
L 468.624704 73.642182 
L 469.132993 69.161034 
L 469.641283 74.411928 
L 470.149572 74.504871 
L 470.657861 70.001304 
L 471.16615 70.622835 
L 471.67444 73.113012 
L 472.182729 74.035439 
L 472.691018 143.831987 
L 473.199308 70.585044 
L 473.707597 97.610068 
L 474.215886 71.095622 
L 474.724176 67.321182 
L 475.232465 70.317339 
L 475.740754 85.507465 
L 476.249044 68.134857 
L 476.757333 67.074381 
L 477.265622 71.681007 
L 477.773911 71.570968 
L 478.282201 70.046077 
L 478.79049 69.327689 
L 479.298779 76.730636 
L 479.807069 74.961632 
L 480.315358 76.131622 
L 480.823647 72.908929 
L 481.331937 75.621494 
L 481.840226 68.516006 
L 482.348515 73.108727 
L 482.856805 74.233377 
L 483.365094 103.606584 
L 483.873383 69.799872 
L 484.381672 79.198245 
L 484.889962 67.497498 
L 485.398251 72.271548 
L 485.90654 73.775718 
L 485.90654 73.775718 
" style="fill:none;stroke:#ff7f0e;stroke-linecap:square;stroke-width:1.5;"/>
   </g>
   <g id="line2d_37">
    <path clip-path="url(#p45b0f616b6)" d="M 115.363636 359.990405 
L 115.871926 318.625927 
L 116.380215 365.430969 
L 116.888504 357.980863 
L 117.396794 344.070442 
L 117.905083 363.716116 
L 118.413372 283.858738 
L 118.921662 345.614835 
L 119.429951 347.75697 
L 119.93824 299.47731 
L 120.446529 352.244611 
L 120.954819 356.256293 
L 121.463108 323.941494 
L 121.971397 332.275773 
L 122.479687 315.971447 
L 122.987976 347.459917 
L 123.496265 299.324632 
L 124.004555 303.084023 
L 124.512844 335.871397 
L 125.021133 316.309023 
L 125.529422 284.683677 
L 126.037712 342.977976 
L 126.546001 348.766074 
L 127.05429 316.781579 
L 127.56258 319.171192 
L 128.070869 277.817214 
L 128.579158 201.640413 
L 129.087448 200.11018 
L 130.104026 301.029449 
L 130.612316 331.619034 
L 131.120605 279.225838 
L 131.628894 308.186051 
L 132.137183 176.990006 
L 132.645473 216.599146 
L 133.153762 197.833441 
L 133.662051 268.547109 
L 134.170341 210.084902 
L 135.186919 261.284892 
L 135.695209 213.929643 
L 136.203498 245.891476 
L 136.711787 250.544267 
L 137.220077 92.421312 
L 137.728366 234.971243 
L 138.236655 206.839937 
L 138.744944 117.448581 
L 139.253234 332.908082 
L 139.761523 172.944201 
L 140.269812 128.08229 
L 140.778102 149.662407 
L 141.286391 123.144505 
L 141.79468 200.656141 
L 142.30297 236.21343 
L 142.811259 116.060361 
L 143.319548 257.410344 
L 143.827837 240.019745 
L 144.336127 85.917115 
L 144.844416 347.012243 
L 145.352705 182.666791 
L 145.860995 119.973443 
L 146.369284 79.465521 
L 146.877573 275.863591 
L 147.385863 314.991187 
L 147.894152 174.927517 
L 148.402441 299.337668 
L 148.910731 224.16259 
L 149.41902 84.277604 
L 149.927309 314.401917 
L 150.435598 153.409105 
L 150.943888 83.258691 
L 151.452177 79.90032 
L 151.960466 84.602919 
L 152.468756 133.872572 
L 152.977045 237.174402 
L 153.485334 78.110873 
L 153.993624 94.357392 
L 154.501913 238.973087 
L 155.010202 99.897797 
L 155.518492 79.90138 
L 156.026781 150.52245 
L 156.53507 103.35827 
L 157.043359 85.632324 
L 157.551649 82.706882 
L 158.059938 89.595975 
L 158.568227 74.010757 
L 159.076517 164.277624 
L 159.584806 78.941512 
L 160.093095 93.233526 
L 160.601385 75.50139 
L 161.109674 74.331588 
L 161.617963 98.878401 
L 162.126253 80.218753 
L 162.634542 128.025133 
L 163.142831 120.9623 
L 163.65112 143.529942 
L 164.15941 72.367129 
L 164.667699 107.705267 
L 165.175988 190.159347 
L 165.684278 356.887553 
L 166.192567 74.310868 
L 166.700856 79.926874 
L 167.209146 78.239532 
L 167.717435 74.695903 
L 168.225724 80.236584 
L 168.734013 79.303899 
L 169.242303 71.783877 
L 169.750592 109.270888 
L 170.258881 88.148558 
L 170.767171 92.047205 
L 171.27546 75.579796 
L 171.783749 81.124249 
L 172.292039 74.939783 
L 172.800328 70.541847 
L 173.308617 120.259318 
L 173.816907 96.136517 
L 174.325196 95.270621 
L 174.833485 122.494581 
L 175.341774 71.489806 
L 175.850064 76.723908 
L 176.358353 75.628245 
L 176.866642 75.902052 
L 177.374932 74.013904 
L 177.883221 121.451834 
L 178.39151 75.828817 
L 178.8998 157.413228 
L 179.408089 85.442319 
L 179.916378 143.331162 
L 180.424668 74.171878 
L 180.932957 77.258147 
L 181.441246 73.452077 
L 181.949535 73.150941 
L 182.457825 71.139335 
L 182.966114 73.064846 
L 183.474403 76.396256 
L 183.982693 151.133285 
L 184.490982 71.133532 
L 184.999271 95.271336 
L 185.507561 77.211354 
L 186.01585 131.896624 
L 186.524139 87.935301 
L 187.032428 73.581289 
L 187.540718 84.863705 
L 188.049007 78.701625 
L 188.557296 84.25095 
L 189.065586 83.615342 
L 189.573875 74.607345 
L 190.082164 178.089713 
L 190.590454 71.846374 
L 191.098743 73.679132 
L 191.607032 99.776494 
L 192.623611 73.466423 
L 193.1319 71.115225 
L 193.640189 252.653929 
L 194.148479 150.083388 
L 194.656768 74.290585 
L 195.165057 74.310963 
L 195.673347 84.654346 
L 196.181636 73.652862 
L 196.689925 77.274906 
L 197.198215 72.829128 
L 197.706504 108.858511 
L 198.214793 75.056441 
L 198.723083 76.049735 
L 199.231372 162.750438 
L 199.739661 141.052753 
L 200.24795 82.564695 
L 200.75624 80.212543 
L 201.264529 127.574508 
L 201.772818 70.569248 
L 202.281108 98.710944 
L 202.789397 79.171773 
L 203.805976 93.626963 
L 204.314265 71.315705 
L 204.822554 105.81325 
L 205.330844 75.66648 
L 205.839133 93.911302 
L 206.347422 77.898912 
L 206.855711 102.454219 
L 207.364001 74.108554 
L 207.87229 208.300048 
L 208.380579 75.311405 
L 208.888869 71.770056 
L 209.397158 135.421425 
L 209.905447 116.969325 
L 210.413737 74.104491 
L 210.922026 73.086215 
L 211.430315 267.652643 
L 211.938604 93.00878 
L 212.446894 87.520047 
L 212.955183 69.774213 
L 213.463472 176.816828 
L 213.971762 88.225138 
L 214.480051 72.976478 
L 214.98834 84.724039 
L 215.49663 193.293791 
L 216.004919 125.651705 
L 216.513208 111.059822 
L 217.021498 71.407872 
L 217.529787 77.663386 
L 218.038076 99.485549 
L 218.546365 70.583241 
L 219.054655 120.066531 
L 219.562944 77.065378 
L 220.071233 69.868217 
L 220.579523 78.854028 
L 221.087812 83.623448 
L 221.596101 72.807898 
L 222.104391 79.507432 
L 222.61268 91.401938 
L 223.120969 73.000884 
L 223.629259 69.923606 
L 224.137548 70.120833 
L 224.645837 97.922744 
L 225.154126 75.127711 
L 225.662416 74.264109 
L 226.170705 90.920157 
L 226.678994 146.423797 
L 227.187284 70.469336 
L 227.695573 72.589416 
L 228.203862 71.152602 
L 228.712152 134.848137 
L 229.220441 106.033822 
L 229.72873 70.863049 
L 230.237019 95.363179 
L 230.745309 74.161809 
L 231.253598 70.98481 
L 231.761887 90.139237 
L 232.270177 69.525039 
L 232.778466 69.266831 
L 233.286755 75.516829 
L 233.795045 89.422108 
L 234.303334 117.769587 
L 234.811623 73.985108 
L 235.319913 70.491169 
L 235.828202 73.041439 
L 236.336491 76.697418 
L 236.84478 73.460677 
L 237.35307 75.891095 
L 237.861359 74.584712 
L 238.369648 95.216011 
L 238.877938 78.968895 
L 239.386227 72.909282 
L 239.894516 75.759559 
L 240.402806 70.390424 
L 240.911095 75.345302 
L 241.419384 72.331798 
L 241.927674 124.174869 
L 242.435963 107.499718 
L 242.944252 70.497242 
L 243.452541 72.754891 
L 243.960831 73.679707 
L 244.46912 72.033813 
L 244.977409 73.390467 
L 245.485699 105.510024 
L 245.993988 74.351204 
L 246.502277 90.441576 
L 247.010567 71.976912 
L 247.518856 93.159265 
L 248.027145 148.214985 
L 248.535435 79.666329 
L 249.043724 111.069015 
L 249.552013 107.135779 
L 250.060302 68.895237 
L 250.568592 70.773598 
L 251.076881 94.435061 
L 252.09346 72.530261 
L 252.601749 73.13197 
L 253.110038 85.335144 
L 253.618328 72.951295 
L 254.126617 70.082237 
L 254.634906 137.222125 
L 255.143195 69.977465 
L 255.651485 97.884583 
L 256.159774 74.244911 
L 256.668063 95.754712 
L 257.176353 76.121194 
L 257.684642 70.877277 
L 258.192931 73.598364 
L 258.701221 75.684194 
L 259.20951 72.245115 
L 259.717799 69.598612 
L 260.226089 111.57802 
L 260.734378 74.312481 
L 261.242667 75.030728 
L 261.750956 72.618542 
L 262.259246 178.979656 
L 262.767535 71.172924 
L 263.275824 71.183139 
L 263.784114 72.343378 
L 264.292403 77.783593 
L 264.800692 72.411625 
L 265.308982 73.893606 
L 265.817271 90.095748 
L 266.32556 115.293625 
L 266.83385 88.838164 
L 267.342139 71.502026 
L 267.850428 78.324662 
L 268.358717 72.888537 
L 268.867007 71.556966 
L 269.375296 73.297386 
L 269.883585 81.053716 
L 270.391875 68.8937 
L 270.900164 78.861161 
L 271.408453 75.5065 
L 271.916743 70.594932 
L 272.425032 71.738874 
L 272.933321 69.167322 
L 273.44161 72.627692 
L 273.9499 118.535787 
L 274.458189 76.663097 
L 274.966478 71.690779 
L 275.474768 80.086556 
L 275.983057 74.09168 
L 276.491346 73.105633 
L 276.999636 70.194927 
L 277.507925 68.608362 
L 278.016214 72.893176 
L 278.524504 72.043444 
L 279.032793 74.121573 
L 279.541082 73.530295 
L 280.049371 71.398877 
L 280.557661 72.85088 
L 281.06595 73.728094 
L 281.574239 77.008312 
L 282.082529 72.84798 
L 282.590818 73.588789 
L 283.099107 70.633602 
L 283.607397 73.234492 
L 284.115686 67.999146 
L 284.623975 73.218703 
L 285.132265 75.673711 
L 285.640554 76.432504 
L 286.148843 72.481605 
L 286.657132 72.10136 
L 287.165422 73.459588 
L 287.673711 71.018509 
L 288.182 67.973458 
L 288.69029 67.995374 
L 289.198579 74.146287 
L 289.706868 72.215491 
L 290.215158 73.100938 
L 290.723447 69.865191 
L 291.231736 70.613187 
L 291.740026 74.381769 
L 292.248315 74.033209 
L 292.756604 71.203267 
L 293.264893 72.27035 
L 293.773183 70.861097 
L 294.281472 72.15087 
L 294.789761 72.587053 
L 295.298051 69.082692 
L 295.80634 72.057159 
L 296.314629 76.286396 
L 296.822919 70.692491 
L 297.331208 70.634065 
L 297.839497 72.618737 
L 298.347786 72.46116 
L 298.856076 98.021019 
L 299.364365 75.254835 
L 299.872654 73.668253 
L 300.380944 71.4679 
L 300.889233 72.994397 
L 301.397522 81.252905 
L 301.905812 75.066004 
L 302.414101 74.038093 
L 302.92239 86.342568 
L 303.43068 72.377368 
L 303.938969 70.529296 
L 304.447258 72.948287 
L 304.955547 71.547114 
L 305.463837 71.235085 
L 305.972126 110.359336 
L 306.480415 73.851417 
L 306.988705 71.472317 
L 307.496994 79.629112 
L 308.005283 68.498144 
L 308.513573 71.400472 
L 309.530151 72.388796 
L 310.038441 80.877575 
L 310.54673 80.418145 
L 311.563308 67.957663 
L 312.071598 71.627609 
L 312.579887 76.259631 
L 313.088176 71.960971 
L 313.596466 71.847341 
L 314.104755 99.989457 
L 314.613044 79.334052 
L 315.121334 69.585326 
L 315.629623 78.220797 
L 316.137912 73.180301 
L 316.646201 126.664931 
L 317.154491 74.135632 
L 317.66278 181.188104 
L 318.171069 71.072748 
L 318.679359 73.564398 
L 319.187648 73.784623 
L 319.695937 73.548216 
L 320.204227 125.747026 
L 320.712516 68.674713 
L 321.729095 78.899793 
L 322.237384 70.99918 
L 322.745673 73.776041 
L 323.253962 74.681404 
L 323.762252 71.386946 
L 324.270541 73.373847 
L 324.77883 79.471657 
L 326.303698 68.339632 
L 326.811988 69.79611 
L 327.320277 68.643872 
L 327.828566 73.229243 
L 328.336856 92.317743 
L 328.845145 71.429104 
L 329.353434 69.673883 
L 329.861723 70.108739 
L 330.370013 86.088351 
L 330.878302 73.81479 
L 331.386591 68.770243 
L 331.894881 69.917535 
L 332.40317 72.018147 
L 332.911459 72.411028 
L 333.419749 73.238116 
L 333.928038 74.744008 
L 334.436327 68.629111 
L 335.452906 72.556544 
L 335.961195 82.397652 
L 336.469484 69.107445 
L 336.977774 68.970671 
L 337.486063 70.124835 
L 337.994352 70.921931 
L 338.502642 75.130842 
L 339.010931 70.733273 
L 339.51922 69.79219 
L 340.02751 69.280129 
L 341.044088 72.259405 
L 341.552377 73.273744 
L 342.060667 76.52113 
L 343.077245 70.630108 
L 343.585535 71.430035 
L 344.093824 70.706898 
L 344.602113 70.539163 
L 345.110403 77.569214 
L 345.618692 68.992743 
L 346.126981 72.975316 
L 346.635271 71.109513 
L 347.14356 71.888665 
L 347.651849 70.564345 
L 348.160138 74.66759 
L 348.668428 67.559016 
L 349.176717 73.518023 
L 349.685006 68.797449 
L 350.193296 67.945874 
L 350.701585 73.667418 
L 351.209874 70.373722 
L 351.718164 152.776788 
L 352.226453 71.002314 
L 352.734742 74.371583 
L 353.243032 72.799713 
L 353.751321 73.199526 
L 354.25961 73.097542 
L 354.767899 73.811312 
L 355.276189 72.527244 
L 355.784478 74.277143 
L 356.292767 70.051285 
L 356.801057 69.832478 
L 357.309346 73.063027 
L 357.817635 75.223089 
L 358.325925 76.224467 
L 358.834214 223.514427 
L 359.342503 79.619661 
L 359.850792 69.228891 
L 360.359082 73.843602 
L 360.867371 71.040744 
L 361.37566 76.602439 
L 361.88395 73.797841 
L 362.392239 72.661078 
L 362.900528 69.573978 
L 363.408818 72.92682 
L 363.917107 69.021335 
L 364.425396 67.38306 
L 364.933686 80.870801 
L 365.950264 67.573489 
L 366.458553 83.587128 
L 366.966843 67.842945 
L 367.475132 68.405695 
L 367.983421 67.265052 
L 368.491711 70.526568 
L 369 71.665438 
L 369.508289 74.677688 
L 370.016579 71.32017 
L 370.524868 91.342606 
L 371.033157 72.280235 
L 371.541447 78.290538 
L 372.049736 77.840307 
L 372.558025 78.050947 
L 373.066314 81.52416 
L 373.574604 71.879163 
L 374.082893 67.799161 
L 374.591182 73.293048 
L 375.099472 70.389267 
L 375.607761 72.405451 
L 376.11605 71.458321 
L 376.62434 84.482737 
L 377.132629 82.175536 
L 377.640918 84.327903 
L 378.149208 98.886126 
L 378.657497 73.287605 
L 379.165786 134.695536 
L 379.674075 69.219083 
L 380.182365 73.206982 
L 380.690654 71.687344 
L 381.198943 196.245014 
L 381.707233 78.943684 
L 382.215522 69.143252 
L 382.723811 77.485299 
L 383.232101 76.743843 
L 383.74039 105.849235 
L 384.248679 77.017944 
L 384.756968 91.915726 
L 385.265258 70.334016 
L 385.773547 70.183808 
L 386.281836 72.687269 
L 386.790126 67.202296 
L 387.298415 72.932367 
L 387.806704 73.468043 
L 388.314994 109.310062 
L 388.823283 88.567204 
L 389.331572 73.595992 
L 389.839862 73.450725 
L 390.348151 73.706532 
L 390.85644 72.851725 
L 391.364729 68.525432 
L 391.873019 72.147003 
L 392.381308 79.649212 
L 392.889597 70.867014 
L 393.397887 72.860473 
L 393.906176 78.849241 
L 394.414465 67.849805 
L 394.922755 72.297279 
L 395.431044 67.913 
L 395.939333 72.731329 
L 396.447623 67.342103 
L 396.955912 71.319769 
L 397.464201 73.229906 
L 397.97249 67.953021 
L 398.48078 73.706168 
L 398.989069 73.704117 
L 400.005648 68.113114 
L 400.513937 73.822325 
L 401.530516 70.207922 
L 402.038805 75.768408 
L 402.547094 73.658663 
L 403.055383 70.900313 
L 403.563673 73.101255 
L 404.071962 70.648494 
L 404.580251 68.785286 
L 405.088541 68.997727 
L 405.59683 71.64054 
L 406.105119 71.965246 
L 406.613409 68.794851 
L 407.121698 74.565478 
L 407.629987 69.490237 
L 408.138277 74.047405 
L 408.646566 73.485359 
L 409.154855 70.213208 
L 409.663144 69.683781 
L 410.171434 68.334871 
L 410.679723 71.760666 
L 411.188012 68.063367 
L 411.696302 71.131928 
L 412.204591 68.101181 
L 412.71288 73.765139 
L 413.22117 72.862756 
L 413.729459 76.631397 
L 414.237748 76.057737 
L 414.746038 74.13675 
L 415.254327 76.392444 
L 415.762616 70.402885 
L 416.270905 73.466588 
L 417.287484 68.042373 
L 417.795773 72.592949 
L 418.304063 79.361559 
L 418.812352 68.153459 
L 419.828931 78.010024 
L 420.33722 70.405409 
L 420.845509 76.830364 
L 421.353799 72.172023 
L 421.862088 73.907066 
L 422.370377 72.893505 
L 422.878666 69.253404 
L 423.386956 73.156688 
L 423.895245 74.590462 
L 424.403534 69.100848 
L 424.911824 68.763365 
L 425.420113 78.413303 
L 425.928402 93.651741 
L 426.436692 212.622691 
L 426.944981 71.524077 
L 427.45327 72.491202 
L 427.961559 67.949894 
L 428.469849 67.789689 
L 428.978138 86.488556 
L 429.486427 72.144185 
L 430.503006 70.517654 
L 431.011295 71.827125 
L 431.519585 72.142479 
L 432.027874 74.420451 
L 432.536163 69.367884 
L 433.044453 73.162021 
L 433.552742 73.718751 
L 434.061031 71.224233 
L 434.56932 73.017513 
L 435.07761 73.677583 
L 435.585899 70.452713 
L 436.094188 71.962902 
L 436.602478 71.204593 
L 437.110767 71.110322 
L 437.619056 71.150664 
L 438.127346 74.231606 
L 438.635635 70.764402 
L 439.143924 73.545426 
L 439.652214 85.572848 
L 440.160503 70.868588 
L 440.668792 77.919526 
L 441.177081 71.580914 
L 441.685371 78.707888 
L 442.19366 71.24401 
L 442.701949 156.139237 
L 443.210239 69.996304 
L 443.718528 72.106804 
L 444.226817 69.008631 
L 444.735107 70.772581 
L 445.243396 68.88102 
L 445.751685 75.883372 
L 446.259974 68.210952 
L 446.768264 83.013959 
L 447.276553 72.213672 
L 447.784842 72.750042 
L 448.293132 68.85804 
L 448.801421 71.109591 
L 449.30971 72.348554 
L 449.818 78.712616 
L 450.326289 72.223168 
L 450.834578 72.005825 
L 451.342868 73.238459 
L 451.851157 68.856153 
L 452.359446 76.38016 
L 452.867735 74.596606 
L 453.376025 73.225265 
L 454.392603 67.220525 
L 454.900893 70.729067 
L 455.409182 69.136237 
L 455.917471 73.150334 
L 456.425761 73.767754 
L 456.93405 72.59859 
L 457.442339 74.785326 
L 457.950629 212.716072 
L 458.458918 70.100371 
L 458.967207 72.301749 
L 459.475496 71.309114 
L 459.983786 72.626202 
L 460.492075 67.455406 
L 461.508654 74.037255 
L 462.016943 72.5656 
L 462.525232 81.862785 
L 463.033522 73.008636 
L 463.541811 71.840249 
L 464.0501 67.286407 
L 464.55839 73.146867 
L 465.066679 67.18982 
L 465.574968 86.695977 
L 466.083257 70.496248 
L 466.591547 69.436339 
L 467.099836 72.506741 
L 467.608125 71.195105 
L 468.116415 73.575882 
L 468.624704 73.642182 
L 469.132993 69.161034 
L 469.641283 74.411928 
L 470.149572 74.504871 
L 470.657861 70.001304 
L 471.16615 70.622835 
L 471.67444 73.113012 
L 472.182729 74.035439 
L 472.691018 143.831987 
L 473.199308 70.585044 
L 473.707597 97.610068 
L 474.215886 71.095622 
L 474.724176 67.321182 
L 475.232465 70.317339 
L 475.740754 85.507465 
L 476.249044 68.134857 
L 476.757333 67.074381 
L 477.265622 71.681007 
L 477.773911 71.570968 
L 478.282201 70.046077 
L 478.79049 69.327689 
L 479.298779 76.730636 
L 479.807069 74.961632 
L 480.315358 76.131622 
L 480.823647 72.908929 
L 481.331937 75.621494 
L 481.840226 68.516006 
L 482.348515 73.108727 
L 482.856805 74.233377 
L 483.365094 103.606584 
L 483.873383 69.799872 
L 484.381672 79.198245 
L 484.889962 67.497498 
L 485.398251 72.271548 
L 485.90654 73.775718 
L 486.41483 71.636642 
L 486.923119 83.600167 
L 487.431408 73.239776 
L 487.939698 70.052917 
L 488.447987 75.2371 
L 488.956276 82.004849 
L 489.464565 74.427392 
L 489.972855 72.321556 
L 490.481144 69.737079 
L 490.989433 74.037195 
L 491.497723 72.463114 
L 492.006012 68.946062 
L 492.514301 70.250923 
L 493.022591 74.056677 
L 493.53088 70.771812 
L 494.547459 77.673332 
L 495.055748 73.37215 
L 495.564037 100.91001 
L 496.072326 69.115351 
L 496.580616 67.144783 
L 497.088905 75.412936 
L 497.597194 73.318502 
L 498.105484 68.677529 
L 498.613773 74.118594 
L 499.122062 71.062113 
L 499.630352 75.777047 
L 500.138641 73.472143 
L 500.64693 73.001047 
L 501.15522 72.820614 
L 501.663509 72.854615 
L 502.171798 71.325607 
L 502.680087 80.797875 
L 503.188377 71.317617 
L 503.696666 71.852293 
L 504.204955 70.030778 
L 504.713245 70.265226 
L 505.221534 67.638299 
L 505.729823 69.188582 
L 506.238113 67.937438 
L 507.254691 73.748075 
L 507.762981 73.303222 
L 508.27127 71.354773 
L 508.779559 73.19196 
L 509.287848 68.337917 
L 509.796138 72.261822 
L 510.304427 71.516068 
L 510.812716 88.398868 
L 511.321006 69.298634 
L 511.829295 73.49866 
L 512.337584 88.398289 
L 512.845874 78.173641 
L 513.862452 67.610208 
L 514.370741 69.775149 
L 514.879031 72.954053 
L 515.38732 71.582083 
L 515.895609 72.335471 
L 516.403899 67.430171 
L 516.912188 70.817216 
L 517.420477 67.355454 
L 517.928767 74.213398 
L 518.437056 117.830866 
L 518.945345 73.24762 
L 519.453635 72.925846 
L 519.961924 78.339986 
L 520.470213 72.975685 
L 520.978502 71.363079 
L 521.486792 68.928388 
L 521.995081 74.061137 
L 522.50337 82.049585 
L 523.01166 72.294138 
L 523.519949 69.320983 
L 524.028238 86.554251 
L 525.044817 71.835174 
L 525.553106 71.120535 
L 526.061396 70.201446 
L 526.569685 71.117523 
L 527.077974 69.335221 
L 528.094553 77.492998 
L 528.602842 68.583455 
L 529.111131 72.553735 
L 529.619421 69.269139 
L 530.12771 73.71881 
L 530.635999 91.487131 
L 531.144289 68.434271 
L 531.652578 67.328274 
L 532.160867 97.202804 
L 532.669156 71.147999 
L 533.177446 141.389965 
L 533.685735 93.65708 
L 534.194024 71.153324 
L 534.702314 71.804504 
L 535.210603 67.493069 
L 535.718892 70.169231 
L 536.227182 71.987157 
L 536.735471 67.76246 
L 537.24376 142.250541 
L 537.75205 73.307286 
L 538.260339 69.770252 
L 538.768628 67.059156 
L 539.276917 73.069336 
L 539.785207 67.55255 
L 540.293496 73.911584 
L 540.801785 68.779869 
L 541.310075 67.832816 
L 541.818364 69.940341 
L 542.326653 73.226659 
L 542.834943 71.302875 
L 543.343232 74.028556 
L 543.851521 71.091464 
L 544.359811 69.515649 
L 544.8681 74.192792 
L 545.376389 70.388847 
L 545.884678 82.632121 
L 546.392968 75.000082 
L 546.901257 73.468748 
L 547.409546 76.629937 
L 547.917836 73.314875 
L 548.426125 72.836462 
L 548.934414 74.058043 
L 549.442704 73.541596 
L 549.950993 152.496753 
L 550.459282 71.967177 
L 550.967572 77.863484 
L 551.475861 72.613104 
L 551.98415 73.585426 
L 552.492439 191.501096 
L 553.000729 79.506978 
L 553.509018 71.740825 
L 554.017307 71.964109 
L 554.525597 91.029276 
L 555.033886 72.396714 
L 555.542175 75.356961 
L 556.050465 71.214608 
L 556.558754 88.640354 
L 557.067043 73.780621 
L 557.575332 76.048397 
L 558.083622 71.49403 
L 558.591911 71.75632 
L 559.1002 72.243449 
L 559.60849 68.484915 
L 560.116779 72.007696 
L 560.625068 124.002899 
L 561.133358 75.827732 
L 561.641647 68.777076 
L 562.149936 67.651423 
L 562.658226 104.130156 
L 563.166515 67.715599 
L 563.674804 70.955742 
L 564.183093 73.187388 
L 564.691383 71.789785 
L 565.199672 74.101501 
L 565.707961 88.918916 
L 566.216251 73.124848 
L 566.72454 73.710684 
L 567.232829 67.513377 
L 567.741119 80.525562 
L 568.249408 78.523336 
L 568.757697 96.700154 
L 569.265987 71.121455 
L 569.774276 74.760469 
L 570.282565 71.255244 
L 570.790854 72.78572 
L 571.299144 73.054161 
L 571.807433 85.224963 
L 572.824012 68.070512 
L 573.332301 71.924391 
L 573.84059 76.956759 
L 574.34888 70.329968 
L 574.857169 77.541937 
L 575.365458 69.025358 
L 575.873747 69.669691 
L 576.382037 67.640068 
L 576.890326 73.470263 
L 577.398615 261.006099 
L 577.906905 75.154859 
L 578.415194 73.461735 
L 578.923483 68.284923 
L 579.431773 109.389683 
L 579.940062 68.341325 
L 580.956641 71.884607 
L 581.46493 85.390759 
L 581.973219 175.193752 
L 582.481508 75.112502 
L 582.989798 204.309994 
L 583.498087 73.030764 
L 584.006376 75.069271 
L 584.514666 236.395802 
L 585.022955 68.542555 
L 585.531244 71.066705 
L 586.039534 78.572392 
L 586.547823 71.393985 
L 587.056112 190.036411 
L 587.564402 67.92845 
L 588.072691 72.382505 
L 588.58098 72.694398 
L 589.089269 136.917543 
L 589.597559 70.37428 
L 590.105848 67.373044 
L 590.614137 68.020333 
L 591.630716 68.003589 
L 592.139005 68.037438 
L 592.647295 74.297763 
L 593.155584 87.15011 
L 593.663873 69.21368 
L 594.172163 113.366868 
L 594.680452 67.510719 
L 595.188741 72.787148 
L 595.69703 71.857735 
L 596.20532 89.765005 
L 596.713609 75.916499 
L 597.221898 81.281372 
L 597.730188 78.178789 
L 598.238477 73.467005 
L 598.746766 72.05336 
L 599.255056 74.085474 
L 599.763345 68.555892 
L 600.271634 72.118233 
L 600.779923 70.672423 
L 601.288213 73.686921 
L 601.796502 67.868991 
L 602.304791 67.880592 
L 602.813081 70.221647 
L 603.32137 70.644488 
L 603.829659 68.683119 
L 604.337949 77.851438 
L 604.846238 68.638158 
L 605.354527 79.081921 
L 605.862817 74.113987 
L 606.371106 71.430545 
L 606.879395 71.579441 
L 607.387684 72.978164 
L 607.895974 67.904454 
L 608.404263 70.164086 
L 608.912552 76.115945 
L 609.420842 71.16501 
L 609.929131 70.092887 
L 610.43742 101.362436 
L 610.94571 74.803723 
L 611.453999 70.828469 
L 611.962288 78.145066 
L 612.470578 70.11075 
L 612.978867 161.425886 
L 613.487156 71.883396 
L 613.995445 74.999248 
L 614.503735 73.829722 
L 615.012024 69.447999 
L 616.028603 74.260039 
L 616.536892 67.276546 
L 617.045181 72.914657 
L 617.553471 74.900727 
L 618.06176 70.317193 
L 618.570049 67.97872 
L 619.078338 69.111859 
L 619.586628 67.635301 
L 620.094917 82.213265 
L 620.603206 70.243688 
L 621.111496 70.89479 
L 621.619785 72.99923 
L 622.128074 69.794675 
L 622.636364 72.913616 
L 622.636364 72.913616 
" style="fill:none;stroke:#2ca02c;stroke-linecap:square;stroke-width:1.5;"/>
   </g>
   <g id="patch_3">
    <path d="M 90 384.48 
L 90 51.84 
" style="fill:none;stroke:#000000;stroke-linecap:square;stroke-linejoin:miter;stroke-width:0.8;"/>
   </g>
   <g id="patch_4">
    <path d="M 648 384.48 
L 648 51.84 
" style="fill:none;stroke:#000000;stroke-linecap:square;stroke-linejoin:miter;stroke-width:0.8;"/>
   </g>
   <g id="patch_5">
    <path d="M 90 384.48 
L 648 384.48 
" style="fill:none;stroke:#000000;stroke-linecap:square;stroke-linejoin:miter;stroke-width:0.8;"/>
   </g>
   <g id="patch_6">
    <path d="M 90 51.84 
L 648 51.84 
" style="fill:none;stroke:#000000;stroke-linecap:square;stroke-linejoin:miter;stroke-width:0.8;"/>
   </g>
   <g id="text_20">
    <!-- Comparison of Reward -->
    <g transform="translate(289.822344 45.84)scale(0.14 -0.14)">
     <defs>
      <path d="M 64.40625 67.28125 
L 64.40625 56.890625 
Q 59.421875 61.53125 53.78125 63.8125 
Q 48.140625 66.109375 41.796875 66.109375 
Q 29.296875 66.109375 22.65625 58.46875 
Q 16.015625 50.828125 16.015625 36.375 
Q 16.015625 21.96875 22.65625 14.328125 
Q 29.296875 6.6875 41.796875 6.6875 
Q 48.140625 6.6875 53.78125 8.984375 
Q 59.421875 11.28125 64.40625 15.921875 
L 64.40625 5.609375 
Q 59.234375 2.09375 53.4375 0.328125 
Q 47.65625 -1.421875 41.21875 -1.421875 
Q 24.65625 -1.421875 15.125 8.703125 
Q 5.609375 18.84375 5.609375 36.375 
Q 5.609375 53.953125 15.125 64.078125 
Q 24.65625 74.21875 41.21875 74.21875 
Q 47.75 74.21875 53.53125 72.484375 
Q 59.328125 70.75 64.40625 67.28125 
z
" id="DejaVuSans-67"/>
      <path d="M 30.609375 48.390625 
Q 23.390625 48.390625 19.1875 42.75 
Q 14.984375 37.109375 14.984375 27.296875 
Q 14.984375 17.484375 19.15625 11.84375 
Q 23.34375 6.203125 30.609375 6.203125 
Q 37.796875 6.203125 41.984375 11.859375 
Q 46.1875 17.53125 46.1875 27.296875 
Q 46.1875 37.015625 41.984375 42.703125 
Q 37.796875 48.390625 30.609375 48.390625 
z
M 30.609375 56 
Q 42.328125 56 49.015625 48.375 
Q 55.71875 40.765625 55.71875 27.296875 
Q 55.71875 13.875 49.015625 6.21875 
Q 42.328125 -1.421875 30.609375 -1.421875 
Q 18.84375 -1.421875 12.171875 6.21875 
Q 5.515625 13.875 5.515625 27.296875 
Q 5.515625 40.765625 12.171875 48.375 
Q 18.84375 56 30.609375 56 
z
" id="DejaVuSans-111"/>
      <path d="M 52 44.1875 
Q 55.375 50.25 60.0625 53.125 
Q 64.75 56 71.09375 56 
Q 79.640625 56 84.28125 50.015625 
Q 88.921875 44.046875 88.921875 33.015625 
L 88.921875 0 
L 79.890625 0 
L 79.890625 32.71875 
Q 79.890625 40.578125 77.09375 44.375 
Q 74.3125 48.1875 68.609375 48.1875 
Q 61.625 48.1875 57.5625 43.546875 
Q 53.515625 38.921875 53.515625 30.90625 
L 53.515625 0 
L 44.484375 0 
L 44.484375 32.71875 
Q 44.484375 40.625 41.703125 44.40625 
Q 38.921875 48.1875 33.109375 48.1875 
Q 26.21875 48.1875 22.15625 43.53125 
Q 18.109375 38.875 18.109375 30.90625 
L 18.109375 0 
L 9.078125 0 
L 9.078125 54.6875 
L 18.109375 54.6875 
L 18.109375 46.1875 
Q 21.1875 51.21875 25.484375 53.609375 
Q 29.78125 56 35.6875 56 
Q 41.65625 56 45.828125 52.96875 
Q 50 49.953125 52 44.1875 
z
" id="DejaVuSans-109"/>
      <path d="M 9.421875 54.6875 
L 18.40625 54.6875 
L 18.40625 0 
L 9.421875 0 
z
M 9.421875 75.984375 
L 18.40625 75.984375 
L 18.40625 64.59375 
L 9.421875 64.59375 
z
" id="DejaVuSans-105"/>
      <path d="M 44.28125 53.078125 
L 44.28125 44.578125 
Q 40.484375 46.53125 36.375 47.5 
Q 32.28125 48.484375 27.875 48.484375 
Q 21.1875 48.484375 17.84375 46.4375 
Q 14.5 44.390625 14.5 40.28125 
Q 14.5 37.15625 16.890625 35.375 
Q 19.28125 33.59375 26.515625 31.984375 
L 29.59375 31.296875 
Q 39.15625 29.25 43.1875 25.515625 
Q 47.21875 21.78125 47.21875 15.09375 
Q 47.21875 7.46875 41.1875 3.015625 
Q 35.15625 -1.421875 24.609375 -1.421875 
Q 20.21875 -1.421875 15.453125 -0.5625 
Q 10.6875 0.296875 5.421875 2 
L 5.421875 11.28125 
Q 10.40625 8.6875 15.234375 7.390625 
Q 20.0625 6.109375 24.8125 6.109375 
Q 31.15625 6.109375 34.5625 8.28125 
Q 37.984375 10.453125 37.984375 14.40625 
Q 37.984375 18.0625 35.515625 20.015625 
Q 33.0625 21.96875 24.703125 23.78125 
L 21.578125 24.515625 
Q 13.234375 26.265625 9.515625 29.90625 
Q 5.8125 33.546875 5.8125 39.890625 
Q 5.8125 47.609375 11.28125 51.796875 
Q 16.75 56 26.8125 56 
Q 31.78125 56 36.171875 55.265625 
Q 40.578125 54.546875 44.28125 53.078125 
z
" id="DejaVuSans-115"/>
      <path d="M 54.890625 33.015625 
L 54.890625 0 
L 45.90625 0 
L 45.90625 32.71875 
Q 45.90625 40.484375 42.875 44.328125 
Q 39.84375 48.1875 33.796875 48.1875 
Q 26.515625 48.1875 22.3125 43.546875 
Q 18.109375 38.921875 18.109375 30.90625 
L 18.109375 0 
L 9.078125 0 
L 9.078125 54.6875 
L 18.109375 54.6875 
L 18.109375 46.1875 
Q 21.34375 51.125 25.703125 53.5625 
Q 30.078125 56 35.796875 56 
Q 45.21875 56 50.046875 50.171875 
Q 54.890625 44.34375 54.890625 33.015625 
z
" id="DejaVuSans-110"/>
      <path id="DejaVuSans-32"/>
      <path d="M 37.109375 75.984375 
L 37.109375 68.5 
L 28.515625 68.5 
Q 23.6875 68.5 21.796875 66.546875 
Q 19.921875 64.59375 19.921875 59.515625 
L 19.921875 54.6875 
L 34.71875 54.6875 
L 34.71875 47.703125 
L 19.921875 47.703125 
L 19.921875 0 
L 10.890625 0 
L 10.890625 47.703125 
L 2.296875 47.703125 
L 2.296875 54.6875 
L 10.890625 54.6875 
L 10.890625 58.5 
Q 10.890625 67.625 15.140625 71.796875 
Q 19.390625 75.984375 28.609375 75.984375 
z
" id="DejaVuSans-102"/>
     </defs>
     <use xlink:href="#DejaVuSans-67"/>
     <use x="69.824219" xlink:href="#DejaVuSans-111"/>
     <use x="131.005859" xlink:href="#DejaVuSans-109"/>
     <use x="228.417969" xlink:href="#DejaVuSans-112"/>
     <use x="291.894531" xlink:href="#DejaVuSans-97"/>
     <use x="353.173828" xlink:href="#DejaVuSans-114"/>
     <use x="394.287109" xlink:href="#DejaVuSans-105"/>
     <use x="422.070312" xlink:href="#DejaVuSans-115"/>
     <use x="474.169922" xlink:href="#DejaVuSans-111"/>
     <use x="535.351562" xlink:href="#DejaVuSans-110"/>
     <use x="598.730469" xlink:href="#DejaVuSans-32"/>
     <use x="630.517578" xlink:href="#DejaVuSans-111"/>
     <use x="691.699219" xlink:href="#DejaVuSans-102"/>
     <use x="726.904297" xlink:href="#DejaVuSans-32"/>
     <use x="758.691406" xlink:href="#DejaVuSans-82"/>
     <use x="823.673828" xlink:href="#DejaVuSans-101"/>
     <use x="885.197266" xlink:href="#DejaVuSans-119"/>
     <use x="966.984375" xlink:href="#DejaVuSans-97"/>
     <use x="1028.263672" xlink:href="#DejaVuSans-114"/>
     <use x="1067.626953" xlink:href="#DejaVuSans-100"/>
    </g>
   </g>
   <g id="legend_1">
    <g id="patch_7">
     <path d="M 470.775 379.48 
L 641 379.48 
Q 643 379.48 643 377.48 
L 643 333.889375 
Q 643 331.889375 641 331.889375 
L 470.775 331.889375 
Q 468.775 331.889375 468.775 333.889375 
L 468.775 377.48 
Q 468.775 379.48 470.775 379.48 
z
" style="fill:#ffffff;opacity:0.8;stroke:#cccccc;stroke-linejoin:miter;"/>
    </g>
    <g id="line2d_38">
     <path d="M 472.775 339.987813 
L 492.775 339.987813 
" style="fill:none;stroke:#1f77b4;stroke-linecap:square;stroke-width:1.5;"/>
    </g>
    <g id="line2d_39"/>
    <g id="text_21">
     <!-- basic -->
     <g transform="translate(500.775 343.487813)scale(0.1 -0.1)">
      <defs>
       <path d="M 48.6875 27.296875 
Q 48.6875 37.203125 44.609375 42.84375 
Q 40.53125 48.484375 33.40625 48.484375 
Q 26.265625 48.484375 22.1875 42.84375 
Q 18.109375 37.203125 18.109375 27.296875 
Q 18.109375 17.390625 22.1875 11.75 
Q 26.265625 6.109375 33.40625 6.109375 
Q 40.53125 6.109375 44.609375 11.75 
Q 48.6875 17.390625 48.6875 27.296875 
z
M 18.109375 46.390625 
Q 20.953125 51.265625 25.265625 53.625 
Q 29.59375 56 35.59375 56 
Q 45.5625 56 51.78125 48.09375 
Q 58.015625 40.1875 58.015625 27.296875 
Q 58.015625 14.40625 51.78125 6.484375 
Q 45.5625 -1.421875 35.59375 -1.421875 
Q 29.59375 -1.421875 25.265625 0.953125 
Q 20.953125 3.328125 18.109375 8.203125 
L 18.109375 0 
L 9.078125 0 
L 9.078125 75.984375 
L 18.109375 75.984375 
z
" id="DejaVuSans-98"/>
       <path d="M 48.78125 52.59375 
L 48.78125 44.1875 
Q 44.96875 46.296875 41.140625 47.34375 
Q 37.3125 48.390625 33.40625 48.390625 
Q 24.65625 48.390625 19.8125 42.84375 
Q 14.984375 37.3125 14.984375 27.296875 
Q 14.984375 17.28125 19.8125 11.734375 
Q 24.65625 6.203125 33.40625 6.203125 
Q 37.3125 6.203125 41.140625 7.25 
Q 44.96875 8.296875 48.78125 10.40625 
L 48.78125 2.09375 
Q 45.015625 0.34375 40.984375 -0.53125 
Q 36.96875 -1.421875 32.421875 -1.421875 
Q 20.0625 -1.421875 12.78125 6.34375 
Q 5.515625 14.109375 5.515625 27.296875 
Q 5.515625 40.671875 12.859375 48.328125 
Q 20.21875 56 33.015625 56 
Q 37.15625 56 41.109375 55.140625 
Q 45.0625 54.296875 48.78125 52.59375 
z
" id="DejaVuSans-99"/>
      </defs>
      <use xlink:href="#DejaVuSans-98"/>
      <use x="63.476562" xlink:href="#DejaVuSans-97"/>
      <use x="124.755859" xlink:href="#DejaVuSans-115"/>
      <use x="176.855469" xlink:href="#DejaVuSans-105"/>
      <use x="204.638672" xlink:href="#DejaVuSans-99"/>
     </g>
    </g>
    <g id="line2d_40">
     <path d="M 472.775 354.665938 
L 492.775 354.665938 
" style="fill:none;stroke:#ff7f0e;stroke-linecap:square;stroke-width:1.5;"/>
    </g>
    <g id="line2d_41"/>
    <g id="text_22">
     <!-- reach-v2_updateFreq1 -->
     <g transform="translate(500.775 358.165938)scale(0.1 -0.1)">
      <defs>
       <path d="M 54.890625 33.015625 
L 54.890625 0 
L 45.90625 0 
L 45.90625 32.71875 
Q 45.90625 40.484375 42.875 44.328125 
Q 39.84375 48.1875 33.796875 48.1875 
Q 26.515625 48.1875 22.3125 43.546875 
Q 18.109375 38.921875 18.109375 30.90625 
L 18.109375 0 
L 9.078125 0 
L 9.078125 75.984375 
L 18.109375 75.984375 
L 18.109375 46.1875 
Q 21.34375 51.125 25.703125 53.5625 
Q 30.078125 56 35.796875 56 
Q 45.21875 56 50.046875 50.171875 
Q 54.890625 44.34375 54.890625 33.015625 
z
" id="DejaVuSans-104"/>
       <path d="M 4.890625 31.390625 
L 31.203125 31.390625 
L 31.203125 23.390625 
L 4.890625 23.390625 
z
" id="DejaVuSans-45"/>
       <path d="M 2.984375 54.6875 
L 12.5 54.6875 
L 29.59375 8.796875 
L 46.6875 54.6875 
L 56.203125 54.6875 
L 35.6875 0 
L 23.484375 0 
z
" id="DejaVuSans-118"/>
       <path d="M 50.984375 -16.609375 
L 50.984375 -23.578125 
L -0.984375 -23.578125 
L -0.984375 -16.609375 
z
" id="DejaVuSans-95"/>
       <path d="M 8.5 21.578125 
L 8.5 54.6875 
L 17.484375 54.6875 
L 17.484375 21.921875 
Q 17.484375 14.15625 20.5 10.265625 
Q 23.53125 6.390625 29.59375 6.390625 
Q 36.859375 6.390625 41.078125 11.03125 
Q 45.3125 15.671875 45.3125 23.6875 
L 45.3125 54.6875 
L 54.296875 54.6875 
L 54.296875 0 
L 45.3125 0 
L 45.3125 8.40625 
Q 42.046875 3.421875 37.71875 1 
Q 33.40625 -1.421875 27.6875 -1.421875 
Q 18.265625 -1.421875 13.375 4.4375 
Q 8.5 10.296875 8.5 21.578125 
z
M 31.109375 56 
z
" id="DejaVuSans-117"/>
       <path d="M 9.8125 72.90625 
L 51.703125 72.90625 
L 51.703125 64.59375 
L 19.671875 64.59375 
L 19.671875 43.109375 
L 48.578125 43.109375 
L 48.578125 34.8125 
L 19.671875 34.8125 
L 19.671875 0 
L 9.8125 0 
z
" id="DejaVuSans-70"/>
       <path d="M 14.796875 27.296875 
Q 14.796875 17.390625 18.875 11.75 
Q 22.953125 6.109375 30.078125 6.109375 
Q 37.203125 6.109375 41.296875 11.75 
Q 45.40625 17.390625 45.40625 27.296875 
Q 45.40625 37.203125 41.296875 42.84375 
Q 37.203125 48.484375 30.078125 48.484375 
Q 22.953125 48.484375 18.875 42.84375 
Q 14.796875 37.203125 14.796875 27.296875 
z
M 45.40625 8.203125 
Q 42.578125 3.328125 38.25 0.953125 
Q 33.9375 -1.421875 27.875 -1.421875 
Q 17.96875 -1.421875 11.734375 6.484375 
Q 5.515625 14.40625 5.515625 27.296875 
Q 5.515625 40.1875 11.734375 48.09375 
Q 17.96875 56 27.875 56 
Q 33.9375 56 38.25 53.625 
Q 42.578125 51.265625 45.40625 46.390625 
L 45.40625 54.6875 
L 54.390625 54.6875 
L 54.390625 -20.796875 
L 45.40625 -20.796875 
z
" id="DejaVuSans-113"/>
      </defs>
      <use xlink:href="#DejaVuSans-114"/>
      <use x="38.863281" xlink:href="#DejaVuSans-101"/>
      <use x="100.386719" xlink:href="#DejaVuSans-97"/>
      <use x="161.666016" xlink:href="#DejaVuSans-99"/>
      <use x="216.646484" xlink:href="#DejaVuSans-104"/>
      <use x="280.025391" xlink:href="#DejaVuSans-45"/>
      <use x="313.484375" xlink:href="#DejaVuSans-118"/>
      <use x="372.664062" xlink:href="#DejaVuSans-50"/>
      <use x="436.287109" xlink:href="#DejaVuSans-95"/>
      <use x="486.287109" xlink:href="#DejaVuSans-117"/>
      <use x="549.666016" xlink:href="#DejaVuSans-112"/>
      <use x="613.142578" xlink:href="#DejaVuSans-100"/>
      <use x="676.619141" xlink:href="#DejaVuSans-97"/>
      <use x="737.898438" xlink:href="#DejaVuSans-116"/>
      <use x="777.107422" xlink:href="#DejaVuSans-101"/>
      <use x="838.630859" xlink:href="#DejaVuSans-70"/>
      <use x="888.900391" xlink:href="#DejaVuSans-114"/>
      <use x="927.763672" xlink:href="#DejaVuSans-101"/>
      <use x="989.287109" xlink:href="#DejaVuSans-113"/>
      <use x="1052.763672" xlink:href="#DejaVuSans-49"/>
     </g>
    </g>
    <g id="line2d_42">
     <path d="M 472.775 369.622187 
L 492.775 369.622187 
" style="fill:none;stroke:#2ca02c;stroke-linecap:square;stroke-width:1.5;"/>
    </g>
    <g id="line2d_43"/>
    <g id="text_23">
     <!-- reach-v2_updateFreq1_long -->
     <g transform="translate(500.775 373.122187)scale(0.1 -0.1)">
      <defs>
       <path d="M 9.421875 75.984375 
L 18.40625 75.984375 
L 18.40625 0 
L 9.421875 0 
z
" id="DejaVuSans-108"/>
       <path d="M 45.40625 27.984375 
Q 45.40625 37.75 41.375 43.109375 
Q 37.359375 48.484375 30.078125 48.484375 
Q 22.859375 48.484375 18.828125 43.109375 
Q 14.796875 37.75 14.796875 27.984375 
Q 14.796875 18.265625 18.828125 12.890625 
Q 22.859375 7.515625 30.078125 7.515625 
Q 37.359375 7.515625 41.375 12.890625 
Q 45.40625 18.265625 45.40625 27.984375 
z
M 54.390625 6.78125 
Q 54.390625 -7.171875 48.1875 -13.984375 
Q 42 -20.796875 29.203125 -20.796875 
Q 24.46875 -20.796875 20.265625 -20.09375 
Q 16.0625 -19.390625 12.109375 -17.921875 
L 12.109375 -9.1875 
Q 16.0625 -11.328125 19.921875 -12.34375 
Q 23.78125 -13.375 27.78125 -13.375 
Q 36.625 -13.375 41.015625 -8.765625 
Q 45.40625 -4.15625 45.40625 5.171875 
L 45.40625 9.625 
Q 42.625 4.78125 38.28125 2.390625 
Q 33.9375 0 27.875 0 
Q 17.828125 0 11.671875 7.65625 
Q 5.515625 15.328125 5.515625 27.984375 
Q 5.515625 40.671875 11.671875 48.328125 
Q 17.828125 56 27.875 56 
Q 33.9375 56 38.28125 53.609375 
Q 42.625 51.21875 45.40625 46.390625 
L 45.40625 54.6875 
L 54.390625 54.6875 
z
" id="DejaVuSans-103"/>
      </defs>
      <use xlink:href="#DejaVuSans-114"/>
      <use x="38.863281" xlink:href="#DejaVuSans-101"/>
      <use x="100.386719" xlink:href="#DejaVuSans-97"/>
      <use x="161.666016" xlink:href="#DejaVuSans-99"/>
      <use x="216.646484" xlink:href="#DejaVuSans-104"/>
      <use x="280.025391" xlink:href="#DejaVuSans-45"/>
      <use x="313.484375" xlink:href="#DejaVuSans-118"/>
      <use x="372.664062" xlink:href="#DejaVuSans-50"/>
      <use x="436.287109" xlink:href="#DejaVuSans-95"/>
      <use x="486.287109" xlink:href="#DejaVuSans-117"/>
      <use x="549.666016" xlink:href="#DejaVuSans-112"/>
      <use x="613.142578" xlink:href="#DejaVuSans-100"/>
      <use x="676.619141" xlink:href="#DejaVuSans-97"/>
      <use x="737.898438" xlink:href="#DejaVuSans-116"/>
      <use x="777.107422" xlink:href="#DejaVuSans-101"/>
      <use x="838.630859" xlink:href="#DejaVuSans-70"/>
      <use x="888.900391" xlink:href="#DejaVuSans-114"/>
      <use x="927.763672" xlink:href="#DejaVuSans-101"/>
      <use x="989.287109" xlink:href="#DejaVuSans-113"/>
      <use x="1052.763672" xlink:href="#DejaVuSans-49"/>
      <use x="1116.386719" xlink:href="#DejaVuSans-95"/>
      <use x="1166.386719" xlink:href="#DejaVuSans-108"/>
      <use x="1194.169922" xlink:href="#DejaVuSans-111"/>
      <use x="1255.351562" xlink:href="#DejaVuSans-110"/>
      <use x="1318.730469" xlink:href="#DejaVuSans-103"/>
     </g>
    </g>
   </g>
  </g>
 </g>
 <defs>
  <clipPath id="p45b0f616b6">
   <rect height="332.64" width="558" x="90" y="51.84"/>
  </clipPath>
 </defs>
</svg>
