<?xml version="1.0" encoding="utf-8" standalone="no"?>
<!DOCTYPE svg PUBLIC "-//W3C//DTD SVG 1.1//EN"
  "http://www.w3.org/Graphics/SVG/1.1/DTD/svg11.dtd">
<!-- Created with matplotlib (https://matplotlib.org/) -->
<svg height="432pt" version="1.1" viewBox="0 0 720 432" width="720pt" xmlns="http://www.w3.org/2000/svg" xmlns:xlink="http://www.w3.org/1999/xlink">
 <metadata>
  <rdf:RDF xmlns:cc="http://creativecommons.org/ns#" xmlns:dc="http://purl.org/dc/elements/1.1/" xmlns:rdf="http://www.w3.org/1999/02/22-rdf-syntax-ns#">
   <cc:Work>
    <dc:type rdf:resource="http://purl.org/dc/dcmitype/StillImage"/>
    <dc:date>2025-08-01T16:24:58.866396</dc:date>
    <dc:format>image/svg+xml</dc:format>
    <dc:creator>
     <cc:Agent>
      <dc:title>Matplotlib v3.3.3, https://matplotlib.org/</dc:title>
     </cc:Agent>
    </dc:creator>
   </cc:Work>
  </rdf:RDF>
 </metadata>
 <defs>
  <style type="text/css">*{stroke-linecap:butt;stroke-linejoin:round;}</style>
 </defs>
 <g id="figure_1">
  <g id="patch_1">
   <path d="M 0 432 
L 720 432 
L 720 0 
L 0 0 
z
" style="fill:#ffffff;"/>
  </g>
  <g id="axes_1">
   <g id="patch_2">
    <path d="M 90 384.48 
L 648 384.48 
L 648 51.84 
L 90 51.84 
z
" style="fill:#ffffff;"/>
   </g>
   <g id="matplotlib.axis_1">
    <g id="xtick_1">
     <g id="line2d_1">
      <path clip-path="url(#p6c8453fbae)" d="M 114.855347 384.48 
L 114.855347 51.84 
" style="fill:none;stroke:#b0b0b0;stroke-linecap:square;stroke-width:0.8;"/>
     </g>
     <g id="line2d_2">
      <defs>
       <path d="M 0 0 
L 0 3.5 
" id="m7e1d15d6c3" style="stroke:#000000;stroke-width:0.8;"/>
      </defs>
      <g>
       <use style="stroke:#000000;stroke-width:0.8;" x="114.855347" xlink:href="#m7e1d15d6c3" y="384.48"/>
      </g>
     </g>
     <g id="text_1">
      <!-- 0 -->
      <g transform="translate(111.674097 399.078438)scale(0.1 -0.1)">
       <defs>
        <path d="M 31.78125 66.40625 
Q 24.171875 66.40625 20.328125 58.90625 
Q 16.5 51.421875 16.5 36.375 
Q 16.5 21.390625 20.328125 13.890625 
Q 24.171875 6.390625 31.78125 6.390625 
Q 39.453125 6.390625 43.28125 13.890625 
Q 47.125 21.390625 47.125 36.375 
Q 47.125 51.421875 43.28125 58.90625 
Q 39.453125 66.40625 31.78125 66.40625 
z
M 31.78125 74.21875 
Q 44.046875 74.21875 50.515625 64.515625 
Q 56.984375 54.828125 56.984375 36.375 
Q 56.984375 17.96875 50.515625 8.265625 
Q 44.046875 -1.421875 31.78125 -1.421875 
Q 19.53125 -1.421875 13.0625 8.265625 
Q 6.59375 17.96875 6.59375 36.375 
Q 6.59375 54.828125 13.0625 64.515625 
Q 19.53125 74.21875 31.78125 74.21875 
z
" id="DejaVuSans-48"/>
       </defs>
       <use xlink:href="#DejaVuSans-48"/>
      </g>
     </g>
    </g>
    <g id="xtick_2">
     <g id="line2d_3">
      <path clip-path="url(#p6c8453fbae)" d="M 178.39151 384.48 
L 178.39151 51.84 
" style="fill:none;stroke:#b0b0b0;stroke-linecap:square;stroke-width:0.8;"/>
     </g>
     <g id="line2d_4">
      <g>
       <use style="stroke:#000000;stroke-width:0.8;" x="178.39151" xlink:href="#m7e1d15d6c3" y="384.48"/>
      </g>
     </g>
     <g id="text_2">
      <!-- 50000 -->
      <g transform="translate(162.48526 399.078438)scale(0.1 -0.1)">
       <defs>
        <path d="M 10.796875 72.90625 
L 49.515625 72.90625 
L 49.515625 64.59375 
L 19.828125 64.59375 
L 19.828125 46.734375 
Q 21.96875 47.46875 24.109375 47.828125 
Q 26.265625 48.1875 28.421875 48.1875 
Q 40.625 48.1875 47.75 41.5 
Q 54.890625 34.8125 54.890625 23.390625 
Q 54.890625 11.625 47.5625 5.09375 
Q 40.234375 -1.421875 26.90625 -1.421875 
Q 22.3125 -1.421875 17.546875 -0.640625 
Q 12.796875 0.140625 7.71875 1.703125 
L 7.71875 11.625 
Q 12.109375 9.234375 16.796875 8.0625 
Q 21.484375 6.890625 26.703125 6.890625 
Q 35.15625 6.890625 40.078125 11.328125 
Q 45.015625 15.765625 45.015625 23.390625 
Q 45.015625 31 40.078125 35.4375 
Q 35.15625 39.890625 26.703125 39.890625 
Q 22.75 39.890625 18.8125 39.015625 
Q 14.890625 38.140625 10.796875 36.28125 
z
" id="DejaVuSans-53"/>
       </defs>
       <use xlink:href="#DejaVuSans-53"/>
       <use x="63.623047" xlink:href="#DejaVuSans-48"/>
       <use x="127.246094" xlink:href="#DejaVuSans-48"/>
       <use x="190.869141" xlink:href="#DejaVuSans-48"/>
       <use x="254.492188" xlink:href="#DejaVuSans-48"/>
      </g>
     </g>
    </g>
    <g id="xtick_3">
     <g id="line2d_5">
      <path clip-path="url(#p6c8453fbae)" d="M 241.927674 384.48 
L 241.927674 51.84 
" style="fill:none;stroke:#b0b0b0;stroke-linecap:square;stroke-width:0.8;"/>
     </g>
     <g id="line2d_6">
      <g>
       <use style="stroke:#000000;stroke-width:0.8;" x="241.927674" xlink:href="#m7e1d15d6c3" y="384.48"/>
      </g>
     </g>
     <g id="text_3">
      <!-- 100000 -->
      <g transform="translate(222.840174 399.078438)scale(0.1 -0.1)">
       <defs>
        <path d="M 12.40625 8.296875 
L 28.515625 8.296875 
L 28.515625 63.921875 
L 10.984375 60.40625 
L 10.984375 69.390625 
L 28.421875 72.90625 
L 38.28125 72.90625 
L 38.28125 8.296875 
L 54.390625 8.296875 
L 54.390625 0 
L 12.40625 0 
z
" id="DejaVuSans-49"/>
       </defs>
       <use xlink:href="#DejaVuSans-49"/>
       <use x="63.623047" xlink:href="#DejaVuSans-48"/>
       <use x="127.246094" xlink:href="#DejaVuSans-48"/>
       <use x="190.869141" xlink:href="#DejaVuSans-48"/>
       <use x="254.492188" xlink:href="#DejaVuSans-48"/>
       <use x="318.115234" xlink:href="#DejaVuSans-48"/>
      </g>
     </g>
    </g>
    <g id="xtick_4">
     <g id="line2d_7">
      <path clip-path="url(#p6c8453fbae)" d="M 305.463837 384.48 
L 305.463837 51.84 
" style="fill:none;stroke:#b0b0b0;stroke-linecap:square;stroke-width:0.8;"/>
     </g>
     <g id="line2d_8">
      <g>
       <use style="stroke:#000000;stroke-width:0.8;" x="305.463837" xlink:href="#m7e1d15d6c3" y="384.48"/>
      </g>
     </g>
     <g id="text_4">
      <!-- 150000 -->
      <g transform="translate(286.376337 399.078438)scale(0.1 -0.1)">
       <use xlink:href="#DejaVuSans-49"/>
       <use x="63.623047" xlink:href="#DejaVuSans-53"/>
       <use x="127.246094" xlink:href="#DejaVuSans-48"/>
       <use x="190.869141" xlink:href="#DejaVuSans-48"/>
       <use x="254.492188" xlink:href="#DejaVuSans-48"/>
       <use x="318.115234" xlink:href="#DejaVuSans-48"/>
      </g>
     </g>
    </g>
    <g id="xtick_5">
     <g id="line2d_9">
      <path clip-path="url(#p6c8453fbae)" d="M 369 384.48 
L 369 51.84 
" style="fill:none;stroke:#b0b0b0;stroke-linecap:square;stroke-width:0.8;"/>
     </g>
     <g id="line2d_10">
      <g>
       <use style="stroke:#000000;stroke-width:0.8;" x="369" xlink:href="#m7e1d15d6c3" y="384.48"/>
      </g>
     </g>
     <g id="text_5">
      <!-- 200000 -->
      <g transform="translate(349.9125 399.078438)scale(0.1 -0.1)">
       <defs>
        <path d="M 19.1875 8.296875 
L 53.609375 8.296875 
L 53.609375 0 
L 7.328125 0 
L 7.328125 8.296875 
Q 12.9375 14.109375 22.625 23.890625 
Q 32.328125 33.6875 34.8125 36.53125 
Q 39.546875 41.84375 41.421875 45.53125 
Q 43.3125 49.21875 43.3125 52.78125 
Q 43.3125 58.59375 39.234375 62.25 
Q 35.15625 65.921875 28.609375 65.921875 
Q 23.96875 65.921875 18.8125 64.3125 
Q 13.671875 62.703125 7.8125 59.421875 
L 7.8125 69.390625 
Q 13.765625 71.78125 18.9375 73 
Q 24.125 74.21875 28.421875 74.21875 
Q 39.75 74.21875 46.484375 68.546875 
Q 53.21875 62.890625 53.21875 53.421875 
Q 53.21875 48.921875 51.53125 44.890625 
Q 49.859375 40.875 45.40625 35.40625 
Q 44.1875 33.984375 37.640625 27.21875 
Q 31.109375 20.453125 19.1875 8.296875 
z
" id="DejaVuSans-50"/>
       </defs>
       <use xlink:href="#DejaVuSans-50"/>
       <use x="63.623047" xlink:href="#DejaVuSans-48"/>
       <use x="127.246094" xlink:href="#DejaVuSans-48"/>
       <use x="190.869141" xlink:href="#DejaVuSans-48"/>
       <use x="254.492188" xlink:href="#DejaVuSans-48"/>
       <use x="318.115234" xlink:href="#DejaVuSans-48"/>
      </g>
     </g>
    </g>
    <g id="xtick_6">
     <g id="line2d_11">
      <path clip-path="url(#p6c8453fbae)" d="M 432.536163 384.48 
L 432.536163 51.84 
" style="fill:none;stroke:#b0b0b0;stroke-linecap:square;stroke-width:0.8;"/>
     </g>
     <g id="line2d_12">
      <g>
       <use style="stroke:#000000;stroke-width:0.8;" x="432.536163" xlink:href="#m7e1d15d6c3" y="384.48"/>
      </g>
     </g>
     <g id="text_6">
      <!-- 250000 -->
      <g transform="translate(413.448663 399.078438)scale(0.1 -0.1)">
       <use xlink:href="#DejaVuSans-50"/>
       <use x="63.623047" xlink:href="#DejaVuSans-53"/>
       <use x="127.246094" xlink:href="#DejaVuSans-48"/>
       <use x="190.869141" xlink:href="#DejaVuSans-48"/>
       <use x="254.492188" xlink:href="#DejaVuSans-48"/>
       <use x="318.115234" xlink:href="#DejaVuSans-48"/>
      </g>
     </g>
    </g>
    <g id="xtick_7">
     <g id="line2d_13">
      <path clip-path="url(#p6c8453fbae)" d="M 496.072326 384.48 
L 496.072326 51.84 
" style="fill:none;stroke:#b0b0b0;stroke-linecap:square;stroke-width:0.8;"/>
     </g>
     <g id="line2d_14">
      <g>
       <use style="stroke:#000000;stroke-width:0.8;" x="496.072326" xlink:href="#m7e1d15d6c3" y="384.48"/>
      </g>
     </g>
     <g id="text_7">
      <!-- 300000 -->
      <g transform="translate(476.984826 399.078438)scale(0.1 -0.1)">
       <defs>
        <path d="M 40.578125 39.3125 
Q 47.65625 37.796875 51.625 33 
Q 55.609375 28.21875 55.609375 21.1875 
Q 55.609375 10.40625 48.1875 4.484375 
Q 40.765625 -1.421875 27.09375 -1.421875 
Q 22.515625 -1.421875 17.65625 -0.515625 
Q 12.796875 0.390625 7.625 2.203125 
L 7.625 11.71875 
Q 11.71875 9.328125 16.59375 8.109375 
Q 21.484375 6.890625 26.8125 6.890625 
Q 36.078125 6.890625 40.9375 10.546875 
Q 45.796875 14.203125 45.796875 21.1875 
Q 45.796875 27.640625 41.28125 31.265625 
Q 36.765625 34.90625 28.71875 34.90625 
L 20.21875 34.90625 
L 20.21875 43.015625 
L 29.109375 43.015625 
Q 36.375 43.015625 40.234375 45.921875 
Q 44.09375 48.828125 44.09375 54.296875 
Q 44.09375 59.90625 40.109375 62.90625 
Q 36.140625 65.921875 28.71875 65.921875 
Q 24.65625 65.921875 20.015625 65.03125 
Q 15.375 64.15625 9.8125 62.3125 
L 9.8125 71.09375 
Q 15.4375 72.65625 20.34375 73.4375 
Q 25.25 74.21875 29.59375 74.21875 
Q 40.828125 74.21875 47.359375 69.109375 
Q 53.90625 64.015625 53.90625 55.328125 
Q 53.90625 49.265625 50.4375 45.09375 
Q 46.96875 40.921875 40.578125 39.3125 
z
" id="DejaVuSans-51"/>
       </defs>
       <use xlink:href="#DejaVuSans-51"/>
       <use x="63.623047" xlink:href="#DejaVuSans-48"/>
       <use x="127.246094" xlink:href="#DejaVuSans-48"/>
       <use x="190.869141" xlink:href="#DejaVuSans-48"/>
       <use x="254.492188" xlink:href="#DejaVuSans-48"/>
       <use x="318.115234" xlink:href="#DejaVuSans-48"/>
      </g>
     </g>
    </g>
    <g id="xtick_8">
     <g id="line2d_15">
      <path clip-path="url(#p6c8453fbae)" d="M 559.60849 384.48 
L 559.60849 51.84 
" style="fill:none;stroke:#b0b0b0;stroke-linecap:square;stroke-width:0.8;"/>
     </g>
     <g id="line2d_16">
      <g>
       <use style="stroke:#000000;stroke-width:0.8;" x="559.60849" xlink:href="#m7e1d15d6c3" y="384.48"/>
      </g>
     </g>
     <g id="text_8">
      <!-- 350000 -->
      <g transform="translate(540.52099 399.078438)scale(0.1 -0.1)">
       <use xlink:href="#DejaVuSans-51"/>
       <use x="63.623047" xlink:href="#DejaVuSans-53"/>
       <use x="127.246094" xlink:href="#DejaVuSans-48"/>
       <use x="190.869141" xlink:href="#DejaVuSans-48"/>
       <use x="254.492188" xlink:href="#DejaVuSans-48"/>
       <use x="318.115234" xlink:href="#DejaVuSans-48"/>
      </g>
     </g>
    </g>
    <g id="xtick_9">
     <g id="line2d_17">
      <path clip-path="url(#p6c8453fbae)" d="M 623.144653 384.48 
L 623.144653 51.84 
" style="fill:none;stroke:#b0b0b0;stroke-linecap:square;stroke-width:0.8;"/>
     </g>
     <g id="line2d_18">
      <g>
       <use style="stroke:#000000;stroke-width:0.8;" x="623.144653" xlink:href="#m7e1d15d6c3" y="384.48"/>
      </g>
     </g>
     <g id="text_9">
      <!-- 400000 -->
      <g transform="translate(604.057153 399.078438)scale(0.1 -0.1)">
       <defs>
        <path d="M 37.796875 64.3125 
L 12.890625 25.390625 
L 37.796875 25.390625 
z
M 35.203125 72.90625 
L 47.609375 72.90625 
L 47.609375 25.390625 
L 58.015625 25.390625 
L 58.015625 17.1875 
L 47.609375 17.1875 
L 47.609375 0 
L 37.796875 0 
L 37.796875 17.1875 
L 4.890625 17.1875 
L 4.890625 26.703125 
z
" id="DejaVuSans-52"/>
       </defs>
       <use xlink:href="#DejaVuSans-52"/>
       <use x="63.623047" xlink:href="#DejaVuSans-48"/>
       <use x="127.246094" xlink:href="#DejaVuSans-48"/>
       <use x="190.869141" xlink:href="#DejaVuSans-48"/>
       <use x="254.492188" xlink:href="#DejaVuSans-48"/>
       <use x="318.115234" xlink:href="#DejaVuSans-48"/>
      </g>
     </g>
    </g>
    <g id="text_10">
     <!-- Step -->
     <g transform="translate(355.337812 414.27625)scale(0.12 -0.12)">
      <defs>
       <path d="M 53.515625 70.515625 
L 53.515625 60.890625 
Q 47.90625 63.578125 42.921875 64.890625 
Q 37.9375 66.21875 33.296875 66.21875 
Q 25.25 66.21875 20.875 63.09375 
Q 16.5 59.96875 16.5 54.203125 
Q 16.5 49.359375 19.40625 46.890625 
Q 22.3125 44.4375 30.421875 42.921875 
L 36.375 41.703125 
Q 47.40625 39.59375 52.65625 34.296875 
Q 57.90625 29 57.90625 20.125 
Q 57.90625 9.515625 50.796875 4.046875 
Q 43.703125 -1.421875 29.984375 -1.421875 
Q 24.8125 -1.421875 18.96875 -0.25 
Q 13.140625 0.921875 6.890625 3.21875 
L 6.890625 13.375 
Q 12.890625 10.015625 18.65625 8.296875 
Q 24.421875 6.59375 29.984375 6.59375 
Q 38.421875 6.59375 43.015625 9.90625 
Q 47.609375 13.234375 47.609375 19.390625 
Q 47.609375 24.75 44.3125 27.78125 
Q 41.015625 30.8125 33.5 32.328125 
L 27.484375 33.5 
Q 16.453125 35.6875 11.515625 40.375 
Q 6.59375 45.0625 6.59375 53.421875 
Q 6.59375 63.09375 13.40625 68.65625 
Q 20.21875 74.21875 32.171875 74.21875 
Q 37.3125 74.21875 42.625 73.28125 
Q 47.953125 72.359375 53.515625 70.515625 
z
" id="DejaVuSans-83"/>
       <path d="M 18.3125 70.21875 
L 18.3125 54.6875 
L 36.8125 54.6875 
L 36.8125 47.703125 
L 18.3125 47.703125 
L 18.3125 18.015625 
Q 18.3125 11.328125 20.140625 9.421875 
Q 21.96875 7.515625 27.59375 7.515625 
L 36.8125 7.515625 
L 36.8125 0 
L 27.59375 0 
Q 17.1875 0 13.234375 3.875 
Q 9.28125 7.765625 9.28125 18.015625 
L 9.28125 47.703125 
L 2.6875 47.703125 
L 2.6875 54.6875 
L 9.28125 54.6875 
L 9.28125 70.21875 
z
" id="DejaVuSans-116"/>
       <path d="M 56.203125 29.59375 
L 56.203125 25.203125 
L 14.890625 25.203125 
Q 15.484375 15.921875 20.484375 11.0625 
Q 25.484375 6.203125 34.421875 6.203125 
Q 39.59375 6.203125 44.453125 7.46875 
Q 49.3125 8.734375 54.109375 11.28125 
L 54.109375 2.78125 
Q 49.265625 0.734375 44.1875 -0.34375 
Q 39.109375 -1.421875 33.890625 -1.421875 
Q 20.796875 -1.421875 13.15625 6.1875 
Q 5.515625 13.8125 5.515625 26.8125 
Q 5.515625 40.234375 12.765625 48.109375 
Q 20.015625 56 32.328125 56 
Q 43.359375 56 49.78125 48.890625 
Q 56.203125 41.796875 56.203125 29.59375 
z
M 47.21875 32.234375 
Q 47.125 39.59375 43.09375 43.984375 
Q 39.0625 48.390625 32.421875 48.390625 
Q 24.90625 48.390625 20.390625 44.140625 
Q 15.875 39.890625 15.1875 32.171875 
z
" id="DejaVuSans-101"/>
       <path d="M 18.109375 8.203125 
L 18.109375 -20.796875 
L 9.078125 -20.796875 
L 9.078125 54.6875 
L 18.109375 54.6875 
L 18.109375 46.390625 
Q 20.953125 51.265625 25.265625 53.625 
Q 29.59375 56 35.59375 56 
Q 45.5625 56 51.78125 48.09375 
Q 58.015625 40.1875 58.015625 27.296875 
Q 58.015625 14.40625 51.78125 6.484375 
Q 45.5625 -1.421875 35.59375 -1.421875 
Q 29.59375 -1.421875 25.265625 0.953125 
Q 20.953125 3.328125 18.109375 8.203125 
z
M 48.6875 27.296875 
Q 48.6875 37.203125 44.609375 42.84375 
Q 40.53125 48.484375 33.40625 48.484375 
Q 26.265625 48.484375 22.1875 42.84375 
Q 18.109375 37.203125 18.109375 27.296875 
Q 18.109375 17.390625 22.1875 11.75 
Q 26.265625 6.109375 33.40625 6.109375 
Q 40.53125 6.109375 44.609375 11.75 
Q 48.6875 17.390625 48.6875 27.296875 
z
" id="DejaVuSans-112"/>
      </defs>
      <use xlink:href="#DejaVuSans-83"/>
      <use x="63.476562" xlink:href="#DejaVuSans-116"/>
      <use x="102.685547" xlink:href="#DejaVuSans-101"/>
      <use x="164.208984" xlink:href="#DejaVuSans-112"/>
     </g>
    </g>
   </g>
   <g id="matplotlib.axis_2">
    <g id="ytick_1">
     <g id="line2d_19">
      <path clip-path="url(#p6c8453fbae)" d="M 90 353.363448 
L 648 353.363448 
" style="fill:none;stroke:#b0b0b0;stroke-linecap:square;stroke-width:0.8;"/>
     </g>
     <g id="line2d_20">
      <defs>
       <path d="M 0 0 
L -3.5 0 
" id="m6b1c498ef0" style="stroke:#000000;stroke-width:0.8;"/>
      </defs>
      <g>
       <use style="stroke:#000000;stroke-width:0.8;" x="90" xlink:href="#m6b1c498ef0" y="353.363448"/>
      </g>
     </g>
     <g id="text_11">
      <!-- 500 -->
      <g transform="translate(63.9125 357.162667)scale(0.1 -0.1)">
       <use xlink:href="#DejaVuSans-53"/>
       <use x="63.623047" xlink:href="#DejaVuSans-48"/>
       <use x="127.246094" xlink:href="#DejaVuSans-48"/>
      </g>
     </g>
    </g>
    <g id="ytick_2">
     <g id="line2d_21">
      <path clip-path="url(#p6c8453fbae)" d="M 90 310.504056 
L 648 310.504056 
" style="fill:none;stroke:#b0b0b0;stroke-linecap:square;stroke-width:0.8;"/>
     </g>
     <g id="line2d_22">
      <g>
       <use style="stroke:#000000;stroke-width:0.8;" x="90" xlink:href="#m6b1c498ef0" y="310.504056"/>
      </g>
     </g>
     <g id="text_12">
      <!-- 1000 -->
      <g transform="translate(57.55 314.303275)scale(0.1 -0.1)">
       <use xlink:href="#DejaVuSans-49"/>
       <use x="63.623047" xlink:href="#DejaVuSans-48"/>
       <use x="127.246094" xlink:href="#DejaVuSans-48"/>
       <use x="190.869141" xlink:href="#DejaVuSans-48"/>
      </g>
     </g>
    </g>
    <g id="ytick_3">
     <g id="line2d_23">
      <path clip-path="url(#p6c8453fbae)" d="M 90 267.644664 
L 648 267.644664 
" style="fill:none;stroke:#b0b0b0;stroke-linecap:square;stroke-width:0.8;"/>
     </g>
     <g id="line2d_24">
      <g>
       <use style="stroke:#000000;stroke-width:0.8;" x="90" xlink:href="#m6b1c498ef0" y="267.644664"/>
      </g>
     </g>
     <g id="text_13">
      <!-- 1500 -->
      <g transform="translate(57.55 271.443883)scale(0.1 -0.1)">
       <use xlink:href="#DejaVuSans-49"/>
       <use x="63.623047" xlink:href="#DejaVuSans-53"/>
       <use x="127.246094" xlink:href="#DejaVuSans-48"/>
       <use x="190.869141" xlink:href="#DejaVuSans-48"/>
      </g>
     </g>
    </g>
    <g id="ytick_4">
     <g id="line2d_25">
      <path clip-path="url(#p6c8453fbae)" d="M 90 224.785272 
L 648 224.785272 
" style="fill:none;stroke:#b0b0b0;stroke-linecap:square;stroke-width:0.8;"/>
     </g>
     <g id="line2d_26">
      <g>
       <use style="stroke:#000000;stroke-width:0.8;" x="90" xlink:href="#m6b1c498ef0" y="224.785272"/>
      </g>
     </g>
     <g id="text_14">
      <!-- 2000 -->
      <g transform="translate(57.55 228.584491)scale(0.1 -0.1)">
       <use xlink:href="#DejaVuSans-50"/>
       <use x="63.623047" xlink:href="#DejaVuSans-48"/>
       <use x="127.246094" xlink:href="#DejaVuSans-48"/>
       <use x="190.869141" xlink:href="#DejaVuSans-48"/>
      </g>
     </g>
    </g>
    <g id="ytick_5">
     <g id="line2d_27">
      <path clip-path="url(#p6c8453fbae)" d="M 90 181.92588 
L 648 181.92588 
" style="fill:none;stroke:#b0b0b0;stroke-linecap:square;stroke-width:0.8;"/>
     </g>
     <g id="line2d_28">
      <g>
       <use style="stroke:#000000;stroke-width:0.8;" x="90" xlink:href="#m6b1c498ef0" y="181.92588"/>
      </g>
     </g>
     <g id="text_15">
      <!-- 2500 -->
      <g transform="translate(57.55 185.725099)scale(0.1 -0.1)">
       <use xlink:href="#DejaVuSans-50"/>
       <use x="63.623047" xlink:href="#DejaVuSans-53"/>
       <use x="127.246094" xlink:href="#DejaVuSans-48"/>
       <use x="190.869141" xlink:href="#DejaVuSans-48"/>
      </g>
     </g>
    </g>
    <g id="ytick_6">
     <g id="line2d_29">
      <path clip-path="url(#p6c8453fbae)" d="M 90 139.066488 
L 648 139.066488 
" style="fill:none;stroke:#b0b0b0;stroke-linecap:square;stroke-width:0.8;"/>
     </g>
     <g id="line2d_30">
      <g>
       <use style="stroke:#000000;stroke-width:0.8;" x="90" xlink:href="#m6b1c498ef0" y="139.066488"/>
      </g>
     </g>
     <g id="text_16">
      <!-- 3000 -->
      <g transform="translate(57.55 142.865707)scale(0.1 -0.1)">
       <use xlink:href="#DejaVuSans-51"/>
       <use x="63.623047" xlink:href="#DejaVuSans-48"/>
       <use x="127.246094" xlink:href="#DejaVuSans-48"/>
       <use x="190.869141" xlink:href="#DejaVuSans-48"/>
      </g>
     </g>
    </g>
    <g id="ytick_7">
     <g id="line2d_31">
      <path clip-path="url(#p6c8453fbae)" d="M 90 96.207096 
L 648 96.207096 
" style="fill:none;stroke:#b0b0b0;stroke-linecap:square;stroke-width:0.8;"/>
     </g>
     <g id="line2d_32">
      <g>
       <use style="stroke:#000000;stroke-width:0.8;" x="90" xlink:href="#m6b1c498ef0" y="96.207096"/>
      </g>
     </g>
     <g id="text_17">
      <!-- 3500 -->
      <g transform="translate(57.55 100.006315)scale(0.1 -0.1)">
       <use xlink:href="#DejaVuSans-51"/>
       <use x="63.623047" xlink:href="#DejaVuSans-53"/>
       <use x="127.246094" xlink:href="#DejaVuSans-48"/>
       <use x="190.869141" xlink:href="#DejaVuSans-48"/>
      </g>
     </g>
    </g>
    <g id="ytick_8">
     <g id="line2d_33">
      <path clip-path="url(#p6c8453fbae)" d="M 90 53.347704 
L 648 53.347704 
" style="fill:none;stroke:#b0b0b0;stroke-linecap:square;stroke-width:0.8;"/>
     </g>
     <g id="line2d_34">
      <g>
       <use style="stroke:#000000;stroke-width:0.8;" x="90" xlink:href="#m6b1c498ef0" y="53.347704"/>
      </g>
     </g>
     <g id="text_18">
      <!-- 4000 -->
      <g transform="translate(57.55 57.146923)scale(0.1 -0.1)">
       <use xlink:href="#DejaVuSans-52"/>
       <use x="63.623047" xlink:href="#DejaVuSans-48"/>
       <use x="127.246094" xlink:href="#DejaVuSans-48"/>
       <use x="190.869141" xlink:href="#DejaVuSans-48"/>
      </g>
     </g>
    </g>
    <g id="text_19">
     <!-- Smoothed50Reward -->
     <g transform="translate(51.054375 278.791875)rotate(-90)scale(0.12 -0.12)">
      <defs>
       <path d="M 52 44.1875 
Q 55.375 50.25 60.0625 53.125 
Q 64.75 56 71.09375 56 
Q 79.640625 56 84.28125 50.015625 
Q 88.921875 44.046875 88.921875 33.015625 
L 88.921875 0 
L 79.890625 0 
L 79.890625 32.71875 
Q 79.890625 40.578125 77.09375 44.375 
Q 74.3125 48.1875 68.609375 48.1875 
Q 61.625 48.1875 57.5625 43.546875 
Q 53.515625 38.921875 53.515625 30.90625 
L 53.515625 0 
L 44.484375 0 
L 44.484375 32.71875 
Q 44.484375 40.625 41.703125 44.40625 
Q 38.921875 48.1875 33.109375 48.1875 
Q 26.21875 48.1875 22.15625 43.53125 
Q 18.109375 38.875 18.109375 30.90625 
L 18.109375 0 
L 9.078125 0 
L 9.078125 54.6875 
L 18.109375 54.6875 
L 18.109375 46.1875 
Q 21.1875 51.21875 25.484375 53.609375 
Q 29.78125 56 35.6875 56 
Q 41.65625 56 45.828125 52.96875 
Q 50 49.953125 52 44.1875 
z
" id="DejaVuSans-109"/>
       <path d="M 30.609375 48.390625 
Q 23.390625 48.390625 19.1875 42.75 
Q 14.984375 37.109375 14.984375 27.296875 
Q 14.984375 17.484375 19.15625 11.84375 
Q 23.34375 6.203125 30.609375 6.203125 
Q 37.796875 6.203125 41.984375 11.859375 
Q 46.1875 17.53125 46.1875 27.296875 
Q 46.1875 37.015625 41.984375 42.703125 
Q 37.796875 48.390625 30.609375 48.390625 
z
M 30.609375 56 
Q 42.328125 56 49.015625 48.375 
Q 55.71875 40.765625 55.71875 27.296875 
Q 55.71875 13.875 49.015625 6.21875 
Q 42.328125 -1.421875 30.609375 -1.421875 
Q 18.84375 -1.421875 12.171875 6.21875 
Q 5.515625 13.875 5.515625 27.296875 
Q 5.515625 40.765625 12.171875 48.375 
Q 18.84375 56 30.609375 56 
z
" id="DejaVuSans-111"/>
       <path d="M 54.890625 33.015625 
L 54.890625 0 
L 45.90625 0 
L 45.90625 32.71875 
Q 45.90625 40.484375 42.875 44.328125 
Q 39.84375 48.1875 33.796875 48.1875 
Q 26.515625 48.1875 22.3125 43.546875 
Q 18.109375 38.921875 18.109375 30.90625 
L 18.109375 0 
L 9.078125 0 
L 9.078125 75.984375 
L 18.109375 75.984375 
L 18.109375 46.1875 
Q 21.34375 51.125 25.703125 53.5625 
Q 30.078125 56 35.796875 56 
Q 45.21875 56 50.046875 50.171875 
Q 54.890625 44.34375 54.890625 33.015625 
z
" id="DejaVuSans-104"/>
       <path d="M 45.40625 46.390625 
L 45.40625 75.984375 
L 54.390625 75.984375 
L 54.390625 0 
L 45.40625 0 
L 45.40625 8.203125 
Q 42.578125 3.328125 38.25 0.953125 
Q 33.9375 -1.421875 27.875 -1.421875 
Q 17.96875 -1.421875 11.734375 6.484375 
Q 5.515625 14.40625 5.515625 27.296875 
Q 5.515625 40.1875 11.734375 48.09375 
Q 17.96875 56 27.875 56 
Q 33.9375 56 38.25 53.625 
Q 42.578125 51.265625 45.40625 46.390625 
z
M 14.796875 27.296875 
Q 14.796875 17.390625 18.875 11.75 
Q 22.953125 6.109375 30.078125 6.109375 
Q 37.203125 6.109375 41.296875 11.75 
Q 45.40625 17.390625 45.40625 27.296875 
Q 45.40625 37.203125 41.296875 42.84375 
Q 37.203125 48.484375 30.078125 48.484375 
Q 22.953125 48.484375 18.875 42.84375 
Q 14.796875 37.203125 14.796875 27.296875 
z
" id="DejaVuSans-100"/>
       <path d="M 44.390625 34.1875 
Q 47.5625 33.109375 50.5625 29.59375 
Q 53.5625 26.078125 56.59375 19.921875 
L 66.609375 0 
L 56 0 
L 46.6875 18.703125 
Q 43.0625 26.03125 39.671875 28.421875 
Q 36.28125 30.8125 30.421875 30.8125 
L 19.671875 30.8125 
L 19.671875 0 
L 9.8125 0 
L 9.8125 72.90625 
L 32.078125 72.90625 
Q 44.578125 72.90625 50.734375 67.671875 
Q 56.890625 62.453125 56.890625 51.90625 
Q 56.890625 45.015625 53.6875 40.46875 
Q 50.484375 35.9375 44.390625 34.1875 
z
M 19.671875 64.796875 
L 19.671875 38.921875 
L 32.078125 38.921875 
Q 39.203125 38.921875 42.84375 42.21875 
Q 46.484375 45.515625 46.484375 51.90625 
Q 46.484375 58.296875 42.84375 61.546875 
Q 39.203125 64.796875 32.078125 64.796875 
z
" id="DejaVuSans-82"/>
       <path d="M 4.203125 54.6875 
L 13.1875 54.6875 
L 24.421875 12.015625 
L 35.59375 54.6875 
L 46.1875 54.6875 
L 57.421875 12.015625 
L 68.609375 54.6875 
L 77.59375 54.6875 
L 63.28125 0 
L 52.6875 0 
L 40.921875 44.828125 
L 29.109375 0 
L 18.5 0 
z
" id="DejaVuSans-119"/>
       <path d="M 34.28125 27.484375 
Q 23.390625 27.484375 19.1875 25 
Q 14.984375 22.515625 14.984375 16.5 
Q 14.984375 11.71875 18.140625 8.90625 
Q 21.296875 6.109375 26.703125 6.109375 
Q 34.1875 6.109375 38.703125 11.40625 
Q 43.21875 16.703125 43.21875 25.484375 
L 43.21875 27.484375 
z
M 52.203125 31.203125 
L 52.203125 0 
L 43.21875 0 
L 43.21875 8.296875 
Q 40.140625 3.328125 35.546875 0.953125 
Q 30.953125 -1.421875 24.3125 -1.421875 
Q 15.921875 -1.421875 10.953125 3.296875 
Q 6 8.015625 6 15.921875 
Q 6 25.140625 12.171875 29.828125 
Q 18.359375 34.515625 30.609375 34.515625 
L 43.21875 34.515625 
L 43.21875 35.40625 
Q 43.21875 41.609375 39.140625 45 
Q 35.0625 48.390625 27.6875 48.390625 
Q 23 48.390625 18.546875 47.265625 
Q 14.109375 46.140625 10.015625 43.890625 
L 10.015625 52.203125 
Q 14.9375 54.109375 19.578125 55.046875 
Q 24.21875 56 28.609375 56 
Q 40.484375 56 46.34375 49.84375 
Q 52.203125 43.703125 52.203125 31.203125 
z
" id="DejaVuSans-97"/>
       <path d="M 41.109375 46.296875 
Q 39.59375 47.171875 37.8125 47.578125 
Q 36.03125 48 33.890625 48 
Q 26.265625 48 22.1875 43.046875 
Q 18.109375 38.09375 18.109375 28.8125 
L 18.109375 0 
L 9.078125 0 
L 9.078125 54.6875 
L 18.109375 54.6875 
L 18.109375 46.1875 
Q 20.953125 51.171875 25.484375 53.578125 
Q 30.03125 56 36.53125 56 
Q 37.453125 56 38.578125 55.875 
Q 39.703125 55.765625 41.0625 55.515625 
z
" id="DejaVuSans-114"/>
      </defs>
      <use xlink:href="#DejaVuSans-83"/>
      <use x="63.476562" xlink:href="#DejaVuSans-109"/>
      <use x="160.888672" xlink:href="#DejaVuSans-111"/>
      <use x="222.070312" xlink:href="#DejaVuSans-111"/>
      <use x="283.251953" xlink:href="#DejaVuSans-116"/>
      <use x="322.460938" xlink:href="#DejaVuSans-104"/>
      <use x="385.839844" xlink:href="#DejaVuSans-101"/>
      <use x="447.363281" xlink:href="#DejaVuSans-100"/>
      <use x="510.839844" xlink:href="#DejaVuSans-53"/>
      <use x="574.462891" xlink:href="#DejaVuSans-48"/>
      <use x="638.085938" xlink:href="#DejaVuSans-82"/>
      <use x="703.068359" xlink:href="#DejaVuSans-101"/>
      <use x="764.591797" xlink:href="#DejaVuSans-119"/>
      <use x="846.378906" xlink:href="#DejaVuSans-97"/>
      <use x="907.658203" xlink:href="#DejaVuSans-114"/>
      <use x="947.021484" xlink:href="#DejaVuSans-100"/>
     </g>
    </g>
   </g>
   <g id="line2d_35">
    <path clip-path="url(#p6c8453fbae)" d="M 115.363636 369.36 
L 115.871926 355.120839 
L 116.380215 356.417051 
L 116.888504 354.893139 
L 117.396794 354.38619 
L 117.905083 355.071701 
L 118.413372 350.618333 
L 118.921662 349.898432 
L 119.429951 345.673881 
L 119.93824 344.564598 
L 120.446529 345.120276 
L 120.954819 344.37708 
L 121.463108 346.572318 
L 121.971397 347.693664 
L 122.479687 349.523555 
L 122.987976 343.646707 
L 123.496265 343.783337 
L 124.004555 343.198268 
L 124.512844 344.625688 
L 125.529422 331.651453 
L 126.546001 326.28117 
L 127.05429 326.937026 
L 127.56258 325.341026 
L 128.070869 324.348954 
L 128.579158 324.977099 
L 129.087448 324.65054 
L 130.104026 323.262268 
L 130.612316 321.69046 
L 131.120605 316.901873 
L 131.628894 314.607278 
L 132.137183 310.525467 
L 132.645473 311.039103 
L 133.153762 312.567205 
L 133.662051 313.323891 
L 134.170341 313.818893 
L 134.67863 310.427004 
L 135.186919 309.192589 
L 135.695209 310.421129 
L 136.203498 308.434763 
L 137.220077 309.348414 
L 137.728366 307.161798 
L 138.236655 306.118913 
L 138.744944 304.054494 
L 139.253234 304.511162 
L 139.761523 302.391929 
L 140.269812 301.025285 
L 141.286391 297.629117 
L 141.79468 293.72926 
L 142.30297 292.563871 
L 142.811259 289.216689 
L 143.319548 285.039455 
L 143.827837 284.651272 
L 144.844416 275.803381 
L 145.352705 274.143592 
L 145.860995 270.600931 
L 146.369284 270.447101 
L 147.894152 257.734705 
L 148.402441 255.298153 
L 148.910731 250.937572 
L 149.41902 250.028721 
L 149.927309 248.584692 
L 150.435598 248.677286 
L 150.943888 250.487093 
L 151.452177 248.978626 
L 151.960466 248.478467 
L 152.468756 246.363332 
L 152.977045 246.736067 
L 153.993624 240.001992 
L 154.501913 239.909212 
L 155.010202 240.253149 
L 155.518492 238.330919 
L 156.026781 235.910381 
L 156.53507 238.071754 
L 157.043359 235.192582 
L 157.551649 234.057172 
L 158.568227 223.863488 
L 159.076517 221.278628 
L 159.584806 216.205773 
L 160.093095 216.353276 
L 160.601385 213.771072 
L 161.109674 207.967038 
L 161.617963 207.848814 
L 162.126253 203.09551 
L 162.634542 200.80233 
L 163.142831 199.671267 
L 163.65112 196.568616 
L 164.15941 194.617626 
L 164.667699 192.104621 
L 165.175988 191.472069 
L 165.684278 189.556535 
L 166.700856 183.340921 
L 167.209146 182.804294 
L 167.717435 179.034214 
L 168.225724 177.079224 
L 168.734013 177.517837 
L 169.242303 173.524442 
L 169.750592 172.798047 
L 170.258881 174.953222 
L 170.767171 173.584778 
L 171.27546 171.511748 
L 171.783749 166.678526 
L 172.292039 165.035444 
L 172.800328 165.728298 
L 173.308617 168.470243 
L 174.325196 170.492435 
L 174.833485 167.864723 
L 175.341774 163.762897 
L 175.850064 160.663955 
L 176.358353 156.456078 
L 176.866642 154.029056 
L 177.374932 150.929563 
L 177.883221 148.792554 
L 178.39151 144.230036 
L 178.8998 143.347799 
L 179.916378 139.123474 
L 180.424668 134.119884 
L 180.932957 131.406008 
L 181.441246 129.863176 
L 181.949535 125.709397 
L 182.457825 125.129021 
L 182.966114 124.125685 
L 183.474403 123.729368 
L 183.982693 126.67434 
L 184.490982 124.150249 
L 184.999271 124.642702 
L 185.507561 122.227614 
L 186.01585 120.934198 
L 186.524139 121.976509 
L 187.032428 119.426395 
L 187.540718 119.135985 
L 188.049007 116.248556 
L 188.557296 114.545601 
L 189.065586 113.983534 
L 189.573875 113.15433 
L 190.082164 110.781262 
L 190.590454 108.955444 
L 191.607032 106.216456 
L 192.115322 105.768101 
L 192.623611 104.359949 
L 193.1319 103.833672 
L 193.640189 104.06409 
L 194.148479 101.927391 
L 194.656768 101.55021 
L 195.165057 101.448475 
L 196.181636 96.636463 
L 196.689925 96.721403 
L 197.198215 96.335215 
L 197.706504 96.124575 
L 198.214793 93.409862 
L 198.723083 89.198302 
L 199.231372 90.191404 
L 199.739661 91.582933 
L 200.24795 90.308882 
L 200.75624 89.902565 
L 201.264529 89.946924 
L 202.281108 91.169608 
L 202.789397 90.907521 
L 203.297686 90.197695 
L 203.805976 90.891694 
L 204.314265 93.271877 
L 204.822554 93.393804 
L 205.330844 90.442209 
L 205.839133 91.018284 
L 206.347422 90.944837 
L 206.855711 91.662246 
L 207.364001 91.725133 
L 207.87229 91.95083 
L 208.380579 91.943504 
L 208.888869 92.132333 
L 209.397158 88.691431 
L 210.413737 87.986849 
L 210.922026 88.487868 
L 211.430315 88.787366 
L 211.938604 88.000135 
L 212.955183 87.893989 
L 213.463472 88.467513 
L 213.971762 88.673164 
L 214.480051 88.518699 
L 214.98834 89.134316 
L 215.49663 89.285319 
L 216.004919 89.300522 
L 216.513208 89.598913 
L 217.021498 89.611421 
L 217.529787 91.317594 
L 218.038076 91.412428 
L 218.546365 91.330648 
L 219.054655 91.572035 
L 219.562944 91.681634 
L 220.071233 91.273009 
L 220.579523 91.407411 
L 221.087812 91.396341 
L 222.104391 91.604527 
L 222.61268 91.63444 
L 223.120969 91.94003 
L 224.137548 91.760329 
L 225.154126 85.075713 
L 225.662416 84.607017 
L 226.170705 84.617376 
L 226.678994 84.442296 
L 227.187284 83.649975 
L 228.203862 83.430846 
L 228.712152 82.833351 
L 229.220441 81.989558 
L 229.72873 79.434375 
L 230.237019 79.221839 
L 230.745309 79.414377 
L 231.253598 78.727082 
L 231.761887 78.764552 
L 232.270177 77.804204 
L 233.286755 77.511823 
L 233.795045 78.138329 
L 234.303334 77.878002 
L 235.319913 77.854147 
L 237.861359 76.231058 
L 238.369648 76.279278 
L 238.877938 75.613491 
L 239.386227 75.675238 
L 239.894516 76.451763 
L 240.911095 75.673037 
L 241.419384 75.824685 
L 241.927674 75.46973 
L 242.435963 75.433375 
L 242.944252 73.552697 
L 243.452541 73.477779 
L 243.960831 74.294722 
L 244.46912 73.559503 
L 245.485699 73.763871 
L 245.993988 73.457768 
L 247.518856 73.06291 
L 248.027145 73.097084 
L 248.535435 72.740849 
L 249.043724 72.722592 
L 249.552013 72.899916 
L 250.060302 73.327081 
L 250.568592 74.043062 
L 252.601749 74.097863 
L 253.110038 73.594311 
L 253.618328 73.555947 
L 254.126617 73.709453 
L 256.159774 73.660746 
L 257.176353 73.543553 
L 257.684642 73.770336 
L 258.192931 73.853386 
L 258.701221 73.776945 
L 259.20951 73.126015 
L 259.717799 73.11744 
L 260.226089 73.332529 
L 261.242667 73.510221 
L 262.767535 73.182652 
L 263.275824 73.126028 
L 263.784114 72.947365 
L 264.292403 73.020945 
L 264.800692 72.729341 
L 265.308982 71.95099 
L 265.817271 71.636804 
L 266.32556 71.489309 
L 266.83385 71.189948 
L 268.867007 71.352973 
L 269.375296 70.436977 
L 269.883585 70.281999 
L 270.900164 70.140327 
L 271.408453 70.520302 
L 271.916743 70.51301 
L 272.425032 70.360905 
L 273.44161 70.468071 
L 274.966478 70.298034 
L 275.474768 70.031067 
L 275.983057 69.223586 
L 279.541082 68.777971 
L 280.049371 68.703498 
L 281.06595 68.840747 
L 281.574239 68.668905 
L 282.590818 68.798616 
L 283.099107 68.618732 
L 283.607397 68.857732 
L 284.623975 68.87895 
L 288.182 69.196421 
L 289.198579 69.2173 
L 290.215158 69.291703 
L 291.231736 69.260678 
L 291.740026 69.355295 
L 292.756604 69.337523 
L 294.789761 69.369801 
L 295.298051 69.475874 
L 295.80634 69.326943 
L 296.314629 69.699826 
L 296.822919 69.211125 
L 298.347786 69.009131 
L 298.856076 68.875224 
L 299.872654 69.205526 
L 300.380944 69.19958 
L 300.889233 68.900761 
L 301.397522 69.02322 
L 301.905812 69.286821 
L 302.92239 69.343576 
L 303.938969 69.191182 
L 304.447258 69.183591 
L 304.955547 70.004184 
L 308.513573 69.877069 
L 309.021862 69.587344 
L 310.54673 69.505805 
L 312.071598 68.664916 
L 313.088176 68.79857 
L 314.613044 68.844082 
L 315.629623 68.715807 
L 316.646201 68.822285 
L 317.154491 69.083903 
L 318.679359 68.851579 
L 319.187648 68.942653 
L 320.204227 68.828286 
L 320.712516 68.677467 
L 321.220805 68.720268 
L 321.729095 68.40953 
L 324.77883 68.61298 
L 325.28712 68.517839 
L 325.795409 68.554892 
L 326.811988 68.268365 
L 327.320277 67.952166 
L 329.861723 68.003603 
L 330.370013 67.167875 
L 331.386591 67.257676 
L 332.911459 67.021172 
L 333.928038 67.0781 
L 335.961195 66.966849 
L 337.486063 67.435615 
L 337.994352 67.287847 
L 338.502642 67.331765 
L 339.010931 67.633151 
L 339.51922 67.750289 
L 340.02751 67.697428 
L 340.535799 69.374276 
L 341.552377 69.447508 
L 342.060667 69.449907 
L 342.568956 69.185798 
L 343.077245 69.578673 
L 346.635271 69.753277 
L 348.160138 69.776606 
L 348.668428 69.93645 
L 349.176717 69.969968 
L 349.685006 69.883535 
L 350.193296 70.192477 
L 350.701585 70.185363 
L 351.209874 72.886999 
L 351.718164 73.079269 
L 352.226453 74.217463 
L 355.784478 74.684653 
L 356.292767 74.623171 
L 361.37566 75.32309 
L 362.392239 74.914024 
L 363.408818 74.970289 
L 363.917107 74.930652 
L 364.425396 76.840845 
L 364.933686 77.008618 
L 365.441975 76.98906 
L 365.950264 77.623059 
L 366.458553 77.690164 
L 366.966843 79.947877 
L 367.983421 79.891873 
L 368.491711 79.569934 
L 372.049736 79.705251 
L 372.558025 79.889062 
L 373.574604 79.876208 
L 374.082893 80.247419 
L 374.591182 80.305983 
L 375.099472 80.550051 
L 375.607761 80.20445 
L 376.11605 80.175105 
L 376.62434 77.473086 
L 377.132629 77.401512 
L 377.640918 76.337171 
L 378.149208 76.250361 
L 378.657497 76.362412 
L 380.182365 76.268599 
L 382.723811 76.318758 
L 383.232101 76.460089 
L 383.74039 76.877378 
L 384.756968 77.074193 
L 385.773547 76.781333 
L 387.806704 76.791436 
L 388.314994 76.696674 
L 389.331572 76.865029 
L 389.839862 74.69071 
L 390.348151 74.44611 
L 390.85644 74.535332 
L 391.364729 72.21464 
L 391.873019 71.993172 
L 392.381308 69.947768 
L 393.397887 69.911979 
L 394.922755 69.979663 
L 395.431044 69.810951 
L 395.939333 69.853836 
L 396.955912 69.609288 
L 397.464201 69.617194 
L 397.97249 69.457096 
L 398.989069 69.50461 
L 399.497358 68.85944 
L 400.005648 69.214128 
L 400.513937 69.062007 
L 402.547094 69.114824 
L 403.055383 69.046972 
L 403.563673 69.124749 
L 404.580251 68.921804 
L 406.105119 68.848008 
L 407.121698 68.700205 
L 408.646566 68.715802 
L 409.154855 68.231299 
L 411.188012 68.063286 
L 411.696302 68.281005 
L 413.729459 68.314275 
L 415.762616 68.066585 
L 416.779195 68.081498 
L 417.287484 68.451273 
L 417.795773 68.24217 
L 418.304063 68.198621 
L 418.812352 68.341231 
L 420.845509 68.352589 
L 421.353799 68.34539 
L 422.370377 68.564518 
L 422.878666 68.463811 
L 423.895245 68.48029 
L 424.403534 70.230996 
L 424.911824 70.234879 
L 425.420113 69.970733 
L 426.436692 69.930489 
L 426.944981 69.929034 
L 428.469849 70.288873 
L 428.978138 70.171266 
L 429.486427 70.326933 
L 431.519585 70.511502 
L 432.027874 70.663629 
L 432.536163 70.555 
L 433.552742 70.696092 
L 434.061031 70.647363 
L 434.56932 70.73262 
L 435.585899 71.164086 
L 436.602478 71.236535 
L 437.110767 71.006817 
L 437.619056 71.435423 
L 439.143924 71.496458 
L 439.652214 71.903938 
L 440.668792 72.058625 
L 442.701949 71.834397 
L 443.210239 71.763243 
L 443.718528 71.958162 
L 444.735107 71.724686 
L 445.243396 72.317517 
L 445.751685 72.210417 
L 446.768264 72.234116 
L 449.30971 71.992832 
L 449.818 70.229678 
L 450.326289 70.279497 
L 450.834578 70.127443 
L 452.867735 70.397923 
L 453.376025 70.317613 
L 453.884314 70.090911 
L 454.392603 70.130711 
L 454.900893 69.951138 
L 455.917471 70.006235 
L 456.93405 70.007398 
L 457.950629 71.283895 
L 458.458918 71.341649 
L 459.983786 71.15234 
L 461.000364 70.594256 
L 462.525232 70.635366 
L 463.033522 70.252201 
L 464.55839 70.095611 
L 465.066679 69.631483 
L 466.591547 69.380855 
L 467.099836 69.573833 
L 468.624704 69.650078 
L 469.132993 69.478318 
L 469.641283 69.653042 
L 470.149572 69.664694 
L 470.657861 69.143332 
L 473.199308 69.263819 
L 474.215886 69.29949 
L 474.724176 69.473668 
L 477.773911 69.091415 
L 478.282201 68.822319 
L 479.298779 68.734924 
L 480.823647 68.781683 
L 481.331937 68.703541 
L 482.348515 68.776944 
L 483.365094 67.339309 
L 485.90654 67.709033 
L 489.972855 67.825726 
L 490.989433 67.969517 
L 492.006012 68.044592 
L 492.514301 67.771824 
L 493.53088 67.775427 
L 494.039169 67.638596 
L 494.547459 67.712625 
L 495.055748 67.598676 
L 495.564037 67.618365 
L 495.564037 67.618365 
" style="fill:none;stroke:#1f77b4;stroke-linecap:square;stroke-width:1.5;"/>
   </g>
   <g id="line2d_36">
    <path clip-path="url(#p6c8453fbae)" d="M 115.363636 365.448615 
L 115.871926 344.051586 
L 116.380215 353.060126 
L 116.888504 355.6375 
L 117.396794 354.30569 
L 117.905083 356.805256 
L 118.413372 346.78819 
L 119.429951 347.876215 
L 119.93824 343.373008 
L 120.954819 346.062555 
L 121.463108 344.684961 
L 121.971397 344.120046 
L 122.479687 342.505932 
L 122.987976 343.129628 
L 124.004555 338.851986 
L 124.512844 338.938515 
L 125.021133 338.004469 
L 125.529422 335.601363 
L 126.037712 336.158038 
L 126.546001 336.926661 
L 127.56258 335.731134 
L 128.070869 333.604377 
L 129.087448 324.120807 
L 129.595737 321.637007 
L 130.104026 321.064104 
L 130.612316 321.549027 
L 131.120605 320.30977 
L 131.628894 320.05353 
L 132.137183 315.820298 
L 133.153762 309.796645 
L 133.662051 308.743897 
L 134.170341 306.154907 
L 134.67863 304.339652 
L 135.186919 303.314455 
L 135.695209 301.144344 
L 136.711787 298.756847 
L 137.220077 293.981287 
L 137.728366 292.69523 
L 138.236655 290.832402 
L 138.744944 287.081168 
L 139.253234 288.130109 
L 139.761523 285.758841 
L 140.269812 282.554177 
L 141.286391 274.157488 
L 141.79468 270.748098 
L 142.30297 268.228582 
L 142.811259 263.510777 
L 143.319548 261.311182 
L 143.827837 260.4041 
L 144.336127 255.03064 
L 144.844416 255.01523 
L 145.352705 252.598279 
L 146.369284 242.065171 
L 146.877573 241.070381 
L 147.385863 240.712742 
L 147.894152 237.794372 
L 148.402441 236.798665 
L 148.910731 235.243471 
L 149.41902 230.716101 
L 149.927309 230.271871 
L 150.435598 226.901275 
L 150.943888 222.733548 
L 151.960466 211.824297 
L 152.468756 208.039688 
L 152.977045 206.343075 
L 153.485334 202.210909 
L 153.993624 199.991093 
L 154.501913 200.795214 
L 155.010202 197.680743 
L 156.026781 189.358228 
L 156.53507 185.719315 
L 157.043359 181.114409 
L 157.551649 179.163577 
L 160.093095 166.184959 
L 160.601385 162.340873 
L 161.617963 156.410542 
L 162.126253 152.886301 
L 162.634542 153.622987 
L 163.142831 151.264004 
L 163.65112 149.954043 
L 164.15941 149.021253 
L 164.667699 144.361534 
L 165.175988 144.717736 
L 165.684278 149.451995 
L 166.192567 147.89288 
L 166.700856 146.998655 
L 167.209146 144.465707 
L 167.717435 141.123714 
L 168.225724 140.382476 
L 169.242303 133.216234 
L 169.750592 133.699452 
L 170.258881 128.343249 
L 170.767171 126.46822 
L 171.27546 125.549662 
L 171.783749 125.583983 
L 172.800328 116.368673 
L 173.308617 115.237521 
L 173.816907 111.033043 
L 174.325196 108.366112 
L 174.833485 109.156868 
L 175.341774 104.130722 
L 175.850064 102.544013 
L 177.883221 101.827301 
L 178.39151 98.488865 
L 178.8998 100.129727 
L 179.408089 99.945263 
L 179.916378 97.966316 
L 180.424668 97.434016 
L 180.932957 97.379324 
L 181.441246 95.784645 
L 181.949535 95.159618 
L 183.474403 94.387117 
L 183.982693 95.982876 
L 184.490982 94.055612 
L 184.999271 94.393496 
L 185.507561 94.061977 
L 186.01585 95.228863 
L 186.524139 95.51034 
L 187.032428 94.986912 
L 187.540718 95.083022 
L 188.049007 94.062459 
L 188.557296 93.302857 
L 189.065586 92.063151 
L 189.573875 92.109504 
L 190.082164 93.565843 
L 190.590454 91.117805 
L 191.098743 85.257879 
L 191.607032 85.784794 
L 192.115322 85.918178 
L 193.1319 85.745328 
L 193.640189 89.312852 
L 194.148479 90.777365 
L 194.656768 90.829232 
L 195.165057 90.105869 
L 195.673347 90.033569 
L 196.181636 89.652968 
L 196.689925 89.688042 
L 197.198215 89.516406 
L 197.706504 90.218225 
L 198.214793 90.311638 
L 198.723083 89.396888 
L 199.231372 90.775211 
L 199.739661 91.722498 
L 200.24795 90.896301 
L 200.75624 91.076785 
L 201.264529 92.128945 
L 201.772818 92.024268 
L 202.281108 92.496212 
L 202.789397 92.602935 
L 203.297686 91.880452 
L 203.805976 92.248717 
L 204.314265 90.467255 
L 204.822554 90.888755 
L 205.330844 89.48869 
L 205.839133 89.897123 
L 206.347422 89.910381 
L 206.855711 90.510471 
L 207.364001 90.530285 
L 207.87229 93.368306 
L 208.380579 93.41479 
L 208.888869 93.319068 
L 209.397158 92.993971 
L 209.905447 93.942369 
L 210.413737 93.504401 
L 210.922026 93.419047 
L 211.430315 96.228004 
L 211.938604 96.33298 
L 212.446894 96.62139 
L 212.955183 96.30917 
L 213.463472 98.339293 
L 213.971762 98.421523 
L 214.480051 98.201392 
L 215.49663 98.72531 
L 216.004919 99.838607 
L 216.513208 100.612059 
L 217.021498 100.025078 
L 217.529787 99.844859 
L 218.038076 100.383227 
L 218.546365 100.372219 
L 219.054655 97.628825 
L 219.562944 96.117994 
L 220.071233 96.02649 
L 220.579523 96.120492 
L 222.104391 96.127871 
L 222.61268 96.512165 
L 223.120969 95.770228 
L 224.137548 95.541347 
L 225.154126 92.835914 
L 225.662416 92.664165 
L 226.170705 92.885719 
L 226.678994 93.275733 
L 227.187284 93.273666 
L 227.695573 92.73318 
L 228.203862 92.567254 
L 228.712152 93.566922 
L 229.220441 93.823635 
L 229.72873 93.814269 
L 230.237019 93.598044 
L 230.745309 93.566911 
L 231.253598 93.092534 
L 231.761887 93.345801 
L 232.270177 92.664456 
L 232.778466 92.564275 
L 233.286755 89.81683 
L 233.795045 90.108797 
L 234.303334 91.060583 
L 234.811623 89.789391 
L 235.319913 88.827702 
L 236.336491 88.880426 
L 236.84478 84.862359 
L 237.861359 84.240526 
L 238.369648 84.766947 
L 238.877938 82.742355 
L 239.386227 82.425452 
L 239.894516 82.483037 
L 240.402806 82.186457 
L 240.911095 79.74596 
L 241.419384 78.642706 
L 241.927674 78.914073 
L 242.435963 79.660857 
L 242.944252 79.512581 
L 243.452541 78.959491 
L 243.960831 79.02356 
L 244.46912 78.029705 
L 244.977409 77.953667 
L 245.485699 78.691139 
L 245.993988 78.59797 
L 246.502277 78.739046 
L 247.010567 78.721851 
L 247.518856 79.004324 
L 248.027145 80.179855 
L 248.535435 80.317771 
L 249.552013 81.935004 
L 250.060302 81.334389 
L 250.568592 81.244298 
L 251.076881 81.661659 
L 251.58517 81.523495 
L 252.09346 79.994548 
L 252.601749 80.049641 
L 253.110038 80.313366 
L 253.618328 80.350583 
L 254.126617 79.010498 
L 254.634906 79.655822 
L 256.159774 79.691388 
L 256.668063 80.203908 
L 257.176353 79.913857 
L 258.701221 80.034924 
L 259.20951 79.679512 
L 259.717799 78.682796 
L 260.226089 79.460639 
L 261.242667 79.580867 
L 261.750956 79.49647 
L 262.259246 81.679786 
L 263.275824 81.511778 
L 263.784114 81.038516 
L 265.308982 80.965085 
L 265.817271 81.372812 
L 266.32556 82.199391 
L 266.83385 82.540928 
L 267.342139 81.451063 
L 267.850428 80.847395 
L 268.867007 80.872088 
L 269.375296 80.864177 
L 269.883585 81.05081 
L 270.391875 80.957766 
L 270.900164 80.406369 
L 271.408453 80.430273 
L 271.916743 80.019622 
L 272.425032 80.014697 
L 272.933321 79.518275 
L 273.44161 77.954282 
L 273.9499 78.758538 
L 274.966478 77.313238 
L 275.474768 77.5448 
L 275.983057 77.613455 
L 276.491346 77.172123 
L 276.999636 76.881457 
L 278.016214 76.795368 
L 278.524504 76.520346 
L 279.541082 76.615905 
L 280.049371 75.253942 
L 280.557661 75.313397 
L 281.06595 74.81357 
L 281.574239 74.870748 
L 282.082529 74.39678 
L 284.623975 74.192942 
L 285.132265 74.318643 
L 285.640554 73.59144 
L 287.165422 73.510347 
L 287.673711 71.2765 
L 289.706868 71.066434 
L 290.723447 70.997344 
L 291.231736 70.594226 
L 291.740026 69.747711 
L 292.248315 69.441378 
L 292.756604 69.435196 
L 293.773183 69.267975 
L 294.789761 69.265566 
L 295.298051 69.017871 
L 295.80634 69.083327 
L 297.839497 68.949459 
L 298.347786 69.017613 
L 298.856076 69.543032 
L 299.364365 68.647496 
L 300.889233 68.434172 
L 301.905812 68.622909 
L 302.414101 68.702429 
L 302.92239 69.069371 
L 305.463837 68.958669 
L 305.972126 69.734764 
L 306.480415 69.737316 
L 306.988705 69.622769 
L 307.496994 69.763079 
L 308.005283 69.657748 
L 309.530151 69.737402 
L 310.54673 69.994042 
L 312.579887 69.898235 
L 313.596466 69.997891 
L 314.104755 70.659888 
L 314.613044 70.767229 
L 315.121334 70.712808 
L 316.137912 70.887337 
L 316.646201 72.047116 
L 317.154491 72.042023 
L 317.66278 74.259187 
L 319.187648 74.343754 
L 319.695937 74.372666 
L 320.204227 75.472611 
L 321.729095 75.550513 
L 323.762252 75.642322 
L 324.270541 75.132342 
L 325.28712 75.258419 
L 325.795409 75.273568 
L 326.303698 75.177255 
L 327.320277 74.807319 
L 327.828566 74.790583 
L 328.336856 74.914216 
L 329.861723 74.818142 
L 330.370013 75.119018 
L 330.878302 75.172395 
L 331.386591 74.311867 
L 332.911459 74.092413 
L 333.928038 74.259671 
L 336.977774 73.946618 
L 339.010931 73.847618 
L 339.51922 73.2228 
L 340.02751 73.014772 
L 340.535799 73.040052 
L 341.044088 72.916703 
L 341.552377 72.918637 
L 342.060667 71.881101 
L 342.568956 71.86565 
L 343.077245 69.578072 
L 344.093824 69.526339 
L 344.602113 69.459187 
L 345.110403 69.542386 
L 345.618692 68.368071 
L 346.126981 68.457056 
L 349.685006 68.071592 
L 350.193296 67.83311 
L 351.209874 67.756478 
L 351.718164 69.503585 
L 353.243032 69.638168 
L 353.751321 69.242589 
L 355.276189 69.412762 
L 355.784478 69.168373 
L 356.801057 69.112481 
L 358.325925 69.322784 
L 358.834214 72.432183 
L 359.850792 72.545476 
L 360.867371 72.577532 
L 361.37566 72.457622 
L 362.392239 72.631031 
L 363.917107 72.534703 
L 364.425396 72.465383 
L 364.933686 72.694613 
L 365.441975 72.782938 
L 365.950264 72.716031 
L 366.458553 72.950415 
L 368.491711 72.541274 
L 370.016579 72.644466 
L 370.524868 72.929454 
L 371.541447 73.107454 
L 373.066314 73.600999 
L 374.082893 73.548272 
L 375.099472 73.576554 
L 375.607761 73.668828 
L 376.11605 73.623119 
L 376.62434 73.915052 
L 377.132629 72.454226 
L 377.640918 72.729949 
L 378.149208 73.237185 
L 378.657497 73.24728 
L 379.165786 74.519707 
L 380.182365 74.426952 
L 380.690654 74.409574 
L 381.198943 76.933237 
L 381.707233 77.117231 
L 382.723811 77.194472 
L 383.232101 77.225939 
L 383.74039 77.838911 
L 384.248679 74.807721 
L 384.756968 75.062142 
L 386.281836 75.043351 
L 386.790126 74.848851 
L 387.806704 74.84764 
L 388.314994 75.669828 
L 388.823283 75.993446 
L 389.839862 76.213649 
L 390.348151 76.065412 
L 391.364729 76.070684 
L 391.873019 75.833974 
L 392.381308 76.07826 
L 393.397887 76.244964 
L 393.906176 76.41717 
L 395.431044 76.218468 
L 395.939333 75.833378 
L 397.464201 75.491574 
L 398.48078 75.120872 
L 399.497358 75.225786 
L 400.005648 75.118607 
L 401.022226 75.181218 
L 401.530516 75.155346 
L 403.055383 74.520979 
L 403.563673 73.987458 
L 404.071962 73.932852 
L 404.580251 72.569089 
L 406.105119 72.537847 
L 406.613409 69.900749 
L 407.629987 69.817338 
L 408.646566 69.678782 
L 409.154855 68.94143 
L 409.663144 68.789677 
L 410.171434 68.30176 
L 411.188012 68.287405 
L 412.71288 68.291053 
L 413.22117 68.278529 
L 413.729459 67.602368 
L 414.237748 67.343532 
L 417.287484 67.315289 
L 417.795773 67.169287 
L 418.304063 67.345049 
L 419.320641 67.118491 
L 419.828931 67.328719 
L 420.33722 67.289574 
L 420.845509 67.474085 
L 421.353799 67.462512 
L 422.370377 67.630911 
L 422.878666 67.548633 
L 423.895245 67.6746 
L 424.911824 67.53215 
L 425.420113 67.745273 
L 425.928402 68.155568 
L 426.436692 71.065255 
L 427.45327 71.024678 
L 428.469849 70.842195 
L 428.978138 71.119194 
L 433.552742 71.321358 
L 434.56932 71.332597 
L 435.585899 71.459054 
L 437.110767 71.527787 
L 438.127346 71.600536 
L 439.143924 71.493266 
L 439.652214 71.690146 
L 440.668792 71.654121 
L 442.19366 71.80293 
L 442.701949 73.625761 
L 444.735107 73.401666 
L 445.243396 73.212776 
L 445.751685 73.326122 
L 446.259974 73.147776 
L 446.768264 73.372108 
L 449.30971 73.237176 
L 449.818 73.436056 
L 450.326289 73.507643 
L 450.834578 73.375065 
L 451.342868 72.952689 
L 451.851157 69.977985 
L 453.884314 70.277934 
L 454.392603 69.879255 
L 455.917471 69.8575 
L 457.442339 69.914641 
L 457.950629 72.880689 
L 459.475496 72.789776 
L 459.983786 72.78168 
L 460.492075 72.652935 
L 462.016943 72.727486 
L 462.525232 72.949968 
L 463.541811 72.938931 
L 464.55839 72.858721 
L 465.066679 72.478354 
L 465.574968 72.805842 
L 466.591547 72.607871 
L 467.099836 72.479562 
L 467.608125 72.47855 
L 468.116415 70.770214 
L 468.624704 70.845652 
L 469.132993 70.7847 
L 470.149572 70.973726 
L 470.657861 70.996906 
L 471.16615 70.88806 
L 471.67444 70.989489 
L 472.182729 70.803713 
L 472.691018 72.285582 
L 473.199308 72.240786 
L 473.707597 72.8357 
L 474.724176 72.731389 
L 475.232465 72.55768 
L 475.740754 72.832549 
L 478.79049 72.409051 
L 480.823647 72.897317 
L 481.331937 72.948448 
L 481.840226 72.839783 
L 482.856805 72.838918 
L 483.365094 70.581311 
L 483.873383 70.575093 
L 484.381672 70.71779 
L 485.398251 70.631585 
L 485.90654 70.76236 
L 485.90654 70.76236 
" style="fill:none;stroke:#ff7f0e;stroke-linecap:square;stroke-width:1.5;"/>
   </g>
   <g id="line2d_37">
    <path clip-path="url(#p6c8453fbae)" d="M 115.363636 365.448615 
L 115.871926 344.051586 
L 116.380215 353.060126 
L 116.888504 355.6375 
L 117.396794 354.30569 
L 117.905083 356.805256 
L 118.413372 346.78819 
L 119.429951 347.876215 
L 119.93824 343.373008 
L 120.954819 346.062555 
L 121.463108 344.684961 
L 121.971397 344.120046 
L 122.479687 342.505932 
L 122.987976 343.129628 
L 124.004555 338.851986 
L 124.512844 338.938515 
L 125.021133 338.004469 
L 125.529422 335.601363 
L 126.037712 336.158038 
L 126.546001 336.926661 
L 127.56258 335.731134 
L 128.070869 333.604377 
L 129.087448 324.120807 
L 129.595737 321.637007 
L 130.104026 321.064104 
L 130.612316 321.549027 
L 131.120605 320.30977 
L 131.628894 320.05353 
L 132.137183 315.820298 
L 133.153762 309.796645 
L 133.662051 308.743897 
L 134.170341 306.154907 
L 134.67863 304.339652 
L 135.186919 303.314455 
L 135.695209 301.144344 
L 136.711787 298.756847 
L 137.220077 293.981287 
L 137.728366 292.69523 
L 138.236655 290.832402 
L 138.744944 287.081168 
L 139.253234 288.130109 
L 139.761523 285.758841 
L 140.269812 282.554177 
L 141.286391 274.157488 
L 141.79468 270.748098 
L 142.30297 268.228582 
L 142.811259 263.510777 
L 143.319548 261.311182 
L 143.827837 260.4041 
L 144.336127 255.03064 
L 144.844416 255.01523 
L 145.352705 252.598279 
L 146.369284 242.065171 
L 146.877573 241.070381 
L 147.385863 240.712742 
L 147.894152 237.794372 
L 148.402441 236.798665 
L 148.910731 235.243471 
L 149.41902 230.716101 
L 149.927309 230.271871 
L 150.435598 226.901275 
L 150.943888 222.733548 
L 151.960466 211.824297 
L 152.468756 208.039688 
L 152.977045 206.343075 
L 153.485334 202.210909 
L 153.993624 199.991093 
L 154.501913 200.795214 
L 155.010202 197.680743 
L 156.026781 189.358228 
L 156.53507 185.719315 
L 157.043359 181.114409 
L 157.551649 179.163577 
L 160.093095 166.184959 
L 160.601385 162.340873 
L 161.617963 156.410542 
L 162.126253 152.886301 
L 162.634542 153.622987 
L 163.142831 151.264004 
L 163.65112 149.954043 
L 164.15941 149.021253 
L 164.667699 144.361534 
L 165.175988 144.717736 
L 165.684278 149.451995 
L 166.192567 147.89288 
L 166.700856 146.998655 
L 167.209146 144.465707 
L 167.717435 141.123714 
L 168.225724 140.382476 
L 169.242303 133.216234 
L 169.750592 133.699452 
L 170.258881 128.343249 
L 170.767171 126.46822 
L 171.27546 125.549662 
L 171.783749 125.583983 
L 172.800328 116.368673 
L 173.308617 115.237521 
L 173.816907 111.033043 
L 174.325196 108.366112 
L 174.833485 109.156868 
L 175.341774 104.130722 
L 175.850064 102.544013 
L 177.883221 101.827301 
L 178.39151 98.488865 
L 178.8998 100.129727 
L 179.408089 99.945263 
L 179.916378 97.966316 
L 180.424668 97.434016 
L 180.932957 97.379324 
L 181.441246 95.784645 
L 181.949535 95.159618 
L 183.474403 94.387117 
L 183.982693 95.982876 
L 184.490982 94.055612 
L 184.999271 94.393496 
L 185.507561 94.061977 
L 186.01585 95.228863 
L 186.524139 95.51034 
L 187.032428 94.986912 
L 187.540718 95.083022 
L 188.049007 94.062459 
L 188.557296 93.302857 
L 189.065586 92.063151 
L 189.573875 92.109504 
L 190.082164 93.565843 
L 190.590454 91.117805 
L 191.098743 85.257879 
L 191.607032 85.784794 
L 192.115322 85.918178 
L 193.1319 85.745328 
L 193.640189 89.312852 
L 194.148479 90.777365 
L 194.656768 90.829232 
L 195.165057 90.105869 
L 195.673347 90.033569 
L 196.181636 89.652968 
L 196.689925 89.688042 
L 197.198215 89.516406 
L 197.706504 90.218225 
L 198.214793 90.311638 
L 198.723083 89.396888 
L 199.231372 90.775211 
L 199.739661 91.722498 
L 200.24795 90.896301 
L 200.75624 91.076785 
L 201.264529 92.128945 
L 201.772818 92.024268 
L 202.281108 92.496212 
L 202.789397 92.602935 
L 203.297686 91.880452 
L 203.805976 92.248717 
L 204.314265 90.467255 
L 204.822554 90.888755 
L 205.330844 89.48869 
L 205.839133 89.897123 
L 206.347422 89.910381 
L 206.855711 90.510471 
L 207.364001 90.530285 
L 207.87229 93.368306 
L 208.380579 93.41479 
L 208.888869 93.319068 
L 209.397158 92.993971 
L 209.905447 93.942369 
L 210.413737 93.504401 
L 210.922026 93.419047 
L 211.430315 96.228004 
L 211.938604 96.33298 
L 212.446894 96.62139 
L 212.955183 96.30917 
L 213.463472 98.339293 
L 213.971762 98.421523 
L 214.480051 98.201392 
L 215.49663 98.72531 
L 216.004919 99.838607 
L 216.513208 100.612059 
L 217.021498 100.025078 
L 217.529787 99.844859 
L 218.038076 100.383227 
L 218.546365 100.372219 
L 219.054655 97.628825 
L 219.562944 96.117994 
L 220.071233 96.02649 
L 220.579523 96.120492 
L 222.104391 96.127871 
L 222.61268 96.512165 
L 223.120969 95.770228 
L 224.137548 95.541347 
L 225.154126 92.835914 
L 225.662416 92.664165 
L 226.170705 92.885719 
L 226.678994 93.275733 
L 227.187284 93.273666 
L 227.695573 92.73318 
L 228.203862 92.567254 
L 228.712152 93.566922 
L 229.220441 93.823635 
L 229.72873 93.814269 
L 230.237019 93.598044 
L 230.745309 93.566911 
L 231.253598 93.092534 
L 231.761887 93.345801 
L 232.270177 92.664456 
L 232.778466 92.564275 
L 233.286755 89.81683 
L 233.795045 90.108797 
L 234.303334 91.060583 
L 234.811623 89.789391 
L 235.319913 88.827702 
L 236.336491 88.880426 
L 236.84478 84.862359 
L 237.861359 84.240526 
L 238.369648 84.766947 
L 238.877938 82.742355 
L 239.386227 82.425452 
L 239.894516 82.483037 
L 240.402806 82.186457 
L 240.911095 79.74596 
L 241.419384 78.642706 
L 241.927674 78.914073 
L 242.435963 79.660857 
L 242.944252 79.512581 
L 243.452541 78.959491 
L 243.960831 79.02356 
L 244.46912 78.029705 
L 244.977409 77.953667 
L 245.485699 78.691139 
L 245.993988 78.59797 
L 246.502277 78.739046 
L 247.010567 78.721851 
L 247.518856 79.004324 
L 248.027145 80.179855 
L 248.535435 80.317771 
L 249.552013 81.935004 
L 250.060302 81.334389 
L 250.568592 81.244298 
L 251.076881 81.661659 
L 251.58517 81.523495 
L 252.09346 79.994548 
L 252.601749 80.049641 
L 253.110038 80.313366 
L 253.618328 80.350583 
L 254.126617 79.010498 
L 254.634906 79.655822 
L 256.159774 79.691388 
L 256.668063 80.203908 
L 257.176353 79.913857 
L 258.701221 80.034924 
L 259.20951 79.679512 
L 259.717799 78.682796 
L 260.226089 79.460639 
L 261.242667 79.580867 
L 261.750956 79.49647 
L 262.259246 81.679786 
L 263.275824 81.511778 
L 263.784114 81.038516 
L 265.308982 80.965085 
L 265.817271 81.372812 
L 266.32556 82.199391 
L 266.83385 82.540928 
L 267.342139 81.451063 
L 267.850428 80.847395 
L 268.867007 80.872088 
L 269.375296 80.864177 
L 269.883585 81.05081 
L 270.391875 80.957766 
L 270.900164 80.406369 
L 271.408453 80.430273 
L 271.916743 80.019622 
L 272.425032 80.014697 
L 272.933321 79.518275 
L 273.44161 77.954282 
L 273.9499 78.758538 
L 274.966478 77.313238 
L 275.474768 77.5448 
L 275.983057 77.613455 
L 276.491346 77.172123 
L 276.999636 76.881457 
L 278.016214 76.795368 
L 278.524504 76.520346 
L 279.541082 76.615905 
L 280.049371 75.253942 
L 280.557661 75.313397 
L 281.06595 74.81357 
L 281.574239 74.870748 
L 282.082529 74.39678 
L 284.623975 74.192942 
L 285.132265 74.318643 
L 285.640554 73.59144 
L 287.165422 73.510347 
L 287.673711 71.2765 
L 289.706868 71.066434 
L 290.723447 70.997344 
L 291.231736 70.594226 
L 291.740026 69.747711 
L 292.248315 69.441378 
L 292.756604 69.435196 
L 293.773183 69.267975 
L 294.789761 69.265566 
L 295.298051 69.017871 
L 295.80634 69.083327 
L 297.839497 68.949459 
L 298.347786 69.017613 
L 298.856076 69.543032 
L 299.364365 68.647496 
L 300.889233 68.434172 
L 301.905812 68.622909 
L 302.414101 68.702429 
L 302.92239 69.069371 
L 305.463837 68.958669 
L 305.972126 69.734764 
L 306.480415 69.737316 
L 306.988705 69.622769 
L 307.496994 69.763079 
L 308.005283 69.657748 
L 309.530151 69.737402 
L 310.54673 69.994042 
L 312.579887 69.898235 
L 313.596466 69.997891 
L 314.104755 70.659888 
L 314.613044 70.767229 
L 315.121334 70.712808 
L 316.137912 70.887337 
L 316.646201 72.047116 
L 317.154491 72.042023 
L 317.66278 74.259187 
L 319.187648 74.343754 
L 319.695937 74.372666 
L 320.204227 75.472611 
L 321.729095 75.550513 
L 323.762252 75.642322 
L 324.270541 75.132342 
L 325.28712 75.258419 
L 325.795409 75.273568 
L 326.303698 75.177255 
L 327.320277 74.807319 
L 327.828566 74.790583 
L 328.336856 74.914216 
L 329.861723 74.818142 
L 330.370013 75.119018 
L 330.878302 75.172395 
L 331.386591 74.311867 
L 332.911459 74.092413 
L 333.928038 74.259671 
L 336.977774 73.946618 
L 339.010931 73.847618 
L 339.51922 73.2228 
L 340.02751 73.014772 
L 340.535799 73.040052 
L 341.044088 72.916703 
L 341.552377 72.918637 
L 342.060667 71.881101 
L 342.568956 71.86565 
L 343.077245 69.578072 
L 344.093824 69.526339 
L 344.602113 69.459187 
L 345.110403 69.542386 
L 345.618692 68.368071 
L 346.126981 68.457056 
L 349.685006 68.071592 
L 350.193296 67.83311 
L 351.209874 67.756478 
L 351.718164 69.503585 
L 353.243032 69.638168 
L 353.751321 69.242589 
L 355.276189 69.412762 
L 355.784478 69.168373 
L 356.801057 69.112481 
L 358.325925 69.322784 
L 358.834214 72.432183 
L 359.850792 72.545476 
L 360.867371 72.577532 
L 361.37566 72.457622 
L 362.392239 72.631031 
L 363.917107 72.534703 
L 364.425396 72.465383 
L 364.933686 72.694613 
L 365.441975 72.782938 
L 365.950264 72.716031 
L 366.458553 72.950415 
L 368.491711 72.541274 
L 370.016579 72.644466 
L 370.524868 72.929454 
L 371.541447 73.107454 
L 373.066314 73.600999 
L 374.082893 73.548272 
L 375.099472 73.576554 
L 375.607761 73.668828 
L 376.11605 73.623119 
L 376.62434 73.915052 
L 377.132629 72.454226 
L 377.640918 72.729949 
L 378.149208 73.237185 
L 378.657497 73.24728 
L 379.165786 74.519707 
L 380.182365 74.426952 
L 380.690654 74.409574 
L 381.198943 76.933237 
L 381.707233 77.117231 
L 382.723811 77.194472 
L 383.232101 77.225939 
L 383.74039 77.838911 
L 384.248679 74.807721 
L 384.756968 75.062142 
L 386.281836 75.043351 
L 386.790126 74.848851 
L 387.806704 74.84764 
L 388.314994 75.669828 
L 388.823283 75.993446 
L 389.839862 76.213649 
L 390.348151 76.065412 
L 391.364729 76.070684 
L 391.873019 75.833974 
L 392.381308 76.07826 
L 393.397887 76.244964 
L 393.906176 76.41717 
L 395.431044 76.218468 
L 395.939333 75.833378 
L 397.464201 75.491574 
L 398.48078 75.120872 
L 399.497358 75.225786 
L 400.005648 75.118607 
L 401.022226 75.181218 
L 401.530516 75.155346 
L 403.055383 74.520979 
L 403.563673 73.987458 
L 404.071962 73.932852 
L 404.580251 72.569089 
L 406.105119 72.537847 
L 406.613409 69.900749 
L 407.629987 69.817338 
L 408.646566 69.678782 
L 409.154855 68.94143 
L 409.663144 68.789677 
L 410.171434 68.30176 
L 411.188012 68.287405 
L 412.71288 68.291053 
L 413.22117 68.278529 
L 413.729459 67.602368 
L 414.237748 67.343532 
L 417.287484 67.315289 
L 417.795773 67.169287 
L 418.304063 67.345049 
L 419.320641 67.118491 
L 419.828931 67.328719 
L 420.33722 67.289574 
L 420.845509 67.474085 
L 421.353799 67.462512 
L 422.370377 67.630911 
L 422.878666 67.548633 
L 423.895245 67.6746 
L 424.911824 67.53215 
L 425.420113 67.745273 
L 425.928402 68.155568 
L 426.436692 71.065255 
L 427.45327 71.024678 
L 428.469849 70.842195 
L 428.978138 71.119194 
L 433.552742 71.321358 
L 434.56932 71.332597 
L 435.585899 71.459054 
L 437.110767 71.527787 
L 438.127346 71.600536 
L 439.143924 71.493266 
L 439.652214 71.690146 
L 440.668792 71.654121 
L 442.19366 71.80293 
L 442.701949 73.625761 
L 444.735107 73.401666 
L 445.243396 73.212776 
L 445.751685 73.326122 
L 446.259974 73.147776 
L 446.768264 73.372108 
L 449.30971 73.237176 
L 449.818 73.436056 
L 450.326289 73.507643 
L 450.834578 73.375065 
L 451.342868 72.952689 
L 451.851157 69.977985 
L 453.884314 70.277934 
L 454.392603 69.879255 
L 455.917471 69.8575 
L 457.442339 69.914641 
L 457.950629 72.880689 
L 459.475496 72.789776 
L 459.983786 72.78168 
L 460.492075 72.652935 
L 462.016943 72.727486 
L 462.525232 72.949968 
L 463.541811 72.938931 
L 464.55839 72.858721 
L 465.066679 72.478354 
L 465.574968 72.805842 
L 466.591547 72.607871 
L 467.099836 72.479562 
L 467.608125 72.47855 
L 468.116415 70.770214 
L 468.624704 70.845652 
L 469.132993 70.7847 
L 470.149572 70.973726 
L 470.657861 70.996906 
L 471.16615 70.88806 
L 471.67444 70.989489 
L 472.182729 70.803713 
L 472.691018 72.285582 
L 473.199308 72.240786 
L 473.707597 72.8357 
L 474.724176 72.731389 
L 475.232465 72.55768 
L 475.740754 72.832549 
L 478.79049 72.409051 
L 480.823647 72.897317 
L 481.331937 72.948448 
L 481.840226 72.839783 
L 482.856805 72.838918 
L 483.365094 70.581311 
L 483.873383 70.575093 
L 484.381672 70.71779 
L 485.398251 70.631585 
L 486.923119 70.981255 
L 487.431408 70.995205 
L 487.939698 70.750844 
L 488.447987 70.796954 
L 489.464565 71.155028 
L 490.481144 71.190657 
L 490.989433 70.928731 
L 492.006012 70.959284 
L 493.53088 70.913798 
L 494.039169 70.919127 
L 494.547459 71.095257 
L 495.055748 71.073743 
L 495.564037 71.620097 
L 497.597194 71.562555 
L 498.105484 70.007518 
L 498.613773 70.080631 
L 499.122062 69.531322 
L 500.64693 69.810986 
L 501.15522 69.54848 
L 503.696666 69.95487 
L 504.204955 69.969418 
L 506.746402 69.345563 
L 507.762981 69.457845 
L 508.27127 69.398283 
L 508.779559 68.768968 
L 509.287848 68.738718 
L 509.796138 68.595195 
L 510.304427 68.678344 
L 510.812716 69.012038 
L 511.321006 68.919402 
L 512.337584 69.057208 
L 513.354163 69.226345 
L 514.879031 68.785003 
L 517.928767 68.70178 
L 518.437056 69.607521 
L 519.961924 69.652391 
L 520.470213 69.644187 
L 520.978502 69.032826 
L 521.486792 69.028957 
L 522.50337 69.309385 
L 523.519949 69.301504 
L 524.536528 69.719499 
L 527.077974 69.423293 
L 528.094553 69.394697 
L 529.111131 69.352638 
L 530.12771 69.408338 
L 530.635999 69.901799 
L 531.652578 69.873587 
L 532.160867 70.412154 
L 532.669156 70.358355 
L 533.177446 71.767152 
L 533.685735 72.228614 
L 534.194024 72.186432 
L 534.702314 72.25816 
L 535.718892 72.131621 
L 536.227182 71.792043 
L 536.735471 71.760258 
L 537.24376 73.182817 
L 537.75205 72.870566 
L 538.768628 72.567696 
L 539.276917 72.680652 
L 541.818364 72.555268 
L 543.343232 72.682975 
L 543.851521 71.71588 
L 545.376389 71.500357 
L 545.884678 71.70016 
L 547.409546 71.922512 
L 547.917836 71.74178 
L 548.934414 71.851017 
L 549.442704 71.581769 
L 549.950993 73.106064 
L 550.459282 73.108795 
L 551.475861 73.298215 
L 551.98415 73.349279 
L 552.492439 75.877039 
L 553.000729 76.006535 
L 553.509018 75.887515 
L 554.017307 75.957465 
L 554.525597 76.339746 
L 555.542175 76.438355 
L 556.050465 76.018892 
L 556.558754 76.43698 
L 557.067043 76.570487 
L 557.575332 76.132777 
L 558.083622 76.139937 
L 558.591911 74.699132 
L 559.1002 74.256058 
L 560.116779 74.20505 
L 560.625068 75.374307 
L 561.133358 75.491388 
L 562.149936 75.42267 
L 562.658226 74.633913 
L 563.166515 74.518214 
L 564.691383 74.643068 
L 565.199672 74.778574 
L 565.707961 75.089094 
L 568.249408 75.550824 
L 568.757697 76.019926 
L 571.807433 76.131267 
L 572.315722 76.176766 
L 572.824012 75.999662 
L 573.332301 75.970891 
L 573.84059 76.056145 
L 574.34888 75.979006 
L 574.857169 76.061778 
L 575.365458 74.334654 
L 575.873747 74.287116 
L 576.382037 74.075581 
L 576.890326 74.093317 
L 577.398615 77.971278 
L 577.906905 75.563933 
L 578.923483 75.367343 
L 579.431773 76.141723 
L 579.940062 75.672282 
L 580.956641 75.552526 
L 581.46493 75.845847 
L 581.973219 77.636742 
L 582.481508 77.6643 
L 582.989798 80.318188 
L 584.006376 80.418534 
L 584.514666 83.815045 
L 585.531244 83.796767 
L 586.039534 82.856755 
L 586.547823 82.765016 
L 587.056112 85.274018 
L 587.564402 85.27975 
L 588.072691 84.622853 
L 588.58098 84.72587 
L 589.089269 86.0907 
L 590.614137 85.815279 
L 591.122427 85.381664 
L 592.139005 85.158313 
L 593.155584 85.43576 
L 593.663873 85.243132 
L 594.172163 85.587986 
L 595.188741 85.472445 
L 595.69703 85.484911 
L 596.20532 85.836233 
L 596.713609 85.895459 
L 597.221898 85.813861 
L 599.255056 85.920736 
L 600.779923 85.805885 
L 601.796502 85.893743 
L 602.304791 85.778086 
L 602.813081 81.830525 
L 603.829659 81.638324 
L 604.337949 81.836267 
L 604.846238 80.993069 
L 605.354527 81.215305 
L 606.371106 81.289351 
L 606.879395 81.003578 
L 607.387684 78.888614 
L 607.895974 78.739471 
L 608.404263 75.963829 
L 608.912552 76.027666 
L 609.420842 75.946882 
L 609.929131 72.505873 
L 610.43742 73.184956 
L 610.94571 73.262279 
L 611.453999 73.102048 
L 611.962288 73.241736 
L 612.470578 70.760329 
L 612.978867 72.694904 
L 613.995445 72.732267 
L 614.503735 71.426904 
L 615.520313 71.497355 
L 616.028603 71.626462 
L 616.536892 71.61227 
L 617.553471 71.855896 
L 618.06176 71.773533 
L 618.570049 71.376854 
L 619.078338 71.374747 
L 619.586628 70.428505 
L 620.094917 70.732719 
L 621.111496 70.660167 
L 621.619785 70.313263 
L 622.636364 70.013456 
L 622.636364 70.013456 
" style="fill:none;stroke:#2ca02c;stroke-linecap:square;stroke-width:1.5;"/>
   </g>
   <g id="patch_3">
    <path d="M 90 384.48 
L 90 51.84 
" style="fill:none;stroke:#000000;stroke-linecap:square;stroke-linejoin:miter;stroke-width:0.8;"/>
   </g>
   <g id="patch_4">
    <path d="M 648 384.48 
L 648 51.84 
" style="fill:none;stroke:#000000;stroke-linecap:square;stroke-linejoin:miter;stroke-width:0.8;"/>
   </g>
   <g id="patch_5">
    <path d="M 90 384.48 
L 648 384.48 
" style="fill:none;stroke:#000000;stroke-linecap:square;stroke-linejoin:miter;stroke-width:0.8;"/>
   </g>
   <g id="patch_6">
    <path d="M 90 51.84 
L 648 51.84 
" style="fill:none;stroke:#000000;stroke-linecap:square;stroke-linejoin:miter;stroke-width:0.8;"/>
   </g>
   <g id="text_20">
    <!-- Comparison of Smoothed50Reward -->
    <g transform="translate(245.154687 45.84)scale(0.14 -0.14)">
     <defs>
      <path d="M 64.40625 67.28125 
L 64.40625 56.890625 
Q 59.421875 61.53125 53.78125 63.8125 
Q 48.140625 66.109375 41.796875 66.109375 
Q 29.296875 66.109375 22.65625 58.46875 
Q 16.015625 50.828125 16.015625 36.375 
Q 16.015625 21.96875 22.65625 14.328125 
Q 29.296875 6.6875 41.796875 6.6875 
Q 48.140625 6.6875 53.78125 8.984375 
Q 59.421875 11.28125 64.40625 15.921875 
L 64.40625 5.609375 
Q 59.234375 2.09375 53.4375 0.328125 
Q 47.65625 -1.421875 41.21875 -1.421875 
Q 24.65625 -1.421875 15.125 8.703125 
Q 5.609375 18.84375 5.609375 36.375 
Q 5.609375 53.953125 15.125 64.078125 
Q 24.65625 74.21875 41.21875 74.21875 
Q 47.75 74.21875 53.53125 72.484375 
Q 59.328125 70.75 64.40625 67.28125 
z
" id="DejaVuSans-67"/>
      <path d="M 9.421875 54.6875 
L 18.40625 54.6875 
L 18.40625 0 
L 9.421875 0 
z
M 9.421875 75.984375 
L 18.40625 75.984375 
L 18.40625 64.59375 
L 9.421875 64.59375 
z
" id="DejaVuSans-105"/>
      <path d="M 44.28125 53.078125 
L 44.28125 44.578125 
Q 40.484375 46.53125 36.375 47.5 
Q 32.28125 48.484375 27.875 48.484375 
Q 21.1875 48.484375 17.84375 46.4375 
Q 14.5 44.390625 14.5 40.28125 
Q 14.5 37.15625 16.890625 35.375 
Q 19.28125 33.59375 26.515625 31.984375 
L 29.59375 31.296875 
Q 39.15625 29.25 43.1875 25.515625 
Q 47.21875 21.78125 47.21875 15.09375 
Q 47.21875 7.46875 41.1875 3.015625 
Q 35.15625 -1.421875 24.609375 -1.421875 
Q 20.21875 -1.421875 15.453125 -0.5625 
Q 10.6875 0.296875 5.421875 2 
L 5.421875 11.28125 
Q 10.40625 8.6875 15.234375 7.390625 
Q 20.0625 6.109375 24.8125 6.109375 
Q 31.15625 6.109375 34.5625 8.28125 
Q 37.984375 10.453125 37.984375 14.40625 
Q 37.984375 18.0625 35.515625 20.015625 
Q 33.0625 21.96875 24.703125 23.78125 
L 21.578125 24.515625 
Q 13.234375 26.265625 9.515625 29.90625 
Q 5.8125 33.546875 5.8125 39.890625 
Q 5.8125 47.609375 11.28125 51.796875 
Q 16.75 56 26.8125 56 
Q 31.78125 56 36.171875 55.265625 
Q 40.578125 54.546875 44.28125 53.078125 
z
" id="DejaVuSans-115"/>
      <path d="M 54.890625 33.015625 
L 54.890625 0 
L 45.90625 0 
L 45.90625 32.71875 
Q 45.90625 40.484375 42.875 44.328125 
Q 39.84375 48.1875 33.796875 48.1875 
Q 26.515625 48.1875 22.3125 43.546875 
Q 18.109375 38.921875 18.109375 30.90625 
L 18.109375 0 
L 9.078125 0 
L 9.078125 54.6875 
L 18.109375 54.6875 
L 18.109375 46.1875 
Q 21.34375 51.125 25.703125 53.5625 
Q 30.078125 56 35.796875 56 
Q 45.21875 56 50.046875 50.171875 
Q 54.890625 44.34375 54.890625 33.015625 
z
" id="DejaVuSans-110"/>
      <path id="DejaVuSans-32"/>
      <path d="M 37.109375 75.984375 
L 37.109375 68.5 
L 28.515625 68.5 
Q 23.6875 68.5 21.796875 66.546875 
Q 19.921875 64.59375 19.921875 59.515625 
L 19.921875 54.6875 
L 34.71875 54.6875 
L 34.71875 47.703125 
L 19.921875 47.703125 
L 19.921875 0 
L 10.890625 0 
L 10.890625 47.703125 
L 2.296875 47.703125 
L 2.296875 54.6875 
L 10.890625 54.6875 
L 10.890625 58.5 
Q 10.890625 67.625 15.140625 71.796875 
Q 19.390625 75.984375 28.609375 75.984375 
z
" id="DejaVuSans-102"/>
     </defs>
     <use xlink:href="#DejaVuSans-67"/>
     <use x="69.824219" xlink:href="#DejaVuSans-111"/>
     <use x="131.005859" xlink:href="#DejaVuSans-109"/>
     <use x="228.417969" xlink:href="#DejaVuSans-112"/>
     <use x="291.894531" xlink:href="#DejaVuSans-97"/>
     <use x="353.173828" xlink:href="#DejaVuSans-114"/>
     <use x="394.287109" xlink:href="#DejaVuSans-105"/>
     <use x="422.070312" xlink:href="#DejaVuSans-115"/>
     <use x="474.169922" xlink:href="#DejaVuSans-111"/>
     <use x="535.351562" xlink:href="#DejaVuSans-110"/>
     <use x="598.730469" xlink:href="#DejaVuSans-32"/>
     <use x="630.517578" xlink:href="#DejaVuSans-111"/>
     <use x="691.699219" xlink:href="#DejaVuSans-102"/>
     <use x="726.904297" xlink:href="#DejaVuSans-32"/>
     <use x="758.691406" xlink:href="#DejaVuSans-83"/>
     <use x="822.167969" xlink:href="#DejaVuSans-109"/>
     <use x="919.580078" xlink:href="#DejaVuSans-111"/>
     <use x="980.761719" xlink:href="#DejaVuSans-111"/>
     <use x="1041.943359" xlink:href="#DejaVuSans-116"/>
     <use x="1081.152344" xlink:href="#DejaVuSans-104"/>
     <use x="1144.53125" xlink:href="#DejaVuSans-101"/>
     <use x="1206.054688" xlink:href="#DejaVuSans-100"/>
     <use x="1269.53125" xlink:href="#DejaVuSans-53"/>
     <use x="1333.154297" xlink:href="#DejaVuSans-48"/>
     <use x="1396.777344" xlink:href="#DejaVuSans-82"/>
     <use x="1461.759766" xlink:href="#DejaVuSans-101"/>
     <use x="1523.283203" xlink:href="#DejaVuSans-119"/>
     <use x="1605.070312" xlink:href="#DejaVuSans-97"/>
     <use x="1666.349609" xlink:href="#DejaVuSans-114"/>
     <use x="1705.712891" xlink:href="#DejaVuSans-100"/>
    </g>
   </g>
   <g id="legend_1">
    <g id="patch_7">
     <path d="M 470.775 379.48 
L 641 379.48 
Q 643 379.48 643 377.48 
L 643 333.889375 
Q 643 331.889375 641 331.889375 
L 470.775 331.889375 
Q 468.775 331.889375 468.775 333.889375 
L 468.775 377.48 
Q 468.775 379.48 470.775 379.48 
z
" style="fill:#ffffff;opacity:0.8;stroke:#cccccc;stroke-linejoin:miter;"/>
    </g>
    <g id="line2d_38">
     <path d="M 472.775 339.987813 
L 492.775 339.987813 
" style="fill:none;stroke:#1f77b4;stroke-linecap:square;stroke-width:1.5;"/>
    </g>
    <g id="line2d_39"/>
    <g id="text_21">
     <!-- basic -->
     <g transform="translate(500.775 343.487813)scale(0.1 -0.1)">
      <defs>
       <path d="M 48.6875 27.296875 
Q 48.6875 37.203125 44.609375 42.84375 
Q 40.53125 48.484375 33.40625 48.484375 
Q 26.265625 48.484375 22.1875 42.84375 
Q 18.109375 37.203125 18.109375 27.296875 
Q 18.109375 17.390625 22.1875 11.75 
Q 26.265625 6.109375 33.40625 6.109375 
Q 40.53125 6.109375 44.609375 11.75 
Q 48.6875 17.390625 48.6875 27.296875 
z
M 18.109375 46.390625 
Q 20.953125 51.265625 25.265625 53.625 
Q 29.59375 56 35.59375 56 
Q 45.5625 56 51.78125 48.09375 
Q 58.015625 40.1875 58.015625 27.296875 
Q 58.015625 14.40625 51.78125 6.484375 
Q 45.5625 -1.421875 35.59375 -1.421875 
Q 29.59375 -1.421875 25.265625 0.953125 
Q 20.953125 3.328125 18.109375 8.203125 
L 18.109375 0 
L 9.078125 0 
L 9.078125 75.984375 
L 18.109375 75.984375 
z
" id="DejaVuSans-98"/>
       <path d="M 48.78125 52.59375 
L 48.78125 44.1875 
Q 44.96875 46.296875 41.140625 47.34375 
Q 37.3125 48.390625 33.40625 48.390625 
Q 24.65625 48.390625 19.8125 42.84375 
Q 14.984375 37.3125 14.984375 27.296875 
Q 14.984375 17.28125 19.8125 11.734375 
Q 24.65625 6.203125 33.40625 6.203125 
Q 37.3125 6.203125 41.140625 7.25 
Q 44.96875 8.296875 48.78125 10.40625 
L 48.78125 2.09375 
Q 45.015625 0.34375 40.984375 -0.53125 
Q 36.96875 -1.421875 32.421875 -1.421875 
Q 20.0625 -1.421875 12.78125 6.34375 
Q 5.515625 14.109375 5.515625 27.296875 
Q 5.515625 40.671875 12.859375 48.328125 
Q 20.21875 56 33.015625 56 
Q 37.15625 56 41.109375 55.140625 
Q 45.0625 54.296875 48.78125 52.59375 
z
" id="DejaVuSans-99"/>
      </defs>
      <use xlink:href="#DejaVuSans-98"/>
      <use x="63.476562" xlink:href="#DejaVuSans-97"/>
      <use x="124.755859" xlink:href="#DejaVuSans-115"/>
      <use x="176.855469" xlink:href="#DejaVuSans-105"/>
      <use x="204.638672" xlink:href="#DejaVuSans-99"/>
     </g>
    </g>
    <g id="line2d_40">
     <path d="M 472.775 354.665938 
L 492.775 354.665938 
" style="fill:none;stroke:#ff7f0e;stroke-linecap:square;stroke-width:1.5;"/>
    </g>
    <g id="line2d_41"/>
    <g id="text_22">
     <!-- reach-v2_updateFreq1 -->
     <g transform="translate(500.775 358.165938)scale(0.1 -0.1)">
      <defs>
       <path d="M 4.890625 31.390625 
L 31.203125 31.390625 
L 31.203125 23.390625 
L 4.890625 23.390625 
z
" id="DejaVuSans-45"/>
       <path d="M 2.984375 54.6875 
L 12.5 54.6875 
L 29.59375 8.796875 
L 46.6875 54.6875 
L 56.203125 54.6875 
L 35.6875 0 
L 23.484375 0 
z
" id="DejaVuSans-118"/>
       <path d="M 50.984375 -16.609375 
L 50.984375 -23.578125 
L -0.984375 -23.578125 
L -0.984375 -16.609375 
z
" id="DejaVuSans-95"/>
       <path d="M 8.5 21.578125 
L 8.5 54.6875 
L 17.484375 54.6875 
L 17.484375 21.921875 
Q 17.484375 14.15625 20.5 10.265625 
Q 23.53125 6.390625 29.59375 6.390625 
Q 36.859375 6.390625 41.078125 11.03125 
Q 45.3125 15.671875 45.3125 23.6875 
L 45.3125 54.6875 
L 54.296875 54.6875 
L 54.296875 0 
L 45.3125 0 
L 45.3125 8.40625 
Q 42.046875 3.421875 37.71875 1 
Q 33.40625 -1.421875 27.6875 -1.421875 
Q 18.265625 -1.421875 13.375 4.4375 
Q 8.5 10.296875 8.5 21.578125 
z
M 31.109375 56 
z
" id="DejaVuSans-117"/>
       <path d="M 9.8125 72.90625 
L 51.703125 72.90625 
L 51.703125 64.59375 
L 19.671875 64.59375 
L 19.671875 43.109375 
L 48.578125 43.109375 
L 48.578125 34.8125 
L 19.671875 34.8125 
L 19.671875 0 
L 9.8125 0 
z
" id="DejaVuSans-70"/>
       <path d="M 14.796875 27.296875 
Q 14.796875 17.390625 18.875 11.75 
Q 22.953125 6.109375 30.078125 6.109375 
Q 37.203125 6.109375 41.296875 11.75 
Q 45.40625 17.390625 45.40625 27.296875 
Q 45.40625 37.203125 41.296875 42.84375 
Q 37.203125 48.484375 30.078125 48.484375 
Q 22.953125 48.484375 18.875 42.84375 
Q 14.796875 37.203125 14.796875 27.296875 
z
M 45.40625 8.203125 
Q 42.578125 3.328125 38.25 0.953125 
Q 33.9375 -1.421875 27.875 -1.421875 
Q 17.96875 -1.421875 11.734375 6.484375 
Q 5.515625 14.40625 5.515625 27.296875 
Q 5.515625 40.1875 11.734375 48.09375 
Q 17.96875 56 27.875 56 
Q 33.9375 56 38.25 53.625 
Q 42.578125 51.265625 45.40625 46.390625 
L 45.40625 54.6875 
L 54.390625 54.6875 
L 54.390625 -20.796875 
L 45.40625 -20.796875 
z
" id="DejaVuSans-113"/>
      </defs>
      <use xlink:href="#DejaVuSans-114"/>
      <use x="38.863281" xlink:href="#DejaVuSans-101"/>
      <use x="100.386719" xlink:href="#DejaVuSans-97"/>
      <use x="161.666016" xlink:href="#DejaVuSans-99"/>
      <use x="216.646484" xlink:href="#DejaVuSans-104"/>
      <use x="280.025391" xlink:href="#DejaVuSans-45"/>
      <use x="313.484375" xlink:href="#DejaVuSans-118"/>
      <use x="372.664062" xlink:href="#DejaVuSans-50"/>
      <use x="436.287109" xlink:href="#DejaVuSans-95"/>
      <use x="486.287109" xlink:href="#DejaVuSans-117"/>
      <use x="549.666016" xlink:href="#DejaVuSans-112"/>
      <use x="613.142578" xlink:href="#DejaVuSans-100"/>
      <use x="676.619141" xlink:href="#DejaVuSans-97"/>
      <use x="737.898438" xlink:href="#DejaVuSans-116"/>
      <use x="777.107422" xlink:href="#DejaVuSans-101"/>
      <use x="838.630859" xlink:href="#DejaVuSans-70"/>
      <use x="888.900391" xlink:href="#DejaVuSans-114"/>
      <use x="927.763672" xlink:href="#DejaVuSans-101"/>
      <use x="989.287109" xlink:href="#DejaVuSans-113"/>
      <use x="1052.763672" xlink:href="#DejaVuSans-49"/>
     </g>
    </g>
    <g id="line2d_42">
     <path d="M 472.775 369.622187 
L 492.775 369.622187 
" style="fill:none;stroke:#2ca02c;stroke-linecap:square;stroke-width:1.5;"/>
    </g>
    <g id="line2d_43"/>
    <g id="text_23">
     <!-- reach-v2_updateFreq1_long -->
     <g transform="translate(500.775 373.122187)scale(0.1 -0.1)">
      <defs>
       <path d="M 9.421875 75.984375 
L 18.40625 75.984375 
L 18.40625 0 
L 9.421875 0 
z
" id="DejaVuSans-108"/>
       <path d="M 45.40625 27.984375 
Q 45.40625 37.75 41.375 43.109375 
Q 37.359375 48.484375 30.078125 48.484375 
Q 22.859375 48.484375 18.828125 43.109375 
Q 14.796875 37.75 14.796875 27.984375 
Q 14.796875 18.265625 18.828125 12.890625 
Q 22.859375 7.515625 30.078125 7.515625 
Q 37.359375 7.515625 41.375 12.890625 
Q 45.40625 18.265625 45.40625 27.984375 
z
M 54.390625 6.78125 
Q 54.390625 -7.171875 48.1875 -13.984375 
Q 42 -20.796875 29.203125 -20.796875 
Q 24.46875 -20.796875 20.265625 -20.09375 
Q 16.0625 -19.390625 12.109375 -17.921875 
L 12.109375 -9.1875 
Q 16.0625 -11.328125 19.921875 -12.34375 
Q 23.78125 -13.375 27.78125 -13.375 
Q 36.625 -13.375 41.015625 -8.765625 
Q 45.40625 -4.15625 45.40625 5.171875 
L 45.40625 9.625 
Q 42.625 4.78125 38.28125 2.390625 
Q 33.9375 0 27.875 0 
Q 17.828125 0 11.671875 7.65625 
Q 5.515625 15.328125 5.515625 27.984375 
Q 5.515625 40.671875 11.671875 48.328125 
Q 17.828125 56 27.875 56 
Q 33.9375 56 38.28125 53.609375 
Q 42.625 51.21875 45.40625 46.390625 
L 45.40625 54.6875 
L 54.390625 54.6875 
z
" id="DejaVuSans-103"/>
      </defs>
      <use xlink:href="#DejaVuSans-114"/>
      <use x="38.863281" xlink:href="#DejaVuSans-101"/>
      <use x="100.386719" xlink:href="#DejaVuSans-97"/>
      <use x="161.666016" xlink:href="#DejaVuSans-99"/>
      <use x="216.646484" xlink:href="#DejaVuSans-104"/>
      <use x="280.025391" xlink:href="#DejaVuSans-45"/>
      <use x="313.484375" xlink:href="#DejaVuSans-118"/>
      <use x="372.664062" xlink:href="#DejaVuSans-50"/>
      <use x="436.287109" xlink:href="#DejaVuSans-95"/>
      <use x="486.287109" xlink:href="#DejaVuSans-117"/>
      <use x="549.666016" xlink:href="#DejaVuSans-112"/>
      <use x="613.142578" xlink:href="#DejaVuSans-100"/>
      <use x="676.619141" xlink:href="#DejaVuSans-97"/>
      <use x="737.898438" xlink:href="#DejaVuSans-116"/>
      <use x="777.107422" xlink:href="#DejaVuSans-101"/>
      <use x="838.630859" xlink:href="#DejaVuSans-70"/>
      <use x="888.900391" xlink:href="#DejaVuSans-114"/>
      <use x="927.763672" xlink:href="#DejaVuSans-101"/>
      <use x="989.287109" xlink:href="#DejaVuSans-113"/>
      <use x="1052.763672" xlink:href="#DejaVuSans-49"/>
      <use x="1116.386719" xlink:href="#DejaVuSans-95"/>
      <use x="1166.386719" xlink:href="#DejaVuSans-108"/>
      <use x="1194.169922" xlink:href="#DejaVuSans-111"/>
      <use x="1255.351562" xlink:href="#DejaVuSans-110"/>
      <use x="1318.730469" xlink:href="#DejaVuSans-103"/>
     </g>
    </g>
   </g>
  </g>
 </g>
 <defs>
  <clipPath id="p6c8453fbae">
   <rect height="332.64" width="558" x="90" y="51.84"/>
  </clipPath>
 </defs>
</svg>
