<?xml version="1.0" encoding="utf-8" standalone="no"?>
<!DOCTYPE svg PUBLIC "-//W3C//DTD SVG 1.1//EN"
  "http://www.w3.org/Graphics/SVG/1.1/DTD/svg11.dtd">
<!-- Created with matplotlib (https://matplotlib.org/) -->
<svg height="432pt" version="1.1" viewBox="0 0 720 432" width="720pt" xmlns="http://www.w3.org/2000/svg" xmlns:xlink="http://www.w3.org/1999/xlink">
 <metadata>
  <rdf:RDF xmlns:cc="http://creativecommons.org/ns#" xmlns:dc="http://purl.org/dc/elements/1.1/" xmlns:rdf="http://www.w3.org/1999/02/22-rdf-syntax-ns#">
   <cc:Work>
    <dc:type rdf:resource="http://purl.org/dc/dcmitype/StillImage"/>
    <dc:date>2025-08-01T16:24:58.740494</dc:date>
    <dc:format>image/svg+xml</dc:format>
    <dc:creator>
     <cc:Agent>
      <dc:title>Matplotlib v3.3.3, https://matplotlib.org/</dc:title>
     </cc:Agent>
    </dc:creator>
   </cc:Work>
  </rdf:RDF>
 </metadata>
 <defs>
  <style type="text/css">*{stroke-linecap:butt;stroke-linejoin:round;}</style>
 </defs>
 <g id="figure_1">
  <g id="patch_1">
   <path d="M 0 432 
L 720 432 
L 720 0 
L 0 0 
z
" style="fill:#ffffff;"/>
  </g>
  <g id="axes_1">
   <g id="patch_2">
    <path d="M 90 384.48 
L 648 384.48 
L 648 51.84 
L 90 51.84 
z
" style="fill:#ffffff;"/>
   </g>
   <g id="matplotlib.axis_1">
    <g id="xtick_1">
     <g id="line2d_1">
      <path clip-path="url(#pdb26dc07c6)" d="M 114.855347 384.48 
L 114.855347 51.84 
" style="fill:none;stroke:#b0b0b0;stroke-linecap:square;stroke-width:0.8;"/>
     </g>
     <g id="line2d_2">
      <defs>
       <path d="M 0 0 
L 0 3.5 
" id="m4f999fbe30" style="stroke:#000000;stroke-width:0.8;"/>
      </defs>
      <g>
       <use style="stroke:#000000;stroke-width:0.8;" x="114.855347" xlink:href="#m4f999fbe30" y="384.48"/>
      </g>
     </g>
     <g id="text_1">
      <!-- 0 -->
      <g transform="translate(111.674097 399.078438)scale(0.1 -0.1)">
       <defs>
        <path d="M 31.78125 66.40625 
Q 24.171875 66.40625 20.328125 58.90625 
Q 16.5 51.421875 16.5 36.375 
Q 16.5 21.390625 20.328125 13.890625 
Q 24.171875 6.390625 31.78125 6.390625 
Q 39.453125 6.390625 43.28125 13.890625 
Q 47.125 21.390625 47.125 36.375 
Q 47.125 51.421875 43.28125 58.90625 
Q 39.453125 66.40625 31.78125 66.40625 
z
M 31.78125 74.21875 
Q 44.046875 74.21875 50.515625 64.515625 
Q 56.984375 54.828125 56.984375 36.375 
Q 56.984375 17.96875 50.515625 8.265625 
Q 44.046875 -1.421875 31.78125 -1.421875 
Q 19.53125 -1.421875 13.0625 8.265625 
Q 6.59375 17.96875 6.59375 36.375 
Q 6.59375 54.828125 13.0625 64.515625 
Q 19.53125 74.21875 31.78125 74.21875 
z
" id="DejaVuSans-48"/>
       </defs>
       <use xlink:href="#DejaVuSans-48"/>
      </g>
     </g>
    </g>
    <g id="xtick_2">
     <g id="line2d_3">
      <path clip-path="url(#pdb26dc07c6)" d="M 178.39151 384.48 
L 178.39151 51.84 
" style="fill:none;stroke:#b0b0b0;stroke-linecap:square;stroke-width:0.8;"/>
     </g>
     <g id="line2d_4">
      <g>
       <use style="stroke:#000000;stroke-width:0.8;" x="178.39151" xlink:href="#m4f999fbe30" y="384.48"/>
      </g>
     </g>
     <g id="text_2">
      <!-- 50000 -->
      <g transform="translate(162.48526 399.078438)scale(0.1 -0.1)">
       <defs>
        <path d="M 10.796875 72.90625 
L 49.515625 72.90625 
L 49.515625 64.59375 
L 19.828125 64.59375 
L 19.828125 46.734375 
Q 21.96875 47.46875 24.109375 47.828125 
Q 26.265625 48.1875 28.421875 48.1875 
Q 40.625 48.1875 47.75 41.5 
Q 54.890625 34.8125 54.890625 23.390625 
Q 54.890625 11.625 47.5625 5.09375 
Q 40.234375 -1.421875 26.90625 -1.421875 
Q 22.3125 -1.421875 17.546875 -0.640625 
Q 12.796875 0.140625 7.71875 1.703125 
L 7.71875 11.625 
Q 12.109375 9.234375 16.796875 8.0625 
Q 21.484375 6.890625 26.703125 6.890625 
Q 35.15625 6.890625 40.078125 11.328125 
Q 45.015625 15.765625 45.015625 23.390625 
Q 45.015625 31 40.078125 35.4375 
Q 35.15625 39.890625 26.703125 39.890625 
Q 22.75 39.890625 18.8125 39.015625 
Q 14.890625 38.140625 10.796875 36.28125 
z
" id="DejaVuSans-53"/>
       </defs>
       <use xlink:href="#DejaVuSans-53"/>
       <use x="63.623047" xlink:href="#DejaVuSans-48"/>
       <use x="127.246094" xlink:href="#DejaVuSans-48"/>
       <use x="190.869141" xlink:href="#DejaVuSans-48"/>
       <use x="254.492188" xlink:href="#DejaVuSans-48"/>
      </g>
     </g>
    </g>
    <g id="xtick_3">
     <g id="line2d_5">
      <path clip-path="url(#pdb26dc07c6)" d="M 241.927674 384.48 
L 241.927674 51.84 
" style="fill:none;stroke:#b0b0b0;stroke-linecap:square;stroke-width:0.8;"/>
     </g>
     <g id="line2d_6">
      <g>
       <use style="stroke:#000000;stroke-width:0.8;" x="241.927674" xlink:href="#m4f999fbe30" y="384.48"/>
      </g>
     </g>
     <g id="text_3">
      <!-- 100000 -->
      <g transform="translate(222.840174 399.078438)scale(0.1 -0.1)">
       <defs>
        <path d="M 12.40625 8.296875 
L 28.515625 8.296875 
L 28.515625 63.921875 
L 10.984375 60.40625 
L 10.984375 69.390625 
L 28.421875 72.90625 
L 38.28125 72.90625 
L 38.28125 8.296875 
L 54.390625 8.296875 
L 54.390625 0 
L 12.40625 0 
z
" id="DejaVuSans-49"/>
       </defs>
       <use xlink:href="#DejaVuSans-49"/>
       <use x="63.623047" xlink:href="#DejaVuSans-48"/>
       <use x="127.246094" xlink:href="#DejaVuSans-48"/>
       <use x="190.869141" xlink:href="#DejaVuSans-48"/>
       <use x="254.492188" xlink:href="#DejaVuSans-48"/>
       <use x="318.115234" xlink:href="#DejaVuSans-48"/>
      </g>
     </g>
    </g>
    <g id="xtick_4">
     <g id="line2d_7">
      <path clip-path="url(#pdb26dc07c6)" d="M 305.463837 384.48 
L 305.463837 51.84 
" style="fill:none;stroke:#b0b0b0;stroke-linecap:square;stroke-width:0.8;"/>
     </g>
     <g id="line2d_8">
      <g>
       <use style="stroke:#000000;stroke-width:0.8;" x="305.463837" xlink:href="#m4f999fbe30" y="384.48"/>
      </g>
     </g>
     <g id="text_4">
      <!-- 150000 -->
      <g transform="translate(286.376337 399.078438)scale(0.1 -0.1)">
       <use xlink:href="#DejaVuSans-49"/>
       <use x="63.623047" xlink:href="#DejaVuSans-53"/>
       <use x="127.246094" xlink:href="#DejaVuSans-48"/>
       <use x="190.869141" xlink:href="#DejaVuSans-48"/>
       <use x="254.492188" xlink:href="#DejaVuSans-48"/>
       <use x="318.115234" xlink:href="#DejaVuSans-48"/>
      </g>
     </g>
    </g>
    <g id="xtick_5">
     <g id="line2d_9">
      <path clip-path="url(#pdb26dc07c6)" d="M 369 384.48 
L 369 51.84 
" style="fill:none;stroke:#b0b0b0;stroke-linecap:square;stroke-width:0.8;"/>
     </g>
     <g id="line2d_10">
      <g>
       <use style="stroke:#000000;stroke-width:0.8;" x="369" xlink:href="#m4f999fbe30" y="384.48"/>
      </g>
     </g>
     <g id="text_5">
      <!-- 200000 -->
      <g transform="translate(349.9125 399.078438)scale(0.1 -0.1)">
       <defs>
        <path d="M 19.1875 8.296875 
L 53.609375 8.296875 
L 53.609375 0 
L 7.328125 0 
L 7.328125 8.296875 
Q 12.9375 14.109375 22.625 23.890625 
Q 32.328125 33.6875 34.8125 36.53125 
Q 39.546875 41.84375 41.421875 45.53125 
Q 43.3125 49.21875 43.3125 52.78125 
Q 43.3125 58.59375 39.234375 62.25 
Q 35.15625 65.921875 28.609375 65.921875 
Q 23.96875 65.921875 18.8125 64.3125 
Q 13.671875 62.703125 7.8125 59.421875 
L 7.8125 69.390625 
Q 13.765625 71.78125 18.9375 73 
Q 24.125 74.21875 28.421875 74.21875 
Q 39.75 74.21875 46.484375 68.546875 
Q 53.21875 62.890625 53.21875 53.421875 
Q 53.21875 48.921875 51.53125 44.890625 
Q 49.859375 40.875 45.40625 35.40625 
Q 44.1875 33.984375 37.640625 27.21875 
Q 31.109375 20.453125 19.1875 8.296875 
z
" id="DejaVuSans-50"/>
       </defs>
       <use xlink:href="#DejaVuSans-50"/>
       <use x="63.623047" xlink:href="#DejaVuSans-48"/>
       <use x="127.246094" xlink:href="#DejaVuSans-48"/>
       <use x="190.869141" xlink:href="#DejaVuSans-48"/>
       <use x="254.492188" xlink:href="#DejaVuSans-48"/>
       <use x="318.115234" xlink:href="#DejaVuSans-48"/>
      </g>
     </g>
    </g>
    <g id="xtick_6">
     <g id="line2d_11">
      <path clip-path="url(#pdb26dc07c6)" d="M 432.536163 384.48 
L 432.536163 51.84 
" style="fill:none;stroke:#b0b0b0;stroke-linecap:square;stroke-width:0.8;"/>
     </g>
     <g id="line2d_12">
      <g>
       <use style="stroke:#000000;stroke-width:0.8;" x="432.536163" xlink:href="#m4f999fbe30" y="384.48"/>
      </g>
     </g>
     <g id="text_6">
      <!-- 250000 -->
      <g transform="translate(413.448663 399.078438)scale(0.1 -0.1)">
       <use xlink:href="#DejaVuSans-50"/>
       <use x="63.623047" xlink:href="#DejaVuSans-53"/>
       <use x="127.246094" xlink:href="#DejaVuSans-48"/>
       <use x="190.869141" xlink:href="#DejaVuSans-48"/>
       <use x="254.492188" xlink:href="#DejaVuSans-48"/>
       <use x="318.115234" xlink:href="#DejaVuSans-48"/>
      </g>
     </g>
    </g>
    <g id="xtick_7">
     <g id="line2d_13">
      <path clip-path="url(#pdb26dc07c6)" d="M 496.072326 384.48 
L 496.072326 51.84 
" style="fill:none;stroke:#b0b0b0;stroke-linecap:square;stroke-width:0.8;"/>
     </g>
     <g id="line2d_14">
      <g>
       <use style="stroke:#000000;stroke-width:0.8;" x="496.072326" xlink:href="#m4f999fbe30" y="384.48"/>
      </g>
     </g>
     <g id="text_7">
      <!-- 300000 -->
      <g transform="translate(476.984826 399.078438)scale(0.1 -0.1)">
       <defs>
        <path d="M 40.578125 39.3125 
Q 47.65625 37.796875 51.625 33 
Q 55.609375 28.21875 55.609375 21.1875 
Q 55.609375 10.40625 48.1875 4.484375 
Q 40.765625 -1.421875 27.09375 -1.421875 
Q 22.515625 -1.421875 17.65625 -0.515625 
Q 12.796875 0.390625 7.625 2.203125 
L 7.625 11.71875 
Q 11.71875 9.328125 16.59375 8.109375 
Q 21.484375 6.890625 26.8125 6.890625 
Q 36.078125 6.890625 40.9375 10.546875 
Q 45.796875 14.203125 45.796875 21.1875 
Q 45.796875 27.640625 41.28125 31.265625 
Q 36.765625 34.90625 28.71875 34.90625 
L 20.21875 34.90625 
L 20.21875 43.015625 
L 29.109375 43.015625 
Q 36.375 43.015625 40.234375 45.921875 
Q 44.09375 48.828125 44.09375 54.296875 
Q 44.09375 59.90625 40.109375 62.90625 
Q 36.140625 65.921875 28.71875 65.921875 
Q 24.65625 65.921875 20.015625 65.03125 
Q 15.375 64.15625 9.8125 62.3125 
L 9.8125 71.09375 
Q 15.4375 72.65625 20.34375 73.4375 
Q 25.25 74.21875 29.59375 74.21875 
Q 40.828125 74.21875 47.359375 69.109375 
Q 53.90625 64.015625 53.90625 55.328125 
Q 53.90625 49.265625 50.4375 45.09375 
Q 46.96875 40.921875 40.578125 39.3125 
z
" id="DejaVuSans-51"/>
       </defs>
       <use xlink:href="#DejaVuSans-51"/>
       <use x="63.623047" xlink:href="#DejaVuSans-48"/>
       <use x="127.246094" xlink:href="#DejaVuSans-48"/>
       <use x="190.869141" xlink:href="#DejaVuSans-48"/>
       <use x="254.492188" xlink:href="#DejaVuSans-48"/>
       <use x="318.115234" xlink:href="#DejaVuSans-48"/>
      </g>
     </g>
    </g>
    <g id="xtick_8">
     <g id="line2d_15">
      <path clip-path="url(#pdb26dc07c6)" d="M 559.60849 384.48 
L 559.60849 51.84 
" style="fill:none;stroke:#b0b0b0;stroke-linecap:square;stroke-width:0.8;"/>
     </g>
     <g id="line2d_16">
      <g>
       <use style="stroke:#000000;stroke-width:0.8;" x="559.60849" xlink:href="#m4f999fbe30" y="384.48"/>
      </g>
     </g>
     <g id="text_8">
      <!-- 350000 -->
      <g transform="translate(540.52099 399.078438)scale(0.1 -0.1)">
       <use xlink:href="#DejaVuSans-51"/>
       <use x="63.623047" xlink:href="#DejaVuSans-53"/>
       <use x="127.246094" xlink:href="#DejaVuSans-48"/>
       <use x="190.869141" xlink:href="#DejaVuSans-48"/>
       <use x="254.492188" xlink:href="#DejaVuSans-48"/>
       <use x="318.115234" xlink:href="#DejaVuSans-48"/>
      </g>
     </g>
    </g>
    <g id="xtick_9">
     <g id="line2d_17">
      <path clip-path="url(#pdb26dc07c6)" d="M 623.144653 384.48 
L 623.144653 51.84 
" style="fill:none;stroke:#b0b0b0;stroke-linecap:square;stroke-width:0.8;"/>
     </g>
     <g id="line2d_18">
      <g>
       <use style="stroke:#000000;stroke-width:0.8;" x="623.144653" xlink:href="#m4f999fbe30" y="384.48"/>
      </g>
     </g>
     <g id="text_9">
      <!-- 400000 -->
      <g transform="translate(604.057153 399.078438)scale(0.1 -0.1)">
       <defs>
        <path d="M 37.796875 64.3125 
L 12.890625 25.390625 
L 37.796875 25.390625 
z
M 35.203125 72.90625 
L 47.609375 72.90625 
L 47.609375 25.390625 
L 58.015625 25.390625 
L 58.015625 17.1875 
L 47.609375 17.1875 
L 47.609375 0 
L 37.796875 0 
L 37.796875 17.1875 
L 4.890625 17.1875 
L 4.890625 26.703125 
z
" id="DejaVuSans-52"/>
       </defs>
       <use xlink:href="#DejaVuSans-52"/>
       <use x="63.623047" xlink:href="#DejaVuSans-48"/>
       <use x="127.246094" xlink:href="#DejaVuSans-48"/>
       <use x="190.869141" xlink:href="#DejaVuSans-48"/>
       <use x="254.492188" xlink:href="#DejaVuSans-48"/>
       <use x="318.115234" xlink:href="#DejaVuSans-48"/>
      </g>
     </g>
    </g>
    <g id="text_10">
     <!-- Step -->
     <g transform="translate(355.337812 414.27625)scale(0.12 -0.12)">
      <defs>
       <path d="M 53.515625 70.515625 
L 53.515625 60.890625 
Q 47.90625 63.578125 42.921875 64.890625 
Q 37.9375 66.21875 33.296875 66.21875 
Q 25.25 66.21875 20.875 63.09375 
Q 16.5 59.96875 16.5 54.203125 
Q 16.5 49.359375 19.40625 46.890625 
Q 22.3125 44.4375 30.421875 42.921875 
L 36.375 41.703125 
Q 47.40625 39.59375 52.65625 34.296875 
Q 57.90625 29 57.90625 20.125 
Q 57.90625 9.515625 50.796875 4.046875 
Q 43.703125 -1.421875 29.984375 -1.421875 
Q 24.8125 -1.421875 18.96875 -0.25 
Q 13.140625 0.921875 6.890625 3.21875 
L 6.890625 13.375 
Q 12.890625 10.015625 18.65625 8.296875 
Q 24.421875 6.59375 29.984375 6.59375 
Q 38.421875 6.59375 43.015625 9.90625 
Q 47.609375 13.234375 47.609375 19.390625 
Q 47.609375 24.75 44.3125 27.78125 
Q 41.015625 30.8125 33.5 32.328125 
L 27.484375 33.5 
Q 16.453125 35.6875 11.515625 40.375 
Q 6.59375 45.0625 6.59375 53.421875 
Q 6.59375 63.09375 13.40625 68.65625 
Q 20.21875 74.21875 32.171875 74.21875 
Q 37.3125 74.21875 42.625 73.28125 
Q 47.953125 72.359375 53.515625 70.515625 
z
" id="DejaVuSans-83"/>
       <path d="M 18.3125 70.21875 
L 18.3125 54.6875 
L 36.8125 54.6875 
L 36.8125 47.703125 
L 18.3125 47.703125 
L 18.3125 18.015625 
Q 18.3125 11.328125 20.140625 9.421875 
Q 21.96875 7.515625 27.59375 7.515625 
L 36.8125 7.515625 
L 36.8125 0 
L 27.59375 0 
Q 17.1875 0 13.234375 3.875 
Q 9.28125 7.765625 9.28125 18.015625 
L 9.28125 47.703125 
L 2.6875 47.703125 
L 2.6875 54.6875 
L 9.28125 54.6875 
L 9.28125 70.21875 
z
" id="DejaVuSans-116"/>
       <path d="M 56.203125 29.59375 
L 56.203125 25.203125 
L 14.890625 25.203125 
Q 15.484375 15.921875 20.484375 11.0625 
Q 25.484375 6.203125 34.421875 6.203125 
Q 39.59375 6.203125 44.453125 7.46875 
Q 49.3125 8.734375 54.109375 11.28125 
L 54.109375 2.78125 
Q 49.265625 0.734375 44.1875 -0.34375 
Q 39.109375 -1.421875 33.890625 -1.421875 
Q 20.796875 -1.421875 13.15625 6.1875 
Q 5.515625 13.8125 5.515625 26.8125 
Q 5.515625 40.234375 12.765625 48.109375 
Q 20.015625 56 32.328125 56 
Q 43.359375 56 49.78125 48.890625 
Q 56.203125 41.796875 56.203125 29.59375 
z
M 47.21875 32.234375 
Q 47.125 39.59375 43.09375 43.984375 
Q 39.0625 48.390625 32.421875 48.390625 
Q 24.90625 48.390625 20.390625 44.140625 
Q 15.875 39.890625 15.1875 32.171875 
z
" id="DejaVuSans-101"/>
       <path d="M 18.109375 8.203125 
L 18.109375 -20.796875 
L 9.078125 -20.796875 
L 9.078125 54.6875 
L 18.109375 54.6875 
L 18.109375 46.390625 
Q 20.953125 51.265625 25.265625 53.625 
Q 29.59375 56 35.59375 56 
Q 45.5625 56 51.78125 48.09375 
Q 58.015625 40.1875 58.015625 27.296875 
Q 58.015625 14.40625 51.78125 6.484375 
Q 45.5625 -1.421875 35.59375 -1.421875 
Q 29.59375 -1.421875 25.265625 0.953125 
Q 20.953125 3.328125 18.109375 8.203125 
z
M 48.6875 27.296875 
Q 48.6875 37.203125 44.609375 42.84375 
Q 40.53125 48.484375 33.40625 48.484375 
Q 26.265625 48.484375 22.1875 42.84375 
Q 18.109375 37.203125 18.109375 27.296875 
Q 18.109375 17.390625 22.1875 11.75 
Q 26.265625 6.109375 33.40625 6.109375 
Q 40.53125 6.109375 44.609375 11.75 
Q 48.6875 17.390625 48.6875 27.296875 
z
" id="DejaVuSans-112"/>
      </defs>
      <use xlink:href="#DejaVuSans-83"/>
      <use x="63.476562" xlink:href="#DejaVuSans-116"/>
      <use x="102.685547" xlink:href="#DejaVuSans-101"/>
      <use x="164.208984" xlink:href="#DejaVuSans-112"/>
     </g>
    </g>
   </g>
   <g id="matplotlib.axis_2">
    <g id="ytick_1">
     <g id="line2d_19">
      <path clip-path="url(#pdb26dc07c6)" d="M 90 353.371942 
L 648 353.371942 
" style="fill:none;stroke:#b0b0b0;stroke-linecap:square;stroke-width:0.8;"/>
     </g>
     <g id="line2d_20">
      <defs>
       <path d="M 0 0 
L -3.5 0 
" id="m5e7dbe66e4" style="stroke:#000000;stroke-width:0.8;"/>
      </defs>
      <g>
       <use style="stroke:#000000;stroke-width:0.8;" x="90" xlink:href="#m5e7dbe66e4" y="353.371942"/>
      </g>
     </g>
     <g id="text_11">
      <!-- 500 -->
      <g transform="translate(63.9125 357.171161)scale(0.1 -0.1)">
       <use xlink:href="#DejaVuSans-53"/>
       <use x="63.623047" xlink:href="#DejaVuSans-48"/>
       <use x="127.246094" xlink:href="#DejaVuSans-48"/>
      </g>
     </g>
    </g>
    <g id="ytick_2">
     <g id="line2d_21">
      <path clip-path="url(#pdb26dc07c6)" d="M 90 310.535307 
L 648 310.535307 
" style="fill:none;stroke:#b0b0b0;stroke-linecap:square;stroke-width:0.8;"/>
     </g>
     <g id="line2d_22">
      <g>
       <use style="stroke:#000000;stroke-width:0.8;" x="90" xlink:href="#m5e7dbe66e4" y="310.535307"/>
      </g>
     </g>
     <g id="text_12">
      <!-- 1000 -->
      <g transform="translate(57.55 314.334526)scale(0.1 -0.1)">
       <use xlink:href="#DejaVuSans-49"/>
       <use x="63.623047" xlink:href="#DejaVuSans-48"/>
       <use x="127.246094" xlink:href="#DejaVuSans-48"/>
       <use x="190.869141" xlink:href="#DejaVuSans-48"/>
      </g>
     </g>
    </g>
    <g id="ytick_3">
     <g id="line2d_23">
      <path clip-path="url(#pdb26dc07c6)" d="M 90 267.698673 
L 648 267.698673 
" style="fill:none;stroke:#b0b0b0;stroke-linecap:square;stroke-width:0.8;"/>
     </g>
     <g id="line2d_24">
      <g>
       <use style="stroke:#000000;stroke-width:0.8;" x="90" xlink:href="#m5e7dbe66e4" y="267.698673"/>
      </g>
     </g>
     <g id="text_13">
      <!-- 1500 -->
      <g transform="translate(57.55 271.497891)scale(0.1 -0.1)">
       <use xlink:href="#DejaVuSans-49"/>
       <use x="63.623047" xlink:href="#DejaVuSans-53"/>
       <use x="127.246094" xlink:href="#DejaVuSans-48"/>
       <use x="190.869141" xlink:href="#DejaVuSans-48"/>
      </g>
     </g>
    </g>
    <g id="ytick_4">
     <g id="line2d_25">
      <path clip-path="url(#pdb26dc07c6)" d="M 90 224.862038 
L 648 224.862038 
" style="fill:none;stroke:#b0b0b0;stroke-linecap:square;stroke-width:0.8;"/>
     </g>
     <g id="line2d_26">
      <g>
       <use style="stroke:#000000;stroke-width:0.8;" x="90" xlink:href="#m5e7dbe66e4" y="224.862038"/>
      </g>
     </g>
     <g id="text_14">
      <!-- 2000 -->
      <g transform="translate(57.55 228.661257)scale(0.1 -0.1)">
       <use xlink:href="#DejaVuSans-50"/>
       <use x="63.623047" xlink:href="#DejaVuSans-48"/>
       <use x="127.246094" xlink:href="#DejaVuSans-48"/>
       <use x="190.869141" xlink:href="#DejaVuSans-48"/>
      </g>
     </g>
    </g>
    <g id="ytick_5">
     <g id="line2d_27">
      <path clip-path="url(#pdb26dc07c6)" d="M 90 182.025403 
L 648 182.025403 
" style="fill:none;stroke:#b0b0b0;stroke-linecap:square;stroke-width:0.8;"/>
     </g>
     <g id="line2d_28">
      <g>
       <use style="stroke:#000000;stroke-width:0.8;" x="90" xlink:href="#m5e7dbe66e4" y="182.025403"/>
      </g>
     </g>
     <g id="text_15">
      <!-- 2500 -->
      <g transform="translate(57.55 185.824622)scale(0.1 -0.1)">
       <use xlink:href="#DejaVuSans-50"/>
       <use x="63.623047" xlink:href="#DejaVuSans-53"/>
       <use x="127.246094" xlink:href="#DejaVuSans-48"/>
       <use x="190.869141" xlink:href="#DejaVuSans-48"/>
      </g>
     </g>
    </g>
    <g id="ytick_6">
     <g id="line2d_29">
      <path clip-path="url(#pdb26dc07c6)" d="M 90 139.188768 
L 648 139.188768 
" style="fill:none;stroke:#b0b0b0;stroke-linecap:square;stroke-width:0.8;"/>
     </g>
     <g id="line2d_30">
      <g>
       <use style="stroke:#000000;stroke-width:0.8;" x="90" xlink:href="#m5e7dbe66e4" y="139.188768"/>
      </g>
     </g>
     <g id="text_16">
      <!-- 3000 -->
      <g transform="translate(57.55 142.987987)scale(0.1 -0.1)">
       <use xlink:href="#DejaVuSans-51"/>
       <use x="63.623047" xlink:href="#DejaVuSans-48"/>
       <use x="127.246094" xlink:href="#DejaVuSans-48"/>
       <use x="190.869141" xlink:href="#DejaVuSans-48"/>
      </g>
     </g>
    </g>
    <g id="ytick_7">
     <g id="line2d_31">
      <path clip-path="url(#pdb26dc07c6)" d="M 90 96.352134 
L 648 96.352134 
" style="fill:none;stroke:#b0b0b0;stroke-linecap:square;stroke-width:0.8;"/>
     </g>
     <g id="line2d_32">
      <g>
       <use style="stroke:#000000;stroke-width:0.8;" x="90" xlink:href="#m5e7dbe66e4" y="96.352134"/>
      </g>
     </g>
     <g id="text_17">
      <!-- 3500 -->
      <g transform="translate(57.55 100.151353)scale(0.1 -0.1)">
       <use xlink:href="#DejaVuSans-51"/>
       <use x="63.623047" xlink:href="#DejaVuSans-53"/>
       <use x="127.246094" xlink:href="#DejaVuSans-48"/>
       <use x="190.869141" xlink:href="#DejaVuSans-48"/>
      </g>
     </g>
    </g>
    <g id="ytick_8">
     <g id="line2d_33">
      <path clip-path="url(#pdb26dc07c6)" d="M 90 53.515499 
L 648 53.515499 
" style="fill:none;stroke:#b0b0b0;stroke-linecap:square;stroke-width:0.8;"/>
     </g>
     <g id="line2d_34">
      <g>
       <use style="stroke:#000000;stroke-width:0.8;" x="90" xlink:href="#m5e7dbe66e4" y="53.515499"/>
      </g>
     </g>
     <g id="text_18">
      <!-- 4000 -->
      <g transform="translate(57.55 57.314718)scale(0.1 -0.1)">
       <use xlink:href="#DejaVuSans-52"/>
       <use x="63.623047" xlink:href="#DejaVuSans-48"/>
       <use x="127.246094" xlink:href="#DejaVuSans-48"/>
       <use x="190.869141" xlink:href="#DejaVuSans-48"/>
      </g>
     </g>
    </g>
    <g id="text_19">
     <!-- Smoothed40Reward -->
     <g transform="translate(51.054375 278.791875)rotate(-90)scale(0.12 -0.12)">
      <defs>
       <path d="M 52 44.1875 
Q 55.375 50.25 60.0625 53.125 
Q 64.75 56 71.09375 56 
Q 79.640625 56 84.28125 50.015625 
Q 88.921875 44.046875 88.921875 33.015625 
L 88.921875 0 
L 79.890625 0 
L 79.890625 32.71875 
Q 79.890625 40.578125 77.09375 44.375 
Q 74.3125 48.1875 68.609375 48.1875 
Q 61.625 48.1875 57.5625 43.546875 
Q 53.515625 38.921875 53.515625 30.90625 
L 53.515625 0 
L 44.484375 0 
L 44.484375 32.71875 
Q 44.484375 40.625 41.703125 44.40625 
Q 38.921875 48.1875 33.109375 48.1875 
Q 26.21875 48.1875 22.15625 43.53125 
Q 18.109375 38.875 18.109375 30.90625 
L 18.109375 0 
L 9.078125 0 
L 9.078125 54.6875 
L 18.109375 54.6875 
L 18.109375 46.1875 
Q 21.1875 51.21875 25.484375 53.609375 
Q 29.78125 56 35.6875 56 
Q 41.65625 56 45.828125 52.96875 
Q 50 49.953125 52 44.1875 
z
" id="DejaVuSans-109"/>
       <path d="M 30.609375 48.390625 
Q 23.390625 48.390625 19.1875 42.75 
Q 14.984375 37.109375 14.984375 27.296875 
Q 14.984375 17.484375 19.15625 11.84375 
Q 23.34375 6.203125 30.609375 6.203125 
Q 37.796875 6.203125 41.984375 11.859375 
Q 46.1875 17.53125 46.1875 27.296875 
Q 46.1875 37.015625 41.984375 42.703125 
Q 37.796875 48.390625 30.609375 48.390625 
z
M 30.609375 56 
Q 42.328125 56 49.015625 48.375 
Q 55.71875 40.765625 55.71875 27.296875 
Q 55.71875 13.875 49.015625 6.21875 
Q 42.328125 -1.421875 30.609375 -1.421875 
Q 18.84375 -1.421875 12.171875 6.21875 
Q 5.515625 13.875 5.515625 27.296875 
Q 5.515625 40.765625 12.171875 48.375 
Q 18.84375 56 30.609375 56 
z
" id="DejaVuSans-111"/>
       <path d="M 54.890625 33.015625 
L 54.890625 0 
L 45.90625 0 
L 45.90625 32.71875 
Q 45.90625 40.484375 42.875 44.328125 
Q 39.84375 48.1875 33.796875 48.1875 
Q 26.515625 48.1875 22.3125 43.546875 
Q 18.109375 38.921875 18.109375 30.90625 
L 18.109375 0 
L 9.078125 0 
L 9.078125 75.984375 
L 18.109375 75.984375 
L 18.109375 46.1875 
Q 21.34375 51.125 25.703125 53.5625 
Q 30.078125 56 35.796875 56 
Q 45.21875 56 50.046875 50.171875 
Q 54.890625 44.34375 54.890625 33.015625 
z
" id="DejaVuSans-104"/>
       <path d="M 45.40625 46.390625 
L 45.40625 75.984375 
L 54.390625 75.984375 
L 54.390625 0 
L 45.40625 0 
L 45.40625 8.203125 
Q 42.578125 3.328125 38.25 0.953125 
Q 33.9375 -1.421875 27.875 -1.421875 
Q 17.96875 -1.421875 11.734375 6.484375 
Q 5.515625 14.40625 5.515625 27.296875 
Q 5.515625 40.1875 11.734375 48.09375 
Q 17.96875 56 27.875 56 
Q 33.9375 56 38.25 53.625 
Q 42.578125 51.265625 45.40625 46.390625 
z
M 14.796875 27.296875 
Q 14.796875 17.390625 18.875 11.75 
Q 22.953125 6.109375 30.078125 6.109375 
Q 37.203125 6.109375 41.296875 11.75 
Q 45.40625 17.390625 45.40625 27.296875 
Q 45.40625 37.203125 41.296875 42.84375 
Q 37.203125 48.484375 30.078125 48.484375 
Q 22.953125 48.484375 18.875 42.84375 
Q 14.796875 37.203125 14.796875 27.296875 
z
" id="DejaVuSans-100"/>
       <path d="M 44.390625 34.1875 
Q 47.5625 33.109375 50.5625 29.59375 
Q 53.5625 26.078125 56.59375 19.921875 
L 66.609375 0 
L 56 0 
L 46.6875 18.703125 
Q 43.0625 26.03125 39.671875 28.421875 
Q 36.28125 30.8125 30.421875 30.8125 
L 19.671875 30.8125 
L 19.671875 0 
L 9.8125 0 
L 9.8125 72.90625 
L 32.078125 72.90625 
Q 44.578125 72.90625 50.734375 67.671875 
Q 56.890625 62.453125 56.890625 51.90625 
Q 56.890625 45.015625 53.6875 40.46875 
Q 50.484375 35.9375 44.390625 34.1875 
z
M 19.671875 64.796875 
L 19.671875 38.921875 
L 32.078125 38.921875 
Q 39.203125 38.921875 42.84375 42.21875 
Q 46.484375 45.515625 46.484375 51.90625 
Q 46.484375 58.296875 42.84375 61.546875 
Q 39.203125 64.796875 32.078125 64.796875 
z
" id="DejaVuSans-82"/>
       <path d="M 4.203125 54.6875 
L 13.1875 54.6875 
L 24.421875 12.015625 
L 35.59375 54.6875 
L 46.1875 54.6875 
L 57.421875 12.015625 
L 68.609375 54.6875 
L 77.59375 54.6875 
L 63.28125 0 
L 52.6875 0 
L 40.921875 44.828125 
L 29.109375 0 
L 18.5 0 
z
" id="DejaVuSans-119"/>
       <path d="M 34.28125 27.484375 
Q 23.390625 27.484375 19.1875 25 
Q 14.984375 22.515625 14.984375 16.5 
Q 14.984375 11.71875 18.140625 8.90625 
Q 21.296875 6.109375 26.703125 6.109375 
Q 34.1875 6.109375 38.703125 11.40625 
Q 43.21875 16.703125 43.21875 25.484375 
L 43.21875 27.484375 
z
M 52.203125 31.203125 
L 52.203125 0 
L 43.21875 0 
L 43.21875 8.296875 
Q 40.140625 3.328125 35.546875 0.953125 
Q 30.953125 -1.421875 24.3125 -1.421875 
Q 15.921875 -1.421875 10.953125 3.296875 
Q 6 8.015625 6 15.921875 
Q 6 25.140625 12.171875 29.828125 
Q 18.359375 34.515625 30.609375 34.515625 
L 43.21875 34.515625 
L 43.21875 35.40625 
Q 43.21875 41.609375 39.140625 45 
Q 35.0625 48.390625 27.6875 48.390625 
Q 23 48.390625 18.546875 47.265625 
Q 14.109375 46.140625 10.015625 43.890625 
L 10.015625 52.203125 
Q 14.9375 54.109375 19.578125 55.046875 
Q 24.21875 56 28.609375 56 
Q 40.484375 56 46.34375 49.84375 
Q 52.203125 43.703125 52.203125 31.203125 
z
" id="DejaVuSans-97"/>
       <path d="M 41.109375 46.296875 
Q 39.59375 47.171875 37.8125 47.578125 
Q 36.03125 48 33.890625 48 
Q 26.265625 48 22.1875 43.046875 
Q 18.109375 38.09375 18.109375 28.8125 
L 18.109375 0 
L 9.078125 0 
L 9.078125 54.6875 
L 18.109375 54.6875 
L 18.109375 46.1875 
Q 20.953125 51.171875 25.484375 53.578125 
Q 30.03125 56 36.53125 56 
Q 37.453125 56 38.578125 55.875 
Q 39.703125 55.765625 41.0625 55.515625 
z
" id="DejaVuSans-114"/>
      </defs>
      <use xlink:href="#DejaVuSans-83"/>
      <use x="63.476562" xlink:href="#DejaVuSans-109"/>
      <use x="160.888672" xlink:href="#DejaVuSans-111"/>
      <use x="222.070312" xlink:href="#DejaVuSans-111"/>
      <use x="283.251953" xlink:href="#DejaVuSans-116"/>
      <use x="322.460938" xlink:href="#DejaVuSans-104"/>
      <use x="385.839844" xlink:href="#DejaVuSans-101"/>
      <use x="447.363281" xlink:href="#DejaVuSans-100"/>
      <use x="510.839844" xlink:href="#DejaVuSans-52"/>
      <use x="574.462891" xlink:href="#DejaVuSans-48"/>
      <use x="638.085938" xlink:href="#DejaVuSans-82"/>
      <use x="703.068359" xlink:href="#DejaVuSans-101"/>
      <use x="764.591797" xlink:href="#DejaVuSans-119"/>
      <use x="846.378906" xlink:href="#DejaVuSans-97"/>
      <use x="907.658203" xlink:href="#DejaVuSans-114"/>
      <use x="947.021484" xlink:href="#DejaVuSans-100"/>
     </g>
    </g>
   </g>
   <g id="line2d_35">
    <path clip-path="url(#pdb26dc07c6)" d="M 115.363636 369.36 
L 115.871926 355.128399 
L 116.380215 356.423923 
L 116.888504 354.900821 
L 117.396794 354.39414 
L 117.905083 355.079288 
L 118.413372 350.628284 
L 118.921662 349.908765 
L 119.429951 345.686458 
L 119.93824 344.577764 
L 120.446529 345.133147 
L 120.954819 344.390346 
L 121.463108 346.584417 
L 121.971397 347.705169 
L 122.479687 349.534088 
L 122.987976 343.66036 
L 123.496265 343.796917 
L 124.004555 343.21216 
L 124.512844 344.638821 
L 125.529422 331.671475 
L 126.546001 326.304044 
L 127.05429 326.959551 
L 127.56258 325.364399 
L 128.070869 324.372854 
L 128.579158 325.000665 
L 129.087448 324.67428 
L 130.104026 323.286745 
L 130.612316 321.715772 
L 131.120605 316.929727 
L 131.628894 314.63635 
L 132.137183 310.556707 
L 132.645473 311.07007 
L 133.153762 312.597361 
L 133.662051 313.353644 
L 134.170341 313.848384 
L 134.67863 310.458296 
L 135.186919 309.224537 
L 135.695209 308.979735 
L 136.203498 306.134048 
L 137.220077 304.828224 
L 137.728366 301.294909 
L 138.744944 295.944824 
L 139.253234 295.472961 
L 140.269812 290.182521 
L 141.286391 286.523321 
L 141.79468 281.303631 
L 142.30297 279.549082 
L 142.811259 274.798039 
L 143.319548 272.153032 
L 143.827837 271.116573 
L 144.336127 265.770596 
L 144.844416 258.892334 
L 145.352705 259.644574 
L 145.860995 259.100803 
L 146.369284 260.604518 
L 146.877573 257.841236 
L 148.910731 240.488805 
L 149.41902 239.78858 
L 149.927309 239.668415 
L 150.435598 237.704202 
L 150.943888 237.985566 
L 151.452177 238.596513 
L 151.960466 238.728152 
L 152.468756 240.238329 
L 152.977045 239.66791 
L 153.485334 233.448702 
L 153.993624 229.611675 
L 154.501913 229.088465 
L 155.010202 232.551339 
L 155.518492 231.241137 
L 156.026781 226.092537 
L 156.53507 227.330144 
L 157.551649 216.316163 
L 158.059938 213.273712 
L 158.568227 209.188187 
L 159.076517 209.243917 
L 159.584806 203.060118 
L 160.093095 202.766315 
L 160.601385 200.214682 
L 161.109674 195.023988 
L 161.617963 193.968259 
L 162.634542 190.187203 
L 163.142831 189.422564 
L 163.65112 188.283645 
L 164.15941 183.462523 
L 165.175988 187.336052 
L 165.684278 184.504842 
L 166.192567 183.536219 
L 166.700856 177.69841 
L 167.209146 177.106693 
L 168.225724 174.03222 
L 168.734013 174.979262 
L 169.242303 174.401541 
L 169.750592 169.283513 
L 170.258881 166.901866 
L 170.767171 165.82878 
L 171.27546 160.434038 
L 171.783749 157.784017 
L 172.292039 153.59284 
L 173.308617 152.184669 
L 173.816907 153.950693 
L 174.325196 153.647993 
L 174.833485 149.780787 
L 175.341774 144.106368 
L 175.850064 140.672045 
L 176.358353 138.720424 
L 176.866642 133.59892 
L 177.374932 133.455304 
L 177.883221 133.714148 
L 178.39151 133.4233 
L 178.8998 132.857531 
L 179.408089 129.354692 
L 179.916378 132.786752 
L 180.424668 129.814179 
L 180.932957 128.339475 
L 181.441246 128.514549 
L 181.949535 124.710391 
L 182.457825 124.132536 
L 182.966114 120.521248 
L 183.474403 118.396743 
L 183.982693 121.866732 
L 184.490982 121.206466 
L 185.507561 116.256705 
L 186.01585 114.482307 
L 186.524139 114.149935 
L 187.032428 114.117522 
L 187.540718 112.608913 
L 188.049007 111.746803 
L 188.557296 111.29704 
L 189.065586 108.907935 
L 189.573875 108.039952 
L 190.082164 108.007249 
L 191.098743 102.045419 
L 191.607032 101.960442 
L 192.623611 101.302597 
L 193.1319 98.106347 
L 193.640189 93.567277 
L 194.148479 90.491522 
L 195.165057 86.307284 
L 195.673347 85.819073 
L 196.689925 85.805341 
L 197.198215 85.705009 
L 197.706504 85.122979 
L 198.214793 83.623822 
L 198.723083 83.431527 
L 199.739661 91.871439 
L 200.24795 88.794945 
L 201.264529 88.875707 
L 202.281108 90.447108 
L 202.789397 90.701142 
L 203.297686 91.326679 
L 203.805976 92.398002 
L 204.314265 91.126622 
L 204.822554 90.929549 
L 205.330844 90.058835 
L 205.839133 90.82323 
L 206.347422 90.872677 
L 206.855711 90.64184 
L 207.364001 90.1022 
L 209.397158 90.26839 
L 209.905447 90.210641 
L 210.413737 90.299609 
L 212.446894 91.911256 
L 212.955183 92.037391 
L 213.463472 92.549303 
L 213.971762 92.068597 
L 214.480051 92.15597 
L 215.49663 92.811377 
L 216.004919 92.93688 
L 216.513208 93.253153 
L 217.021498 93.077684 
L 217.529787 95.332111 
L 218.546365 95.50871 
L 219.054655 96.532867 
L 220.071233 87.882319 
L 220.579523 87.679717 
L 221.087812 87.685303 
L 221.596101 87.840977 
L 222.61268 86.28574 
L 223.120969 86.41293 
L 223.629259 85.726409 
L 224.137548 84.516745 
L 224.645837 81.590458 
L 225.154126 81.479347 
L 225.662416 81.504828 
L 226.170705 80.86718 
L 226.678994 80.751847 
L 227.187284 79.698711 
L 227.695573 80.258103 
L 229.72873 79.561446 
L 230.237019 79.532282 
L 230.745309 79.348935 
L 231.253598 78.628726 
L 231.761887 78.350811 
L 232.270177 77.903693 
L 232.778466 77.206106 
L 233.795045 77.25144 
L 234.303334 76.908247 
L 234.811623 76.981093 
L 235.319913 76.117918 
L 235.828202 75.623446 
L 236.336491 75.553226 
L 236.84478 75.133392 
L 237.35307 75.270003 
L 237.861359 73.063098 
L 238.369648 73.130997 
L 238.877938 72.913289 
L 239.386227 72.208151 
L 239.894516 73.128739 
L 240.402806 73.496205 
L 240.911095 73.153851 
L 241.419384 73.482645 
L 242.435963 72.874477 
L 242.944252 72.741934 
L 243.452541 72.349981 
L 243.960831 73.537962 
L 244.46912 73.793914 
L 245.993988 73.750556 
L 246.502277 73.544042 
L 247.010567 73.802922 
L 247.518856 73.79231 
L 248.027145 73.202048 
L 248.535435 73.057529 
L 249.552013 73.160726 
L 250.060302 73.960394 
L 250.568592 75.009313 
L 251.076881 74.841307 
L 251.58517 74.982315 
L 252.601749 75.068245 
L 253.110038 75.164581 
L 253.618328 75.114599 
L 254.126617 74.41188 
L 254.634906 74.537606 
L 255.651485 74.36164 
L 256.159774 74.504752 
L 256.668063 74.216576 
L 257.176353 74.160122 
L 258.192931 74.235595 
L 258.701221 74.072063 
L 259.20951 74.143746 
L 259.717799 73.712697 
L 260.226089 73.084121 
L 260.734378 72.808316 
L 261.242667 72.921362 
L 261.750956 72.483001 
L 262.259246 72.393512 
L 263.275824 72.530045 
L 263.784114 72.468332 
L 264.292403 71.321913 
L 266.32556 70.694583 
L 266.83385 70.848533 
L 267.850428 70.612897 
L 268.867007 70.616057 
L 269.375296 70.68246 
L 269.883585 70.523254 
L 270.391875 69.956701 
L 270.900164 68.874195 
L 271.408453 69.302387 
L 272.425032 69.084288 
L 273.44161 69.296322 
L 274.966478 68.879457 
L 275.474768 69.30785 
L 275.983057 69.397481 
L 276.491346 69.236172 
L 277.507925 69.263967 
L 278.524504 68.986104 
L 280.049371 69.023109 
L 280.557661 68.671194 
L 281.06595 68.677922 
L 281.574239 68.456321 
L 282.082529 68.419193 
L 282.590818 68.565538 
L 283.099107 68.5326 
L 283.607397 68.903057 
L 285.132265 68.976826 
L 286.657132 70.065192 
L 289.198579 69.800159 
L 290.215158 69.933788 
L 290.723447 69.729327 
L 291.231736 69.739805 
L 291.740026 69.239099 
L 292.756604 69.393879 
L 293.773183 69.086682 
L 294.281472 69.301646 
L 295.298051 69.4961 
L 295.80634 69.077015 
L 296.314629 69.46918 
L 297.331208 69.280009 
L 298.347786 69.278214 
L 299.364365 69.343169 
L 299.872654 69.516396 
L 300.889233 69.503905 
L 301.397522 69.625451 
L 301.905812 70.008156 
L 302.414101 70.034669 
L 303.43068 69.841915 
L 303.938969 69.402696 
L 304.447258 69.428012 
L 304.955547 70.385507 
L 305.463837 70.348722 
L 305.972126 69.883078 
L 306.480415 69.718526 
L 306.988705 69.428971 
L 310.038441 69.345131 
L 310.54673 69.24431 
L 311.055019 69.321635 
L 312.071598 69.202677 
L 312.579887 69.332689 
L 313.596466 69.24551 
L 314.104755 69.273185 
L 315.629623 68.984208 
L 316.137912 69.05797 
L 316.646201 68.64346 
L 317.154491 69.080156 
L 319.695937 69.105314 
L 320.204227 68.90191 
L 321.729095 68.702475 
L 322.237384 68.304768 
L 322.745673 68.288722 
L 324.270541 68.623172 
L 324.77883 68.630284 
L 325.28712 67.659451 
L 326.303698 67.70715 
L 327.828566 67.466557 
L 328.845145 67.544963 
L 330.370013 67.369645 
L 330.878302 67.510448 
L 331.386591 67.384161 
L 332.40317 67.497844 
L 332.911459 67.239104 
L 335.452906 67.133368 
L 335.961195 67.059274 
L 336.977774 67.535127 
L 337.486063 67.143411 
L 338.502642 67.30664 
L 339.010931 67.723284 
L 339.51922 67.783522 
L 340.02751 67.655846 
L 340.535799 69.760674 
L 341.044088 69.958542 
L 342.568956 69.997625 
L 343.077245 70.380423 
L 343.585535 70.305955 
L 344.602113 70.463171 
L 345.110403 70.471263 
L 345.618692 70.359397 
L 346.635271 70.478475 
L 348.160138 70.568585 
L 348.668428 70.883096 
L 349.685006 70.915702 
L 350.193296 71.364924 
L 350.701585 71.429308 
L 351.209874 74.756722 
L 351.718164 74.980278 
L 352.226453 76.399592 
L 353.243032 76.555038 
L 355.276189 76.939855 
L 356.292767 77.075768 
L 357.309346 76.581879 
L 358.834214 76.637638 
L 359.342503 76.34271 
L 360.359082 76.524963 
L 360.867371 74.480688 
L 361.88395 74.325613 
L 362.900528 74.375019 
L 363.408818 73.960613 
L 363.917107 73.944167 
L 364.425396 76.585741 
L 364.933686 76.890109 
L 365.441975 76.754438 
L 365.950264 79.678669 
L 366.458553 79.84139 
L 366.966843 82.703021 
L 367.983421 82.666173 
L 368.491711 82.615583 
L 369 82.353413 
L 369.508289 82.309972 
L 370.016579 82.557442 
L 370.524868 82.116227 
L 371.033157 82.166197 
L 371.541447 78.853784 
L 372.049736 78.756555 
L 372.558025 77.625778 
L 373.574604 77.540367 
L 374.082893 78.188462 
L 376.11605 78.28873 
L 379.674075 78.385766 
L 380.690654 78.244816 
L 383.232101 78.44443 
L 383.74039 79.038231 
L 384.248679 79.147651 
L 384.756968 76.63424 
L 385.265258 76.27219 
L 385.773547 76.265442 
L 386.281836 73.461731 
L 386.790126 73.186344 
L 387.298415 70.405478 
L 388.823283 70.451321 
L 389.839862 70.604088 
L 390.348151 70.496029 
L 390.85644 70.535162 
L 391.873019 70.244899 
L 392.381308 70.512643 
L 392.889597 70.233547 
L 393.397887 70.141031 
L 393.906176 70.198976 
L 394.414465 69.490918 
L 394.922755 69.408927 
L 395.431044 69.140695 
L 395.939333 69.184829 
L 397.464201 69.031325 
L 398.989069 68.972666 
L 399.497358 68.891878 
L 400.005648 69.452836 
L 400.513937 69.357878 
L 401.022226 69.391302 
L 402.038805 69.188991 
L 402.547094 69.351095 
L 403.563673 69.194367 
L 404.071962 68.634583 
L 405.59683 68.208599 
L 406.105119 68.333425 
L 406.613409 68.221174 
L 407.121698 68.344814 
L 407.629987 68.214444 
L 408.138277 68.260244 
L 408.646566 68.473637 
L 410.679723 68.201031 
L 411.188012 68.179681 
L 411.696302 68.547299 
L 412.204591 68.570535 
L 412.71288 68.288314 
L 413.729459 68.387072 
L 415.254327 68.20769 
L 415.762616 68.31673 
L 416.779195 68.365298 
L 417.287484 68.798149 
L 417.795773 68.794775 
L 418.304063 68.661288 
L 419.320641 68.776678 
L 419.828931 68.810083 
L 420.33722 68.305721 
L 421.353799 68.24659 
L 422.370377 68.414444 
L 422.878666 68.217991 
L 423.386956 68.318035 
L 423.895245 68.303265 
L 424.403534 70.510207 
L 424.911824 70.532351 
L 425.420113 70.771841 
L 426.436692 70.743685 
L 427.45327 70.865809 
L 428.469849 71.23551 
L 428.978138 71.01273 
L 429.486427 71.252734 
L 430.503006 71.203985 
L 431.519585 71.392069 
L 432.027874 71.197872 
L 433.044453 71.231772 
L 434.061031 71.388448 
L 434.56932 71.495082 
L 435.585899 72.142557 
L 437.110767 72.202006 
L 438.635635 72.425859 
L 439.143924 72.329011 
L 439.652214 72.751051 
L 440.668792 72.864629 
L 441.685371 72.92266 
L 442.19366 72.838875 
L 443.718528 73.01056 
L 444.226817 72.886441 
L 444.735107 70.642798 
L 445.243396 71.411997 
L 445.751685 71.10384 
L 446.768264 71.124595 
L 447.276553 71.165886 
L 448.293132 70.809122 
L 448.801421 70.505485 
L 449.30971 70.579013 
L 449.818 70.388703 
L 450.834578 70.426776 
L 452.359446 70.246946 
L 452.867735 70.669568 
L 453.376025 70.631223 
L 456.425761 69.742131 
L 456.93405 69.856465 
L 457.442339 70.768497 
L 458.458918 71.106746 
L 459.475496 71.005856 
L 459.983786 70.556084 
L 460.492075 70.37191 
L 461.508654 70.345972 
L 462.016943 70.331891 
L 462.525232 70.429537 
L 463.033522 70.322046 
L 463.541811 70.332972 
L 464.0501 70.089146 
L 464.55839 70.215651 
L 465.066679 70.135937 
L 465.574968 69.392741 
L 466.083257 69.423554 
L 466.591547 69.334462 
L 467.099836 69.599073 
L 468.116415 69.596036 
L 468.624704 69.800729 
L 469.132993 69.810454 
L 469.641283 69.963256 
L 471.16615 69.931794 
L 471.67444 70.104492 
L 472.691018 69.980798 
L 473.199308 69.627451 
L 473.707597 69.480701 
L 474.215886 69.516734 
L 474.724176 69.758145 
L 475.740754 69.583338 
L 477.265622 69.259958 
L 477.773911 68.28334 
L 478.282201 67.594232 
L 478.79049 67.363002 
L 480.315358 67.335772 
L 480.823647 67.459956 
L 481.840226 67.428718 
L 482.348515 67.583366 
L 483.365094 67.335372 
L 483.873383 67.643819 
L 486.923119 68.146059 
L 488.956276 67.808446 
L 489.464565 68.045755 
L 489.972855 67.932719 
L 490.481144 67.994025 
L 493.022591 67.722892 
L 494.547459 67.827925 
L 495.055748 67.620761 
L 495.564037 67.698903 
L 495.564037 67.698903 
" style="fill:none;stroke:#1f77b4;stroke-linecap:square;stroke-width:1.5;"/>
   </g>
   <g id="line2d_36">
    <path clip-path="url(#pdb26dc07c6)" d="M 115.363636 365.450692 
L 115.871926 344.065024 
L 116.380215 353.068781 
L 116.888504 355.644786 
L 117.396794 354.313683 
L 117.905083 356.811922 
L 118.413372 346.800175 
L 119.429951 347.887622 
L 119.93824 343.386807 
L 120.954819 346.074925 
L 121.463108 344.698063 
L 121.971397 344.133447 
L 122.479687 342.52019 
L 122.987976 343.143555 
L 124.004555 338.868185 
L 124.512844 338.954669 
L 125.021133 338.021118 
L 125.529422 335.619288 
L 126.037712 336.175668 
L 126.546001 336.943883 
L 127.56258 335.74899 
L 128.070869 333.623363 
L 129.087448 324.144828 
L 129.595737 321.662347 
L 130.104026 321.089748 
L 130.612316 321.574414 
L 131.120605 320.335814 
L 131.628894 320.079711 
L 132.137183 315.848726 
L 133.153762 309.828271 
L 133.662051 308.776083 
L 134.170341 306.188468 
L 134.67863 304.374176 
L 135.186919 303.349524 
L 135.695209 299.573812 
L 136.203498 297.693606 
L 136.711787 294.723752 
L 137.220077 287.858963 
L 137.728366 285.038718 
L 138.744944 276.681676 
L 139.253234 276.353203 
L 140.778102 262.166827 
L 141.286391 256.140822 
L 142.30297 250.470622 
L 142.811259 245.302864 
L 143.319548 242.975058 
L 143.827837 241.44201 
L 144.336127 235.828184 
L 144.844416 236.116178 
L 145.352705 232.661489 
L 145.860995 228.403683 
L 146.369284 221.591812 
L 146.877573 219.707262 
L 147.385863 219.66098 
L 147.894152 215.932241 
L 148.910731 217.070755 
L 149.41902 214.07645 
L 149.927309 215.730421 
L 150.435598 211.914394 
L 151.452177 200.341588 
L 151.960466 194.561901 
L 152.468756 193.447304 
L 152.977045 193.97918 
L 153.485334 190.884318 
L 153.993624 186.381465 
L 154.501913 187.128232 
L 155.010202 183.655255 
L 155.518492 178.966441 
L 156.026781 177.327347 
L 157.043359 169.379803 
L 157.551649 169.128683 
L 158.568227 161.93702 
L 159.076517 163.147563 
L 159.584806 156.582456 
L 160.093095 154.521913 
L 160.601385 153.162682 
L 161.109674 151.215359 
L 161.617963 150.588073 
L 162.634542 144.678035 
L 163.142831 144.804752 
L 163.65112 141.860911 
L 164.15941 137.527044 
L 164.667699 138.090274 
L 165.175988 134.035582 
L 165.684278 138.539238 
L 166.192567 137.358848 
L 166.700856 137.370774 
L 167.717435 126.050436 
L 168.225724 123.602649 
L 168.734013 117.914714 
L 169.242303 113.975681 
L 169.750592 114.621765 
L 170.258881 108.773052 
L 170.767171 107.186829 
L 171.27546 106.988328 
L 171.783749 107.019967 
L 172.292039 106.770172 
L 172.800328 105.133055 
L 173.308617 102.110767 
L 173.816907 102.576735 
L 174.325196 102.600342 
L 174.833485 99.58934 
L 175.341774 98.854986 
L 175.850064 98.772847 
L 176.358353 96.836811 
L 176.866642 96.12706 
L 177.374932 95.82672 
L 177.883221 96.828288 
L 178.39151 96.472403 
L 178.8998 98.628381 
L 179.408089 96.590466 
L 179.916378 98.254957 
L 180.424668 97.762208 
L 181.441246 97.784885 
L 181.949535 97.119823 
L 182.457825 96.885117 
L 183.474403 94.312333 
L 183.982693 94.508882 
L 184.490982 94.476993 
L 184.999271 94.155573 
L 185.507561 91.235835 
L 186.01585 85.419756 
L 186.524139 85.771952 
L 187.032428 85.607917 
L 188.049007 85.882702 
L 189.573875 86.170914 
L 190.082164 87.9499 
L 191.098743 87.053665 
L 191.607032 87.679156 
L 192.115322 87.814845 
L 193.1319 87.79158 
L 193.640189 91.214018 
L 194.148479 92.60856 
L 194.656768 92.06622 
L 195.165057 90.82066 
L 195.673347 91.160967 
L 196.181636 91.08158 
L 196.689925 91.124146 
L 197.198215 91.04471 
L 197.706504 91.945453 
L 198.214793 90.746119 
L 198.723083 90.75183 
L 199.231372 90.889798 
L 199.739661 92.327344 
L 200.24795 90.756513 
L 200.75624 90.912666 
L 201.264529 92.213358 
L 201.772818 92.138837 
L 202.281108 92.79957 
L 202.789397 93.007211 
L 203.805976 93.800823 
L 204.314265 91.737516 
L 204.822554 92.633997 
L 205.330844 92.127205 
L 205.839133 92.558904 
L 206.347422 91.163048 
L 206.855711 91.538366 
L 207.364001 91.551996 
L 207.87229 94.74286 
L 208.380579 94.655222 
L 208.888869 94.332587 
L 209.905447 96.766858 
L 210.413737 94.078811 
L 210.922026 94.110861 
L 211.430315 99.125131 
L 211.938604 98.950184 
L 212.446894 98.979828 
L 212.955183 98.884383 
L 213.463472 101.616799 
L 213.971762 97.366269 
L 214.480051 95.373034 
L 214.98834 95.642741 
L 215.49663 98.718481 
L 216.513208 100.745254 
L 217.021498 100.59359 
L 217.529787 100.718557 
L 218.038076 100.476263 
L 218.546365 100.36063 
L 219.054655 101.498476 
L 220.071233 97.443353 
L 220.579523 97.347431 
L 221.087812 97.435604 
L 221.596101 96.019872 
L 222.104391 96.250926 
L 223.120969 95.902467 
L 223.629259 95.473072 
L 224.137548 94.865432 
L 224.645837 95.553231 
L 225.154126 94.760001 
L 226.170705 94.646428 
L 226.678994 96.417815 
L 227.187284 95.590997 
L 227.695573 95.551727 
L 228.203862 92.006427 
L 228.712152 93.545468 
L 229.220441 94.431196 
L 229.72873 92.762344 
L 230.237019 92.203819 
L 231.253598 92.150979 
L 231.761887 87.562207 
L 232.778466 86.483295 
L 233.286755 86.631743 
L 233.795045 84.372565 
L 234.303334 85.136298 
L 234.811623 85.162371 
L 235.319913 84.794447 
L 235.828202 81.68589 
L 236.84478 79.44846 
L 237.35307 79.564352 
L 238.369648 79.374399 
L 238.877938 79.59117 
L 239.386227 78.372142 
L 240.911095 78.261184 
L 241.419384 77.969292 
L 241.927674 79.297143 
L 242.435963 80.020751 
L 242.944252 79.480359 
L 243.960831 79.571096 
L 244.46912 79.620547 
L 244.977409 78.986381 
L 245.485699 79.771772 
L 246.502277 79.761652 
L 247.010567 77.837179 
L 247.518856 78.42372 
L 248.027145 80.378662 
L 248.535435 80.598745 
L 249.043724 79.984048 
L 250.060302 79.961665 
L 250.568592 79.326018 
L 251.076881 79.850087 
L 251.58517 80.192808 
L 252.09346 79.737611 
L 252.601749 79.830851 
L 253.110038 80.246221 
L 253.618328 80.179901 
L 254.126617 79.67996 
L 254.634906 80.182814 
L 255.143195 80.079215 
L 255.651485 80.787343 
L 256.159774 80.818453 
L 256.668063 81.311089 
L 257.176353 81.379864 
L 258.192931 81.224758 
L 258.701221 80.719855 
L 259.717799 80.460462 
L 260.226089 81.386379 
L 261.242667 81.479634 
L 261.750956 81.487046 
L 262.259246 82.903765 
L 262.767535 81.964707 
L 265.308982 82.10066 
L 265.817271 81.702196 
L 266.32556 82.76057 
L 267.342139 82.706845 
L 267.850428 82.323366 
L 268.358717 80.376156 
L 268.867007 80.166527 
L 269.375296 79.19012 
L 269.883585 78.515891 
L 270.391875 78.515852 
L 270.900164 78.724917 
L 271.916743 77.882809 
L 272.933321 77.759865 
L 273.44161 77.431373 
L 273.9499 78.609745 
L 274.458189 78.779862 
L 274.966478 77.085859 
L 275.474768 77.347181 
L 275.983057 76.732128 
L 276.491346 76.702678 
L 276.999636 76.04195 
L 277.507925 75.847741 
L 278.524504 75.859658 
L 279.541082 75.852486 
L 280.049371 75.899023 
L 280.557661 74.897916 
L 282.082529 74.939861 
L 282.590818 72.215478 
L 284.115686 72.142264 
L 284.623975 72.024261 
L 285.640554 72.174218 
L 286.148843 71.718887 
L 286.657132 70.602355 
L 287.165422 70.204815 
L 287.673711 70.192315 
L 288.182 69.924734 
L 288.69029 69.798244 
L 289.706868 69.837212 
L 290.215158 69.63163 
L 290.723447 69.656743 
L 291.231736 69.443531 
L 291.740026 69.414456 
L 293.264893 69.569705 
L 293.773183 69.524038 
L 294.281472 68.324975 
L 296.314629 68.00136 
L 297.331208 67.950332 
L 297.839497 68.054001 
L 298.347786 68.042833 
L 298.856076 68.714361 
L 302.414101 68.927791 
L 302.92239 69.25748 
L 303.43068 69.302556 
L 303.938969 69.232626 
L 304.447258 69.360563 
L 305.463837 69.202612 
L 305.972126 70.07963 
L 309.530151 70.337919 
L 310.54673 70.750989 
L 311.055019 70.857871 
L 312.071598 70.718029 
L 313.596466 70.784235 
L 314.104755 71.537211 
L 314.613044 71.722898 
L 315.121334 71.645303 
L 315.629623 71.881525 
L 316.137912 71.910559 
L 316.646201 73.212858 
L 317.154491 73.301864 
L 317.66278 76.159717 
L 318.679359 76.148272 
L 319.187648 75.521754 
L 319.695937 75.477638 
L 320.204227 76.823889 
L 322.237384 76.601815 
L 322.745673 76.59504 
L 323.253962 76.293596 
L 324.270541 76.341526 
L 325.28712 76.613495 
L 325.795409 76.63844 
L 326.303698 75.552219 
L 327.828566 75.208833 
L 328.336856 75.824577 
L 329.353434 75.767056 
L 329.861723 75.708116 
L 330.370013 75.842816 
L 331.386591 75.53693 
L 332.40317 75.597689 
L 332.911459 75.498202 
L 333.928038 75.606096 
L 334.436327 74.795422 
L 334.944617 74.57426 
L 335.961195 74.75904 
L 336.469484 74.653755 
L 336.977774 73.162342 
L 337.486063 73.058662 
L 337.994352 70.20825 
L 338.502642 70.313153 
L 340.02751 70.026431 
L 340.535799 68.606219 
L 341.552377 68.690018 
L 342.060667 68.628529 
L 342.568956 68.690304 
L 345.618692 68.215527 
L 347.14356 68.361263 
L 348.160138 68.44809 
L 348.668428 67.80807 
L 349.685006 67.839413 
L 350.193296 67.783502 
L 350.701585 67.462417 
L 351.209874 67.373465 
L 351.718164 69.545058 
L 355.784478 69.824068 
L 356.292767 69.504911 
L 357.309346 69.629442 
L 358.325925 69.898306 
L 358.834214 73.734063 
L 359.342503 73.963779 
L 359.850792 73.949217 
L 360.867371 74.073224 
L 361.88395 74.199041 
L 362.900528 74.00064 
L 363.408818 74.06001 
L 364.425396 73.911823 
L 364.933686 74.178898 
L 365.950264 74.038282 
L 366.458553 74.312601 
L 368.491711 73.945789 
L 369.508289 74.081919 
L 370.016579 74.147132 
L 370.524868 74.751944 
L 371.033157 74.716085 
L 371.541447 74.920737 
L 372.049736 72.983608 
L 373.066314 73.350713 
L 373.574604 73.326917 
L 374.082893 73.187316 
L 375.607761 73.10076 
L 376.11605 73.027893 
L 378.149208 74.622918 
L 378.657497 74.546999 
L 379.165786 72.251006 
L 379.674075 71.982148 
L 380.182365 72.084983 
L 380.690654 72.029243 
L 381.198943 75.265808 
L 381.707233 75.32633 
L 382.215522 75.206008 
L 383.232101 75.516058 
L 383.74039 76.367112 
L 384.248679 76.573827 
L 384.756968 77.208003 
L 385.265258 76.935624 
L 385.773547 76.848637 
L 386.281836 76.98083 
L 386.790126 76.557277 
L 387.806704 76.819703 
L 388.314994 77.906579 
L 388.823283 78.372934 
L 390.348151 78.45281 
L 390.85644 77.974816 
L 392.889597 77.579995 
L 393.397887 77.356037 
L 393.906176 77.536215 
L 395.939333 77.456195 
L 396.447623 77.34979 
L 397.97249 76.354981 
L 398.48078 75.704072 
L 398.989069 75.714839 
L 399.497358 74.069447 
L 401.022226 74.064804 
L 401.530516 70.80671 
L 402.038805 70.724628 
L 402.547094 70.841353 
L 403.563673 70.576967 
L 404.071962 69.667018 
L 404.580251 69.454201 
L 405.088541 68.861765 
L 406.105119 68.941589 
L 406.613409 68.840969 
L 407.121698 69.03131 
L 408.138277 68.957306 
L 408.646566 68.031228 
L 409.154855 67.556772 
L 411.188012 67.149312 
L 411.696302 67.216691 
L 413.22117 67.01159 
L 413.729459 67.10907 
L 414.237748 67.036909 
L 415.254327 67.305289 
L 416.779195 67.469554 
L 417.795773 67.368366 
L 418.304063 67.66328 
L 419.320641 67.491375 
L 419.828931 67.671431 
L 421.862088 67.908559 
L 423.386956 67.778693 
L 424.403534 67.777182 
L 424.911824 67.776615 
L 425.420113 68.020011 
L 425.928402 68.589006 
L 426.436692 72.225041 
L 426.944981 72.295592 
L 428.469849 72.040389 
L 428.978138 72.376526 
L 433.552742 72.758822 
L 434.56932 72.540455 
L 435.07761 72.528585 
L 435.585899 72.375041 
L 436.602478 72.356895 
L 438.127346 72.496121 
L 438.635635 72.273882 
L 439.143924 72.413266 
L 439.652214 72.748442 
L 440.160503 72.563834 
L 440.668792 72.758076 
L 441.177081 72.622376 
L 441.685371 72.79133 
L 442.19366 72.72249 
L 442.701949 74.874415 
L 443.718528 74.86648 
L 444.226817 74.722188 
L 445.243396 74.768444 
L 445.751685 74.703044 
L 446.259974 74.045393 
L 446.768264 70.694971 
L 448.801421 70.828784 
L 449.30971 70.463261 
L 449.818 70.633057 
L 453.884314 70.736802 
L 455.409182 70.456753 
L 457.442339 70.704179 
L 457.950629 74.363684 
L 458.458918 74.256891 
L 459.475496 74.238822 
L 459.983786 73.904148 
L 462.016943 73.531948 
L 462.525232 73.806447 
L 463.033522 71.657497 
L 463.541811 71.705164 
L 464.0501 71.580555 
L 464.55839 71.68753 
L 465.066679 71.594914 
L 465.574968 72.055436 
L 466.083257 71.916177 
L 466.591547 71.947854 
L 467.099836 71.676239 
L 468.116415 71.671257 
L 468.624704 71.794929 
L 471.67444 71.592696 
L 472.182729 71.726582 
L 472.691018 73.470231 
L 473.199308 73.366531 
L 473.707597 73.996885 
L 475.232465 74.015892 
L 475.740754 74.439093 
L 477.773911 74.029604 
L 478.282201 70.341545 
L 478.79049 70.321571 
L 481.331937 70.891349 
L 481.840226 70.748623 
L 482.348515 70.762663 
L 482.856805 70.56544 
L 483.365094 71.356406 
L 483.873383 71.303662 
L 484.381672 71.611586 
L 484.889962 71.465548 
L 485.398251 71.596912 
L 485.90654 71.26292 
L 485.90654 71.26292 
" style="fill:none;stroke:#ff7f0e;stroke-linecap:square;stroke-width:1.5;"/>
   </g>
   <g id="line2d_37">
    <path clip-path="url(#pdb26dc07c6)" d="M 115.363636 365.450692 
L 115.871926 344.065024 
L 116.380215 353.068781 
L 116.888504 355.644786 
L 117.396794 354.313683 
L 117.905083 356.811922 
L 118.413372 346.800175 
L 119.429951 347.887622 
L 119.93824 343.386807 
L 120.954819 346.074925 
L 121.463108 344.698063 
L 121.971397 344.133447 
L 122.479687 342.52019 
L 122.987976 343.143555 
L 124.004555 338.868185 
L 124.512844 338.954669 
L 125.021133 338.021118 
L 125.529422 335.619288 
L 126.037712 336.175668 
L 126.546001 336.943883 
L 127.56258 335.74899 
L 128.070869 333.623363 
L 129.087448 324.144828 
L 129.595737 321.662347 
L 130.104026 321.089748 
L 130.612316 321.574414 
L 131.120605 320.335814 
L 131.628894 320.079711 
L 132.137183 315.848726 
L 133.153762 309.828271 
L 133.662051 308.776083 
L 134.170341 306.188468 
L 134.67863 304.374176 
L 135.186919 303.349524 
L 135.695209 299.573812 
L 136.203498 297.693606 
L 136.711787 294.723752 
L 137.220077 287.858963 
L 137.728366 285.038718 
L 138.744944 276.681676 
L 139.253234 276.353203 
L 140.778102 262.166827 
L 141.286391 256.140822 
L 142.30297 250.470622 
L 142.811259 245.302864 
L 143.319548 242.975058 
L 143.827837 241.44201 
L 144.336127 235.828184 
L 144.844416 236.116178 
L 145.352705 232.661489 
L 145.860995 228.403683 
L 146.369284 221.591812 
L 146.877573 219.707262 
L 147.385863 219.66098 
L 147.894152 215.932241 
L 148.910731 217.070755 
L 149.41902 214.07645 
L 149.927309 215.730421 
L 150.435598 211.914394 
L 151.452177 200.341588 
L 151.960466 194.561901 
L 152.468756 193.447304 
L 152.977045 193.97918 
L 153.485334 190.884318 
L 153.993624 186.381465 
L 154.501913 187.128232 
L 155.010202 183.655255 
L 155.518492 178.966441 
L 156.026781 177.327347 
L 157.043359 169.379803 
L 157.551649 169.128683 
L 158.568227 161.93702 
L 159.076517 163.147563 
L 159.584806 156.582456 
L 160.093095 154.521913 
L 160.601385 153.162682 
L 161.109674 151.215359 
L 161.617963 150.588073 
L 162.634542 144.678035 
L 163.142831 144.804752 
L 163.65112 141.860911 
L 164.15941 137.527044 
L 164.667699 138.090274 
L 165.175988 134.035582 
L 165.684278 138.539238 
L 166.192567 137.358848 
L 166.700856 137.370774 
L 167.717435 126.050436 
L 168.225724 123.602649 
L 168.734013 117.914714 
L 169.242303 113.975681 
L 169.750592 114.621765 
L 170.258881 108.773052 
L 170.767171 107.186829 
L 171.27546 106.988328 
L 171.783749 107.019967 
L 172.292039 106.770172 
L 172.800328 105.133055 
L 173.308617 102.110767 
L 173.816907 102.576735 
L 174.325196 102.600342 
L 174.833485 99.58934 
L 175.341774 98.854986 
L 175.850064 98.772847 
L 176.358353 96.836811 
L 176.866642 96.12706 
L 177.374932 95.82672 
L 177.883221 96.828288 
L 178.39151 96.472403 
L 178.8998 98.628381 
L 179.408089 96.590466 
L 179.916378 98.254957 
L 180.424668 97.762208 
L 181.441246 97.784885 
L 181.949535 97.119823 
L 182.457825 96.885117 
L 183.474403 94.312333 
L 183.982693 94.508882 
L 184.490982 94.476993 
L 184.999271 94.155573 
L 185.507561 91.235835 
L 186.01585 85.419756 
L 186.524139 85.771952 
L 187.032428 85.607917 
L 188.049007 85.882702 
L 189.573875 86.170914 
L 190.082164 87.9499 
L 191.098743 87.053665 
L 191.607032 87.679156 
L 192.115322 87.814845 
L 193.1319 87.79158 
L 193.640189 91.214018 
L 194.148479 92.60856 
L 194.656768 92.06622 
L 195.165057 90.82066 
L 195.673347 91.160967 
L 196.181636 91.08158 
L 196.689925 91.124146 
L 197.198215 91.04471 
L 197.706504 91.945453 
L 198.214793 90.746119 
L 198.723083 90.75183 
L 199.231372 90.889798 
L 199.739661 92.327344 
L 200.24795 90.756513 
L 200.75624 90.912666 
L 201.264529 92.213358 
L 201.772818 92.138837 
L 202.281108 92.79957 
L 202.789397 93.007211 
L 203.805976 93.800823 
L 204.314265 91.737516 
L 204.822554 92.633997 
L 205.330844 92.127205 
L 205.839133 92.558904 
L 206.347422 91.163048 
L 206.855711 91.538366 
L 207.364001 91.551996 
L 207.87229 94.74286 
L 208.380579 94.655222 
L 208.888869 94.332587 
L 209.905447 96.766858 
L 210.413737 94.078811 
L 210.922026 94.110861 
L 211.430315 99.125131 
L 211.938604 98.950184 
L 212.446894 98.979828 
L 212.955183 98.884383 
L 213.463472 101.616799 
L 213.971762 97.366269 
L 214.480051 95.373034 
L 214.98834 95.642741 
L 215.49663 98.718481 
L 216.513208 100.745254 
L 217.021498 100.59359 
L 217.529787 100.718557 
L 218.038076 100.476263 
L 218.546365 100.36063 
L 219.054655 101.498476 
L 220.071233 97.443353 
L 220.579523 97.347431 
L 221.087812 97.435604 
L 221.596101 96.019872 
L 222.104391 96.250926 
L 223.120969 95.902467 
L 223.629259 95.473072 
L 224.137548 94.865432 
L 224.645837 95.553231 
L 225.154126 94.760001 
L 226.170705 94.646428 
L 226.678994 96.417815 
L 227.187284 95.590997 
L 227.695573 95.551727 
L 228.203862 92.006427 
L 228.712152 93.545468 
L 229.220441 94.431196 
L 229.72873 92.762344 
L 230.237019 92.203819 
L 231.253598 92.150979 
L 231.761887 87.562207 
L 232.778466 86.483295 
L 233.286755 86.631743 
L 233.795045 84.372565 
L 234.303334 85.136298 
L 234.811623 85.162371 
L 235.319913 84.794447 
L 235.828202 81.68589 
L 236.84478 79.44846 
L 237.35307 79.564352 
L 238.369648 79.374399 
L 238.877938 79.59117 
L 239.386227 78.372142 
L 240.911095 78.261184 
L 241.419384 77.969292 
L 241.927674 79.297143 
L 242.435963 80.020751 
L 242.944252 79.480359 
L 243.960831 79.571096 
L 244.46912 79.620547 
L 244.977409 78.986381 
L 245.485699 79.771772 
L 246.502277 79.761652 
L 247.010567 77.837179 
L 247.518856 78.42372 
L 248.027145 80.378662 
L 248.535435 80.598745 
L 249.043724 79.984048 
L 250.060302 79.961665 
L 250.568592 79.326018 
L 251.076881 79.850087 
L 251.58517 80.192808 
L 252.09346 79.737611 
L 252.601749 79.830851 
L 253.110038 80.246221 
L 253.618328 80.179901 
L 254.126617 79.67996 
L 254.634906 80.182814 
L 255.143195 80.079215 
L 255.651485 80.787343 
L 256.159774 80.818453 
L 256.668063 81.311089 
L 257.176353 81.379864 
L 258.192931 81.224758 
L 258.701221 80.719855 
L 259.717799 80.460462 
L 260.226089 81.386379 
L 261.242667 81.479634 
L 261.750956 81.487046 
L 262.259246 82.903765 
L 262.767535 81.964707 
L 265.308982 82.10066 
L 265.817271 81.702196 
L 266.32556 82.76057 
L 267.342139 82.706845 
L 267.850428 82.323366 
L 268.358717 80.376156 
L 268.867007 80.166527 
L 269.375296 79.19012 
L 269.883585 78.515891 
L 270.391875 78.515852 
L 270.900164 78.724917 
L 271.916743 77.882809 
L 272.933321 77.759865 
L 273.44161 77.431373 
L 273.9499 78.609745 
L 274.458189 78.779862 
L 274.966478 77.085859 
L 275.474768 77.347181 
L 275.983057 76.732128 
L 276.491346 76.702678 
L 276.999636 76.04195 
L 277.507925 75.847741 
L 278.524504 75.859658 
L 279.541082 75.852486 
L 280.049371 75.899023 
L 280.557661 74.897916 
L 282.082529 74.939861 
L 282.590818 72.215478 
L 284.115686 72.142264 
L 284.623975 72.024261 
L 285.640554 72.174218 
L 286.148843 71.718887 
L 286.657132 70.602355 
L 287.165422 70.204815 
L 287.673711 70.192315 
L 288.182 69.924734 
L 288.69029 69.798244 
L 289.706868 69.837212 
L 290.215158 69.63163 
L 290.723447 69.656743 
L 291.231736 69.443531 
L 291.740026 69.414456 
L 293.264893 69.569705 
L 293.773183 69.524038 
L 294.281472 68.324975 
L 296.314629 68.00136 
L 297.331208 67.950332 
L 297.839497 68.054001 
L 298.347786 68.042833 
L 298.856076 68.714361 
L 302.414101 68.927791 
L 302.92239 69.25748 
L 303.43068 69.302556 
L 303.938969 69.232626 
L 304.447258 69.360563 
L 305.463837 69.202612 
L 305.972126 70.07963 
L 309.530151 70.337919 
L 310.54673 70.750989 
L 311.055019 70.857871 
L 312.071598 70.718029 
L 313.596466 70.784235 
L 314.104755 71.537211 
L 314.613044 71.722898 
L 315.121334 71.645303 
L 315.629623 71.881525 
L 316.137912 71.910559 
L 316.646201 73.212858 
L 317.154491 73.301864 
L 317.66278 76.159717 
L 318.679359 76.148272 
L 319.187648 75.521754 
L 319.695937 75.477638 
L 320.204227 76.823889 
L 322.237384 76.601815 
L 322.745673 76.59504 
L 323.253962 76.293596 
L 324.270541 76.341526 
L 325.28712 76.613495 
L 325.795409 76.63844 
L 326.303698 75.552219 
L 327.828566 75.208833 
L 328.336856 75.824577 
L 329.353434 75.767056 
L 329.861723 75.708116 
L 330.370013 75.842816 
L 331.386591 75.53693 
L 332.40317 75.597689 
L 332.911459 75.498202 
L 333.928038 75.606096 
L 334.436327 74.795422 
L 334.944617 74.57426 
L 335.961195 74.75904 
L 336.469484 74.653755 
L 336.977774 73.162342 
L 337.486063 73.058662 
L 337.994352 70.20825 
L 338.502642 70.313153 
L 340.02751 70.026431 
L 340.535799 68.606219 
L 341.552377 68.690018 
L 342.060667 68.628529 
L 342.568956 68.690304 
L 345.618692 68.215527 
L 347.14356 68.361263 
L 348.160138 68.44809 
L 348.668428 67.80807 
L 349.685006 67.839413 
L 350.193296 67.783502 
L 350.701585 67.462417 
L 351.209874 67.373465 
L 351.718164 69.545058 
L 355.784478 69.824068 
L 356.292767 69.504911 
L 357.309346 69.629442 
L 358.325925 69.898306 
L 358.834214 73.734063 
L 359.342503 73.963779 
L 359.850792 73.949217 
L 360.867371 74.073224 
L 361.88395 74.199041 
L 362.900528 74.00064 
L 363.408818 74.06001 
L 364.425396 73.911823 
L 364.933686 74.178898 
L 365.950264 74.038282 
L 366.458553 74.312601 
L 368.491711 73.945789 
L 369.508289 74.081919 
L 370.016579 74.147132 
L 370.524868 74.751944 
L 371.033157 74.716085 
L 371.541447 74.920737 
L 372.049736 72.983608 
L 373.066314 73.350713 
L 373.574604 73.326917 
L 374.082893 73.187316 
L 375.607761 73.10076 
L 376.11605 73.027893 
L 378.149208 74.622918 
L 378.657497 74.546999 
L 379.165786 72.251006 
L 379.674075 71.982148 
L 380.182365 72.084983 
L 380.690654 72.029243 
L 381.198943 75.265808 
L 381.707233 75.32633 
L 382.215522 75.206008 
L 383.232101 75.516058 
L 383.74039 76.367112 
L 384.248679 76.573827 
L 384.756968 77.208003 
L 385.265258 76.935624 
L 385.773547 76.848637 
L 386.281836 76.98083 
L 386.790126 76.557277 
L 387.806704 76.819703 
L 388.314994 77.906579 
L 388.823283 78.372934 
L 390.348151 78.45281 
L 390.85644 77.974816 
L 392.889597 77.579995 
L 393.397887 77.356037 
L 393.906176 77.536215 
L 395.939333 77.456195 
L 396.447623 77.34979 
L 397.97249 76.354981 
L 398.48078 75.704072 
L 398.989069 75.714839 
L 399.497358 74.069447 
L 401.022226 74.064804 
L 401.530516 70.80671 
L 402.038805 70.724628 
L 402.547094 70.841353 
L 403.563673 70.576967 
L 404.071962 69.667018 
L 404.580251 69.454201 
L 405.088541 68.861765 
L 406.105119 68.941589 
L 406.613409 68.840969 
L 407.121698 69.03131 
L 408.138277 68.957306 
L 408.646566 68.031228 
L 409.154855 67.556772 
L 411.188012 67.149312 
L 411.696302 67.216691 
L 413.22117 67.01159 
L 413.729459 67.10907 
L 414.237748 67.036909 
L 415.254327 67.305289 
L 416.779195 67.469554 
L 417.795773 67.368366 
L 418.304063 67.66328 
L 419.320641 67.491375 
L 419.828931 67.671431 
L 421.862088 67.908559 
L 423.386956 67.778693 
L 424.403534 67.777182 
L 424.911824 67.776615 
L 425.420113 68.020011 
L 425.928402 68.589006 
L 426.436692 72.225041 
L 426.944981 72.295592 
L 428.469849 72.040389 
L 428.978138 72.376526 
L 433.552742 72.758822 
L 434.56932 72.540455 
L 435.07761 72.528585 
L 435.585899 72.375041 
L 436.602478 72.356895 
L 438.127346 72.496121 
L 438.635635 72.273882 
L 439.143924 72.413266 
L 439.652214 72.748442 
L 440.160503 72.563834 
L 440.668792 72.758076 
L 441.177081 72.622376 
L 441.685371 72.79133 
L 442.19366 72.72249 
L 442.701949 74.874415 
L 443.718528 74.86648 
L 444.226817 74.722188 
L 445.243396 74.768444 
L 445.751685 74.703044 
L 446.259974 74.045393 
L 446.768264 70.694971 
L 448.801421 70.828784 
L 449.30971 70.463261 
L 449.818 70.633057 
L 453.884314 70.736802 
L 455.409182 70.456753 
L 457.442339 70.704179 
L 457.950629 74.363684 
L 458.458918 74.256891 
L 459.475496 74.238822 
L 459.983786 73.904148 
L 462.016943 73.531948 
L 462.525232 73.806447 
L 463.033522 71.657497 
L 463.541811 71.705164 
L 464.0501 71.580555 
L 464.55839 71.68753 
L 465.066679 71.594914 
L 465.574968 72.055436 
L 466.083257 71.916177 
L 466.591547 71.947854 
L 467.099836 71.676239 
L 468.116415 71.671257 
L 468.624704 71.794929 
L 471.67444 71.592696 
L 472.182729 71.726582 
L 472.691018 73.470231 
L 473.199308 73.366531 
L 473.707597 73.996885 
L 475.232465 74.015892 
L 475.740754 74.439093 
L 477.773911 74.029604 
L 478.282201 70.341545 
L 478.79049 70.321571 
L 481.331937 70.891349 
L 481.840226 70.748623 
L 482.348515 70.762663 
L 482.856805 70.56544 
L 483.365094 71.356406 
L 483.873383 71.303662 
L 484.381672 71.611586 
L 484.889962 71.465548 
L 485.398251 71.596912 
L 485.90654 71.26292 
L 486.41483 71.292399 
L 486.923119 71.658538 
L 488.447987 71.690905 
L 489.464565 72.043219 
L 490.989433 71.970262 
L 491.497723 72.017834 
L 492.514301 71.812286 
L 493.022591 70.008575 
L 493.53088 70.013403 
L 494.039169 69.400485 
L 495.055748 69.72694 
L 495.564037 70.517769 
L 496.072326 70.094028 
L 496.580616 70.068434 
L 497.088905 70.283988 
L 497.597194 70.326318 
L 498.105484 70.251522 
L 499.122062 70.401633 
L 502.171798 70.256374 
L 502.680087 70.455141 
L 503.188377 70.379767 
L 503.696666 69.55891 
L 504.204955 69.564879 
L 504.713245 69.333958 
L 505.729823 69.257902 
L 506.238113 69.106981 
L 506.746402 69.095022 
L 507.254691 68.840343 
L 508.779559 68.822769 
L 509.287848 68.469475 
L 510.304427 68.392672 
L 510.812716 68.875085 
L 511.321006 68.752592 
L 511.829295 68.779361 
L 512.337584 69.282206 
L 512.845874 69.487011 
L 513.862452 69.385551 
L 515.38732 69.11066 
L 515.895609 68.372 
L 516.403899 68.328438 
L 516.912188 68.423371 
L 517.420477 68.215083 
L 517.928767 68.238216 
L 518.437056 69.508844 
L 519.453635 69.534507 
L 520.470213 69.587926 
L 521.995081 69.476158 
L 522.50337 69.753376 
L 523.01166 69.533552 
L 523.519949 69.481938 
L 524.028238 69.861988 
L 524.536528 70.0894 
L 528.602842 70.304609 
L 530.12771 70.349846 
L 530.635999 70.866104 
L 531.144289 70.350013 
L 531.652578 70.299079 
L 532.160867 70.911838 
L 532.669156 70.465913 
L 533.177446 72.100073 
L 533.685735 72.62648 
L 534.702314 72.77053 
L 535.718892 72.59284 
L 536.735471 72.592425 
L 537.24376 74.438997 
L 537.75205 74.592853 
L 538.260339 74.477997 
L 538.768628 73.165534 
L 539.276917 73.160925 
L 541.310075 72.707827 
L 542.326653 72.712415 
L 542.834943 72.43461 
L 543.851521 72.525212 
L 544.359811 72.08476 
L 545.376389 71.927549 
L 545.884678 72.225126 
L 547.409546 72.598523 
L 547.917836 72.600239 
L 548.426125 72.479866 
L 548.934414 72.621386 
L 549.442704 72.646922 
L 549.950993 74.79838 
L 550.459282 74.753099 
L 550.967572 74.400924 
L 551.98415 74.670698 
L 552.492439 77.108335 
L 553.000729 77.324417 
L 553.509018 75.523967 
L 554.017307 74.963198 
L 554.525597 75.476997 
L 555.033886 75.492305 
L 555.542175 75.695589 
L 556.050465 75.722612 
L 556.558754 76.153102 
L 557.067043 76.308673 
L 557.575332 74.597329 
L 558.591911 74.601797 
L 559.1002 74.735812 
L 559.60849 74.617303 
L 560.116779 74.73247 
L 560.625068 76.027345 
L 561.133358 76.209534 
L 562.149936 76.174774 
L 562.658226 76.973638 
L 563.674804 76.801473 
L 565.199672 76.91208 
L 565.707961 77.391088 
L 566.216251 77.145322 
L 566.72454 77.111991 
L 567.232829 76.958043 
L 568.249408 77.193386 
L 568.757697 77.810269 
L 569.774276 77.765866 
L 570.282565 75.66575 
L 570.790854 75.68691 
L 571.299144 75.562587 
L 571.807433 75.888607 
L 572.315722 75.942435 
L 572.824012 72.75172 
L 573.332301 72.555708 
L 573.84059 72.690541 
L 574.34888 72.648298 
L 574.857169 72.299647 
L 576.382037 71.973076 
L 576.890326 71.580925 
L 577.398615 76.420756 
L 578.923483 76.358787 
L 579.431773 77.319027 
L 580.448351 77.265517 
L 580.956641 75.918245 
L 581.46493 76.165452 
L 581.973219 78.916353 
L 582.481508 79.109224 
L 582.989798 81.6989 
L 584.006376 81.942635 
L 584.514666 86.161618 
L 585.531244 85.999226 
L 586.039534 85.731766 
L 586.547823 85.687022 
L 587.056112 88.694075 
L 587.564402 88.704805 
L 588.58098 88.343625 
L 589.089269 89.383256 
L 589.597559 89.363941 
L 590.614137 89.089351 
L 591.630716 88.834109 
L 592.139005 88.389807 
L 592.647295 88.354393 
L 593.155584 88.847606 
L 593.663873 88.777533 
L 594.172163 89.718745 
L 595.69703 89.596171 
L 596.20532 90.115641 
L 597.221898 90.531508 
L 597.730188 85.805371 
L 598.746766 85.725333 
L 599.255056 85.875278 
L 599.763345 84.819713 
L 600.779923 84.932629 
L 601.288213 84.979219 
L 601.796502 84.526277 
L 602.304791 81.752201 
L 602.813081 81.625771 
L 603.32137 78.17048 
L 603.829659 78.058093 
L 604.337949 78.130012 
L 604.846238 73.79343 
L 605.354527 74.065876 
L 605.862817 74.144649 
L 606.371106 73.96003 
L 606.879395 73.964824 
L 607.387684 70.938836 
L 608.912552 70.969316 
L 609.420842 69.269595 
L 609.929131 69.262321 
L 610.43742 70.140956 
L 611.962288 70.652556 
L 612.470578 70.706152 
L 612.978867 72.958438 
L 613.487156 72.56379 
L 613.995445 72.713348 
L 614.503735 71.691302 
L 616.028603 71.775487 
L 616.536892 71.194154 
L 617.553471 70.951614 
L 618.570049 70.606516 
L 619.586628 70.363739 
L 620.094917 70.716786 
L 621.619785 70.656299 
L 622.636364 70.836184 
L 622.636364 70.836184 
" style="fill:none;stroke:#2ca02c;stroke-linecap:square;stroke-width:1.5;"/>
   </g>
   <g id="patch_3">
    <path d="M 90 384.48 
L 90 51.84 
" style="fill:none;stroke:#000000;stroke-linecap:square;stroke-linejoin:miter;stroke-width:0.8;"/>
   </g>
   <g id="patch_4">
    <path d="M 648 384.48 
L 648 51.84 
" style="fill:none;stroke:#000000;stroke-linecap:square;stroke-linejoin:miter;stroke-width:0.8;"/>
   </g>
   <g id="patch_5">
    <path d="M 90 384.48 
L 648 384.48 
" style="fill:none;stroke:#000000;stroke-linecap:square;stroke-linejoin:miter;stroke-width:0.8;"/>
   </g>
   <g id="patch_6">
    <path d="M 90 51.84 
L 648 51.84 
" style="fill:none;stroke:#000000;stroke-linecap:square;stroke-linejoin:miter;stroke-width:0.8;"/>
   </g>
   <g id="text_20">
    <!-- Comparison of Smoothed40Reward -->
    <g transform="translate(245.154687 45.84)scale(0.14 -0.14)">
     <defs>
      <path d="M 64.40625 67.28125 
L 64.40625 56.890625 
Q 59.421875 61.53125 53.78125 63.8125 
Q 48.140625 66.109375 41.796875 66.109375 
Q 29.296875 66.109375 22.65625 58.46875 
Q 16.015625 50.828125 16.015625 36.375 
Q 16.015625 21.96875 22.65625 14.328125 
Q 29.296875 6.6875 41.796875 6.6875 
Q 48.140625 6.6875 53.78125 8.984375 
Q 59.421875 11.28125 64.40625 15.921875 
L 64.40625 5.609375 
Q 59.234375 2.09375 53.4375 0.328125 
Q 47.65625 -1.421875 41.21875 -1.421875 
Q 24.65625 -1.421875 15.125 8.703125 
Q 5.609375 18.84375 5.609375 36.375 
Q 5.609375 53.953125 15.125 64.078125 
Q 24.65625 74.21875 41.21875 74.21875 
Q 47.75 74.21875 53.53125 72.484375 
Q 59.328125 70.75 64.40625 67.28125 
z
" id="DejaVuSans-67"/>
      <path d="M 9.421875 54.6875 
L 18.40625 54.6875 
L 18.40625 0 
L 9.421875 0 
z
M 9.421875 75.984375 
L 18.40625 75.984375 
L 18.40625 64.59375 
L 9.421875 64.59375 
z
" id="DejaVuSans-105"/>
      <path d="M 44.28125 53.078125 
L 44.28125 44.578125 
Q 40.484375 46.53125 36.375 47.5 
Q 32.28125 48.484375 27.875 48.484375 
Q 21.1875 48.484375 17.84375 46.4375 
Q 14.5 44.390625 14.5 40.28125 
Q 14.5 37.15625 16.890625 35.375 
Q 19.28125 33.59375 26.515625 31.984375 
L 29.59375 31.296875 
Q 39.15625 29.25 43.1875 25.515625 
Q 47.21875 21.78125 47.21875 15.09375 
Q 47.21875 7.46875 41.1875 3.015625 
Q 35.15625 -1.421875 24.609375 -1.421875 
Q 20.21875 -1.421875 15.453125 -0.5625 
Q 10.6875 0.296875 5.421875 2 
L 5.421875 11.28125 
Q 10.40625 8.6875 15.234375 7.390625 
Q 20.0625 6.109375 24.8125 6.109375 
Q 31.15625 6.109375 34.5625 8.28125 
Q 37.984375 10.453125 37.984375 14.40625 
Q 37.984375 18.0625 35.515625 20.015625 
Q 33.0625 21.96875 24.703125 23.78125 
L 21.578125 24.515625 
Q 13.234375 26.265625 9.515625 29.90625 
Q 5.8125 33.546875 5.8125 39.890625 
Q 5.8125 47.609375 11.28125 51.796875 
Q 16.75 56 26.8125 56 
Q 31.78125 56 36.171875 55.265625 
Q 40.578125 54.546875 44.28125 53.078125 
z
" id="DejaVuSans-115"/>
      <path d="M 54.890625 33.015625 
L 54.890625 0 
L 45.90625 0 
L 45.90625 32.71875 
Q 45.90625 40.484375 42.875 44.328125 
Q 39.84375 48.1875 33.796875 48.1875 
Q 26.515625 48.1875 22.3125 43.546875 
Q 18.109375 38.921875 18.109375 30.90625 
L 18.109375 0 
L 9.078125 0 
L 9.078125 54.6875 
L 18.109375 54.6875 
L 18.109375 46.1875 
Q 21.34375 51.125 25.703125 53.5625 
Q 30.078125 56 35.796875 56 
Q 45.21875 56 50.046875 50.171875 
Q 54.890625 44.34375 54.890625 33.015625 
z
" id="DejaVuSans-110"/>
      <path id="DejaVuSans-32"/>
      <path d="M 37.109375 75.984375 
L 37.109375 68.5 
L 28.515625 68.5 
Q 23.6875 68.5 21.796875 66.546875 
Q 19.921875 64.59375 19.921875 59.515625 
L 19.921875 54.6875 
L 34.71875 54.6875 
L 34.71875 47.703125 
L 19.921875 47.703125 
L 19.921875 0 
L 10.890625 0 
L 10.890625 47.703125 
L 2.296875 47.703125 
L 2.296875 54.6875 
L 10.890625 54.6875 
L 10.890625 58.5 
Q 10.890625 67.625 15.140625 71.796875 
Q 19.390625 75.984375 28.609375 75.984375 
z
" id="DejaVuSans-102"/>
     </defs>
     <use xlink:href="#DejaVuSans-67"/>
     <use x="69.824219" xlink:href="#DejaVuSans-111"/>
     <use x="131.005859" xlink:href="#DejaVuSans-109"/>
     <use x="228.417969" xlink:href="#DejaVuSans-112"/>
     <use x="291.894531" xlink:href="#DejaVuSans-97"/>
     <use x="353.173828" xlink:href="#DejaVuSans-114"/>
     <use x="394.287109" xlink:href="#DejaVuSans-105"/>
     <use x="422.070312" xlink:href="#DejaVuSans-115"/>
     <use x="474.169922" xlink:href="#DejaVuSans-111"/>
     <use x="535.351562" xlink:href="#DejaVuSans-110"/>
     <use x="598.730469" xlink:href="#DejaVuSans-32"/>
     <use x="630.517578" xlink:href="#DejaVuSans-111"/>
     <use x="691.699219" xlink:href="#DejaVuSans-102"/>
     <use x="726.904297" xlink:href="#DejaVuSans-32"/>
     <use x="758.691406" xlink:href="#DejaVuSans-83"/>
     <use x="822.167969" xlink:href="#DejaVuSans-109"/>
     <use x="919.580078" xlink:href="#DejaVuSans-111"/>
     <use x="980.761719" xlink:href="#DejaVuSans-111"/>
     <use x="1041.943359" xlink:href="#DejaVuSans-116"/>
     <use x="1081.152344" xlink:href="#DejaVuSans-104"/>
     <use x="1144.53125" xlink:href="#DejaVuSans-101"/>
     <use x="1206.054688" xlink:href="#DejaVuSans-100"/>
     <use x="1269.53125" xlink:href="#DejaVuSans-52"/>
     <use x="1333.154297" xlink:href="#DejaVuSans-48"/>
     <use x="1396.777344" xlink:href="#DejaVuSans-82"/>
     <use x="1461.759766" xlink:href="#DejaVuSans-101"/>
     <use x="1523.283203" xlink:href="#DejaVuSans-119"/>
     <use x="1605.070312" xlink:href="#DejaVuSans-97"/>
     <use x="1666.349609" xlink:href="#DejaVuSans-114"/>
     <use x="1705.712891" xlink:href="#DejaVuSans-100"/>
    </g>
   </g>
   <g id="legend_1">
    <g id="patch_7">
     <path d="M 470.775 379.48 
L 641 379.48 
Q 643 379.48 643 377.48 
L 643 333.889375 
Q 643 331.889375 641 331.889375 
L 470.775 331.889375 
Q 468.775 331.889375 468.775 333.889375 
L 468.775 377.48 
Q 468.775 379.48 470.775 379.48 
z
" style="fill:#ffffff;opacity:0.8;stroke:#cccccc;stroke-linejoin:miter;"/>
    </g>
    <g id="line2d_38">
     <path d="M 472.775 339.987813 
L 492.775 339.987813 
" style="fill:none;stroke:#1f77b4;stroke-linecap:square;stroke-width:1.5;"/>
    </g>
    <g id="line2d_39"/>
    <g id="text_21">
     <!-- basic -->
     <g transform="translate(500.775 343.487813)scale(0.1 -0.1)">
      <defs>
       <path d="M 48.6875 27.296875 
Q 48.6875 37.203125 44.609375 42.84375 
Q 40.53125 48.484375 33.40625 48.484375 
Q 26.265625 48.484375 22.1875 42.84375 
Q 18.109375 37.203125 18.109375 27.296875 
Q 18.109375 17.390625 22.1875 11.75 
Q 26.265625 6.109375 33.40625 6.109375 
Q 40.53125 6.109375 44.609375 11.75 
Q 48.6875 17.390625 48.6875 27.296875 
z
M 18.109375 46.390625 
Q 20.953125 51.265625 25.265625 53.625 
Q 29.59375 56 35.59375 56 
Q 45.5625 56 51.78125 48.09375 
Q 58.015625 40.1875 58.015625 27.296875 
Q 58.015625 14.40625 51.78125 6.484375 
Q 45.5625 -1.421875 35.59375 -1.421875 
Q 29.59375 -1.421875 25.265625 0.953125 
Q 20.953125 3.328125 18.109375 8.203125 
L 18.109375 0 
L 9.078125 0 
L 9.078125 75.984375 
L 18.109375 75.984375 
z
" id="DejaVuSans-98"/>
       <path d="M 48.78125 52.59375 
L 48.78125 44.1875 
Q 44.96875 46.296875 41.140625 47.34375 
Q 37.3125 48.390625 33.40625 48.390625 
Q 24.65625 48.390625 19.8125 42.84375 
Q 14.984375 37.3125 14.984375 27.296875 
Q 14.984375 17.28125 19.8125 11.734375 
Q 24.65625 6.203125 33.40625 6.203125 
Q 37.3125 6.203125 41.140625 7.25 
Q 44.96875 8.296875 48.78125 10.40625 
L 48.78125 2.09375 
Q 45.015625 0.34375 40.984375 -0.53125 
Q 36.96875 -1.421875 32.421875 -1.421875 
Q 20.0625 -1.421875 12.78125 6.34375 
Q 5.515625 14.109375 5.515625 27.296875 
Q 5.515625 40.671875 12.859375 48.328125 
Q 20.21875 56 33.015625 56 
Q 37.15625 56 41.109375 55.140625 
Q 45.0625 54.296875 48.78125 52.59375 
z
" id="DejaVuSans-99"/>
      </defs>
      <use xlink:href="#DejaVuSans-98"/>
      <use x="63.476562" xlink:href="#DejaVuSans-97"/>
      <use x="124.755859" xlink:href="#DejaVuSans-115"/>
      <use x="176.855469" xlink:href="#DejaVuSans-105"/>
      <use x="204.638672" xlink:href="#DejaVuSans-99"/>
     </g>
    </g>
    <g id="line2d_40">
     <path d="M 472.775 354.665938 
L 492.775 354.665938 
" style="fill:none;stroke:#ff7f0e;stroke-linecap:square;stroke-width:1.5;"/>
    </g>
    <g id="line2d_41"/>
    <g id="text_22">
     <!-- reach-v2_updateFreq1 -->
     <g transform="translate(500.775 358.165938)scale(0.1 -0.1)">
      <defs>
       <path d="M 4.890625 31.390625 
L 31.203125 31.390625 
L 31.203125 23.390625 
L 4.890625 23.390625 
z
" id="DejaVuSans-45"/>
       <path d="M 2.984375 54.6875 
L 12.5 54.6875 
L 29.59375 8.796875 
L 46.6875 54.6875 
L 56.203125 54.6875 
L 35.6875 0 
L 23.484375 0 
z
" id="DejaVuSans-118"/>
       <path d="M 50.984375 -16.609375 
L 50.984375 -23.578125 
L -0.984375 -23.578125 
L -0.984375 -16.609375 
z
" id="DejaVuSans-95"/>
       <path d="M 8.5 21.578125 
L 8.5 54.6875 
L 17.484375 54.6875 
L 17.484375 21.921875 
Q 17.484375 14.15625 20.5 10.265625 
Q 23.53125 6.390625 29.59375 6.390625 
Q 36.859375 6.390625 41.078125 11.03125 
Q 45.3125 15.671875 45.3125 23.6875 
L 45.3125 54.6875 
L 54.296875 54.6875 
L 54.296875 0 
L 45.3125 0 
L 45.3125 8.40625 
Q 42.046875 3.421875 37.71875 1 
Q 33.40625 -1.421875 27.6875 -1.421875 
Q 18.265625 -1.421875 13.375 4.4375 
Q 8.5 10.296875 8.5 21.578125 
z
M 31.109375 56 
z
" id="DejaVuSans-117"/>
       <path d="M 9.8125 72.90625 
L 51.703125 72.90625 
L 51.703125 64.59375 
L 19.671875 64.59375 
L 19.671875 43.109375 
L 48.578125 43.109375 
L 48.578125 34.8125 
L 19.671875 34.8125 
L 19.671875 0 
L 9.8125 0 
z
" id="DejaVuSans-70"/>
       <path d="M 14.796875 27.296875 
Q 14.796875 17.390625 18.875 11.75 
Q 22.953125 6.109375 30.078125 6.109375 
Q 37.203125 6.109375 41.296875 11.75 
Q 45.40625 17.390625 45.40625 27.296875 
Q 45.40625 37.203125 41.296875 42.84375 
Q 37.203125 48.484375 30.078125 48.484375 
Q 22.953125 48.484375 18.875 42.84375 
Q 14.796875 37.203125 14.796875 27.296875 
z
M 45.40625 8.203125 
Q 42.578125 3.328125 38.25 0.953125 
Q 33.9375 -1.421875 27.875 -1.421875 
Q 17.96875 -1.421875 11.734375 6.484375 
Q 5.515625 14.40625 5.515625 27.296875 
Q 5.515625 40.1875 11.734375 48.09375 
Q 17.96875 56 27.875 56 
Q 33.9375 56 38.25 53.625 
Q 42.578125 51.265625 45.40625 46.390625 
L 45.40625 54.6875 
L 54.390625 54.6875 
L 54.390625 -20.796875 
L 45.40625 -20.796875 
z
" id="DejaVuSans-113"/>
      </defs>
      <use xlink:href="#DejaVuSans-114"/>
      <use x="38.863281" xlink:href="#DejaVuSans-101"/>
      <use x="100.386719" xlink:href="#DejaVuSans-97"/>
      <use x="161.666016" xlink:href="#DejaVuSans-99"/>
      <use x="216.646484" xlink:href="#DejaVuSans-104"/>
      <use x="280.025391" xlink:href="#DejaVuSans-45"/>
      <use x="313.484375" xlink:href="#DejaVuSans-118"/>
      <use x="372.664062" xlink:href="#DejaVuSans-50"/>
      <use x="436.287109" xlink:href="#DejaVuSans-95"/>
      <use x="486.287109" xlink:href="#DejaVuSans-117"/>
      <use x="549.666016" xlink:href="#DejaVuSans-112"/>
      <use x="613.142578" xlink:href="#DejaVuSans-100"/>
      <use x="676.619141" xlink:href="#DejaVuSans-97"/>
      <use x="737.898438" xlink:href="#DejaVuSans-116"/>
      <use x="777.107422" xlink:href="#DejaVuSans-101"/>
      <use x="838.630859" xlink:href="#DejaVuSans-70"/>
      <use x="888.900391" xlink:href="#DejaVuSans-114"/>
      <use x="927.763672" xlink:href="#DejaVuSans-101"/>
      <use x="989.287109" xlink:href="#DejaVuSans-113"/>
      <use x="1052.763672" xlink:href="#DejaVuSans-49"/>
     </g>
    </g>
    <g id="line2d_42">
     <path d="M 472.775 369.622187 
L 492.775 369.622187 
" style="fill:none;stroke:#2ca02c;stroke-linecap:square;stroke-width:1.5;"/>
    </g>
    <g id="line2d_43"/>
    <g id="text_23">
     <!-- reach-v2_updateFreq1_long -->
     <g transform="translate(500.775 373.122187)scale(0.1 -0.1)">
      <defs>
       <path d="M 9.421875 75.984375 
L 18.40625 75.984375 
L 18.40625 0 
L 9.421875 0 
z
" id="DejaVuSans-108"/>
       <path d="M 45.40625 27.984375 
Q 45.40625 37.75 41.375 43.109375 
Q 37.359375 48.484375 30.078125 48.484375 
Q 22.859375 48.484375 18.828125 43.109375 
Q 14.796875 37.75 14.796875 27.984375 
Q 14.796875 18.265625 18.828125 12.890625 
Q 22.859375 7.515625 30.078125 7.515625 
Q 37.359375 7.515625 41.375 12.890625 
Q 45.40625 18.265625 45.40625 27.984375 
z
M 54.390625 6.78125 
Q 54.390625 -7.171875 48.1875 -13.984375 
Q 42 -20.796875 29.203125 -20.796875 
Q 24.46875 -20.796875 20.265625 -20.09375 
Q 16.0625 -19.390625 12.109375 -17.921875 
L 12.109375 -9.1875 
Q 16.0625 -11.328125 19.921875 -12.34375 
Q 23.78125 -13.375 27.78125 -13.375 
Q 36.625 -13.375 41.015625 -8.765625 
Q 45.40625 -4.15625 45.40625 5.171875 
L 45.40625 9.625 
Q 42.625 4.78125 38.28125 2.390625 
Q 33.9375 0 27.875 0 
Q 17.828125 0 11.671875 7.65625 
Q 5.515625 15.328125 5.515625 27.984375 
Q 5.515625 40.671875 11.671875 48.328125 
Q 17.828125 56 27.875 56 
Q 33.9375 56 38.28125 53.609375 
Q 42.625 51.21875 45.40625 46.390625 
L 45.40625 54.6875 
L 54.390625 54.6875 
z
" id="DejaVuSans-103"/>
      </defs>
      <use xlink:href="#DejaVuSans-114"/>
      <use x="38.863281" xlink:href="#DejaVuSans-101"/>
      <use x="100.386719" xlink:href="#DejaVuSans-97"/>
      <use x="161.666016" xlink:href="#DejaVuSans-99"/>
      <use x="216.646484" xlink:href="#DejaVuSans-104"/>
      <use x="280.025391" xlink:href="#DejaVuSans-45"/>
      <use x="313.484375" xlink:href="#DejaVuSans-118"/>
      <use x="372.664062" xlink:href="#DejaVuSans-50"/>
      <use x="436.287109" xlink:href="#DejaVuSans-95"/>
      <use x="486.287109" xlink:href="#DejaVuSans-117"/>
      <use x="549.666016" xlink:href="#DejaVuSans-112"/>
      <use x="613.142578" xlink:href="#DejaVuSans-100"/>
      <use x="676.619141" xlink:href="#DejaVuSans-97"/>
      <use x="737.898438" xlink:href="#DejaVuSans-116"/>
      <use x="777.107422" xlink:href="#DejaVuSans-101"/>
      <use x="838.630859" xlink:href="#DejaVuSans-70"/>
      <use x="888.900391" xlink:href="#DejaVuSans-114"/>
      <use x="927.763672" xlink:href="#DejaVuSans-101"/>
      <use x="989.287109" xlink:href="#DejaVuSans-113"/>
      <use x="1052.763672" xlink:href="#DejaVuSans-49"/>
      <use x="1116.386719" xlink:href="#DejaVuSans-95"/>
      <use x="1166.386719" xlink:href="#DejaVuSans-108"/>
      <use x="1194.169922" xlink:href="#DejaVuSans-111"/>
      <use x="1255.351562" xlink:href="#DejaVuSans-110"/>
      <use x="1318.730469" xlink:href="#DejaVuSans-103"/>
     </g>
    </g>
   </g>
  </g>
 </g>
 <defs>
  <clipPath id="pdb26dc07c6">
   <rect height="332.64" width="558" x="90" y="51.84"/>
  </clipPath>
 </defs>
</svg>
