<?xml version="1.0" encoding="utf-8" standalone="no"?>
<!DOCTYPE svg PUBLIC "-//W3C//DTD SVG 1.1//EN"
  "http://www.w3.org/Graphics/SVG/1.1/DTD/svg11.dtd">
<!-- Created with matplotlib (https://matplotlib.org/) -->
<svg height="432pt" version="1.1" viewBox="0 0 720 432" width="720pt" xmlns="http://www.w3.org/2000/svg" xmlns:xlink="http://www.w3.org/1999/xlink">
 <metadata>
  <rdf:RDF xmlns:cc="http://creativecommons.org/ns#" xmlns:dc="http://purl.org/dc/elements/1.1/" xmlns:rdf="http://www.w3.org/1999/02/22-rdf-syntax-ns#">
   <cc:Work>
    <dc:type rdf:resource="http://purl.org/dc/dcmitype/StillImage"/>
    <dc:date>2025-08-01T16:32:45.259890</dc:date>
    <dc:format>image/svg+xml</dc:format>
    <dc:creator>
     <cc:Agent>
      <dc:title>Matplotlib v3.3.3, https://matplotlib.org/</dc:title>
     </cc:Agent>
    </dc:creator>
   </cc:Work>
  </rdf:RDF>
 </metadata>
 <defs>
  <style type="text/css">*{stroke-linecap:butt;stroke-linejoin:round;}</style>
 </defs>
 <g id="figure_1">
  <g id="patch_1">
   <path d="M 0 432 
L 720 432 
L 720 0 
L 0 0 
z
" style="fill:#ffffff;"/>
  </g>
  <g id="axes_1">
   <g id="patch_2">
    <path d="M 90 384.48 
L 648 384.48 
L 648 51.84 
L 90 51.84 
z
" style="fill:#ffffff;"/>
   </g>
   <g id="matplotlib.axis_1">
    <g id="xtick_1">
     <g id="line2d_1">
      <path clip-path="url(#p661bdda44b)" d="M 115.025003 384.48 
L 115.025003 51.84 
" style="fill:none;stroke:#b0b0b0;stroke-linecap:square;stroke-width:0.8;"/>
     </g>
     <g id="line2d_2">
      <defs>
       <path d="M 0 0 
L 0 3.5 
" id="m92aeaf1be9" style="stroke:#000000;stroke-width:0.8;"/>
      </defs>
      <g>
       <use style="stroke:#000000;stroke-width:0.8;" x="115.025003" xlink:href="#m92aeaf1be9" y="384.48"/>
      </g>
     </g>
     <g id="text_1">
      <!-- 0 -->
      <g transform="translate(111.843753 399.078438)scale(0.1 -0.1)">
       <defs>
        <path d="M 31.78125 66.40625 
Q 24.171875 66.40625 20.328125 58.90625 
Q 16.5 51.421875 16.5 36.375 
Q 16.5 21.390625 20.328125 13.890625 
Q 24.171875 6.390625 31.78125 6.390625 
Q 39.453125 6.390625 43.28125 13.890625 
Q 47.125 21.390625 47.125 36.375 
Q 47.125 51.421875 43.28125 58.90625 
Q 39.453125 66.40625 31.78125 66.40625 
z
M 31.78125 74.21875 
Q 44.046875 74.21875 50.515625 64.515625 
Q 56.984375 54.828125 56.984375 36.375 
Q 56.984375 17.96875 50.515625 8.265625 
Q 44.046875 -1.421875 31.78125 -1.421875 
Q 19.53125 -1.421875 13.0625 8.265625 
Q 6.59375 17.96875 6.59375 36.375 
Q 6.59375 54.828125 13.0625 64.515625 
Q 19.53125 74.21875 31.78125 74.21875 
z
" id="DejaVuSans-48"/>
       </defs>
       <use xlink:href="#DejaVuSans-48"/>
      </g>
     </g>
    </g>
    <g id="xtick_2">
     <g id="line2d_3">
      <path clip-path="url(#p661bdda44b)" d="M 199.683335 384.48 
L 199.683335 51.84 
" style="fill:none;stroke:#b0b0b0;stroke-linecap:square;stroke-width:0.8;"/>
     </g>
     <g id="line2d_4">
      <g>
       <use style="stroke:#000000;stroke-width:0.8;" x="199.683335" xlink:href="#m92aeaf1be9" y="384.48"/>
      </g>
     </g>
     <g id="text_2">
      <!-- 100000 -->
      <g transform="translate(180.595835 399.078438)scale(0.1 -0.1)">
       <defs>
        <path d="M 12.40625 8.296875 
L 28.515625 8.296875 
L 28.515625 63.921875 
L 10.984375 60.40625 
L 10.984375 69.390625 
L 28.421875 72.90625 
L 38.28125 72.90625 
L 38.28125 8.296875 
L 54.390625 8.296875 
L 54.390625 0 
L 12.40625 0 
z
" id="DejaVuSans-49"/>
       </defs>
       <use xlink:href="#DejaVuSans-49"/>
       <use x="63.623047" xlink:href="#DejaVuSans-48"/>
       <use x="127.246094" xlink:href="#DejaVuSans-48"/>
       <use x="190.869141" xlink:href="#DejaVuSans-48"/>
       <use x="254.492188" xlink:href="#DejaVuSans-48"/>
       <use x="318.115234" xlink:href="#DejaVuSans-48"/>
      </g>
     </g>
    </g>
    <g id="xtick_3">
     <g id="line2d_5">
      <path clip-path="url(#p661bdda44b)" d="M 284.341668 384.48 
L 284.341668 51.84 
" style="fill:none;stroke:#b0b0b0;stroke-linecap:square;stroke-width:0.8;"/>
     </g>
     <g id="line2d_6">
      <g>
       <use style="stroke:#000000;stroke-width:0.8;" x="284.341668" xlink:href="#m92aeaf1be9" y="384.48"/>
      </g>
     </g>
     <g id="text_3">
      <!-- 200000 -->
      <g transform="translate(265.254168 399.078438)scale(0.1 -0.1)">
       <defs>
        <path d="M 19.1875 8.296875 
L 53.609375 8.296875 
L 53.609375 0 
L 7.328125 0 
L 7.328125 8.296875 
Q 12.9375 14.109375 22.625 23.890625 
Q 32.328125 33.6875 34.8125 36.53125 
Q 39.546875 41.84375 41.421875 45.53125 
Q 43.3125 49.21875 43.3125 52.78125 
Q 43.3125 58.59375 39.234375 62.25 
Q 35.15625 65.921875 28.609375 65.921875 
Q 23.96875 65.921875 18.8125 64.3125 
Q 13.671875 62.703125 7.8125 59.421875 
L 7.8125 69.390625 
Q 13.765625 71.78125 18.9375 73 
Q 24.125 74.21875 28.421875 74.21875 
Q 39.75 74.21875 46.484375 68.546875 
Q 53.21875 62.890625 53.21875 53.421875 
Q 53.21875 48.921875 51.53125 44.890625 
Q 49.859375 40.875 45.40625 35.40625 
Q 44.1875 33.984375 37.640625 27.21875 
Q 31.109375 20.453125 19.1875 8.296875 
z
" id="DejaVuSans-50"/>
       </defs>
       <use xlink:href="#DejaVuSans-50"/>
       <use x="63.623047" xlink:href="#DejaVuSans-48"/>
       <use x="127.246094" xlink:href="#DejaVuSans-48"/>
       <use x="190.869141" xlink:href="#DejaVuSans-48"/>
       <use x="254.492188" xlink:href="#DejaVuSans-48"/>
       <use x="318.115234" xlink:href="#DejaVuSans-48"/>
      </g>
     </g>
    </g>
    <g id="xtick_4">
     <g id="line2d_7">
      <path clip-path="url(#p661bdda44b)" d="M 369 384.48 
L 369 51.84 
" style="fill:none;stroke:#b0b0b0;stroke-linecap:square;stroke-width:0.8;"/>
     </g>
     <g id="line2d_8">
      <g>
       <use style="stroke:#000000;stroke-width:0.8;" x="369" xlink:href="#m92aeaf1be9" y="384.48"/>
      </g>
     </g>
     <g id="text_4">
      <!-- 300000 -->
      <g transform="translate(349.9125 399.078438)scale(0.1 -0.1)">
       <defs>
        <path d="M 40.578125 39.3125 
Q 47.65625 37.796875 51.625 33 
Q 55.609375 28.21875 55.609375 21.1875 
Q 55.609375 10.40625 48.1875 4.484375 
Q 40.765625 -1.421875 27.09375 -1.421875 
Q 22.515625 -1.421875 17.65625 -0.515625 
Q 12.796875 0.390625 7.625 2.203125 
L 7.625 11.71875 
Q 11.71875 9.328125 16.59375 8.109375 
Q 21.484375 6.890625 26.8125 6.890625 
Q 36.078125 6.890625 40.9375 10.546875 
Q 45.796875 14.203125 45.796875 21.1875 
Q 45.796875 27.640625 41.28125 31.265625 
Q 36.765625 34.90625 28.71875 34.90625 
L 20.21875 34.90625 
L 20.21875 43.015625 
L 29.109375 43.015625 
Q 36.375 43.015625 40.234375 45.921875 
Q 44.09375 48.828125 44.09375 54.296875 
Q 44.09375 59.90625 40.109375 62.90625 
Q 36.140625 65.921875 28.71875 65.921875 
Q 24.65625 65.921875 20.015625 65.03125 
Q 15.375 64.15625 9.8125 62.3125 
L 9.8125 71.09375 
Q 15.4375 72.65625 20.34375 73.4375 
Q 25.25 74.21875 29.59375 74.21875 
Q 40.828125 74.21875 47.359375 69.109375 
Q 53.90625 64.015625 53.90625 55.328125 
Q 53.90625 49.265625 50.4375 45.09375 
Q 46.96875 40.921875 40.578125 39.3125 
z
" id="DejaVuSans-51"/>
       </defs>
       <use xlink:href="#DejaVuSans-51"/>
       <use x="63.623047" xlink:href="#DejaVuSans-48"/>
       <use x="127.246094" xlink:href="#DejaVuSans-48"/>
       <use x="190.869141" xlink:href="#DejaVuSans-48"/>
       <use x="254.492188" xlink:href="#DejaVuSans-48"/>
       <use x="318.115234" xlink:href="#DejaVuSans-48"/>
      </g>
     </g>
    </g>
    <g id="xtick_5">
     <g id="line2d_9">
      <path clip-path="url(#p661bdda44b)" d="M 453.658332 384.48 
L 453.658332 51.84 
" style="fill:none;stroke:#b0b0b0;stroke-linecap:square;stroke-width:0.8;"/>
     </g>
     <g id="line2d_10">
      <g>
       <use style="stroke:#000000;stroke-width:0.8;" x="453.658332" xlink:href="#m92aeaf1be9" y="384.48"/>
      </g>
     </g>
     <g id="text_5">
      <!-- 400000 -->
      <g transform="translate(434.570832 399.078438)scale(0.1 -0.1)">
       <defs>
        <path d="M 37.796875 64.3125 
L 12.890625 25.390625 
L 37.796875 25.390625 
z
M 35.203125 72.90625 
L 47.609375 72.90625 
L 47.609375 25.390625 
L 58.015625 25.390625 
L 58.015625 17.1875 
L 47.609375 17.1875 
L 47.609375 0 
L 37.796875 0 
L 37.796875 17.1875 
L 4.890625 17.1875 
L 4.890625 26.703125 
z
" id="DejaVuSans-52"/>
       </defs>
       <use xlink:href="#DejaVuSans-52"/>
       <use x="63.623047" xlink:href="#DejaVuSans-48"/>
       <use x="127.246094" xlink:href="#DejaVuSans-48"/>
       <use x="190.869141" xlink:href="#DejaVuSans-48"/>
       <use x="254.492188" xlink:href="#DejaVuSans-48"/>
       <use x="318.115234" xlink:href="#DejaVuSans-48"/>
      </g>
     </g>
    </g>
    <g id="xtick_6">
     <g id="line2d_11">
      <path clip-path="url(#p661bdda44b)" d="M 538.316665 384.48 
L 538.316665 51.84 
" style="fill:none;stroke:#b0b0b0;stroke-linecap:square;stroke-width:0.8;"/>
     </g>
     <g id="line2d_12">
      <g>
       <use style="stroke:#000000;stroke-width:0.8;" x="538.316665" xlink:href="#m92aeaf1be9" y="384.48"/>
      </g>
     </g>
     <g id="text_6">
      <!-- 500000 -->
      <g transform="translate(519.229165 399.078438)scale(0.1 -0.1)">
       <defs>
        <path d="M 10.796875 72.90625 
L 49.515625 72.90625 
L 49.515625 64.59375 
L 19.828125 64.59375 
L 19.828125 46.734375 
Q 21.96875 47.46875 24.109375 47.828125 
Q 26.265625 48.1875 28.421875 48.1875 
Q 40.625 48.1875 47.75 41.5 
Q 54.890625 34.8125 54.890625 23.390625 
Q 54.890625 11.625 47.5625 5.09375 
Q 40.234375 -1.421875 26.90625 -1.421875 
Q 22.3125 -1.421875 17.546875 -0.640625 
Q 12.796875 0.140625 7.71875 1.703125 
L 7.71875 11.625 
Q 12.109375 9.234375 16.796875 8.0625 
Q 21.484375 6.890625 26.703125 6.890625 
Q 35.15625 6.890625 40.078125 11.328125 
Q 45.015625 15.765625 45.015625 23.390625 
Q 45.015625 31 40.078125 35.4375 
Q 35.15625 39.890625 26.703125 39.890625 
Q 22.75 39.890625 18.8125 39.015625 
Q 14.890625 38.140625 10.796875 36.28125 
z
" id="DejaVuSans-53"/>
       </defs>
       <use xlink:href="#DejaVuSans-53"/>
       <use x="63.623047" xlink:href="#DejaVuSans-48"/>
       <use x="127.246094" xlink:href="#DejaVuSans-48"/>
       <use x="190.869141" xlink:href="#DejaVuSans-48"/>
       <use x="254.492188" xlink:href="#DejaVuSans-48"/>
       <use x="318.115234" xlink:href="#DejaVuSans-48"/>
      </g>
     </g>
    </g>
    <g id="xtick_7">
     <g id="line2d_13">
      <path clip-path="url(#p661bdda44b)" d="M 622.974997 384.48 
L 622.974997 51.84 
" style="fill:none;stroke:#b0b0b0;stroke-linecap:square;stroke-width:0.8;"/>
     </g>
     <g id="line2d_14">
      <g>
       <use style="stroke:#000000;stroke-width:0.8;" x="622.974997" xlink:href="#m92aeaf1be9" y="384.48"/>
      </g>
     </g>
     <g id="text_7">
      <!-- 600000 -->
      <g transform="translate(603.887497 399.078438)scale(0.1 -0.1)">
       <defs>
        <path d="M 33.015625 40.375 
Q 26.375 40.375 22.484375 35.828125 
Q 18.609375 31.296875 18.609375 23.390625 
Q 18.609375 15.53125 22.484375 10.953125 
Q 26.375 6.390625 33.015625 6.390625 
Q 39.65625 6.390625 43.53125 10.953125 
Q 47.40625 15.53125 47.40625 23.390625 
Q 47.40625 31.296875 43.53125 35.828125 
Q 39.65625 40.375 33.015625 40.375 
z
M 52.59375 71.296875 
L 52.59375 62.3125 
Q 48.875 64.0625 45.09375 64.984375 
Q 41.3125 65.921875 37.59375 65.921875 
Q 27.828125 65.921875 22.671875 59.328125 
Q 17.53125 52.734375 16.796875 39.40625 
Q 19.671875 43.65625 24.015625 45.921875 
Q 28.375 48.1875 33.59375 48.1875 
Q 44.578125 48.1875 50.953125 41.515625 
Q 57.328125 34.859375 57.328125 23.390625 
Q 57.328125 12.15625 50.6875 5.359375 
Q 44.046875 -1.421875 33.015625 -1.421875 
Q 20.359375 -1.421875 13.671875 8.265625 
Q 6.984375 17.96875 6.984375 36.375 
Q 6.984375 53.65625 15.1875 63.9375 
Q 23.390625 74.21875 37.203125 74.21875 
Q 40.921875 74.21875 44.703125 73.484375 
Q 48.484375 72.75 52.59375 71.296875 
z
" id="DejaVuSans-54"/>
       </defs>
       <use xlink:href="#DejaVuSans-54"/>
       <use x="63.623047" xlink:href="#DejaVuSans-48"/>
       <use x="127.246094" xlink:href="#DejaVuSans-48"/>
       <use x="190.869141" xlink:href="#DejaVuSans-48"/>
       <use x="254.492188" xlink:href="#DejaVuSans-48"/>
       <use x="318.115234" xlink:href="#DejaVuSans-48"/>
      </g>
     </g>
    </g>
    <g id="text_8">
     <!-- Step -->
     <g transform="translate(355.337812 414.27625)scale(0.12 -0.12)">
      <defs>
       <path d="M 53.515625 70.515625 
L 53.515625 60.890625 
Q 47.90625 63.578125 42.921875 64.890625 
Q 37.9375 66.21875 33.296875 66.21875 
Q 25.25 66.21875 20.875 63.09375 
Q 16.5 59.96875 16.5 54.203125 
Q 16.5 49.359375 19.40625 46.890625 
Q 22.3125 44.4375 30.421875 42.921875 
L 36.375 41.703125 
Q 47.40625 39.59375 52.65625 34.296875 
Q 57.90625 29 57.90625 20.125 
Q 57.90625 9.515625 50.796875 4.046875 
Q 43.703125 -1.421875 29.984375 -1.421875 
Q 24.8125 -1.421875 18.96875 -0.25 
Q 13.140625 0.921875 6.890625 3.21875 
L 6.890625 13.375 
Q 12.890625 10.015625 18.65625 8.296875 
Q 24.421875 6.59375 29.984375 6.59375 
Q 38.421875 6.59375 43.015625 9.90625 
Q 47.609375 13.234375 47.609375 19.390625 
Q 47.609375 24.75 44.3125 27.78125 
Q 41.015625 30.8125 33.5 32.328125 
L 27.484375 33.5 
Q 16.453125 35.6875 11.515625 40.375 
Q 6.59375 45.0625 6.59375 53.421875 
Q 6.59375 63.09375 13.40625 68.65625 
Q 20.21875 74.21875 32.171875 74.21875 
Q 37.3125 74.21875 42.625 73.28125 
Q 47.953125 72.359375 53.515625 70.515625 
z
" id="DejaVuSans-83"/>
       <path d="M 18.3125 70.21875 
L 18.3125 54.6875 
L 36.8125 54.6875 
L 36.8125 47.703125 
L 18.3125 47.703125 
L 18.3125 18.015625 
Q 18.3125 11.328125 20.140625 9.421875 
Q 21.96875 7.515625 27.59375 7.515625 
L 36.8125 7.515625 
L 36.8125 0 
L 27.59375 0 
Q 17.1875 0 13.234375 3.875 
Q 9.28125 7.765625 9.28125 18.015625 
L 9.28125 47.703125 
L 2.6875 47.703125 
L 2.6875 54.6875 
L 9.28125 54.6875 
L 9.28125 70.21875 
z
" id="DejaVuSans-116"/>
       <path d="M 56.203125 29.59375 
L 56.203125 25.203125 
L 14.890625 25.203125 
Q 15.484375 15.921875 20.484375 11.0625 
Q 25.484375 6.203125 34.421875 6.203125 
Q 39.59375 6.203125 44.453125 7.46875 
Q 49.3125 8.734375 54.109375 11.28125 
L 54.109375 2.78125 
Q 49.265625 0.734375 44.1875 -0.34375 
Q 39.109375 -1.421875 33.890625 -1.421875 
Q 20.796875 -1.421875 13.15625 6.1875 
Q 5.515625 13.8125 5.515625 26.8125 
Q 5.515625 40.234375 12.765625 48.109375 
Q 20.015625 56 32.328125 56 
Q 43.359375 56 49.78125 48.890625 
Q 56.203125 41.796875 56.203125 29.59375 
z
M 47.21875 32.234375 
Q 47.125 39.59375 43.09375 43.984375 
Q 39.0625 48.390625 32.421875 48.390625 
Q 24.90625 48.390625 20.390625 44.140625 
Q 15.875 39.890625 15.1875 32.171875 
z
" id="DejaVuSans-101"/>
       <path d="M 18.109375 8.203125 
L 18.109375 -20.796875 
L 9.078125 -20.796875 
L 9.078125 54.6875 
L 18.109375 54.6875 
L 18.109375 46.390625 
Q 20.953125 51.265625 25.265625 53.625 
Q 29.59375 56 35.59375 56 
Q 45.5625 56 51.78125 48.09375 
Q 58.015625 40.1875 58.015625 27.296875 
Q 58.015625 14.40625 51.78125 6.484375 
Q 45.5625 -1.421875 35.59375 -1.421875 
Q 29.59375 -1.421875 25.265625 0.953125 
Q 20.953125 3.328125 18.109375 8.203125 
z
M 48.6875 27.296875 
Q 48.6875 37.203125 44.609375 42.84375 
Q 40.53125 48.484375 33.40625 48.484375 
Q 26.265625 48.484375 22.1875 42.84375 
Q 18.109375 37.203125 18.109375 27.296875 
Q 18.109375 17.390625 22.1875 11.75 
Q 26.265625 6.109375 33.40625 6.109375 
Q 40.53125 6.109375 44.609375 11.75 
Q 48.6875 17.390625 48.6875 27.296875 
z
" id="DejaVuSans-112"/>
      </defs>
      <use xlink:href="#DejaVuSans-83"/>
      <use x="63.476562" xlink:href="#DejaVuSans-116"/>
      <use x="102.685547" xlink:href="#DejaVuSans-101"/>
      <use x="164.208984" xlink:href="#DejaVuSans-112"/>
     </g>
    </g>
   </g>
   <g id="matplotlib.axis_2">
    <g id="ytick_1">
     <g id="line2d_15">
      <path clip-path="url(#p661bdda44b)" d="M 90 337.682518 
L 648 337.682518 
" style="fill:none;stroke:#b0b0b0;stroke-linecap:square;stroke-width:0.8;"/>
     </g>
     <g id="line2d_16">
      <defs>
       <path d="M 0 0 
L -3.5 0 
" id="m3e4576d349" style="stroke:#000000;stroke-width:0.8;"/>
      </defs>
      <g>
       <use style="stroke:#000000;stroke-width:0.8;" x="90" xlink:href="#m3e4576d349" y="337.682518"/>
      </g>
     </g>
     <g id="text_9">
      <!-- 500 -->
      <g transform="translate(63.9125 341.481736)scale(0.1 -0.1)">
       <use xlink:href="#DejaVuSans-53"/>
       <use x="63.623047" xlink:href="#DejaVuSans-48"/>
       <use x="127.246094" xlink:href="#DejaVuSans-48"/>
      </g>
     </g>
    </g>
    <g id="ytick_2">
     <g id="line2d_17">
      <path clip-path="url(#p661bdda44b)" d="M 90 290.868309 
L 648 290.868309 
" style="fill:none;stroke:#b0b0b0;stroke-linecap:square;stroke-width:0.8;"/>
     </g>
     <g id="line2d_18">
      <g>
       <use style="stroke:#000000;stroke-width:0.8;" x="90" xlink:href="#m3e4576d349" y="290.868309"/>
      </g>
     </g>
     <g id="text_10">
      <!-- 1000 -->
      <g transform="translate(57.55 294.667528)scale(0.1 -0.1)">
       <use xlink:href="#DejaVuSans-49"/>
       <use x="63.623047" xlink:href="#DejaVuSans-48"/>
       <use x="127.246094" xlink:href="#DejaVuSans-48"/>
       <use x="190.869141" xlink:href="#DejaVuSans-48"/>
      </g>
     </g>
    </g>
    <g id="ytick_3">
     <g id="line2d_19">
      <path clip-path="url(#p661bdda44b)" d="M 90 244.054101 
L 648 244.054101 
" style="fill:none;stroke:#b0b0b0;stroke-linecap:square;stroke-width:0.8;"/>
     </g>
     <g id="line2d_20">
      <g>
       <use style="stroke:#000000;stroke-width:0.8;" x="90" xlink:href="#m3e4576d349" y="244.054101"/>
      </g>
     </g>
     <g id="text_11">
      <!-- 1500 -->
      <g transform="translate(57.55 247.853319)scale(0.1 -0.1)">
       <use xlink:href="#DejaVuSans-49"/>
       <use x="63.623047" xlink:href="#DejaVuSans-53"/>
       <use x="127.246094" xlink:href="#DejaVuSans-48"/>
       <use x="190.869141" xlink:href="#DejaVuSans-48"/>
      </g>
     </g>
    </g>
    <g id="ytick_4">
     <g id="line2d_21">
      <path clip-path="url(#p661bdda44b)" d="M 90 197.239892 
L 648 197.239892 
" style="fill:none;stroke:#b0b0b0;stroke-linecap:square;stroke-width:0.8;"/>
     </g>
     <g id="line2d_22">
      <g>
       <use style="stroke:#000000;stroke-width:0.8;" x="90" xlink:href="#m3e4576d349" y="197.239892"/>
      </g>
     </g>
     <g id="text_12">
      <!-- 2000 -->
      <g transform="translate(57.55 201.039111)scale(0.1 -0.1)">
       <use xlink:href="#DejaVuSans-50"/>
       <use x="63.623047" xlink:href="#DejaVuSans-48"/>
       <use x="127.246094" xlink:href="#DejaVuSans-48"/>
       <use x="190.869141" xlink:href="#DejaVuSans-48"/>
      </g>
     </g>
    </g>
    <g id="ytick_5">
     <g id="line2d_23">
      <path clip-path="url(#p661bdda44b)" d="M 90 150.425684 
L 648 150.425684 
" style="fill:none;stroke:#b0b0b0;stroke-linecap:square;stroke-width:0.8;"/>
     </g>
     <g id="line2d_24">
      <g>
       <use style="stroke:#000000;stroke-width:0.8;" x="90" xlink:href="#m3e4576d349" y="150.425684"/>
      </g>
     </g>
     <g id="text_13">
      <!-- 2500 -->
      <g transform="translate(57.55 154.224903)scale(0.1 -0.1)">
       <use xlink:href="#DejaVuSans-50"/>
       <use x="63.623047" xlink:href="#DejaVuSans-53"/>
       <use x="127.246094" xlink:href="#DejaVuSans-48"/>
       <use x="190.869141" xlink:href="#DejaVuSans-48"/>
      </g>
     </g>
    </g>
    <g id="ytick_6">
     <g id="line2d_25">
      <path clip-path="url(#p661bdda44b)" d="M 90 103.611475 
L 648 103.611475 
" style="fill:none;stroke:#b0b0b0;stroke-linecap:square;stroke-width:0.8;"/>
     </g>
     <g id="line2d_26">
      <g>
       <use style="stroke:#000000;stroke-width:0.8;" x="90" xlink:href="#m3e4576d349" y="103.611475"/>
      </g>
     </g>
     <g id="text_14">
      <!-- 3000 -->
      <g transform="translate(57.55 107.410694)scale(0.1 -0.1)">
       <use xlink:href="#DejaVuSans-51"/>
       <use x="63.623047" xlink:href="#DejaVuSans-48"/>
       <use x="127.246094" xlink:href="#DejaVuSans-48"/>
       <use x="190.869141" xlink:href="#DejaVuSans-48"/>
      </g>
     </g>
    </g>
    <g id="ytick_7">
     <g id="line2d_27">
      <path clip-path="url(#p661bdda44b)" d="M 90 56.797267 
L 648 56.797267 
" style="fill:none;stroke:#b0b0b0;stroke-linecap:square;stroke-width:0.8;"/>
     </g>
     <g id="line2d_28">
      <g>
       <use style="stroke:#000000;stroke-width:0.8;" x="90" xlink:href="#m3e4576d349" y="56.797267"/>
      </g>
     </g>
     <g id="text_15">
      <!-- 3500 -->
      <g transform="translate(57.55 60.596486)scale(0.1 -0.1)">
       <use xlink:href="#DejaVuSans-51"/>
       <use x="63.623047" xlink:href="#DejaVuSans-53"/>
       <use x="127.246094" xlink:href="#DejaVuSans-48"/>
       <use x="190.869141" xlink:href="#DejaVuSans-48"/>
      </g>
     </g>
    </g>
    <g id="text_16">
     <!-- Smoothed30Reward -->
     <g transform="translate(51.054375 278.791875)rotate(-90)scale(0.12 -0.12)">
      <defs>
       <path d="M 52 44.1875 
Q 55.375 50.25 60.0625 53.125 
Q 64.75 56 71.09375 56 
Q 79.640625 56 84.28125 50.015625 
Q 88.921875 44.046875 88.921875 33.015625 
L 88.921875 0 
L 79.890625 0 
L 79.890625 32.71875 
Q 79.890625 40.578125 77.09375 44.375 
Q 74.3125 48.1875 68.609375 48.1875 
Q 61.625 48.1875 57.5625 43.546875 
Q 53.515625 38.921875 53.515625 30.90625 
L 53.515625 0 
L 44.484375 0 
L 44.484375 32.71875 
Q 44.484375 40.625 41.703125 44.40625 
Q 38.921875 48.1875 33.109375 48.1875 
Q 26.21875 48.1875 22.15625 43.53125 
Q 18.109375 38.875 18.109375 30.90625 
L 18.109375 0 
L 9.078125 0 
L 9.078125 54.6875 
L 18.109375 54.6875 
L 18.109375 46.1875 
Q 21.1875 51.21875 25.484375 53.609375 
Q 29.78125 56 35.6875 56 
Q 41.65625 56 45.828125 52.96875 
Q 50 49.953125 52 44.1875 
z
" id="DejaVuSans-109"/>
       <path d="M 30.609375 48.390625 
Q 23.390625 48.390625 19.1875 42.75 
Q 14.984375 37.109375 14.984375 27.296875 
Q 14.984375 17.484375 19.15625 11.84375 
Q 23.34375 6.203125 30.609375 6.203125 
Q 37.796875 6.203125 41.984375 11.859375 
Q 46.1875 17.53125 46.1875 27.296875 
Q 46.1875 37.015625 41.984375 42.703125 
Q 37.796875 48.390625 30.609375 48.390625 
z
M 30.609375 56 
Q 42.328125 56 49.015625 48.375 
Q 55.71875 40.765625 55.71875 27.296875 
Q 55.71875 13.875 49.015625 6.21875 
Q 42.328125 -1.421875 30.609375 -1.421875 
Q 18.84375 -1.421875 12.171875 6.21875 
Q 5.515625 13.875 5.515625 27.296875 
Q 5.515625 40.765625 12.171875 48.375 
Q 18.84375 56 30.609375 56 
z
" id="DejaVuSans-111"/>
       <path d="M 54.890625 33.015625 
L 54.890625 0 
L 45.90625 0 
L 45.90625 32.71875 
Q 45.90625 40.484375 42.875 44.328125 
Q 39.84375 48.1875 33.796875 48.1875 
Q 26.515625 48.1875 22.3125 43.546875 
Q 18.109375 38.921875 18.109375 30.90625 
L 18.109375 0 
L 9.078125 0 
L 9.078125 75.984375 
L 18.109375 75.984375 
L 18.109375 46.1875 
Q 21.34375 51.125 25.703125 53.5625 
Q 30.078125 56 35.796875 56 
Q 45.21875 56 50.046875 50.171875 
Q 54.890625 44.34375 54.890625 33.015625 
z
" id="DejaVuSans-104"/>
       <path d="M 45.40625 46.390625 
L 45.40625 75.984375 
L 54.390625 75.984375 
L 54.390625 0 
L 45.40625 0 
L 45.40625 8.203125 
Q 42.578125 3.328125 38.25 0.953125 
Q 33.9375 -1.421875 27.875 -1.421875 
Q 17.96875 -1.421875 11.734375 6.484375 
Q 5.515625 14.40625 5.515625 27.296875 
Q 5.515625 40.1875 11.734375 48.09375 
Q 17.96875 56 27.875 56 
Q 33.9375 56 38.25 53.625 
Q 42.578125 51.265625 45.40625 46.390625 
z
M 14.796875 27.296875 
Q 14.796875 17.390625 18.875 11.75 
Q 22.953125 6.109375 30.078125 6.109375 
Q 37.203125 6.109375 41.296875 11.75 
Q 45.40625 17.390625 45.40625 27.296875 
Q 45.40625 37.203125 41.296875 42.84375 
Q 37.203125 48.484375 30.078125 48.484375 
Q 22.953125 48.484375 18.875 42.84375 
Q 14.796875 37.203125 14.796875 27.296875 
z
" id="DejaVuSans-100"/>
       <path d="M 44.390625 34.1875 
Q 47.5625 33.109375 50.5625 29.59375 
Q 53.5625 26.078125 56.59375 19.921875 
L 66.609375 0 
L 56 0 
L 46.6875 18.703125 
Q 43.0625 26.03125 39.671875 28.421875 
Q 36.28125 30.8125 30.421875 30.8125 
L 19.671875 30.8125 
L 19.671875 0 
L 9.8125 0 
L 9.8125 72.90625 
L 32.078125 72.90625 
Q 44.578125 72.90625 50.734375 67.671875 
Q 56.890625 62.453125 56.890625 51.90625 
Q 56.890625 45.015625 53.6875 40.46875 
Q 50.484375 35.9375 44.390625 34.1875 
z
M 19.671875 64.796875 
L 19.671875 38.921875 
L 32.078125 38.921875 
Q 39.203125 38.921875 42.84375 42.21875 
Q 46.484375 45.515625 46.484375 51.90625 
Q 46.484375 58.296875 42.84375 61.546875 
Q 39.203125 64.796875 32.078125 64.796875 
z
" id="DejaVuSans-82"/>
       <path d="M 4.203125 54.6875 
L 13.1875 54.6875 
L 24.421875 12.015625 
L 35.59375 54.6875 
L 46.1875 54.6875 
L 57.421875 12.015625 
L 68.609375 54.6875 
L 77.59375 54.6875 
L 63.28125 0 
L 52.6875 0 
L 40.921875 44.828125 
L 29.109375 0 
L 18.5 0 
z
" id="DejaVuSans-119"/>
       <path d="M 34.28125 27.484375 
Q 23.390625 27.484375 19.1875 25 
Q 14.984375 22.515625 14.984375 16.5 
Q 14.984375 11.71875 18.140625 8.90625 
Q 21.296875 6.109375 26.703125 6.109375 
Q 34.1875 6.109375 38.703125 11.40625 
Q 43.21875 16.703125 43.21875 25.484375 
L 43.21875 27.484375 
z
M 52.203125 31.203125 
L 52.203125 0 
L 43.21875 0 
L 43.21875 8.296875 
Q 40.140625 3.328125 35.546875 0.953125 
Q 30.953125 -1.421875 24.3125 -1.421875 
Q 15.921875 -1.421875 10.953125 3.296875 
Q 6 8.015625 6 15.921875 
Q 6 25.140625 12.171875 29.828125 
Q 18.359375 34.515625 30.609375 34.515625 
L 43.21875 34.515625 
L 43.21875 35.40625 
Q 43.21875 41.609375 39.140625 45 
Q 35.0625 48.390625 27.6875 48.390625 
Q 23 48.390625 18.546875 47.265625 
Q 14.109375 46.140625 10.015625 43.890625 
L 10.015625 52.203125 
Q 14.9375 54.109375 19.578125 55.046875 
Q 24.21875 56 28.609375 56 
Q 40.484375 56 46.34375 49.84375 
Q 52.203125 43.703125 52.203125 31.203125 
z
" id="DejaVuSans-97"/>
       <path d="M 41.109375 46.296875 
Q 39.59375 47.171875 37.8125 47.578125 
Q 36.03125 48 33.890625 48 
Q 26.265625 48 22.1875 43.046875 
Q 18.109375 38.09375 18.109375 28.8125 
L 18.109375 0 
L 9.078125 0 
L 9.078125 54.6875 
L 18.109375 54.6875 
L 18.109375 46.1875 
Q 20.953125 51.171875 25.484375 53.578125 
Q 30.03125 56 36.53125 56 
Q 37.453125 56 38.578125 55.875 
Q 39.703125 55.765625 41.0625 55.515625 
z
" id="DejaVuSans-114"/>
      </defs>
      <use xlink:href="#DejaVuSans-83"/>
      <use x="63.476562" xlink:href="#DejaVuSans-109"/>
      <use x="160.888672" xlink:href="#DejaVuSans-111"/>
      <use x="222.070312" xlink:href="#DejaVuSans-111"/>
      <use x="283.251953" xlink:href="#DejaVuSans-116"/>
      <use x="322.460938" xlink:href="#DejaVuSans-104"/>
      <use x="385.839844" xlink:href="#DejaVuSans-101"/>
      <use x="447.363281" xlink:href="#DejaVuSans-100"/>
      <use x="510.839844" xlink:href="#DejaVuSans-51"/>
      <use x="574.462891" xlink:href="#DejaVuSans-48"/>
      <use x="638.085938" xlink:href="#DejaVuSans-82"/>
      <use x="703.068359" xlink:href="#DejaVuSans-101"/>
      <use x="764.591797" xlink:href="#DejaVuSans-119"/>
      <use x="846.378906" xlink:href="#DejaVuSans-97"/>
      <use x="907.658203" xlink:href="#DejaVuSans-114"/>
      <use x="947.021484" xlink:href="#DejaVuSans-100"/>
     </g>
    </g>
   </g>
   <g id="line2d_29">
    <path clip-path="url(#p661bdda44b)" d="M 115.363636 369.36 
L 116.040903 368.282174 
L 116.379536 368.820552 
L 116.71817 368.499072 
L 117.056803 368.621596 
L 118.072703 367.857971 
L 118.411336 367.853215 
L 118.74997 368.048116 
L 119.088603 367.49976 
L 120.104503 367.857655 
L 120.443136 367.682928 
L 121.79767 367.741678 
L 123.152203 367.752594 
L 124.506736 367.875241 
L 125.86127 367.729235 
L 126.199903 367.802457 
L 126.538536 367.492825 
L 127.554436 367.518664 
L 128.231703 367.627636 
L 128.90897 367.458115 
L 129.247603 367.58057 
L 131.956669 367.475273 
L 134.327103 367.531431 
L 134.665736 367.453119 
L 135.681636 367.475826 
L 136.358903 367.514536 
L 136.697536 367.734349 
L 137.374803 367.794611 
L 138.390703 367.478406 
L 139.406603 367.729444 
L 139.745236 367.558448 
L 141.099769 367.546673 
L 142.115669 367.512744 
L 142.792936 367.663569 
L 143.131569 367.519812 
L 143.808836 367.635187 
L 144.486103 367.512127 
L 145.840636 367.4571 
L 146.179269 367.337068 
L 146.517903 367.08704 
L 147.872436 366.788649 
L 148.549703 366.879662 
L 148.888336 366.780597 
L 149.226969 366.544423 
L 149.565603 366.486295 
L 149.904236 366.561029 
L 150.581503 366.590682 
L 151.258769 366.664756 
L 151.597403 366.75567 
L 153.629203 365.953814 
L 153.967836 365.599576 
L 154.645103 365.597785 
L 154.983736 365.522503 
L 155.322369 365.59676 
L 156.338269 365.062168 
L 157.015536 365.148802 
L 158.031436 365.151375 
L 158.370069 365.193828 
L 158.708703 365.087448 
L 160.401869 365.214723 
L 160.740502 365.092248 
L 161.417769 364.653549 
L 161.756402 364.473019 
L 162.095036 364.50381 
L 163.110936 364.279768 
L 163.449569 363.916573 
L 164.804102 363.651627 
L 165.142736 363.663051 
L 165.820002 363.488112 
L 166.497269 363.763708 
L 167.174536 363.592963 
L 167.513169 361.514254 
L 167.851802 361.429227 
L 168.190436 361.547892 
L 168.529069 361.465811 
L 168.867702 361.519213 
L 170.899502 360.803905 
L 171.238136 360.564809 
L 171.576769 360.468164 
L 172.254036 360.428761 
L 173.269936 360.218871 
L 173.608569 360.516464 
L 173.947202 360.476424 
L 174.285836 360.800477 
L 174.963102 360.628392 
L 175.640369 360.505325 
L 175.979002 360.468192 
L 176.317636 360.125288 
L 176.656269 358.553017 
L 176.994902 358.633706 
L 177.333536 358.247862 
L 177.672169 360.256136 
L 178.010802 359.324372 
L 178.349436 359.109129 
L 178.688069 359.041736 
L 179.026702 358.83379 
L 179.365336 358.871715 
L 179.703969 357.789659 
L 180.719869 357.831395 
L 181.058502 357.800749 
L 181.397136 358.199049 
L 182.074402 358.179282 
L 182.413036 357.814762 
L 182.751669 357.637937 
L 183.090302 357.876339 
L 184.106202 358.188474 
L 184.444836 358.280072 
L 184.783469 357.860058 
L 185.460736 358.382449 
L 185.799369 357.878518 
L 186.138002 358.038906 
L 186.476636 358.417846 
L 186.815269 360.294961 
L 187.153902 360.317579 
L 187.492536 360.718088 
L 187.831169 360.789587 
L 188.169802 361.821534 
L 189.524335 362.244909 
L 189.862969 363.424708 
L 190.540235 363.509568 
L 190.878869 363.566413 
L 191.217502 363.894174 
L 191.894769 363.941743 
L 192.233402 363.865126 
L 192.910669 364.543742 
L 193.249302 364.408424 
L 193.587935 363.119208 
L 193.926569 361.065234 
L 194.603835 360.787889 
L 194.942469 361.219731 
L 195.281102 361.08031 
L 195.619735 360.785306 
L 195.958369 361.453542 
L 196.635635 361.30164 
L 196.974269 360.890708 
L 197.651535 360.801126 
L 199.006069 360.518669 
L 199.344702 358.21903 
L 199.683335 358.411843 
L 200.021969 358.277218 
L 200.360602 356.595472 
L 201.037869 356.383396 
L 201.376502 356.016804 
L 201.715135 356.009906 
L 202.053769 352.477983 
L 203.408302 352.633186 
L 203.746935 353.884487 
L 204.085569 355.955445 
L 204.762835 355.988342 
L 205.440102 353.772128 
L 205.778735 353.918008 
L 206.456002 353.772792 
L 207.471902 353.782699 
L 208.149169 354.158858 
L 208.487802 352.722616 
L 208.826435 350.656974 
L 209.165069 350.682655 
L 209.503702 352.789498 
L 209.842335 352.858306 
L 210.180969 352.716261 
L 210.519602 353.664533 
L 211.874135 353.754164 
L 212.212769 357.320856 
L 212.551402 357.442328 
L 214.921835 356.986427 
L 215.599102 359.107038 
L 216.276368 358.997809 
L 217.630902 359.06015 
L 218.308168 358.797933 
L 218.985435 362.227434 
L 219.324068 362.150879 
L 219.662702 359.62766 
L 220.001335 359.410799 
L 220.339968 359.591591 
L 220.678602 360.466467 
L 221.355868 360.412255 
L 222.033135 360.660962 
L 222.371768 360.530704 
L 222.710402 360.02896 
L 223.049035 360.082872 
L 223.387668 356.793579 
L 223.726302 355.893081 
L 224.403568 351.672643 
L 224.742202 347.00895 
L 225.080835 344.536588 
L 225.419468 342.91949 
L 225.758102 340.307703 
L 226.096735 339.001477 
L 226.435368 335.514934 
L 227.112635 330.632013 
L 227.451268 327.288334 
L 229.483068 316.890122 
L 229.821702 316.099304 
L 230.160335 313.019655 
L 230.498968 312.079346 
L 230.837602 309.996601 
L 231.176235 310.077391 
L 231.514868 307.420611 
L 231.853502 307.413946 
L 232.192135 306.13573 
L 232.530768 304.018025 
L 232.869402 304.467615 
L 233.208035 304.487224 
L 233.546668 307.795695 
L 233.885302 308.7613 
L 234.223935 308.925841 
L 234.562568 307.634155 
L 234.901202 312.298599 
L 235.239835 311.70447 
L 236.255735 314.93077 
L 236.933002 320.329259 
L 237.610268 322.993798 
L 237.948902 323.41826 
L 238.287535 324.15663 
L 238.626168 326.137758 
L 238.964802 324.53276 
L 239.303435 325.216752 
L 239.980702 324.275699 
L 240.319335 324.698539 
L 240.657968 324.143323 
L 240.996602 325.060832 
L 241.335235 322.750243 
L 241.673868 324.549843 
L 242.012502 324.509123 
L 242.351135 322.31816 
L 243.028402 322.117184 
L 243.367035 317.658267 
L 243.705668 315.998314 
L 244.044301 315.86393 
L 244.382935 318.117321 
L 244.721568 321.187076 
L 245.060201 317.179412 
L 245.398835 317.146545 
L 245.737468 316.77101 
L 246.414735 312.879506 
L 246.753368 308.335169 
L 247.092001 308.181972 
L 247.430635 308.824615 
L 248.107901 298.319786 
L 248.446535 298.651148 
L 248.785168 298.268334 
L 249.123801 294.498125 
L 249.462435 294.188797 
L 249.801068 287.638781 
L 250.139701 291.261671 
L 250.478335 292.512486 
L 250.816968 287.53499 
L 251.155601 279.32445 
L 251.494235 277.578808 
L 251.832868 276.848555 
L 252.171501 268.034173 
L 252.510135 271.05138 
L 252.848768 264.755913 
L 253.187401 264.698777 
L 253.526035 268.725639 
L 253.864668 261.935905 
L 254.203301 259.128972 
L 254.541935 259.175052 
L 254.880568 258.783685 
L 255.219201 260.764693 
L 255.557835 263.849409 
L 255.896468 264.693504 
L 256.235101 266.705505 
L 256.573735 263.067881 
L 256.912368 267.89353 
L 257.251001 267.96553 
L 257.589635 268.415006 
L 257.928268 274.946744 
L 258.266901 274.174098 
L 258.944168 274.028022 
L 259.282801 280.34197 
L 259.621435 282.543647 
L 259.960068 286.680533 
L 260.298701 286.847476 
L 260.637335 287.745905 
L 260.975968 294.162705 
L 261.314601 295.686352 
L 261.653235 299.611941 
L 261.991868 300.59557 
L 262.330501 309.342998 
L 262.669135 309.436749 
L 263.007768 317.927554 
L 263.346401 317.442047 
L 263.685035 316.660358 
L 264.023668 324.884882 
L 264.362301 326.656475 
L 264.700935 325.964155 
L 265.039568 326.254763 
L 265.378201 327.677347 
L 266.055468 327.646837 
L 266.394101 328.088595 
L 266.732735 324.663708 
L 267.071368 322.474746 
L 267.410001 322.531353 
L 267.748635 312.219013 
L 268.087268 312.171313 
L 268.425901 320.194812 
L 268.764535 320.744404 
L 269.103168 319.397432 
L 269.441801 309.335515 
L 269.780435 308.481336 
L 270.119068 303.886932 
L 270.457701 302.498182 
L 270.796335 293.128653 
L 271.134968 293.056482 
L 271.473601 296.125954 
L 271.812234 295.656185 
L 272.150868 289.115084 
L 272.489501 287.728959 
L 272.828134 279.229376 
L 273.166768 275.863686 
L 273.505401 267.595167 
L 273.844034 268.429334 
L 274.182668 268.241488 
L 274.521301 268.992017 
L 275.198568 249.490498 
L 275.537201 248.117534 
L 275.875834 237.879061 
L 276.214468 237.703229 
L 276.553101 238.053451 
L 276.891734 237.614092 
L 277.230368 239.761775 
L 277.569001 234.660351 
L 277.907634 241.342174 
L 278.246268 235.741682 
L 278.584901 235.110385 
L 279.262168 228.978168 
L 279.600801 236.293629 
L 280.278068 234.565978 
L 280.616701 225.467681 
L 280.955334 225.12633 
L 281.293968 215.913843 
L 281.632601 210.77498 
L 281.971234 201.787018 
L 282.309868 200.040573 
L 282.648501 197.272734 
L 282.987134 197.653757 
L 283.325768 190.978237 
L 283.664401 189.887819 
L 284.680301 163.012129 
L 285.018934 163.069129 
L 285.357568 164.516595 
L 285.696201 157.49243 
L 286.034834 158.219829 
L 286.373468 154.12508 
L 286.712101 144.872733 
L 287.050734 151.568126 
L 287.389368 141.652974 
L 288.066634 135.624827 
L 288.405268 134.109048 
L 288.743901 127.477954 
L 289.082534 124.238657 
L 289.421168 127.15339 
L 290.098434 111.359842 
L 290.437068 110.817525 
L 291.452968 141.0166 
L 291.791601 145.132437 
L 292.468868 163.172426 
L 292.807501 158.673159 
L 293.146134 162.161359 
L 293.484768 162.261616 
L 293.823401 168.318754 
L 294.162034 178.521128 
L 294.500668 179.301048 
L 294.839301 177.371376 
L 295.177934 177.644931 
L 295.516568 176.762128 
L 295.855201 185.871677 
L 296.193834 186.070742 
L 296.871101 184.712077 
L 297.209734 184.266627 
L 297.548368 188.298051 
L 298.225634 203.346664 
L 298.902901 201.840685 
L 299.241534 208.829523 
L 299.580167 200.987914 
L 299.918801 210.94723 
L 300.257434 212.113418 
L 300.596067 212.698479 
L 301.273334 194.881751 
L 301.611967 186.687851 
L 301.950601 186.633658 
L 302.627867 170.921228 
L 302.966501 169.741649 
L 303.305134 173.856066 
L 303.643767 184.216761 
L 304.321034 170.101628 
L 304.659667 170.748042 
L 304.998301 172.060944 
L 305.336934 172.370718 
L 305.675567 172.122121 
L 306.014201 170.555956 
L 306.352834 180.228903 
L 306.691467 179.246955 
L 307.030101 189.595396 
L 307.707367 184.465664 
L 308.046001 173.992995 
L 308.384634 167.308063 
L 309.061901 163.48776 
L 309.400534 154.853896 
L 309.739167 155.045852 
L 310.077801 146.60411 
L 310.416434 146.337716 
L 310.755067 150.809894 
L 311.093701 150.71672 
L 311.432334 151.320414 
L 311.770967 150.028637 
L 312.109601 146.398851 
L 312.448234 144.582614 
L 312.786867 147.183976 
L 313.125501 151.510921 
L 313.464134 150.418708 
L 313.802767 144.357587 
L 314.141401 152.976718 
L 314.818667 149.611819 
L 315.157301 157.17794 
L 315.495934 156.719966 
L 315.834567 160.87177 
L 316.173201 157.6077 
L 316.511834 149.039849 
L 316.850467 146.565549 
L 317.189101 136.688317 
L 317.527734 134.8448 
L 317.866367 134.762219 
L 318.205001 135.399209 
L 318.543634 132.964689 
L 318.882267 136.242401 
L 319.220901 136.790252 
L 319.559534 135.154236 
L 319.898167 138.315836 
L 320.236801 137.968132 
L 320.575434 137.887062 
L 320.914067 134.825926 
L 321.252701 137.206225 
L 321.591334 135.262172 
L 321.929967 136.758601 
L 322.268601 136.612627 
L 322.607234 138.14638 
L 322.945867 141.411528 
L 323.284501 138.836247 
L 323.623134 131.417472 
L 323.961767 134.704732 
L 324.300401 127.956433 
L 324.977667 138.944107 
L 325.316301 135.176016 
L 325.654934 135.554644 
L 325.993567 131.040345 
L 326.332201 130.993901 
L 327.009467 135.912524 
L 327.3481 136.580339 
L 327.686734 136.440225 
L 328.025367 134.673116 
L 328.364 134.169985 
L 328.702634 133.079662 
L 329.041267 129.146077 
L 329.3799 128.350694 
L 329.718534 128.1249 
L 330.3958 130.187617 
L 330.734434 129.967552 
L 331.073067 136.930032 
L 331.4117 139.099962 
L 331.750334 146.030496 
L 332.088967 147.804858 
L 332.4276 147.970872 
L 332.766234 145.432948 
L 333.104867 146.202816 
L 333.4435 144.377614 
L 333.782134 143.27591 
L 334.120767 137.508786 
L 334.4594 135.774457 
L 335.4753 120.454508 
L 335.813934 119.95213 
L 336.152567 123.190149 
L 336.829834 113.296888 
L 337.168467 111.438246 
L 337.5071 114.344966 
L 337.845734 122.686809 
L 338.184367 122.679209 
L 338.523 129.687041 
L 338.861634 129.522315 
L 339.200267 133.725423 
L 339.5389 133.853218 
L 339.877534 133.600045 
L 340.216167 128.858965 
L 340.5548 126.63474 
L 340.893434 132.107318 
L 341.232067 123.850944 
L 341.5707 119.398132 
L 341.909334 116.86114 
L 342.247967 112.811081 
L 342.5866 111.84718 
L 342.925234 112.0721 
L 343.263867 114.068062 
L 343.941134 129.431209 
L 344.279767 127.495285 
L 344.957034 143.154516 
L 345.295667 142.668905 
L 345.6343 150.282915 
L 345.972934 150.340629 
L 346.311567 155.270143 
L 346.988834 173.304217 
L 347.327467 176.935975 
L 347.6661 172.786411 
L 348.004734 162.902936 
L 348.343367 171.664171 
L 348.682 164.853008 
L 349.020634 171.122401 
L 349.359267 174.840914 
L 350.036534 191.147226 
L 350.375167 191.279172 
L 350.7138 191.016313 
L 351.052434 192.59416 
L 351.391067 191.807225 
L 351.7297 199.334863 
L 352.068334 203.554197 
L 352.7456 218.494263 
L 353.084234 218.166801 
L 353.422867 209.916091 
L 353.7615 211.533634 
L 354.100134 210.786118 
L 354.438767 211.499688 
L 355.116033 196.054164 
L 355.454667 198.717593 
L 355.7933 197.063311 
L 356.131933 197.259256 
L 356.470567 195.663908 
L 356.8092 190.584045 
L 357.147833 182.264331 
L 357.486467 179.358309 
L 357.8251 180.436209 
L 358.163733 183.868462 
L 358.502367 182.593474 
L 358.841 190.012188 
L 359.518267 176.435648 
L 360.195533 163.267397 
L 360.534167 165.706525 
L 360.8728 166.156595 
L 361.211433 159.235233 
L 361.8887 160.841325 
L 362.227333 150.989367 
L 362.565967 149.891192 
L 362.9046 145.98167 
L 363.243233 146.766025 
L 363.581867 145.927647 
L 364.259133 132.115296 
L 364.597767 132.331477 
L 364.9364 130.483655 
L 365.275033 129.880675 
L 365.613667 128.852128 
L 365.9523 123.031329 
L 366.290933 124.134776 
L 366.629567 118.389294 
L 366.9682 115.869359 
L 367.306833 115.077447 
L 367.645467 119.470163 
L 367.9841 119.479092 
L 368.322733 118.518049 
L 369 104.781688 
L 369.338633 104.679112 
L 369.677267 104.905127 
L 370.0159 104.229231 
L 370.354533 103.010083 
L 370.693167 100.726943 
L 371.709067 103.093743 
L 372.0477 96.725769 
L 372.386333 104.055705 
L 372.724967 99.653957 
L 373.0636 100.467959 
L 373.402233 100.480547 
L 373.740867 99.455157 
L 374.0795 97.781195 
L 374.418133 97.596606 
L 374.756767 103.839502 
L 375.0954 105.138475 
L 375.434033 105.590554 
L 375.772667 104.148402 
L 376.1113 114.294594 
L 376.449933 115.852039 
L 376.788567 115.814075 
L 377.465833 131.185571 
L 377.804467 124.834969 
L 378.481733 123.204721 
L 378.820367 122.062286 
L 379.159 123.441675 
L 379.497633 123.51433 
L 379.836267 124.284259 
L 380.1749 127.446265 
L 380.513533 126.315128 
L 380.852167 126.794693 
L 381.1908 126.054788 
L 381.529433 128.505244 
L 381.868067 127.478891 
L 382.2067 125.37459 
L 382.545333 118.262102 
L 382.883967 117.866018 
L 383.2226 114.613301 
L 383.561233 113.777513 
L 383.899866 114.809623 
L 384.2385 114.195342 
L 384.577133 114.38564 
L 384.915766 107.603346 
L 385.2544 107.230341 
L 385.593033 107.579507 
L 385.931666 108.662834 
L 386.2703 101.26871 
L 386.608933 98.888511 
L 386.947566 98.266437 
L 387.624833 82.686789 
L 387.963466 82.133536 
L 388.640733 85.397974 
L 388.979366 86.098529 
L 389.318 86.249035 
L 389.995266 86.230839 
L 390.3339 83.77858 
L 390.672533 84.619218 
L 391.011166 87.441224 
L 391.3498 88.184902 
L 391.688433 85.777614 
L 392.027066 89.025824 
L 392.3657 89.705368 
L 392.704333 92.403533 
L 393.042966 91.933986 
L 393.3816 91.822941 
L 393.720233 93.300667 
L 394.058866 92.417832 
L 394.3975 92.102034 
L 395.074766 96.896872 
L 395.4134 96.423641 
L 396.090666 114.300213 
L 396.4293 112.181963 
L 396.767933 111.498199 
L 397.106566 111.970949 
L 397.783833 116.420997 
L 398.122466 117.254215 
L 398.799733 123.110834 
L 399.138366 123.578444 
L 399.477 123.005079 
L 399.815633 124.757451 
L 400.154266 132.945256 
L 400.4929 134.425511 
L 400.831533 134.186316 
L 401.170166 140.036595 
L 401.5088 140.265362 
L 402.5247 134.31321 
L 402.863333 132.36952 
L 403.201966 131.651278 
L 403.5406 132.249894 
L 403.879233 132.121819 
L 404.217866 138.388306 
L 404.5565 141.520008 
L 404.895133 138.630878 
L 405.233766 139.682933 
L 405.5724 141.293673 
L 405.911033 136.831376 
L 406.249666 129.724104 
L 406.5883 138.574603 
L 406.926933 144.187798 
L 407.265566 144.881484 
L 407.942833 138.956706 
L 408.281466 146.523231 
L 408.6201 143.910168 
L 408.958733 144.406464 
L 409.297366 144.67472 
L 409.636 143.591404 
L 409.974633 141.398498 
L 410.313266 134.749548 
L 410.6519 136.068345 
L 410.990533 135.460028 
L 411.329166 125.969796 
L 411.667799 131.474374 
L 412.683699 137.965823 
L 413.022333 147.197513 
L 413.360966 146.535012 
L 413.699599 148.452529 
L 414.038233 147.536762 
L 414.376866 142.191079 
L 414.715499 139.106558 
L 415.054133 143.641494 
L 415.392766 139.844063 
L 415.731399 137.743739 
L 416.408666 132.383137 
L 417.085933 128.037643 
L 417.424566 126.21001 
L 417.763199 126.548583 
L 418.101833 127.112368 
L 419.117733 116.079846 
L 419.456366 115.963258 
L 419.794999 123.135722 
L 420.133633 125.297272 
L 420.472266 124.89681 
L 420.810899 123.27632 
L 421.149533 123.470753 
L 421.488166 125.631711 
L 421.826799 119.391832 
L 422.165433 125.353975 
L 422.504066 121.885609 
L 422.842699 120.757894 
L 423.181333 112.643518 
L 423.519966 113.906925 
L 423.858599 111.040469 
L 424.197233 113.379656 
L 424.535866 114.437292 
L 424.874499 119.421558 
L 425.213133 115.63258 
L 425.551766 124.029711 
L 425.890399 124.314937 
L 426.229033 123.668997 
L 426.567666 123.949932 
L 426.906299 122.489954 
L 427.244933 122.298853 
L 427.922199 125.653695 
L 428.260833 127.715443 
L 428.599466 124.390216 
L 429.276733 127.439681 
L 429.953999 124.007792 
L 430.292633 128.525613 
L 430.631266 127.7851 
L 430.969899 125.837831 
L 431.308533 125.43797 
L 431.647166 123.121128 
L 431.985799 130.985831 
L 432.324433 131.041073 
L 432.663066 131.505095 
L 433.001699 134.466328 
L 433.340333 132.018692 
L 433.678966 130.663084 
L 434.017599 130.409935 
L 434.356233 127.923945 
L 434.694866 128.821512 
L 435.033499 125.747542 
L 435.372133 129.275041 
L 435.710766 123.823734 
L 436.049399 126.19201 
L 436.388033 124.065569 
L 436.726666 126.677016 
L 437.065299 121.395907 
L 437.403933 122.326173 
L 437.742566 125.069678 
L 438.081199 122.830069 
L 438.419833 127.605067 
L 438.758466 127.725524 
L 439.097099 126.260039 
L 439.435732 123.208687 
L 439.774366 125.265971 
L 440.112999 123.074866 
L 440.451632 116.89577 
L 440.790266 115.794706 
L 441.128899 117.089523 
L 441.467532 117.554965 
L 441.806166 117.445589 
L 442.483432 103.330754 
L 442.822066 103.848519 
L 443.160699 100.179209 
L 443.499332 101.283641 
L 443.837966 106.412027 
L 444.515232 107.707813 
L 444.853866 105.486886 
L 445.192499 110.464679 
L 445.531132 106.463721 
L 446.208399 101.504188 
L 446.547032 101.209859 
L 446.885666 99.492297 
L 447.224299 99.232001 
L 447.562932 98.367008 
L 447.901566 94.265536 
L 448.240199 94.191313 
L 448.578832 88.068874 
L 448.917466 87.2514 
L 449.256099 86.784916 
L 449.594732 86.729953 
L 450.271999 83.355129 
L 450.610632 82.95379 
L 450.949266 84.445624 
L 451.626532 92.902854 
L 451.965166 93.976868 
L 452.303799 95.945164 
L 452.642432 93.886592 
L 452.981066 96.199318 
L 453.319699 104.931561 
L 453.658332 103.767938 
L 453.996966 98.708781 
L 454.335599 101.752481 
L 454.674232 103.360799 
L 455.012866 103.110942 
L 455.351499 96.295449 
L 455.690132 102.062728 
L 456.028766 110.175483 
L 456.706032 115.630676 
L 457.044666 114.450565 
L 457.383299 116.267407 
L 457.721932 113.456465 
L 458.060566 113.262014 
L 458.399199 113.868393 
L 458.737832 112.399634 
L 459.076466 111.776147 
L 459.415099 111.950888 
L 459.753732 111.846118 
L 460.092366 113.970588 
L 460.430999 113.814557 
L 461.108266 122.126636 
L 461.446899 118.009766 
L 461.785532 115.996248 
L 462.462799 117.632254 
L 462.801432 119.214677 
L 463.140066 119.197852 
L 463.478699 111.181699 
L 463.817332 112.139795 
L 464.155966 118.801257 
L 464.494599 119.116002 
L 464.833232 118.182509 
L 465.171866 125.021817 
L 465.510499 126.456635 
L 465.849132 128.555064 
L 466.187766 119.910751 
L 466.526399 119.954155 
L 466.865032 121.37415 
L 467.203665 121.280242 
L 467.880932 120.04217 
L 468.219565 126.837267 
L 468.558199 128.616817 
L 468.896832 135.671194 
L 469.235465 135.132202 
L 469.574099 140.440106 
L 469.912732 142.086137 
L 470.251365 149.424829 
L 470.589999 148.408042 
L 470.928632 146.70874 
L 471.267265 141.711685 
L 471.605899 146.699347 
L 471.944532 144.934064 
L 472.283165 148.550134 
L 472.621799 148.749557 
L 472.960432 149.939255 
L 473.299065 151.675089 
L 473.637699 151.607064 
L 473.976332 151.957369 
L 474.314965 146.843272 
L 474.653599 147.513965 
L 474.992232 147.310369 
L 475.330865 143.588519 
L 475.669499 141.734689 
L 476.008132 140.676169 
L 476.346765 143.750685 
L 476.685399 142.939135 
L 477.024032 139.620782 
L 477.362665 140.659367 
L 477.701299 140.049989 
L 478.039932 143.471163 
L 478.378565 136.718545 
L 478.717199 137.43089 
L 479.055832 130.989921 
L 480.071732 144.273889 
L 480.410365 138.779726 
L 480.748999 139.11789 
L 481.087632 142.39859 
L 481.426265 147.525738 
L 481.764899 141.237666 
L 482.103532 141.714168 
L 482.442165 136.450974 
L 482.780799 136.648631 
L 483.119432 134.404085 
L 483.458065 134.972578 
L 484.135332 147.836265 
L 484.473965 147.71209 
L 484.812599 146.715998 
L 485.151232 146.744489 
L 485.489865 142.548698 
L 485.828499 144.134707 
L 486.505765 135.728198 
L 487.183032 136.632994 
L 488.198932 134.803894 
L 488.537565 134.961827 
L 489.214832 138.485427 
L 490.569365 123.818087 
L 490.907999 123.113125 
L 491.585265 111.269566 
L 491.923899 113.475848 
L 492.262532 113.215308 
L 492.601165 113.590516 
L 492.939799 110.229526 
L 493.278432 116.881758 
L 493.617065 118.118983 
L 493.955699 115.90632 
L 494.294332 117.044245 
L 494.632965 116.649916 
L 495.310232 113.869285 
L 495.648865 122.067045 
L 495.987498 121.026924 
L 496.326132 120.405668 
L 496.664765 126.492756 
L 497.003398 124.444157 
L 497.342032 128.790229 
L 497.680665 131.456312 
L 498.019298 131.421134 
L 498.696565 137.605691 
L 499.373832 132.593708 
L 499.712465 133.101017 
L 500.051098 127.556603 
L 500.389732 125.124873 
L 500.728365 124.018698 
L 501.066998 126.209519 
L 501.405632 125.72339 
L 501.744265 131.841269 
L 502.082898 129.785317 
L 502.421532 131.175208 
L 502.760165 133.923234 
L 503.098798 134.902205 
L 503.437432 129.8502 
L 503.776065 123.086688 
L 504.114698 122.314702 
L 504.453332 114.083104 
L 504.791965 112.832738 
L 505.130598 113.565948 
L 505.469232 113.36025 
L 505.807865 106.572247 
L 506.146498 106.213459 
L 506.485132 104.43509 
L 506.823765 98.631968 
L 507.162398 99.101695 
L 507.501032 100.870306 
L 507.839665 97.700843 
L 508.178298 99.411555 
L 508.516932 95.340263 
L 508.855565 97.214709 
L 509.194198 96.69154 
L 509.532832 97.331677 
L 510.210098 96.9457 
L 510.548732 97.205846 
L 510.887365 104.79535 
L 511.225998 103.164077 
L 511.564632 104.00533 
L 511.903265 100.554423 
L 512.241898 110.922917 
L 512.580532 112.156692 
L 512.919165 108.422817 
L 513.257798 113.220929 
L 513.596432 111.071773 
L 513.935065 111.644782 
L 514.273698 108.409709 
L 514.612332 113.95548 
L 514.950965 114.002716 
L 515.628232 116.209872 
L 515.966865 115.393411 
L 516.644132 125.889255 
L 516.982765 126.545999 
L 517.321398 133.602791 
L 517.660032 127.152264 
L 517.998665 127.904157 
L 518.675932 124.376304 
L 519.014565 120.168449 
L 519.353198 126.033075 
L 519.691832 125.645197 
L 520.369098 125.751498 
L 520.707732 125.919479 
L 521.046365 129.131933 
L 521.723632 127.811017 
L 522.062265 131.089455 
L 522.400898 120.983214 
L 522.739531 117.862983 
L 523.078165 117.903688 
L 523.416798 112.29047 
L 523.755431 116.810418 
L 524.094065 117.109267 
L 524.432698 122.077802 
L 524.771331 117.334398 
L 525.109965 117.42086 
L 525.448598 113.116787 
L 525.787231 112.306046 
L 526.125865 111.935531 
L 526.803131 103.913226 
L 527.141765 103.584478 
L 527.480398 98.557352 
L 527.819031 98.394174 
L 528.157665 99.085708 
L 528.496298 101.84377 
L 528.834931 102.33977 
L 529.173565 102.273701 
L 529.512198 95.203396 
L 529.850831 95.112184 
L 530.189465 103.416781 
L 530.528098 104.20025 
L 530.866731 112.400301 
L 531.205365 102.175189 
L 531.543998 102.243558 
L 531.882631 102.112029 
L 532.221265 96.559516 
L 532.559898 96.334444 
L 532.898531 95.45249 
L 533.575798 95.499666 
L 533.914431 91.306569 
L 534.253065 90.304638 
L 534.591698 84.693638 
L 534.930331 83.826974 
L 535.268965 83.6374 
L 535.607598 91.880625 
L 535.946231 92.45044 
L 536.623498 92.385247 
L 536.962131 91.172813 
L 537.300765 91.620476 
L 537.639398 89.144308 
L 537.978031 88.798487 
L 538.316665 87.384788 
L 538.655298 91.86706 
L 538.993931 91.821901 
L 539.332565 91.404871 
L 539.671198 91.454793 
L 540.009831 91.927406 
L 540.348465 82.953285 
L 540.687098 82.445379 
L 541.025731 73.41473 
L 541.364365 74.16889 
L 541.702998 74.447842 
L 542.041631 75.235626 
L 542.380265 74.947379 
L 542.718898 81.788408 
L 543.057531 82.885579 
L 543.396165 93.510651 
L 544.412065 93.637786 
L 544.750698 92.801122 
L 545.427965 93.737926 
L 545.766598 85.886805 
L 546.105231 92.789119 
L 546.443865 93.350685 
L 546.782498 95.310308 
L 547.459765 93.843589 
L 547.798398 94.862225 
L 548.137031 95.181926 
L 548.475665 96.182444 
L 548.814298 90.347145 
L 549.152931 90.874851 
L 549.491565 90.541703 
L 549.830198 90.747622 
L 550.168831 90.425628 
L 550.507464 90.809807 
L 551.184731 92.326505 
L 551.861998 94.826048 
L 552.200631 94.452874 
L 552.539264 94.594138 
L 552.877898 87.743595 
L 553.216531 95.191963 
L 553.555164 84.696091 
L 553.893798 91.317533 
L 554.232431 91.36615 
L 554.571064 91.865599 
L 554.909698 91.792848 
L 555.248331 91.286622 
L 555.586964 93.90479 
L 555.925598 93.61425 
L 556.264231 87.115809 
L 556.602864 86.702129 
L 556.941498 90.963674 
L 557.280131 91.132381 
L 557.618764 91.80866 
L 557.957398 91.333375 
L 558.296031 92.448513 
L 558.973298 89.684785 
L 559.311931 89.411969 
L 559.650564 89.448534 
L 559.989198 88.267022 
L 560.327831 88.570004 
L 560.666464 90.331582 
L 561.343731 88.206899 
L 561.682364 85.689015 
L 562.020998 84.702291 
L 562.359631 84.720757 
L 563.036898 84.327896 
L 563.375531 75.868353 
L 563.714164 76.104823 
L 564.052798 69.469568 
L 564.391431 68.956113 
L 564.730064 69.376349 
L 565.068698 73.775396 
L 565.407331 74.060996 
L 565.745964 71.552712 
L 566.084598 71.744899 
L 566.423231 74.490438 
L 566.761864 74.311632 
L 567.100498 68.190326 
L 567.439131 68.292304 
L 567.777764 67.936946 
L 568.455031 66.96 
L 569.132298 67.330943 
L 569.470931 69.175881 
L 569.809564 78.270508 
L 570.148198 78.643029 
L 570.486831 78.79274 
L 570.825464 76.625166 
L 571.164098 81.254632 
L 571.502731 83.598867 
L 571.841364 83.777315 
L 572.518631 83.111391 
L 572.857264 83.323197 
L 573.195898 83.721023 
L 573.534531 83.877679 
L 573.873164 83.708487 
L 574.211798 83.741092 
L 574.550431 84.007214 
L 574.889064 83.332037 
L 575.227698 78.94842 
L 575.566331 78.622282 
L 575.904964 78.087405 
L 576.243598 77.971803 
L 576.582231 74.117735 
L 576.920864 74.003744 
L 577.259498 73.646805 
L 577.598131 73.622112 
L 577.936764 83.205244 
L 578.275397 82.566288 
L 578.614031 81.618603 
L 578.952664 83.623548 
L 579.291297 83.232344 
L 579.629931 80.413086 
L 579.968564 71.356995 
L 580.307197 70.899725 
L 580.645831 74.479598 
L 580.984464 76.540916 
L 581.323097 71.941906 
L 581.661731 72.30364 
L 582.000364 72.454307 
L 582.338997 72.483042 
L 582.677631 72.364783 
L 583.016264 74.380596 
L 583.354897 74.026935 
L 583.693531 78.21321 
L 584.032164 78.074396 
L 584.370797 80.164396 
L 585.048064 79.903304 
L 585.386697 81.32515 
L 585.725331 81.264397 
L 586.063964 83.629584 
L 586.741231 83.952256 
L 587.079864 84.763347 
L 587.418497 85.046815 
L 587.757131 84.979905 
L 588.095764 75.239888 
L 588.434397 77.913389 
L 588.773031 78.72401 
L 589.111664 76.413945 
L 589.450297 77.027757 
L 589.788931 77.175396 
L 590.127564 77.080928 
L 590.466197 82.586533 
L 590.804831 80.98988 
L 591.143464 80.401273 
L 591.820731 82.177269 
L 592.159364 81.824666 
L 592.497997 82.740689 
L 592.836631 82.863992 
L 593.175264 80.793766 
L 593.513897 80.9525 
L 593.852531 81.588022 
L 594.191164 81.891554 
L 594.529797 80.297739 
L 594.868431 80.265889 
L 595.207064 80.506043 
L 595.545697 79.016784 
L 595.884331 83.880478 
L 596.222964 85.368175 
L 596.561597 85.510108 
L 596.900231 85.299028 
L 597.238864 84.84626 
L 597.577497 87.197421 
L 597.916131 87.010428 
L 598.254764 89.947053 
L 598.593397 89.115892 
L 598.932031 90.232611 
L 599.270664 90.457408 
L 599.609297 92.861684 
L 599.947931 92.674546 
L 600.286564 92.801955 
L 600.625197 87.689867 
L 600.963831 88.887443 
L 601.641097 87.060023 
L 601.979731 84.039687 
L 602.318364 87.055643 
L 602.656997 94.266462 
L 602.995631 94.004785 
L 603.334264 94.188071 
L 603.672897 94.857849 
L 604.011531 90.657349 
L 604.688797 90.226396 
L 605.027431 93.80483 
L 605.366064 93.340569 
L 605.704697 93.456837 
L 606.043331 91.839134 
L 606.381964 89.592352 
L 606.720597 89.089554 
L 607.05923 90.961266 
L 607.397864 91.573758 
L 607.736497 90.27586 
L 608.07513 92.848237 
L 608.413764 98.688008 
L 608.752397 98.536447 
L 609.09103 96.536704 
L 609.429664 97.73112 
L 609.768297 95.026223 
L 610.10693 95.616969 
L 610.445564 95.851763 
L 610.784197 95.632264 
L 611.12283 92.047778 
L 611.461464 91.79413 
L 611.800097 92.109943 
L 612.13873 91.735549 
L 612.477364 89.033885 
L 612.815997 80.613065 
L 613.15463 80.846088 
L 613.493264 81.242269 
L 613.831897 80.929692 
L 614.17053 82.044996 
L 614.509164 82.297086 
L 614.847797 82.375457 
L 615.18643 83.465174 
L 615.525064 83.843034 
L 615.863697 83.997632 
L 616.20233 81.138595 
L 616.540964 79.710403 
L 616.879597 81.012164 
L 617.21823 79.279277 
L 617.895497 78.35049 
L 618.23413 75.820429 
L 618.572764 69.565465 
L 618.911397 68.379286 
L 619.25003 71.643467 
L 619.588664 70.508328 
L 619.927297 74.241301 
L 620.26593 74.050949 
L 620.604564 74.813993 
L 620.943197 74.918116 
L 621.28183 74.791768 
L 621.620464 74.961468 
L 621.959097 75.498488 
L 622.29773 76.62034 
L 622.636364 76.273187 
L 622.636364 76.273187 
" style="fill:none;stroke:#0000ff;stroke-linecap:square;stroke-width:1.5;"/>
   </g>
   <g id="patch_3">
    <path d="M 90 384.48 
L 90 51.84 
" style="fill:none;stroke:#000000;stroke-linecap:square;stroke-linejoin:miter;stroke-width:0.8;"/>
   </g>
   <g id="patch_4">
    <path d="M 648 384.48 
L 648 51.84 
" style="fill:none;stroke:#000000;stroke-linecap:square;stroke-linejoin:miter;stroke-width:0.8;"/>
   </g>
   <g id="patch_5">
    <path d="M 90 384.48 
L 648 384.48 
" style="fill:none;stroke:#000000;stroke-linecap:square;stroke-linejoin:miter;stroke-width:0.8;"/>
   </g>
   <g id="patch_6">
    <path d="M 90 51.84 
L 648 51.84 
" style="fill:none;stroke:#000000;stroke-linecap:square;stroke-linejoin:miter;stroke-width:0.8;"/>
   </g>
   <g id="text_17">
    <!-- window-open-v2_2025-08-01_12-19-49 | Smoothed30Reward -->
    <g transform="translate(154.377812 45.84)scale(0.14 -0.14)">
     <defs>
      <path d="M 9.421875 54.6875 
L 18.40625 54.6875 
L 18.40625 0 
L 9.421875 0 
z
M 9.421875 75.984375 
L 18.40625 75.984375 
L 18.40625 64.59375 
L 9.421875 64.59375 
z
" id="DejaVuSans-105"/>
      <path d="M 54.890625 33.015625 
L 54.890625 0 
L 45.90625 0 
L 45.90625 32.71875 
Q 45.90625 40.484375 42.875 44.328125 
Q 39.84375 48.1875 33.796875 48.1875 
Q 26.515625 48.1875 22.3125 43.546875 
Q 18.109375 38.921875 18.109375 30.90625 
L 18.109375 0 
L 9.078125 0 
L 9.078125 54.6875 
L 18.109375 54.6875 
L 18.109375 46.1875 
Q 21.34375 51.125 25.703125 53.5625 
Q 30.078125 56 35.796875 56 
Q 45.21875 56 50.046875 50.171875 
Q 54.890625 44.34375 54.890625 33.015625 
z
" id="DejaVuSans-110"/>
      <path d="M 4.890625 31.390625 
L 31.203125 31.390625 
L 31.203125 23.390625 
L 4.890625 23.390625 
z
" id="DejaVuSans-45"/>
      <path d="M 2.984375 54.6875 
L 12.5 54.6875 
L 29.59375 8.796875 
L 46.6875 54.6875 
L 56.203125 54.6875 
L 35.6875 0 
L 23.484375 0 
z
" id="DejaVuSans-118"/>
      <path d="M 50.984375 -16.609375 
L 50.984375 -23.578125 
L -0.984375 -23.578125 
L -0.984375 -16.609375 
z
" id="DejaVuSans-95"/>
      <path d="M 31.78125 34.625 
Q 24.75 34.625 20.71875 30.859375 
Q 16.703125 27.09375 16.703125 20.515625 
Q 16.703125 13.921875 20.71875 10.15625 
Q 24.75 6.390625 31.78125 6.390625 
Q 38.8125 6.390625 42.859375 10.171875 
Q 46.921875 13.96875 46.921875 20.515625 
Q 46.921875 27.09375 42.890625 30.859375 
Q 38.875 34.625 31.78125 34.625 
z
M 21.921875 38.8125 
Q 15.578125 40.375 12.03125 44.71875 
Q 8.5 49.078125 8.5 55.328125 
Q 8.5 64.0625 14.71875 69.140625 
Q 20.953125 74.21875 31.78125 74.21875 
Q 42.671875 74.21875 48.875 69.140625 
Q 55.078125 64.0625 55.078125 55.328125 
Q 55.078125 49.078125 51.53125 44.71875 
Q 48 40.375 41.703125 38.8125 
Q 48.828125 37.15625 52.796875 32.3125 
Q 56.78125 27.484375 56.78125 20.515625 
Q 56.78125 9.90625 50.3125 4.234375 
Q 43.84375 -1.421875 31.78125 -1.421875 
Q 19.734375 -1.421875 13.25 4.234375 
Q 6.78125 9.90625 6.78125 20.515625 
Q 6.78125 27.484375 10.78125 32.3125 
Q 14.796875 37.15625 21.921875 38.8125 
z
M 18.3125 54.390625 
Q 18.3125 48.734375 21.84375 45.5625 
Q 25.390625 42.390625 31.78125 42.390625 
Q 38.140625 42.390625 41.71875 45.5625 
Q 45.3125 48.734375 45.3125 54.390625 
Q 45.3125 60.0625 41.71875 63.234375 
Q 38.140625 66.40625 31.78125 66.40625 
Q 25.390625 66.40625 21.84375 63.234375 
Q 18.3125 60.0625 18.3125 54.390625 
z
" id="DejaVuSans-56"/>
      <path d="M 10.984375 1.515625 
L 10.984375 10.5 
Q 14.703125 8.734375 18.5 7.8125 
Q 22.3125 6.890625 25.984375 6.890625 
Q 35.75 6.890625 40.890625 13.453125 
Q 46.046875 20.015625 46.78125 33.40625 
Q 43.953125 29.203125 39.59375 26.953125 
Q 35.25 24.703125 29.984375 24.703125 
Q 19.046875 24.703125 12.671875 31.3125 
Q 6.296875 37.9375 6.296875 49.421875 
Q 6.296875 60.640625 12.9375 67.421875 
Q 19.578125 74.21875 30.609375 74.21875 
Q 43.265625 74.21875 49.921875 64.515625 
Q 56.59375 54.828125 56.59375 36.375 
Q 56.59375 19.140625 48.40625 8.859375 
Q 40.234375 -1.421875 26.421875 -1.421875 
Q 22.703125 -1.421875 18.890625 -0.6875 
Q 15.09375 0.046875 10.984375 1.515625 
z
M 30.609375 32.421875 
Q 37.25 32.421875 41.125 36.953125 
Q 45.015625 41.5 45.015625 49.421875 
Q 45.015625 57.28125 41.125 61.84375 
Q 37.25 66.40625 30.609375 66.40625 
Q 23.96875 66.40625 20.09375 61.84375 
Q 16.21875 57.28125 16.21875 49.421875 
Q 16.21875 41.5 20.09375 36.953125 
Q 23.96875 32.421875 30.609375 32.421875 
z
" id="DejaVuSans-57"/>
      <path id="DejaVuSans-32"/>
      <path d="M 21 76.421875 
L 21 -23.578125 
L 12.703125 -23.578125 
L 12.703125 76.421875 
z
" id="DejaVuSans-124"/>
     </defs>
     <use xlink:href="#DejaVuSans-119"/>
     <use x="81.787109" xlink:href="#DejaVuSans-105"/>
     <use x="109.570312" xlink:href="#DejaVuSans-110"/>
     <use x="172.949219" xlink:href="#DejaVuSans-100"/>
     <use x="236.425781" xlink:href="#DejaVuSans-111"/>
     <use x="297.607422" xlink:href="#DejaVuSans-119"/>
     <use x="379.394531" xlink:href="#DejaVuSans-45"/>
     <use x="417.353516" xlink:href="#DejaVuSans-111"/>
     <use x="478.535156" xlink:href="#DejaVuSans-112"/>
     <use x="542.011719" xlink:href="#DejaVuSans-101"/>
     <use x="603.535156" xlink:href="#DejaVuSans-110"/>
     <use x="666.914062" xlink:href="#DejaVuSans-45"/>
     <use x="700.373047" xlink:href="#DejaVuSans-118"/>
     <use x="759.552734" xlink:href="#DejaVuSans-50"/>
     <use x="823.175781" xlink:href="#DejaVuSans-95"/>
     <use x="873.175781" xlink:href="#DejaVuSans-50"/>
     <use x="936.798828" xlink:href="#DejaVuSans-48"/>
     <use x="1000.421875" xlink:href="#DejaVuSans-50"/>
     <use x="1064.044922" xlink:href="#DejaVuSans-53"/>
     <use x="1127.667969" xlink:href="#DejaVuSans-45"/>
     <use x="1163.751953" xlink:href="#DejaVuSans-48"/>
     <use x="1227.375" xlink:href="#DejaVuSans-56"/>
     <use x="1290.998047" xlink:href="#DejaVuSans-45"/>
     <use x="1327.082031" xlink:href="#DejaVuSans-48"/>
     <use x="1390.705078" xlink:href="#DejaVuSans-49"/>
     <use x="1454.328125" xlink:href="#DejaVuSans-95"/>
     <use x="1504.328125" xlink:href="#DejaVuSans-49"/>
     <use x="1567.951172" xlink:href="#DejaVuSans-50"/>
     <use x="1631.574219" xlink:href="#DejaVuSans-45"/>
     <use x="1667.658203" xlink:href="#DejaVuSans-49"/>
     <use x="1731.28125" xlink:href="#DejaVuSans-57"/>
     <use x="1794.904297" xlink:href="#DejaVuSans-45"/>
     <use x="1830.988281" xlink:href="#DejaVuSans-52"/>
     <use x="1894.611328" xlink:href="#DejaVuSans-57"/>
     <use x="1958.234375" xlink:href="#DejaVuSans-32"/>
     <use x="1990.021484" xlink:href="#DejaVuSans-124"/>
     <use x="2023.712891" xlink:href="#DejaVuSans-32"/>
     <use x="2055.5" xlink:href="#DejaVuSans-83"/>
     <use x="2118.976562" xlink:href="#DejaVuSans-109"/>
     <use x="2216.388672" xlink:href="#DejaVuSans-111"/>
     <use x="2277.570312" xlink:href="#DejaVuSans-111"/>
     <use x="2338.751953" xlink:href="#DejaVuSans-116"/>
     <use x="2377.960938" xlink:href="#DejaVuSans-104"/>
     <use x="2441.339844" xlink:href="#DejaVuSans-101"/>
     <use x="2502.863281" xlink:href="#DejaVuSans-100"/>
     <use x="2566.339844" xlink:href="#DejaVuSans-51"/>
     <use x="2629.962891" xlink:href="#DejaVuSans-48"/>
     <use x="2693.585938" xlink:href="#DejaVuSans-82"/>
     <use x="2758.568359" xlink:href="#DejaVuSans-101"/>
     <use x="2820.091797" xlink:href="#DejaVuSans-119"/>
     <use x="2901.878906" xlink:href="#DejaVuSans-97"/>
     <use x="2963.158203" xlink:href="#DejaVuSans-114"/>
     <use x="3002.521484" xlink:href="#DejaVuSans-100"/>
    </g>
   </g>
   <g id="legend_1">
    <g id="patch_7">
     <path d="M 97 74.518125 
L 230.053125 74.518125 
Q 232.053125 74.518125 232.053125 72.518125 
L 232.053125 58.84 
Q 232.053125 56.84 230.053125 56.84 
L 97 56.84 
Q 95 56.84 95 58.84 
L 95 72.518125 
Q 95 74.518125 97 74.518125 
z
" style="fill:#ffffff;opacity:0.8;stroke:#cccccc;stroke-linejoin:miter;"/>
    </g>
    <g id="line2d_30">
     <path d="M 99 64.938438 
L 119 64.938438 
" style="fill:none;stroke:#0000ff;stroke-linecap:square;stroke-width:1.5;"/>
    </g>
    <g id="line2d_31"/>
    <g id="text_18">
     <!-- Smoothed30Reward -->
     <g transform="translate(127 68.438438)scale(0.1 -0.1)">
      <use xlink:href="#DejaVuSans-83"/>
      <use x="63.476562" xlink:href="#DejaVuSans-109"/>
      <use x="160.888672" xlink:href="#DejaVuSans-111"/>
      <use x="222.070312" xlink:href="#DejaVuSans-111"/>
      <use x="283.251953" xlink:href="#DejaVuSans-116"/>
      <use x="322.460938" xlink:href="#DejaVuSans-104"/>
      <use x="385.839844" xlink:href="#DejaVuSans-101"/>
      <use x="447.363281" xlink:href="#DejaVuSans-100"/>
      <use x="510.839844" xlink:href="#DejaVuSans-51"/>
      <use x="574.462891" xlink:href="#DejaVuSans-48"/>
      <use x="638.085938" xlink:href="#DejaVuSans-82"/>
      <use x="703.068359" xlink:href="#DejaVuSans-101"/>
      <use x="764.591797" xlink:href="#DejaVuSans-119"/>
      <use x="846.378906" xlink:href="#DejaVuSans-97"/>
      <use x="907.658203" xlink:href="#DejaVuSans-114"/>
      <use x="947.021484" xlink:href="#DejaVuSans-100"/>
     </g>
    </g>
   </g>
  </g>
 </g>
 <defs>
  <clipPath id="p661bdda44b">
   <rect height="332.64" width="558" x="90" y="51.84"/>
  </clipPath>
 </defs>
</svg>
